<svg width="2560" height="810" viewBox="0 0 2560 810" fill="none" xmlns="http://www.w3.org/2000/svg"><g clip-path="url(#clip0_174_351)"><path d="M2565.85.12H-14.145v808.8H2565.85V.12z" fill="url(#paint0_radial_174_351)"/><path style="mix-blend-mode:screen" opacity=".17" fill-rule="evenodd" clip-rule="evenodd" d="M2672.49 366.082c-27.52-23.94-276.92-89.534-383.77-82.599-106.86 6.936-107.5 87.533-203.91 92.264-96.4 4.732-214.22-33.1-351.26-29.541-137.04 3.558-169.25 83.023-223.6 124.919-54.36 41.896-293.65-13.568-442.09 22.343-148.432 35.911-112.312 118.53-188.895 155.573-76.583 37.043-141.9.222-251.894 33.989C517.077 716.798 441.01 831.668 441.01 831.668l2231.7-8.088-.22-457.498z" fill="url(#paint1_radial_174_351)"/><path style="mix-blend-mode:screen" opacity=".17" fill-rule="evenodd" clip-rule="evenodd" d="M2662.65 397.706c-36.55-21.09-307.71-63.531-409.92-47.315-102.21 16.217-70.65 95.459-163.53 108.703s-223.6-13.608-356.9 2.022c-133.3 15.63-133.3 96.49-169.85 142.43-36.55 45.939-293.69 12.556-425.36 60.842-131.66 48.285-63.03 126.314-123.49 169.443-60.46 43.129-139.279 12.739-233.879 55.605-94.6 42.867-123.496 162.424-123.496 162.424L2844.92 847.055l-182.27-449.349z" fill="url(#paint2_radial_174_351)"/><path style="mix-blend-mode:screen" opacity=".17" fill-rule="evenodd" clip-rule="evenodd" d="M-373.152 381.651c27.52 23.921 276.92 89.535 383.818 82.599 106.898-6.935 107.5-87.532 203.863-92.264 96.363-4.731 214.269 33.1 351.31 29.542 137.041-3.559 169.205-83.024 223.6-124.92 54.395-41.895 293.521 13.568 442.081-22.242 148.57-35.809 112.27-118.529 188.86-155.572 76.58-37.043 141.9-.223 251.72-33.99s186.28-148.657 186.28-148.657l-2231.704 8.087.172 457.417z" fill="url(#paint3_radial_174_351)"/><path style="mix-blend-mode:screen" opacity=".17" fill-rule="evenodd" clip-rule="evenodd" d="M-363.305 350.027c36.593 21.09 307.708 63.531 409.919 47.315 102.211-16.217 70.692-95.479 163.4-108.622 92.708-13.143 223.6 13.628 356.9-2.022 133.3-15.65 133.3-96.49 169.807-142.43 36.507-45.94 293.729-12.556 425.359-60.842 131.62-48.285 63.08-126.314 123.49-169.463 60.42-43.15 139.32-12.638 233.92-55.403s123.5-162.427 123.5-162.427L-545.625-99.16l182.32 449.187z" fill="url(#paint4_radial_174_351)"/></g><defs><radialGradient id="paint0_radial_174_351" cx="0" cy="0" r="1" gradientUnits="userSpaceOnUse" gradientTransform="matrix(2351.15 0 0 1105.59 2252.69 58.313)"><stop stop-color="#00ACE4"/><stop offset="1" stop-color="#144C93"/></radialGradient><radialGradient id="paint1_radial_174_351" cx="0" cy="0" r="1" gradientUnits="userSpaceOnUse" gradientTransform="matrix(1595.17 0 0 750.101 2719.75 204.019)"><stop stop-color="#9B79D6"/><stop offset="1" stop-color="#3B5DAF"/></radialGradient><radialGradient id="paint2_radial_174_351" cx="0" cy="0" r="1" gradientUnits="userSpaceOnUse" gradientTransform="matrix(795703.08537 -72542.35966 24047.83812 263776.07621 1628100 4790.57)"><stop stop-color="#9B79D6"/><stop offset="1" stop-color="#3B5DAF"/></radialGradient><radialGradient id="paint3_radial_174_351" cx="0" cy="0" r="1" gradientUnits="userSpaceOnUse" gradientTransform="matrix(-827894 0 0 -203519 -728743 -24682.3)"><stop stop-color="#9B79D6"/><stop offset="1" stop-color="#3B5DAF"/></radialGradient><radialGradient id="paint4_radial_174_351" cx="0" cy="0" r="1" gradientUnits="userSpaceOnUse" gradientTransform="rotate(174.791 -406089.29 5182.278) scale(798972 264771)"><stop stop-color="#9B79D6"/><stop offset="1" stop-color="#3B5DAF"/></radialGradient><clipPath id="clip0_174_351"><path fill="#fff" transform="translate(-336 -101)" d="M0 0h3225v1011H0z"/></clipPath></defs></svg>