<svg xmlns="http://www.w3.org/2000/svg" xmlns:xlink="http://www.w3.org/1999/xlink" viewBox="0 0 501.44 360.87"><defs><style>.cls-1{opacity:0.54;fill:url(#Безымянный_градиент_485);}.cls-2{fill:url(#Безымянный_градиент_238);}.cls-3{fill:#c54e2d;}.cls-4{fill:#d36531;}.cls-5{fill:#e9e9e9;}.cls-6{fill:#fff;}.cls-7{fill:url(#Безымянный_градиент_238-2);}.cls-8{fill:url(#Безымянный_градиент_276);}.cls-9{fill:url(#Безымянный_градиент_304);}.cls-10{fill:url(#Безымянный_градиент_308);}.cls-11{fill:#384ede;}.cls-12{fill:#4365ec;}.cls-13{fill:url(#Безымянный_градиент_357);}.cls-14{fill:url(#Безымянный_градиент_331);}.cls-15{fill:url(#Безымянный_градиент_320);}.cls-16{fill:url(#Безымянный_градиент_320-2);}.cls-17{fill:url(#Безымянный_градиент_320-3);}.cls-18{fill:url(#Безымянный_градиент_320-4);}.cls-19{fill:url(#Безымянный_градиент_477);}.cls-20{fill:url(#Безымянный_градиент_320-5);}.cls-21{fill:url(#Безымянный_градиент_320-6);}.cls-22{fill:url(#Безымянный_градиент_41);}.cls-23{fill:url(#Безымянный_градиент_15);}.cls-24{fill:url(#Безымянный_градиент_41-2);}.cls-25{fill:url(#Безымянный_градиент_474);}.cls-26{fill:url(#Безымянный_градиент_41-3);}.cls-27{fill:url(#Безымянный_градиент_41-4);}.cls-28{fill:url(#Безымянный_градиент_474-2);}.cls-29{fill:url(#Безымянный_градиент_591);}.cls-30{fill:url(#Безымянный_градиент_420);}.cls-31{fill:url(#Безымянный_градиент_709);}.cls-32{fill:url(#Безымянный_градиент_46);}.cls-33{fill:url(#Безымянный_градиент_467);}.cls-34{fill:url(#Безымянный_градиент_496);}.cls-35{fill:url(#Безымянный_градиент_489);}.cls-36{fill:url(#Безымянный_градиент_703);}.cls-37{fill:url(#Безымянный_градиент_580);}.cls-38{fill:url(#Безымянный_градиент_427);}.cls-39{fill:url(#Безымянный_градиент_662);}.cls-40{fill:url(#Безымянный_градиент_320-7);}.cls-41{fill:url(#Безымянный_градиент_320-8);}.cls-42{fill:url(#Безымянный_градиент_474-3);}.cls-43{fill:url(#Безымянный_градиент_474-4);}.cls-44{fill:url(#Безымянный_градиент_378);}.cls-45{fill:url(#Безымянный_градиент_502);}</style><linearGradient id="Безымянный_градиент_485" x1="58.24" y1="353.93" x2="437.4" y2="352.64" gradientUnits="userSpaceOnUse"><stop offset="0" stop-color="#012c5c" stop-opacity="0.5"/><stop offset="0.18"/><stop offset="0.19" stop-color="#00060c" stop-opacity="0.93"/><stop offset="0.23" stop-color="#011b38" stop-opacity="0.69"/><stop offset="0.28" stop-color="#012853" stop-opacity="0.55"/><stop offset="0.32" stop-color="#012c5c" stop-opacity="0.5"/><stop offset="0.39"/><stop offset="0.59" stop-color="#012a57" stop-opacity="0.5"/><stop offset="0.68"/><stop offset="0.89" stop-color="#012853" stop-opacity="0.5"/><stop offset="0.96"/></linearGradient><linearGradient id="Безымянный_градиент_238" x1="254.59" y1="364.76" x2="255.44" y2="283.18" gradientUnits="userSpaceOnUse"><stop offset="0" stop-color="#ab2e27"/><stop offset="0.3" stop-color="#bc4629"/><stop offset="0.75" stop-color="#d0642b"/><stop offset="1" stop-color="#d86f2c"/></linearGradient><linearGradient id="Безымянный_градиент_238-2" x1="213.45" y1="317.36" x2="189.56" y2="310.1" xlink:href="#Безымянный_градиент_238"/><linearGradient id="Безымянный_градиент_276" x1="226.9" y1="278.54" x2="279.06" y2="281.29" gradientUnits="userSpaceOnUse"><stop offset="0" stop-color="#8b2e18"/><stop offset="0.14" stop-color="#9c411f"/><stop offset="0.53" stop-color="#c67132"/><stop offset="0.83" stop-color="#e08f3e"/><stop offset="1" stop-color="#ea9a42"/></linearGradient><linearGradient id="Безымянный_градиент_304" x1="358.99" y1="362.57" x2="360.58" y2="177.1" gradientUnits="userSpaceOnUse"><stop offset="0" stop-color="#4f2ea6"/><stop offset="0.04" stop-color="#382290"/><stop offset="1" stop-color="#56b3ef"/></linearGradient><linearGradient id="Безымянный_градиент_308" x1="331.36" y1="276.56" x2="286.33" y2="258.8" gradientUnits="userSpaceOnUse"><stop offset="0" stop-color="#382290"/><stop offset="1" stop-color="#56b3ef"/></linearGradient><linearGradient id="Безымянный_градиент_357" x1="469.01" y1="362.13" x2="468.38" y2="147.83" gradientUnits="userSpaceOnUse"><stop offset="0" stop-color="#e08327"/><stop offset="1" stop-color="#ffd115"/></linearGradient><linearGradient id="Безымянный_градиент_331" x1="436.38" y1="243.19" x2="378.65" y2="209.02" gradientUnits="userSpaceOnUse"><stop offset="0" stop-color="#e08327"/><stop offset="1" stop-color="#ffce00"/></linearGradient><linearGradient id="Безымянный_градиент_320" x1="333.23" y1="182.49" x2="344.94" y2="166" gradientUnits="userSpaceOnUse"><stop offset="0"/><stop offset="0.17" stop-color="#00050a"/><stop offset="0.45" stop-color="#001224"/><stop offset="0.81" stop-color="#01264f"/><stop offset="1" stop-color="#013369"/></linearGradient><linearGradient id="Безымянный_градиент_320-2" x1="323.79" y1="182.94" x2="336.61" y2="164.88" xlink:href="#Безымянный_градиент_320"/><linearGradient id="Безымянный_градиент_320-3" x1="154.16" y1="201.96" x2="77.69" y2="234.38" gradientTransform="matrix(-0.82, 0, 0, 1, 345.23, 0)" xlink:href="#Безымянный_градиент_320"/><linearGradient id="Безымянный_градиент_320-4" x1="151.92" y1="264.78" x2="109.79" y2="243.11" gradientTransform="matrix(-0.82, -0.04, -0.05, 1, 357.4, 6.17)" xlink:href="#Безымянный_градиент_320"/><radialGradient id="Безымянный_градиент_477" cx="235.41" cy="6.36" r="171.88" gradientUnits="userSpaceOnUse"><stop offset="0" stop-color="#012a56"/><stop offset="0.69" stop-color="#000e1c"/><stop offset="1"/></radialGradient><linearGradient id="Безымянный_градиент_320-5" x1="117.17" y1="281.87" x2="110.41" y2="260.34" gradientTransform="matrix(-0.82, 0, 0, 1, 345.23, 0)" xlink:href="#Безымянный_градиент_320"/><linearGradient id="Безымянный_градиент_320-6" x1="134.68" y1="293.41" x2="107.11" y2="260.46" gradientTransform="matrix(-0.82, 0, 0, 1, 345.23, 0)" xlink:href="#Безымянный_градиент_320"/><linearGradient id="Безымянный_градиент_41" y1="230.46" x2="189.33" y2="230.46" gradientUnits="userSpaceOnUse"><stop offset="0"/><stop offset="1" stop-color="#013369"/></linearGradient><linearGradient id="Безымянный_градиент_15" x1="443.96" y1="111.31" x2="455.41" y2="108.42" gradientUnits="userSpaceOnUse"><stop offset="0"/><stop offset="0.7" stop-color="#01244a"/><stop offset="1" stop-color="#013369"/></linearGradient><linearGradient id="Безымянный_градиент_41-2" x1="439.01" y1="114.73" x2="452.7" y2="114.07" xlink:href="#Безымянный_градиент_41"/><radialGradient id="Безымянный_градиент_474" cx="380.02" cy="86.09" r="103.81" gradientUnits="userSpaceOnUse"><stop offset="0" stop-color="#012348"/><stop offset="0.37" stop-color="#001224"/><stop offset="0.61" stop-color="#000912"/><stop offset="1" stop-color="#00152a"/></radialGradient><linearGradient id="Безымянный_градиент_41-3" x1="327.02" y1="119.81" x2="410.69" y2="101.37" xlink:href="#Безымянный_градиент_41"/><linearGradient id="Безымянный_градиент_41-4" x1="390.2" y1="105.42" x2="451.71" y2="105.42" xlink:href="#Безымянный_градиент_41"/><radialGradient id="Безымянный_градиент_474-2" cx="354.5" cy="72.44" r="110.27" xlink:href="#Безымянный_градиент_474"/><radialGradient id="Безымянный_градиент_591" cx="419.46" cy="11.49" fx="398.88862377124417" r="83.88" gradientTransform="matrix(0.83, 0.4, -0.38, 0.79, 75.9, -143.82)" gradientUnits="userSpaceOnUse"><stop offset="0" stop-color="#01305f"/><stop offset="0.62" stop-color="#000b15"/><stop offset="1" stop-color="#000e1c"/></radialGradient><radialGradient id="Безымянный_градиент_420" cx="418.38" cy="40.49" r="43.38" gradientTransform="translate(-0.4)" gradientUnits="userSpaceOnUse"><stop offset="0" stop-color="#01407e"/><stop offset="1" stop-color="#000d1a"/></radialGradient><linearGradient id="Безымянный_градиент_709" x1="396.97" y1="2.63" x2="405.34" y2="2.63" gradientTransform="matrix(0.83, 0.4, -0.38, 0.79, 75.9, -143.82)" xlink:href="#Безымянный_градиент_41"/><linearGradient id="Безымянный_градиент_46" x1="367.94" y1="23.96" x2="404.9" y2="-9.77" gradientTransform="matrix(0.83, 0.4, -0.38, 0.79, 75.9, -143.82)" gradientUnits="userSpaceOnUse"><stop offset="0"/><stop offset="0.24" stop-color="#001325"/><stop offset="0.58" stop-color="#012b55"/><stop offset="0.85" stop-color="#013a73"/><stop offset="1" stop-color="#01407e"/></linearGradient><radialGradient id="Безымянный_градиент_467" cx="401.41" cy="3.67" r="19.81" gradientTransform="matrix(0.83, 0.4, -0.38, 0.79, 75.9, -143.82)" gradientUnits="userSpaceOnUse"><stop offset="0.03" stop-color="#013f7c"/><stop offset="0.18" stop-color="#013364"/><stop offset="0.54" stop-color="#00172e"/><stop offset="0.82" stop-color="#00060d"/><stop offset="0.96"/></radialGradient><radialGradient id="Безымянный_градиент_496" cx="429.04" cy="80.26" r="14.86" gradientTransform="matrix(0.83, 0.4, -0.38, 0.79, 75.9, -143.82)" gradientUnits="userSpaceOnUse"><stop offset="0" stop-color="#011a35"/><stop offset="1"/></radialGradient><radialGradient id="Безымянный_градиент_489" cx="436.03" cy="38.02" r="13.05" gradientTransform="matrix(0.83, 0.4, -0.38, 0.79, 75.9, -143.82)" gradientUnits="userSpaceOnUse"><stop offset="0" stop-color="#012348"/><stop offset="0.61" stop-color="#001224"/><stop offset="1" stop-color="#000912"/></radialGradient><radialGradient id="Безымянный_градиент_703" cx="429.11" cy="37.7" r="6.58" gradientTransform="matrix(0.83, 0.4, -0.38, 0.79, 75.9, -143.82)" gradientUnits="userSpaceOnUse"><stop offset="0" stop-color="#ffd800"/><stop offset="1" stop-color="#d6681f"/></radialGradient><radialGradient id="Безымянный_градиент_580" cx="434.8" cy="46.01" r="24.82" gradientTransform="matrix(0.83, 0.4, -0.38, 0.79, 75.9, -143.82)" gradientUnits="userSpaceOnUse"><stop offset="0" stop-color="#01407e"/><stop offset="0.21" stop-color="#012e5b"/><stop offset="0.52" stop-color="#00152b"/><stop offset="0.68" stop-color="#000c19"/><stop offset="1" stop-color="#00152a"/></radialGradient><linearGradient id="Безымянный_градиент_427" x1="440.91" y1="53.41" x2="444.4" y2="50.22" gradientTransform="matrix(0.83, 0.4, -0.38, 0.79, 75.9, -143.82)" gradientUnits="userSpaceOnUse"><stop offset="0"/><stop offset="0.23" stop-color="#000c19"/><stop offset="0.72" stop-color="#012c57"/><stop offset="1" stop-color="#01407e"/></linearGradient><radialGradient id="Безымянный_градиент_662" cx="415.52" cy="54.08" r="3.31" gradientTransform="matrix(0, -1.24, 1.15, 0, 354.58, 572.87)" gradientUnits="userSpaceOnUse"><stop offset="0" stop-color="#013369"/><stop offset="1"/></radialGradient><linearGradient id="Безымянный_градиент_320-7" x1="142.47" y1="341.85" x2="162.27" y2="318.41" gradientTransform="matrix(0.76, -0.04, 0.05, 0.84, 13.22, 67.52)" xlink:href="#Безымянный_градиент_320"/><linearGradient id="Безымянный_градиент_320-8" x1="135.41" y1="341.5" x2="159.24" y2="331.1" gradientTransform="matrix(0.76, -0.04, 0.05, 0.84, 13.22, 67.52)" xlink:href="#Безымянный_градиент_320"/><radialGradient id="Безымянный_градиент_474-3" cx="183.91" cy="284.07" r="78.97" xlink:href="#Безымянный_градиент_474"/><radialGradient id="Безымянный_градиент_474-4" cx="294.71" cy="147.62" r="142.7" gradientTransform="matrix(0.75, 0.18, -0.15, 0.95, 35.18, -22.99)" xlink:href="#Безымянный_градиент_474"/><radialGradient id="Безымянный_градиент_378" cx="177.47" cy="313.45" r="67.25" gradientTransform="matrix(0.76, -0.04, 0.05, 0.84, 13.22, 67.52)" gradientUnits="userSpaceOnUse"><stop offset="0" stop-color="#013063"/><stop offset="0.67" stop-color="#001021"/><stop offset="1"/></radialGradient><linearGradient id="Безымянный_градиент_502" x1="403.78" y1="46.26" x2="425.23" y2="46.26" gradientUnits="userSpaceOnUse"><stop offset="0"/><stop offset="0.52" stop-color="#012242"/><stop offset="1" stop-color="#013f7c"/></linearGradient></defs><title>logo</title><g id="Слой_2" data-name="Слой 2"><g id="Слой_2-2" data-name="Слой 2"><polygon class="cls-1" points="435.89 360.53 47.71 360.87 100.84 345.89 420.15 347.41 435.89 360.53"/><rect class="cls-2" x="222.26" y="284.06" width="65.55" height="76.81"/><polygon class="cls-3" points="237.05 352.6 232.61 301.46 281.38 301.46 276.93 352.59 256.96 358.28 237.05 352.6"/><polygon class="cls-4" points="257 353.93 273.13 349.34 276.93 305.64 257 305.64 257 353.93"/><polygon class="cls-5" points="257 324.61 248.92 324.61 248.36 318.19 257 318.19 257 311.92 256.97 311.92 241.69 311.92 241.83 313.6 243.34 330.88 257 330.88 257 324.61"/><polygon class="cls-5" points="257 340.9 256.97 340.91 250.17 339.02 249.74 334.02 246.43 334.02 243.61 334.02 244.46 343.87 256.97 347.43 257 347.42 257 340.9"/><path d="M237.15,287.57h3.1v3.15h2.84v-3.15h3.1v9.53h-3.1v-3.19h-2.84v3.19h-3.1v-9.53Z"/><path d="M250.27,290.73h-2.73v-3.16h8.57v3.16h-2.73v6.37h-3.11v-6.37Z"/><path d="M257.47,287.57h3.23l2,3.35,2-3.35h3.24v9.53h-3.09v-4.72l-2.14,3.39h-.05l-2.14-3.39v4.72h-3Z"/><path d="M269.46,287.57h3.1V294h4.37v3.15h-7.47Z"/><polygon class="cls-6" points="256.97 324.61 256.97 330.88 264.49 330.88 263.78 339.02 256.97 340.9 256.97 347.43 269.49 343.87 269.58 342.81 271.01 326.29 271.16 324.61 269.52 324.61 256.97 324.61"/><polygon class="cls-6" points="256.97 311.92 256.97 315.81 256.97 318.17 256.97 318.19 271.7 318.19 271.7 318.19 271.72 318.19 271.84 316.78 272.12 313.6 272.27 311.92 256.97 311.92"/><polygon class="cls-7" points="207.15 274.95 207.15 347.41 222.26 360.53 222.26 284.06 207.15 274.95"/><polygon class="cls-8" points="287.8 284.06 267.92 274.95 207.15 274.95 222.26 284.06 287.8 284.06"/><rect class="cls-9" x="326.97" y="189.36" width="65.55" height="171.16"/><polygon class="cls-10" points="312.15 189.37 312.15 347.41 327.26 360.53 327.26 189.37 312.15 189.37"/><path class="cls-11" d="M359.71,312.1l-19.89-5.63-4.44-50.72H384.1l-4.44,50.71-20,5.64Z"/><path class="cls-12" d="M375.86,303.23l3.79-43.33H359.74v47.89l16.12-4.56Z"/><path class="cls-5" d="M345.55,278.71l.54,6.22h13.65v-6.22Zm-1.1-12.59.55,6.22h14.74v-6.22Zm15.29,28.74h0L352.92,293l-.43-5h-6.12l.85,9.76,12.49,3.54h0Z"/><path d="M346.85,242h7.38v3.15h-4.29v3.15h4.3v3.15h-7.39Zm8.86,0h7.39v2.74h-4.3v.54h4.3v6.31h-7.39v-2.88H360v-.55h-4.3V242Zm8.87,0H372v2.74h-4.3v.54H372v6.31h-7.38v-2.88h4.29v-.55h-4.29V242Z"/><path class="cls-6" d="M373.89,278.71,375,266.12H359.72v6.22h8.59l-.55,6.37h-8v6.22h7.51l-.71,8.06-6.8,1.88v6.47l12.5-3.54.09-1.05,1.44-16.37.14-1.67Z"/><rect class="cls-13" x="435.89" y="125.26" width="65.55" height="235.27"/><polygon class="cls-14" points="420.78 143.8 435.89 125.26 435.89 360.53 420.78 347.41 420.78 143.8"/><path d="M453.8,179.06l4.8-2.9c.92,1.64,1.76,3,3.78,3s3.16-.76,3.16-3.71v-20h5.89v20.12c0,6.1-3.57,8.88-8.79,8.88a9.14,9.14,0,0,1-8.84-5.39"/><path d="M474.63,178.43l4.8-2.78c1.27,2.06,2.91,3.58,5.81,3.58,2.44,0,4-1.22,4-2.91,0-2-1.6-2.73-4.29-3.91l-1.48-.63c-4.25-1.81-7.07-4.08-7.07-8.88,0-4.42,3.37-7.79,8.63-7.79,3.75,0,6.44,1.3,8.38,4.71l-4.59,3c-1-1.81-2.11-2.53-3.79-2.53a2.57,2.57,0,0,0-2.82,2.53c0,1.77,1.1,2.48,3.62,3.58l1.47.63c5,2.15,7.83,4.34,7.83,9.26,0,5.3-4.16,8.21-9.76,8.21s-9-2.61-10.74-6"/></g><g id="Слой_1-2" data-name="Слой 1"><path class="cls-15" d="M329.43,156.84c6.69,16.47,14.84,20.33,25.1,17.4,5.67-1.61,8.67,10.72,7.67,13.72s-15.15,1-19.25,1.34C333.65,190.05,295.37,154.14,329.43,156.84Z"/><path class="cls-16" d="M301.37,163.12c4.27-12.1,16.34-17,31.42,8.61,6.51,11,17.78,2.12,22.41,6.12,3.08,2.67,2.8,10.89,1.33,11.67l-27.1.13C325.37,180.86,299.37,168.78,301.37,163.12Z"/><path class="cls-17" d="M269.46,179.86C258,196.34,228.08,229.72,228.08,242c0,22-26.92,10.81-24.8,5.55,2.61-6.51,6.39-18.7,6.76-41C210.45,181.7,285.75,156.41,269.46,179.86Z"/><path class="cls-18" d="M236.26,281.54c-9.59-.45-9.61-7-30.52-26.87-13.33-12.7,22.32-14.89,22.34-12.7s-.35,15.49,15.53,26C252.6,273.88,245.85,282,236.26,281.54Z"/><path class="cls-19" d="M419.61,61.36c2-3.44,6-6.35,3.31-12.42s-5.27-10.08-18.5-20.88c-5.8-4.72-15.41-12.17-31.09-10.46-7.22.79-20.78,10.46-38.27,19.11-10.29,5.17-45.47,14.86-50.55,23.79-53.45,76.47-84.28,64.76-105,80.76-24.19,3.9-2.73,99.49,9,99.88s52.67-51.89,101-65.16a146.08,146.08,0,0,0,23.31-8.51c25-11.71,44.53-32.15,55.11-66.4a39.25,39.25,0,0,1,7.35-16.17c2.52-2.45,6.88-5.5,11.87-3.71,7.84,2.82,17.95,9.14,25.8,3.34s9.29-9.62,9.29-9.62,2.21-1.4.65-4.15C421,67.31,418,64.09,419.61,61.36Z"/><path class="cls-20" d="M243.61,267.94c10.1-6.34,15.68-2.16,17.69,4.43,2.13,7-11,6.65-17,5.76S243.61,267.94,243.61,267.94Z"/><path class="cls-21" d="M230.78,279.5c1.84,4.89,24.75,3.07,27.7,1.29s.37-9.78-5.17-9.77S228.93,274.61,230.78,279.5Z"/><path class="cls-22" d="M186.08,133.65s-46.3,6.29-69,69.72C90.18,278.67,30.09,307.54,7.85,304c-16.43-2.59-4.68,20.63,13.26,23s53.85-9.27,90.53-72.87c11.17-19.37,24.19-92.51,66.71-96.8C197.18,155.43,186.08,133.65,186.08,133.65Z"/><path class="cls-23" d="M440.44,105.94s4.25-4.12,6.37-2.36c1.23,1,6.22,8.72,5.32,10.83a7.12,7.12,0,0,1-4.35,3.79C444.37,118.77,440.44,105.94,440.44,105.94Z"/><path class="cls-24" d="M444.22,121.7a21.87,21.87,0,0,0,6.73-1.92c2.82-1.26-3.15-11.77-4.77-12.44s-5.8,1.48-6.93,3.23S441,121.33,444.22,121.7Z"/><path class="cls-25" d="M436.89,109.83a3.45,3.45,0,0,1,5.34,1.18c2.18,3.67,8.83,10.72,5.85,12.55-8.11,5-22.72-7.52-38.78-5.76-8.73,1-39.39,23.27-58.39,30.25-12.19,4.48-16.37,2.64-24.24,4.16-10.49,2-12.35,2.29-11.14-2.55s14.71-32.75,20.24-35.21c16.27-7.24,40.94-7.24,58.44-12.92,9.61-3.12,14.77-5.79,18.09-4.69C417.8,98.66,436.89,109.83,436.89,109.83Z"/><path class="cls-26" d="M349.77,103.14s5,9.39,44.44-1.61c0,0,13.83,5.68-57,27.66C328.32,132,349.77,103.14,349.77,103.14Z"/><path class="cls-27" d="M411.75,96.71c-1.88,1-3.6,3.62.29,8.4,3.56,4.37,6.45,7.79,26.87,9,8.38.51,8.06-10,6.57-11-3.42-2.44-10.93,1.67-20-1.23C421.08,100.5,412.84,96.14,411.75,96.71Z"/><path class="cls-28" d="M291.37,50.26c-28.15,11.43-14.44,88.27,24,102.7,6.84,2.57,35-28.93,36.71-45.75C357.6,52.43,311.66,42,291.37,50.26Z"/><path class="cls-29" d="M354.71,64.86c-6.49-12.34,15.93-33.26,29.41-36,12.54-2.59,16.69,9.07,22.92,23.53,2,4.56,12,14.67,4.29,25.35C408,82.26,365.18,84.79,354.71,64.86Z"/><path class="cls-30" d="M397.06,22.19c-8.27-5.21-24,4.42-13.82,5.87,5.22.75,11.75-1.2,21.2,21.3,1,2.3,10.72,2.2,15.56,0-.81,4.92-1.69,11.32-.67,13.61,1.58,3.55.05,6.73,1.23,9.28s2.87,3.48,2.9,0-4.76-7.46-.54-13.39C432.46,45.57,401.54,25,397.06,22.19Z"/><path class="cls-31" d="M403.57,25.6s3.25-11.29,4.35-13.57-5.43-.45-8.19,3.88S403.57,25.6,403.57,25.6Z"/><path class="cls-32" d="M404.42,28.06c-4-9.07-.15-18.81-.37-24.38-.18-4.53-2.18-4.2-4.3-2.59C389.47,9,374,14.62,371.27,20.15c-.95,2,1.64,6.48,12.85,8.66C384.12,28.81,383.4,12.69,404.42,28.06Z"/><path class="cls-33" d="M404.42,28.06c-2.31-10.62.05-22-.43-25.08-.16-.88-.26-3.41-1.8-1.69a45.43,45.43,0,0,1-6,6.4c-7,6.11-10.48,14.76-10.64,15.94C388.54,20.38,394.5,20.34,404.42,28.06Z"/><path class="cls-34" d="M400.9,79.21c-3.72-1.56-20.79,1.73-16.77,1.45s11.33,4.19,17.37,5.77c9.41,2.46,11.52-1.9,11.52-1.9S413.86,84.68,400.9,79.21Z"/><path class="cls-35" d="M403.8,50.28s12-2.14,15.66-3.19c2-.56,4.33,4.73,3.14,9.76-.57,2.45-3.88,4.24-3.32,6.15,1.4,4.76,2.79,8.36,1.48,10C420,74,406.2,49.56,403.8,50.28Z"/><path class="cls-36" d="M410.59,53.77a47,47,0,0,1,6.7-1.43c1-.13,2.17,6.1-2.82,9a36,36,0,0,1-4-6.38C410.28,54.27,410.21,53.85,410.59,53.77Z"/><path class="cls-37" d="M410.59,53.77s-7.3-5.5-7-2.86c.57,5.15,2.57,6.87,3.46,12.78.79,5.23-20.1,16.07,7.07,21.09,1.53.28,7.95-4,8.2-7.09a52.33,52.33,0,0,0-8.72-17.55C411.62,57.48,409.83,54,410.59,53.77Z"/><path class="cls-38" d="M420.52,72.28c1-.61,2.38.59,2.9,0a2.16,2.16,0,0,1,1.66,2c0,1.4-2.77,3.37-2.77,3.37S419,73.19,420.52,72.28Z"/><ellipse class="cls-39" cx="416.36" cy="55.49" rx="3.29" ry="1.53" transform="translate(308.69 461.5) rotate(-82.74)"/><path class="cls-40" d="M132.4,340.85s6.52-.92,8.56-.47,9.43,7.38,6.61,9.93-3,.29-8.06.45S127.22,347.91,132.4,340.85Z"/><path class="cls-41" d="M132.76,354.49s6.67,1.9,11.08-.6-4.55-9.36-6.15-11-12.58.68-12.58.68S126.16,353.86,132.76,354.49Z"/><path class="cls-42" d="M163.21,190.4s-31.67,91.16-44.91,103c0,0,5.13,11.28,13.89,16.73-7.8,8.13-8.06,35.44-6.45,36.23,2.08,1,8.69,1.79,6.66-7.71S141,309,141,309c7.5-11.6,23.45-38.58,47.46-60.1C196.26,241.91,172.68,179.65,163.21,190.4Z"/><path class="cls-43" d="M243.61,163.6c6.69,20.85-14.31,66.83-55.19,85.33C168.08,258.14,152,213.19,160,182.19,173.83,128.76,218.85,86.5,243.61,163.6Z"/><path class="cls-44" d="M136.74,357.67s5.9-10.41-8.38-13.19c-4.61-.89,11.38-27.63,9.59-38.84s-22.08-20.28-20.74-7.28c1.07,10.46,1.51,21.31-3.7,36.85S117.4,359.29,136.74,357.67Z"/><path class="cls-45" d="M403.8,50.28s17.09-2.67,20.51-.09c0,0,3.07-6.23-2-7.82C419,41.32,403.14,47.18,403.8,50.28Z"/></g></g></svg>