<svg version="1.1" xmlns="http://www.w3.org/2000/svg" viewBox="0 0 727 1024">
<path d="M113.035 92.141h42.205v46.384h46.384v-138.525h-46.384v45.757h-42.205v-45.757h-46.384v138.525h46.384v-46.384z"></path>
<path d="M262.425 138.525h46.384v-92.559h40.743v-45.966h-127.869v45.966h40.743v92.559z"></path>
<path d="M414.949 69.785l31.967 49.309h0.836l31.758-49.309v68.74h46.175v-138.525h-48.264l-29.669 48.682-29.669-48.682h-48.264v138.525h45.13v-68.74z"></path>
<path d="M660.032 92.768h-65.188v-92.768h-46.175v138.525h111.363v-45.757z"></path>
<path d="M0 199.117l66.233 742.562 297.108 82.112 297.317-82.321 66.233-742.353zM583.352 441.902h-348.507l8.357 93.395h332.001l-25.072 279.558-186.581 51.816-186.79-51.816-12.954-146.256h91.305l6.895 75.844 101.334 27.371 101.543-27.371 10.447-118.049h-315.286l-24.655-275.379h456.109z"></path>
</svg>
