<svg xmlns="http://www.w3.org/2000/svg" viewBox="0 0 1024 1024">
<title></title>
<path d="M68.634 252.108c-89.754 128.992-78.572 296.818-10.020 433.89 1.632 3.288 3.34 6.518 5.026 9.76 1.074 2.040 2.088 4.144 3.206 6.16 0.628 1.214 1.338 2.398 1.996 3.558 1.172 2.19 2.364 4.262 3.58 6.398 2.13 3.752 4.316 7.482 6.544 11.212 1.236 2.050 2.456 4.1 3.73 6.148 2.472 3.992 5.004 7.952 7.598 11.886 1.080 1.682 2.13 3.364 3.238 4.988 3.574 5.336 7.228 10.662 10.996 15.888 0.098 0.13 0.206 0.272 0.316 0.402 0.596 0.846 1.258 1.67 1.86 2.506 3.258 4.5 6.626 8.936 10.020 13.338 1.252 1.596 2.522 3.2 3.78 4.804 3.032 3.818 6.122 7.604 9.262 11.386 1.176 1.41 2.354 2.83 3.542 4.218 4.212 4.958 8.512 9.902 12.912 14.75 0.076 0.088 0.178 0.186 0.26 0.272 0.178 0.206 0.336 0.336 0.494 0.532 4.29 4.686 8.676 9.274 13.124 13.85 1.376 1.408 2.788 2.83 4.202 4.24 3.444 3.458 6.942 6.854 10.476 10.27 1.436 1.356 2.858 2.754 4.284 4.066 4.722 4.448 9.49 8.806 14.354 13.058 0.086 0.086 0.146 0.152 0.228 0.184 0.824 0.738 1.68 1.444 2.494 2.126 4.29 3.718 8.65 7.406 13.042 11.030 1.79 1.442 3.6 2.874 5.402 4.304 3.59 2.876 7.216 5.706 10.872 8.492 1.93 1.474 3.866 2.95 5.812 4.426 4.030 2.95 8.090 5.886 12.196 8.74 1.498 1.084 2.944 2.124 4.448 3.156 0.412 0.292 0.792 0.596 1.214 0.876 3.894 2.668 7.868 5.262 11.842 7.832 1.708 1.136 3.406 2.308 5.13 3.414 6.1 3.852 12.288 7.668 18.544 11.368 1.704 0.964 3.416 1.92 5.124 2.884 4.598 2.656 9.224 5.26 13.92 7.808 2.532 1.366 5.14 2.656 7.694 3.958 3.318 1.746 6.604 3.502 9.966 5.172 0.764 0.39 1.556 0.76 2.31 1.118 1.344 0.65 2.71 1.292 4.072 1.974 5.216 2.494 10.476 4.934 15.78 7.308 1.134 0.498 2.224 0.998 3.346 1.486 6.080 2.656 12.212 5.226 18.416 7.668 1.486 0.596 2.988 1.17 4.486 1.768 5.732 2.202 11.54 4.38 17.368 6.432 0.742 0.26 1.454 0.498 2.184 0.746 6.404 2.246 12.868 4.316 19.38 6.346 1.55 0.456 3.112 0.956 4.674 1.41 6.626 1.994 13.166 4.37 20.010 5.638 434.042 79.148 560.122-260.836 560.122-260.836-105.884 137.952-293.848 174.348-471.934 133.828-6.752-1.518-13.292-3.622-19.876-5.574-1.674-0.498-3.312-0.996-4.96-1.506-6.426-1.974-12.798-4.044-19.136-6.224-0.868-0.304-1.746-0.628-2.63-0.946-5.676-1.994-11.284-4.098-16.876-6.258-1.578-0.628-3.156-1.224-4.728-1.854-6.126-2.418-12.216-4.946-18.22-7.58-1.242-0.522-2.424-1.074-3.638-1.618-5.166-2.332-10.276-4.684-15.378-7.136-1.464-0.714-2.94-1.408-4.436-2.134-3.992-1.942-7.95-4.014-11.886-6.042-2.64-1.388-5.324-2.71-7.932-4.154-4.816-2.58-9.544-5.26-14.246-7.992-1.6-0.9-3.21-1.758-4.816-2.68-6.258-3.686-12.44-7.504-18.556-11.376-1.686-1.072-3.34-2.222-5.004-3.328-4.436-2.864-8.856-5.77-13.2-8.786-1.442-0.954-2.84-2.016-4.256-2.982-4.204-2.96-8.356-5.974-12.484-9.022-1.866-1.378-3.714-2.81-5.53-4.188-3.78-2.894-7.542-5.8-11.262-8.806-1.676-1.334-3.362-2.678-5.022-4.024-4.734-3.892-9.408-7.796-14.028-11.81-0.482-0.434-1.008-0.846-1.534-1.29-4.99-4.392-9.902-8.894-14.744-13.416-1.41-1.344-2.776-2.646-4.154-4.002-3.594-3.404-7.124-6.854-10.594-10.378-1.388-1.388-2.788-2.766-4.154-4.142-4.418-4.534-8.752-9.11-13.002-13.762-0.212-0.228-0.434-0.434-0.64-0.684-4.496-4.914-8.888-9.934-13.188-15.010-1.166-1.388-2.298-2.732-3.454-4.1-3.204-3.862-6.382-7.778-9.484-11.734-1.172-1.41-2.336-2.876-3.488-4.328-3.73-4.848-7.384-9.672-10.964-14.598-98.878-134.846-134.4-320.862-55.378-473.626z"></path>
<path d="M347.234 143.428c-64.908 93.41-61.382 218.43-10.752 317.22 8.492 16.56 18.036 32.622 28.712 47.924 9.722 13.936 20.498 30.518 33.402 41.708 4.686 5.152 9.572 10.184 14.566 15.12 1.264 1.302 2.554 2.528 3.844 3.806 4.842 4.686 9.776 9.316 14.874 13.806 0.21 0.174 0.396 0.378 0.608 0.52 0.054 0.064 0.108 0.088 0.14 0.152 5.64 4.936 11.462 9.696 17.378 14.37 1.312 0.998 2.614 2.050 3.942 3.080 5.926 4.544 11.974 9.024 18.176 13.276 0.184 0.128 0.342 0.26 0.526 0.412 2.734 1.876 5.526 3.642 8.292 5.456 1.334 0.868 2.598 1.79 3.938 2.602 4.424 2.832 8.91 5.598 13.47 8.254 0.644 0.402 1.28 0.726 1.904 1.096 3.93 2.266 7.916 4.5 11.914 6.658 1.394 0.792 2.814 1.474 4.236 2.212 2.76 1.444 5.52 2.906 8.334 4.316 0.406 0.196 0.846 0.39 1.252 0.564 5.72 2.818 11.496 5.532 17.384 8.090 1.254 0.552 2.554 1.050 3.84 1.582 4.702 1.996 9.462 3.95 14.234 5.782 2.028 0.77 4.078 1.496 6.106 2.246 4.332 1.606 8.694 3.078 13.080 4.554 1.984 0.628 3.93 1.28 5.916 1.886 6.24 1.93 12.406 4.38 18.912 5.464 335.12 55.528 412.494-202.5 412.494-202.5-69.75 100.424-204.81 148.372-348.936 110.956-6.398-1.68-12.706-3.514-18.972-5.488-1.92-0.584-3.806-1.214-5.706-1.844-4.458-1.442-8.888-2.98-13.28-4.574-2.012-0.728-4.020-1.464-5.992-2.224-4.816-1.854-9.572-3.764-14.29-5.77-1.286-0.552-2.592-1.042-3.85-1.626-5.916-2.57-11.74-5.292-17.488-8.112-2.956-1.456-5.856-2.982-8.762-4.468-1.682-0.878-3.374-1.746-5.060-2.614-3.736-2.030-7.44-4.122-11.1-6.258-0.862-0.498-1.768-0.964-2.646-1.498-4.542-2.656-9.012-5.388-13.438-8.198-1.366-0.878-2.678-1.822-4.044-2.712-2.922-1.896-5.84-3.816-8.704-5.758-6.176-4.25-12.19-8.718-18.112-13.252-1.366-1.074-2.738-2.126-4.078-3.2-63.092-49.812-113.086-117.886-136.86-195.060-24.916-80.058-19.552-169.9 23.616-242.822z"></path>
<path d="M581.548 62.232c-38.262 56.308-42.020 126.238-15.47 188.434 27.996 66.014 85.368 117.8 152.336 142.342 2.76 1.030 5.514 1.952 8.318 2.896 1.218 0.38 2.428 0.792 3.664 1.15 3.944 1.246 7.864 2.69 11.942 3.458 185.040 35.756 235.23-94.96 248.592-114.2-43.972 63.302-117.85 78.498-208.508 56.504-7.164-1.758-15.038-4.338-21.936-6.79-8.85-3.146-17.568-6.746-26.048-10.812-16.094-7.734-31.436-17.124-45.67-27.862-81.116-61.556-131.518-178.976-78.582-274.61z"></path>
</svg>
