<svg height="512" viewBox="0 0 512 512" width="512" xmlns="http://www.w3.org/2000/svg"><path fill-rule="evenodd" clip-rule="evenodd" fill="#1758a7" d="M91.809 117.07l30.784 333.509 133.406 35.922 133.403-35.922 30.789-333.509z"/><path fill-rule="evenodd" clip-rule="evenodd" fill="#379ad6" d="M255.997 144.084v313.768l.301.081 107.959-29.07 24.918-284.779z"/><path fill-rule="evenodd" clip-rule="evenodd" fill="#e8e8e7" d="M255.623 372.537l-.072.021-44.57-11.361-2.701-32.718h-41.419l5.402 63.165 83.738 24.993V372.43z"/><path fill-rule="evenodd" clip-rule="evenodd" fill="#fbfbfa" d="M256.001 266.782v40.129h.119l49.502.054-3.177 52.454-46.325 13.051-.119.034v44.087l.119.036.033.01 83.961-24.523 10.893-125.332z"/><path fill-rule="evenodd" clip-rule="evenodd" fill="#e5e4e2" d="M161.002 266.782l3.152 40.087.005.062 91.842.006v-40.155z"/><path fill-rule="evenodd" clip-rule="evenodd" fill="#eee" d="M161.008 266.782h94.76l.233-.101v-40.064z"/><path fill-rule="evenodd" clip-rule="evenodd" fill="#fff" d="M261.553 224.667l-5.552 2.325v39.781l97.954-42.106z"/><path fill-rule="evenodd" clip-rule="evenodd" fill="#e7e7e6" d="M152.196 184.515l4.964 40.152h98.841v-40.152z"/><path d="M256.001 224.667l101.842-40.152H256.001v40.152zm.027 0h97.76l4.056-40.152-101.816 40.152z" fill-rule="evenodd" clip-rule="evenodd" fill="#f8f8f7"/><path d="M158.564 87.892h50.683V68.07h-28.961V48.22h28.961V26.499h-50.683v61.393zm72.343-39.671c6.781 6.781 10.317 10.026 20.125 19.835-5.732 0-20.125.021-20.125.019v19.817h50.687V68.07l-20.246-19.85h20.246V26.499h-50.687v21.722zm122.529-21.722h-50.69v21.722c6.781 6.781 10.319 10.026 20.127 19.835-5.73 0-20.127.021-20.127.019v19.817h50.69V68.07l-20.247-19.85h20.247V26.499z" fill-rule="evenodd" clip-rule="evenodd" fill="#1b1b1b"/></svg>