<svg width="181" height="143" viewBox="0 0 181 143" fill="none" xmlns="http://www.w3.org/2000/svg">
<path d="M131.394 62.5847C134.062 69.1568 137.313 70.6971 141.405 69.5279C143.666 68.8855 144.863 73.8056 144.464 75.0027C144.065 76.1998 138.422 75.4017 136.786 75.5374C133.077 75.8367 117.809 61.5073 131.394 62.5847Z" fill="white"/>
<path d="M120.202 65.0907C121.905 60.2623 126.719 58.3071 132.734 68.5264C135.33 72.9158 139.825 69.3723 141.672 70.9685C142.901 72.0339 142.789 75.314 142.203 75.6252L131.394 75.6771C129.774 72.1696 119.404 67.3492 120.202 65.0907Z" fill="url(#paint0_linear_171_75)"/>
<path d="M107.475 71.7706C102.904 78.3467 90.9702 91.6665 90.9702 96.5666C90.9702 105.345 80.2331 100.88 81.0787 98.7813C82.1197 96.1836 83.6274 91.3193 83.7749 82.4208C83.9385 72.5048 113.972 62.4132 107.475 71.7706Z" fill="url(#paint1_linear_171_75)"/>
<path d="M94.2327 112.345C90.4077 112.165 90.3998 109.551 82.0598 101.623C76.7431 96.5548 90.9621 95.6809 90.9701 96.5548C90.9781 97.4287 90.8305 102.736 97.1643 106.93C100.75 109.288 98.0577 112.528 94.2327 112.345Z" fill="white"/>
<path d="M167.362 24.4849C168.16 23.1123 169.755 21.9511 168.682 19.5289C167.609 17.1068 166.58 15.5066 161.304 11.197C158.99 9.3136 155.157 6.34078 148.903 7.02314C146.024 7.33837 140.615 11.197 133.639 14.6487C129.535 16.7117 115.503 20.5784 113.477 24.1418C92.1587 54.656 79.8621 49.9833 71.5979 56.3679C61.9497 57.9241 70.509 96.068 75.1875 96.2236C79.8661 96.3792 96.195 75.5176 115.472 70.2224C118.661 69.3563 121.772 68.2203 124.769 66.8266C134.74 62.1539 142.53 53.9976 146.749 40.3306C147.221 37.984 148.224 35.7767 149.681 33.8782C150.686 32.9006 152.425 31.6835 154.415 32.3978C157.542 33.5231 161.575 36.045 164.706 33.7306C167.837 31.4162 168.411 29.8919 168.411 29.8919C168.411 29.8919 169.293 29.3332 168.67 28.2359C167.916 26.8592 166.72 25.5743 167.362 24.4849Z" fill="white"/>
<path d="M97.1643 106.918C101.193 104.388 103.418 106.056 104.22 108.685C105.07 111.479 99.8326 111.339 97.4395 110.984C95.0464 110.629 97.1643 106.918 97.1643 106.918Z" fill="white"/>
<path d="M92.0471 111.531C92.781 113.482 101.919 112.756 103.095 112.045C104.272 111.335 103.243 108.143 101.033 108.147C98.8236 108.151 91.3092 109.579 92.0471 111.531Z" fill="white"/>
<path d="M74.2183 53.3313C74.2183 53.3313 55.7515 55.8412 46.6976 81.1521C35.9685 111.199 12.0015 122.72 3.13105 121.307C-3.42208 120.274 1.26442 129.539 8.41981 130.485C15.5752 131.431 29.898 126.786 44.5278 101.407C48.983 93.6778 54.176 64.4923 71.1352 62.7805C78.6456 62.0223 74.2183 53.3313 74.2183 53.3313Z" fill="white"/>
<path d="M175.67 42.274C175.67 42.274 177.365 40.6299 178.211 41.3322C178.701 41.7313 180.692 44.8118 180.333 45.6538C180.165 46.013 179.924 46.3332 179.625 46.5937C179.326 46.8541 178.976 47.0491 178.598 47.1661C177.238 47.3936 175.67 42.274 175.67 42.274Z" fill="white"/>
<path d="M177.178 48.5627C178.108 48.4531 179.014 48.1944 179.862 47.7965C180.987 47.2937 178.606 43.0999 177.96 42.8325C177.313 42.5652 175.646 43.4231 175.196 44.1214C174.745 44.8197 175.894 48.415 177.178 48.5627Z" fill="white"/>
<path d="M174.254 43.8261C174.416 43.6906 174.606 43.5941 174.811 43.544C175.016 43.4939 175.229 43.4915 175.435 43.537C175.641 43.5824 175.834 43.6746 175.998 43.8064C176.163 43.9382 176.295 44.106 176.384 44.297C177.254 45.7614 179.906 48.5746 178.718 49.3049C175.483 51.3 169.656 46.3041 163.25 47.0064C159.768 47.4054 147.539 56.292 139.961 59.0772C135.099 60.8649 133.432 60.1307 130.293 60.7372C126.109 61.5353 125.367 61.651 125.85 59.7197C126.332 57.7884 131.717 46.6513 133.923 45.6696C140.412 42.7806 150.251 42.7806 157.231 40.5141C161.064 39.2691 163.122 38.2037 164.447 38.6426C166.64 39.3689 174.254 43.8261 174.254 43.8261Z" fill="white"/>
<path d="M139.506 41.1566C139.506 41.1566 141.501 44.9036 157.231 40.5142C157.231 40.5142 162.747 42.7807 134.497 51.5515C130.951 52.6728 139.506 41.1566 139.506 41.1566Z" fill="white"/>
<path d="M164.227 38.5907C163.477 38.9897 162.791 40.0352 164.343 41.9426C165.763 43.6864 166.915 45.0511 175.06 45.5339C178.402 45.7374 178.275 41.5436 177.68 41.1445C176.316 40.1709 173.321 41.8109 169.703 40.6537C167.948 40.103 164.662 38.3632 164.227 38.5907Z" fill="white"/>
<path d="M116.213 20.0557C104.986 24.6167 110.454 55.2786 125.786 61.0366C128.514 62.0622 139.746 49.4925 140.428 42.7808C142.629 20.9216 124.306 16.7597 116.213 20.0557Z" fill="white"/>
<path d="M141.477 25.8816C138.888 20.9575 147.83 12.6097 153.207 11.5163C158.209 10.4828 159.864 15.1356 162.349 20.9057C163.146 22.7253 167.135 26.7595 164.06 31.0212C162.732 32.8248 145.653 33.8344 141.477 25.8816Z" fill="white"/>
<path d="M158.368 8.8548C155.07 6.77582 148.796 10.6185 152.856 11.1971C154.938 11.4964 157.542 10.7183 161.312 19.6966C161.71 20.6144 165.587 20.5745 167.518 19.6966C167.195 21.6599 166.844 24.2137 167.251 25.1275C167.881 26.544 167.27 27.813 167.741 28.8305C168.212 29.8481 168.886 30.2192 168.898 28.8305C168.91 27.4419 166.999 25.8537 168.682 23.4874C172.487 18.1842 160.155 9.97609 158.368 8.8548Z" fill="white"/>
<path d="M160.965 10.2154C160.965 10.2154 162.261 5.71028 162.7 4.80048C163.138 3.89068 160.534 4.62091 159.433 6.34874C158.332 8.07656 160.965 10.2154 160.965 10.2154Z" fill="white"/>
<path d="M161.304 11.1971C159.708 7.57783 161.244 3.69123 161.156 1.4686C161.084 -0.339035 160.287 -0.207353 159.441 0.435094C155.341 3.59147 149.171 5.83405 148.082 8.04071C147.703 8.83879 148.736 10.6265 153.207 11.4964C153.207 11.4964 152.92 5.06391 161.304 11.1971Z" fill="white"/>
<path d="M161.304 11.1969C160.382 6.95913 161.324 2.41811 161.132 1.18908C161.068 0.837926 161.028 -0.171634 160.414 0.514708C159.701 1.44123 158.899 2.29649 158.021 3.06854C155.229 5.50664 153.841 8.9583 153.777 9.42917C154.97 8.1323 157.347 8.11634 161.304 11.1969Z" fill="white"/>
<path d="M159.9 31.6078C158.416 30.9853 151.607 32.2981 153.211 32.1864C154.814 32.0746 157.73 33.8583 160.139 34.4888C163.892 35.4704 164.734 33.7306 164.734 33.7306C164.734 33.7306 165.069 33.7905 159.9 31.6078Z" fill="white"/>
<path d="M161 20.2436C161 20.2436 166.02 19.4199 167.551 19.0157C168.388 18.8002 169.362 20.8363 168.865 22.7724C168.626 23.7154 167.242 24.4043 167.476 25.1395C168.061 26.9716 168.643 28.3573 168.095 28.9885C167.777 29.3734 162.004 19.9664 161 20.2436Z" fill="white"/>
<path d="M163.764 21.4562C163.764 21.4562 160.853 19.2615 160.973 20.3149C161.2 22.37 161.998 23.0563 162.353 25.4146C162.668 27.5016 154.336 31.8271 165.172 33.8303C165.783 33.942 168.343 32.2341 168.443 31.0011C167.735 28.4684 166.555 26.0924 164.965 23.998C164.175 22.9366 163.461 21.5479 163.764 21.4562Z" fill="white"/>
<path d="M167.725 28.8424C168.124 28.5989 168.674 29.0778 168.882 28.8424C169.064 28.8855 169.227 28.9866 169.346 29.1306C169.466 29.2746 169.535 29.4535 169.544 29.6404C169.544 30.1991 168.439 30.9852 168.439 30.9852C168.439 30.9852 167.119 29.2055 167.725 28.8424Z" fill="white"/>
<path d="M52.808 136.011C52.808 136.011 55.4085 135.644 56.2221 135.824C57.0358 136.003 59.9833 138.769 58.8586 139.786C57.7338 140.804 57.662 139.902 55.6438 139.966C53.6256 140.03 50.7419 138.829 52.808 136.011Z" fill="white"/>
<path d="M52.9516 141.454C52.9516 141.454 55.6119 142.212 57.3709 141.215C59.1298 140.217 55.5561 137.48 54.9179 136.825C54.2798 136.171 49.9004 137.097 49.9004 137.097C49.9004 137.097 50.3192 141.203 52.9516 141.454Z" fill="white"/>
<path d="M65.0967 75.9764C65.0967 75.9764 52.4651 112.352 47.1843 117.077C47.1843 117.077 49.2304 121.578 52.7244 123.753C49.6133 126.997 49.5096 137.895 50.1518 138.21C50.9814 138.609 53.6178 138.924 52.8081 135.133C51.9985 131.343 56.2383 123.302 56.2383 123.302C59.2296 118.673 65.5913 107.907 75.1677 99.32C78.2788 96.5307 68.8739 71.6868 65.0967 75.9764Z" fill="white"/>
<path d="M97.1643 65.2822C99.8326 73.6021 91.4567 91.9498 75.1517 99.3319C67.039 103.007 60.6255 85.0704 63.8163 72.7003C69.3324 51.3798 87.2887 34.5166 97.1643 65.2822Z" fill="white"/>
<path d="M54.539 142.723C54.539 142.723 56.8922 138.569 51.1966 137.46C49.3579 137.105 55.7355 126.434 55.0216 121.961C54.3076 117.488 46.215 113.869 46.7494 119.056C47.1762 123.23 47.3517 127.56 45.2737 133.761C43.1956 139.962 46.8252 143.369 54.539 142.723Z" fill="white"/>
<path d="M161.056 20.0636C161.056 20.0636 167.873 18.9982 169.237 20.0277C169.237 20.0277 170.461 17.5417 168.439 16.9073C167.119 16.4883 160.793 18.8266 161.056 20.0636Z" fill="white"/>
<defs>
<linearGradient id="paint0_linear_171_75" x1="7395.35" y1="2718.4" x2="7544.89" y2="2392.51" gradientUnits="userSpaceOnUse">
<stop stop-color="white"/>
</linearGradient>
<linearGradient id="paint1_linear_171_75" x1="-3387.82" y1="6882.36" x2="-1512.62" y2="7411.05" gradientUnits="userSpaceOnUse">
<stop offset="1" stop-color="white"/>
</linearGradient>
</defs>
</svg>
