<svg viewBox="0 0 16 16" xmlns="http://www.w3.org/2000/svg">
<path d="M14.2857 1.71428H12.5714V0.571439C12.5714 0.255837 12.3156 0 12 0C11.6844 0 11.4286 0.255837 11.4286 0.571439V1.71428H4.57141V0.571439C4.57141 0.255837 4.31558 0 4.00001 0C3.68444 0 3.42857 0.255837 3.42857 0.571439V1.71428H1.71428C0.767511 1.71428 0 2.4818 0 3.42857V14.2857C0 15.2325 0.767511 16 1.71428 16H14.2857C15.2325 16 16 15.2325 16 14.2857V3.42857C16 2.4818 15.2325 1.71428 14.2857 1.71428ZM14.8571 14.2857C14.8571 14.6013 14.6013 14.8572 14.2857 14.8572H1.71428C1.39868 14.8572 1.14285 14.6013 1.14285 14.2857V6.85714H14.8571V14.2857ZM14.8571 5.71429H1.14285V3.42857C1.14285 3.11297 1.39868 2.85713 1.71428 2.85713H3.42857V3.99997C3.42857 4.31558 3.68441 4.57141 4.00001 4.57141C4.31561 4.57141 4.57145 4.31558 4.57145 3.99997V2.85713H11.4286V3.99997C11.4286 4.31558 11.6844 4.57141 12 4.57141C12.3156 4.57141 12.5715 4.31558 12.5715 3.99997V2.85713H14.2857C14.6014 2.85713 14.8572 3.11297 14.8572 3.42857V5.71429H14.8571Z"/>
<path d="M4.57171 8H3.42886C3.11326 8 2.85742 8.25584 2.85742 8.57144C2.85742 8.88705 3.11326 9.14289 3.42886 9.14289H4.57171C4.88731 9.14289 5.14315 8.88705 5.14315 8.57144C5.14315 8.25584 4.88731 8 4.57171 8Z"/>
<path d="M8.5717 8H7.42886C7.11326 8 6.85742 8.25584 6.85742 8.57144C6.85742 8.88705 7.11326 9.14289 7.42886 9.14289H8.5717C8.8873 9.14289 9.14314 8.88705 9.14314 8.57144C9.14314 8.25584 8.8873 8 8.5717 8Z"/>
<path d="M12.5717 8H11.4289C11.1133 8 10.8574 8.25584 10.8574 8.57144C10.8574 8.88705 11.1133 9.14289 11.4289 9.14289H12.5717C12.8873 9.14289 13.1431 8.88705 13.1431 8.57144C13.1431 8.25584 12.8873 8 12.5717 8Z"/>
<path d="M4.57171 10.2852H3.42886C3.11326 10.2852 2.85742 10.541 2.85742 10.8566C2.85742 11.1722 3.11326 11.428 3.42886 11.428H4.57171C4.88731 11.428 5.14315 11.1722 5.14315 10.8566C5.14315 10.541 4.88731 10.2852 4.57171 10.2852Z"/>
<path d="M8.5717 10.2852H7.42886C7.11326 10.2852 6.85742 10.541 6.85742 10.8566C6.85742 11.1722 7.11326 11.428 7.42886 11.428H8.5717C8.8873 11.428 9.14314 11.1722 9.14314 10.8566C9.14314 10.541 8.8873 10.2852 8.5717 10.2852Z"/>
<path d="M12.5717 10.2852H11.4289C11.1133 10.2852 10.8574 10.541 10.8574 10.8566C10.8574 11.1722 11.1133 11.428 11.4289 11.428H12.5717C12.8873 11.428 13.1431 11.1722 13.1431 10.8566C13.1431 10.541 12.8873 10.2852 12.5717 10.2852Z"/>
<path d="M4.57171 12.5723H3.42886C3.11326 12.5723 2.85742 12.8281 2.85742 13.1437C2.85742 13.4593 3.11326 13.7151 3.42886 13.7151H4.57171C4.88731 13.7151 5.14315 13.4593 5.14315 13.1437C5.14315 12.8281 4.88731 12.5723 4.57171 12.5723Z"/>
<path d="M8.5717 12.5723H7.42886C7.11326 12.5723 6.85742 12.8281 6.85742 13.1437C6.85742 13.4593 7.11326 13.7151 7.42886 13.7151H8.5717C8.8873 13.7151 9.14314 13.4593 9.14314 13.1437C9.14314 12.8281 8.8873 12.5723 8.5717 12.5723Z"/>
<path d="M12.5717 12.5723H11.4289C11.1133 12.5723 10.8574 12.8281 10.8574 13.1437C10.8574 13.4593 11.1133 13.7151 11.4289 13.7151H12.5717C12.8873 13.7151 13.1431 13.4593 13.1431 13.1437C13.1431 12.8281 12.8873 12.5723 12.5717 12.5723Z"/>
</svg>
