<?xml version="1.0" encoding="utf-8"?>
<svg version="1.1" xmlns="http://www.w3.org/2000/svg" xmlns:xlink="http://www.w3.org/1999/xlink" x="0px" y="0px"
	 viewBox="0 0 24 24" style="enable-background:new 0 0 24 24;" xml:space="preserve">
<g>
	<path d="M17.9,22.9c-4,0-9.9-4.2-13.3-8.5c-3-3.8-4.1-7.3-3-9.8v0c0.1-0.2,0.2-0.4,0.4-0.6c0.5-0.5,1.7-1.8,2.4-2.4
		C5,1.1,6,0.9,6.8,1.6l0.1,0.1c1.2,1.1,1.4,1.2,2.9,2.8c1.1,1.1,1.1,2.3,0,3.4C9.5,8,9.2,8.3,8.9,8.6C8.4,9,8.3,9.7,8.6,10.2
		c1.3,2.2,2.8,3.7,5,5.1c0.5,0.3,1.1,0.2,1.6-0.2c0.5-0.4,0.9-0.9,1.2-1.1c0.8-0.7,1.9-0.7,2.6,0l0.5,0.5c0.6,0.6,1.4,1.5,2.8,2.7
		c0.4,0.3,0.6,0.9,0.6,1.5c0,0.5-0.2,0.9-0.5,1.2c-1,1-2.1,2-2.6,2.5c-0.3,0.3-0.6,0.4-1,0.5C18.5,22.9,18.2,22.9,17.9,22.9z M2.6,5
		c-0.9,2.1,0.1,5.2,2.8,8.6c4,4.9,10,8.6,13.1,8c0.1,0,0.3-0.1,0.4-0.2c0.6-0.5,1.6-1.5,2.6-2.4c0,0,0.1-0.2,0.1-0.4
		c0-0.2-0.1-0.5-0.2-0.6c-1.3-1.3-2.2-2.1-2.8-2.7l-0.5-0.5c-0.2-0.2-0.6-0.2-0.9,0.1C17,15,16.5,15.5,16,15.9c-0.8,0.8-2.1,1-3,0.4
		c-2.4-1.5-4-3.1-5.4-5.5C7,9.8,7.2,8.5,8.1,7.7c0.3-0.2,0.5-0.5,0.8-0.8c0.6-0.6,0.6-1.1,0-1.7C7.4,3.7,7.3,3.6,6.1,2.5L6,2.5
		c-0.4-0.3-0.8,0-0.9,0C4.5,3,3.2,4.4,2.8,4.7C2.7,4.8,2.7,4.9,2.6,5L2.6,5z"/>
</g>
</svg>
