<svg xmlns="http://www.w3.org/2000/svg" xmlns:xlink="http://www.w3.org/1999/xlink" viewBox="0 0 385 377.18"><defs><style>.cls-1{mask:url(#mask);}.cls-2,.cls-3,.cls-4{mix-blend-mode:multiply;}.cls-2{fill:url(#radial-gradient);}.cls-3{fill:url(#radial-gradient-2);}.cls-4{fill:url(#radial-gradient-3);}.cls-5{mask:url(#mask-4);}.cls-6{fill:url(#radial-gradient-4);}.cls-30,.cls-7,.cls-8{fill:#fff;}.cls-7{opacity:0.03;}.cls-9{fill:#ccc;}.cls-10{fill:#505050;}.cls-11{fill:#e1e2e3;}.cls-12{fill:#ecedee;}.cls-13{fill:#d1d3d4;}.cls-14{fill:#e5e5e5;}.cls-15{fill:#e5e6e7;}.cls-16{fill:#444;}.cls-17{fill:#717171;}.cls-18{fill:#17a9cb;}.cls-19{fill:#1494b2;}.cls-20,.cls-23,.cls-25{fill:#dfdfdf;}.cls-21{fill:#373737;}.cls-22{fill:#636363;}.cls-23{opacity:0.6;}.cls-24{fill:#4bbcd7;}.cls-25,.cls-30{opacity:0.2;}.cls-26{fill:#acacac;}.cls-26,.cls-29{opacity:0.5;}.cls-27{fill:#ddd;}.cls-28{fill:#2c2c2c;}.cls-29{fill:#828282;}.cls-31{fill:#d5e2dd;}.cls-32{fill:#9dacc2;}.cls-33{fill:#8354a6;}.cls-34{filter:url(#luminosity-noclip);}</style><filter id="luminosity-noclip" x="3.91" y="-8416.95" width="377.18" height="32766" filterUnits="userSpaceOnUse" color-interpolation-filters="sRGB"><feFlood flood-color="#fff" result="bg"/><feBlend in="SourceGraphic" in2="bg"/></filter><mask id="mask" x="3.91" y="-8416.95" width="377.18" height="32766" maskUnits="userSpaceOnUse"><g class="cls-34"/></mask><radialGradient id="radial-gradient" cx="192.13" cy="186.85" r="198.04" gradientTransform="translate(9.53 10.65) scale(0.95)" gradientUnits="userSpaceOnUse"><stop offset="0" stop-color="#fff"/><stop offset="0.11" stop-color="#cacaca"/><stop offset="0.24" stop-color="#959595"/><stop offset="0.37" stop-color="#676767"/><stop offset="0.5" stop-color="#424242"/><stop offset="0.63" stop-color="#252525"/><stop offset="0.75" stop-color="#111"/><stop offset="0.88" stop-color="#040404"/><stop offset="1"/></radialGradient><radialGradient id="radial-gradient-2" cx="192.13" cy="186.85" r="198.04" gradientTransform="translate(9.53 10.65) scale(0.95)" gradientUnits="userSpaceOnUse"><stop offset="0" stop-color="#fff"/><stop offset="0.1" stop-color="#fafafa"/><stop offset="0.22" stop-color="#eaeaea"/><stop offset="0.36" stop-color="#d1d1d1"/><stop offset="0.51" stop-color="#aeaeae"/><stop offset="0.66" stop-color="#818181"/><stop offset="0.82" stop-color="#494949"/><stop offset="0.98" stop-color="#090909"/><stop offset="1"/></radialGradient><radialGradient id="radial-gradient-3" cx="192.13" cy="186.85" r="198.04" gradientTransform="translate(9.53 10.65) scale(0.95)" gradientUnits="userSpaceOnUse"><stop offset="0" stop-color="#fff"/><stop offset="0.25" stop-color="#fdfdfd"/><stop offset="0.38" stop-color="#f5f5f5"/><stop offset="0.49" stop-color="#e7e7e7"/><stop offset="0.59" stop-color="#d3d3d3"/><stop offset="0.68" stop-color="#bababa"/><stop offset="0.76" stop-color="#9b9b9b"/><stop offset="0.83" stop-color="#757575"/><stop offset="0.9" stop-color="#4a4a4a"/><stop offset="0.97" stop-color="#1b1b1b"/><stop offset="1"/></radialGradient><mask id="mask-4" x="3.91" y="0" width="377.18" height="377.18" maskUnits="userSpaceOnUse"><g class="cls-1"><circle class="cls-2" cx="192.5" cy="188.59" r="188.59"/></g></mask><filter id="luminosity-noclip-4" x="3.91" y="0" width="377.18" height="377.18" filterUnits="userSpaceOnUse" color-interpolation-filters="sRGB"><feFlood flood-color="#fff" result="bg"/><feBlend in="SourceGraphic" in2="bg"/></filter><radialGradient id="radial-gradient-4" cx="192.13" cy="186.85" r="198.04" gradientTransform="translate(9.53 10.65) scale(0.95)" gradientUnits="userSpaceOnUse"><stop offset="0" stop-color="#fff"/><stop offset="0.86" stop-color="#fff"/><stop offset="1" stop-color="#fff"/></radialGradient></defs><g id="Слой_2" data-name="Слой 2"><g id="_404" data-name="404"><g class="cls-5"><g class="cls-5"><g class="cls-5"><circle class="cls-6" cx="192.5" cy="188.59" r="188.59"/></g></g></g><circle class="cls-7" cx="189.38" cy="188.59" r="127.6"/><circle class="cls-7" cx="189.38" cy="188.59" r="104.2" transform="translate(-77.88 189.15) rotate(-45)"/><circle class="cls-8" cx="189.66" cy="188.59" r="84.7"/><path class="cls-9" d="M242.68,148a17.08,17.08,0,1,1-17.08-17.09A17.08,17.08,0,0,1,242.68,148Z"/><path class="cls-9" d="M192.12,228a22.65,22.65,0,1,1-22.64-22.65A22.64,22.64,0,0,1,192.12,228Z"/><path class="cls-9" d="M254.09,214.15a20.76,20.76,0,1,1-20.76-20.75A20.75,20.75,0,0,1,254.09,214.15Z"/><path class="cls-9" d="M216.53,184.15a11.09,11.09,0,1,1-11.08-11.09A11.09,11.09,0,0,1,216.53,184.15Z"/><path class="cls-9" d="M259.9,179.76a6.7,6.7,0,1,1-6.7-6.7A6.7,6.7,0,0,1,259.9,179.76Z"/><path class="cls-9" d="M202.27,134.63a4.71,4.71,0,1,1-4.71-4.71A4.71,4.71,0,0,1,202.27,134.63Z"/><path class="cls-9" d="M166.34,126.43a3,3,0,1,1-3-3A3,3,0,0,1,166.34,126.43Z"/><path class="cls-9" d="M170.46,162.62A14.67,14.67,0,1,1,155.8,148,14.66,14.66,0,0,1,170.46,162.62Z"/><path class="cls-8" d="M93.39,226.87A10.83,10.83,0,0,1,82.56,237.7H72.69v24.76a10.83,10.83,0,1,1-21.66,0V237.7H10.83A10.82,10.82,0,0,1,1,222.39L52,110.24a10.83,10.83,0,0,1,20.69,4.49V216h9.87A10.83,10.83,0,0,1,93.39,226.87ZM51,164.68,27.66,216H51Z"/><path class="cls-8" d="M385,226.87a10.83,10.83,0,0,1-10.83,10.83H364.3v24.76a10.83,10.83,0,1,1-21.66,0V237.7h-40.2a10.82,10.82,0,0,1-9.86-15.31l51-112.15a10.83,10.83,0,0,1,20.69,4.49V216h9.87A10.83,10.83,0,0,1,385,226.87Zm-42.36-62.19L319.27,216h23.37Z"/><rect class="cls-10" x="162.08" y="29.5" width="57.85" height="55.53" rx="10.27"/><path class="cls-8" d="M176.83,87.67v21h10.94V96.24a2.86,2.86,0,0,1,5.72,0v12.48h10.94v-21Z"/><rect class="cls-11" x="176.83" y="102.53" width="10.94" height="6.36"/><path class="cls-12" d="M183.4,108.73h-2.51v-3.06a1.25,1.25,0,0,1,1.26-1.26h0a1.25,1.25,0,0,1,1.25,1.26Z"/><path class="cls-13" d="M188.45,107.46v5.59a.89.89,0,0,1-.95.83h-15a.87.87,0,0,1-.93-1c.57-2,2.39-6.22,7.76-6.22h8.16A.89.89,0,0,1,188.45,107.46Z"/><rect class="cls-11" x="193.5" y="102.53" width="10.94" height="6.36"/><rect class="cls-14" x="203.56" y="87.67" width="0.87" height="14.59"/><rect class="cls-14" x="176.74" y="87.67" width="0.87" height="14.59"/><path class="cls-13" d="M204.08,103H193.54a1.5,1.5,0,0,1-1.5-1.5h0a1.5,1.5,0,0,1,1.5-1.5h10.54a1.5,1.5,0,0,1,1.5,1.5h0A1.5,1.5,0,0,1,204.08,103Z"/><path class="cls-15" d="M196,101h0a.36.36,0,0,1-.37.37h-2.43a.37.37,0,0,1-.37-.37h0a.38.38,0,0,1,.37-.37h2.43A.37.37,0,0,1,196,101Z"/><path class="cls-15" d="M197.19,101h0a.36.36,0,0,1-.37.37h-.14a.37.37,0,0,1-.37-.37h0a.38.38,0,0,1,.37-.37h.14A.37.37,0,0,1,197.19,101Z"/><path class="cls-12" d="M200.07,108.73h-2.51v-3.06a1.25,1.25,0,0,1,1.25-1.26h0a1.26,1.26,0,0,1,1.26,1.26Z"/><path class="cls-13" d="M192.69,107.13V113a.94.94,0,0,0,1,.88h15.76a.9.9,0,0,0,1-1.08c-.59-2.11-2.51-6.54-8.15-6.54h-8.58A.94.94,0,0,0,192.69,107.13Z"/><path class="cls-12" d="M205.45,108.88a.88.88,0,1,1-.88-.88A.88.88,0,0,1,205.45,108.88Z"/><path class="cls-12" d="M178.06,108.88a.88.88,0,1,1-.88-.88A.87.87,0,0,1,178.06,108.88Z"/><path class="cls-13" d="M187.42,103H176.88a1.5,1.5,0,0,1-1.5-1.5h0a1.5,1.5,0,0,1,1.5-1.5h10.54a1.51,1.51,0,0,1,1.5,1.5h0A1.5,1.5,0,0,1,187.42,103Z"/><path class="cls-15" d="M179.36,101h0a.37.37,0,0,1-.37.37h-2.44a.37.37,0,0,1-.37-.37h0a.38.38,0,0,1,.37-.37H179A.38.38,0,0,1,179.36,101Z"/><path class="cls-15" d="M180.53,101h0a.37.37,0,0,1-.37.37H180a.36.36,0,0,1-.37-.37h0a.37.37,0,0,1,.37-.37h.14A.38.38,0,0,1,180.53,101Z"/><rect class="cls-16" x="162.08" y="46.57" width="57.85" height="4.64"/><rect class="cls-10" x="162.08" y="48.16" width="57.85" height="1.44"/><path class="cls-17" d="M167.68,43a1.35,1.35,0,1,1-1.34-1.35A1.34,1.34,0,0,1,167.68,43Z"/><path class="cls-17" d="M217,43a1.35,1.35,0,1,1-1.35-1.35A1.35,1.35,0,0,1,217,43Z"/><path class="cls-17" d="M167.68,54.14a1.35,1.35,0,1,1-1.34-1.34A1.34,1.34,0,0,1,167.68,54.14Z"/><path class="cls-17" d="M217,54.14a1.35,1.35,0,1,1-1.35-1.34A1.35,1.35,0,0,1,217,54.14Z"/><path class="cls-8" d="M215.82,71.41a5.09,5.09,0,0,1-3.41-1.32l-6.89-6.2a5.1,5.1,0,0,1,6.83-7.58l4.4,4,7.42-3.37a5.1,5.1,0,0,1,4.22,9.28L217.93,71A5,5,0,0,1,215.82,71.41Z"/><path class="cls-14" d="M228.92,65l-10.45,4.76a5.08,5.08,0,0,1-2.11.46,5.35,5.35,0,0,1-3.71-1.61l-6.89-6.2a4.86,4.86,0,0,1-1.39-3.56,5.11,5.11,0,0,0,1.44,5.35l6.89,6.21a5.09,5.09,0,0,0,3.41,1.31,5,5,0,0,0,2.11-.46l10.46-4.76a5.09,5.09,0,0,0,3-4.59A5.1,5.1,0,0,1,228.92,65Z"/><path class="cls-14" d="M207.94,83.19a5.43,5.43,0,0,0,.18-1.35v-27a5.18,5.18,0,0,0-5.18-5.18H179.07a5.18,5.18,0,0,0-5.18,5.18v27a5.43,5.43,0,0,0,.18,1.35Z"/><rect class="cls-18" x="183.34" y="64.69" width="15.33" height="11.48" rx="4.5"/><path class="cls-19" d="M196.73,65.48a4.51,4.51,0,0,1,1.05,2.89v2.49a4.5,4.5,0,0,1-4.49,4.5h-6.35a4.46,4.46,0,0,1-2.55-.8,4.48,4.48,0,0,0,3.44,1.6h6.34a4.49,4.49,0,0,0,4.5-4.49V69.18A4.5,4.5,0,0,0,196.73,65.48Z"/><path class="cls-20" d="M194.89,70.43A3.89,3.89,0,1,1,191,66.54,3.89,3.89,0,0,1,194.89,70.43Z"/><path class="cls-21" d="M193.94,70.43A2.94,2.94,0,1,1,191,67.49,2.94,2.94,0,0,1,193.94,70.43Z"/><path class="cls-22" d="M190.81,69.8a.92.92,0,1,1-.92-.92A.92.92,0,0,1,190.81,69.8Z"/><path class="cls-23" d="M191,69.18a.44.44,0,1,1-.43-.43A.44.44,0,0,1,191,69.18Z"/><path class="cls-23" d="M190,70.64a.52.52,0,1,1-.51-.51A.51.51,0,0,1,190,70.64Z"/><path class="cls-24" d="M185.32,67.06a.67.67,0,1,0,.66-.67A.67.67,0,0,0,185.32,67.06Z"/><path class="cls-25" d="M191,67.49a2.59,2.59,0,0,0-.48,0l-2.41,2.41a2.63,2.63,0,0,0,0,.49,2.91,2.91,0,0,0,1,2.2l4.14-4.14A3,3,0,0,0,191,67.49Z"/><path class="cls-25" d="M193.56,69l-4,4a3,3,0,0,0,1,.35L193.91,70A3,3,0,0,0,193.56,69Z"/><path class="cls-14" d="M207.06,88.18a.68.68,0,0,1-.71.66H175.66a.68.68,0,0,1-.71-.66V83.86a.69.69,0,0,1,.71-.67h30.69a.69.69,0,0,1,.71.67Z"/><path class="cls-26" d="M173.89,81.89a5,5,0,0,0,.18,1.3h33.87a5.51,5.51,0,0,0,.18-1.3Z"/><rect class="cls-21" x="178.44" y="53.14" width="3.15" height="30.05"/><rect class="cls-10" x="180.11" y="53.08" width="0.84" height="30.05"/><rect class="cls-21" x="200.42" y="53.14" width="3.15" height="30.05"/><rect class="cls-10" x="202.09" y="53.08" width="0.84" height="30.05"/><path class="cls-27" d="M191,47.51H173.49c0,8.93,5.67,11.15,8.47,12.46s8.58,1.55,8.58,1.55h.93s5.76-.24,8.57-1.55,8.48-3.53,8.48-12.46Z"/><path class="cls-8" d="M208.4,47.51c-.8,6.16-5.78,7.84-8.36,8.87-2.81,1.12-8.57,1.32-8.57,1.32h-.93s-5.77-.2-8.58-1.32c-2.57-1-7.55-2.71-8.36-8.87h-.11c0,8.93,5.67,11.15,8.47,12.46s8.58,1.55,8.58,1.55h.93s5.76-.24,8.57-1.55,8.48-3.53,8.48-12.46Z"/><path class="cls-8" d="M211.84,30.93l-.92-.63s-.43-1.24-1.26-1.44c0,0-1.27-4.55-3.11-6.86A17.91,17.91,0,0,0,198,16.19a33.57,33.57,0,0,0-6.47-1h-1.12a33.69,33.69,0,0,0-6.47,1A17.93,17.93,0,0,0,175.46,22c-1.85,2.31-3.11,6.86-3.11,6.86-.83.2-1.27,1.44-1.27,1.44l-.92.63a1.59,1.59,0,0,0-.68,1.31v5a1.58,1.58,0,0,0,.56,1.22l.8.68c0,6,1.51,8.15,3.55,10.36s6.47,4.32,9.1,5.19a37,37,0,0,0,7.1,1.15h.83a37.07,37.07,0,0,0,7.1-1.15c2.63-.87,7-3,9.1-5.19s3.55-4.41,3.55-10.36l.79-.68a1.59,1.59,0,0,0,.57-1.22v-5A1.6,1.6,0,0,0,211.84,30.93Z"/><path class="cls-21" d="M210.17,33.67c-.16-3.43.32-3.24-2.78-4.32a57.4,57.4,0,0,0-11.61-2.28c-3.52-.32-4.5-.29-4.5-.29h-.55s-1,0-4.5.29a57.4,57.4,0,0,0-11.61,2.28c-3.11,1.08-2.62.89-2.78,4.32a50.21,50.21,0,0,0,1.13,11c.55,2.47,3.78,4.8,8.15,7.17a24,24,0,0,0,9.29,2.49h1.19a24,24,0,0,0,9.28-2.49c4.38-2.37,7.61-4.7,8.15-7.17A49.57,49.57,0,0,0,210.17,33.67Z"/><path class="cls-28" d="M210.17,33.67c-.16-3.33.3-3.25-2.51-4.22a60.29,60.29,0,0,1-1.33,11.67C205.7,44,202,46.65,197,49.36a27.54,27.54,0,0,1-10.67,2.87h-1.37a26.6,26.6,0,0,1-4-.54l.21.12a24,24,0,0,0,9.29,2.49h1.19a24,24,0,0,0,9.28-2.49c4.38-2.37,7.61-4.7,8.15-7.17A49.57,49.57,0,0,0,210.17,33.67Z"/><path class="cls-27" d="M179.05,24.61a1.39,1.39,0,1,1-1.39-1.39A1.39,1.39,0,0,1,179.05,24.61Z"/><circle class="cls-27" cx="182.16" cy="21.45" r="1.77"/><path class="cls-27" d="M198.39,58.85a.79.79,0,1,1-.78-.79A.78.78,0,0,1,198.39,58.85Z"/><circle class="cls-27" cx="199.78" cy="58.18" r="0.51"/><path class="cls-29" d="M195.78,27.07c-3.52-.32-4.5-.29-4.5-.29h-.55s-1,0-4.5.29l-.69.07L172.25,40.43c.22,1.64.48,3.14.72,4.21.31,1.4,1.49,2.76,3.24,4.1l21.46-21.46C197,27.19,196.37,27.12,195.78,27.07Z"/><path class="cls-29" d="M201.35,27.86l-22.6,22.6c.74.45,1.54.9,2.37,1.35.39.2.77.39,1.17.57L205.8,28.86C204.45,28.49,202.91,28.14,201.35,27.86Z"/><circle class="cls-30" cx="178.91" cy="36" r="4.87"/><path class="cls-30" d="M185.36,31.88a2.44,2.44,0,1,1-2.43-2.43A2.43,2.43,0,0,1,185.36,31.88Z"/><circle class="cls-30" cx="178.68" cy="41.49" r="1.81"/><path class="cls-8" d="M173.87,55.51l-.41,0a6.82,6.82,0,0,0-6.82,6.83v19.9h7.23Z"/><path class="cls-14" d="M173.46,55.49l.41,0v.07a6.82,6.82,0,0,0-5.72,6.74v19.9h-1.51V62.32A6.82,6.82,0,0,1,173.46,55.49Z"/><path class="cls-13" d="M175.38,83.26a5.13,5.13,0,1,1-5.13-5.13A5.13,5.13,0,0,1,175.38,83.26Z"/><circle class="cls-8" cx="167.93" cy="81.71" r="1.07"/><path class="cls-31" d="M222,113.86h0a1.67,1.67,0,0,1-1.4-1.9L235.69,11.37A1.66,1.66,0,0,1,237.58,10h0a1.67,1.67,0,0,1,1.41,1.9L223.9,112.45A1.67,1.67,0,0,1,222,113.86Z"/><path class="cls-32" d="M278.55,49.76c-17.53,5-30-12.15-47.55-7.13q2.48-16.5,4.94-33c17.52-5,30,12.15,47.56,7.14Z"/><path class="cls-33" d="M241.28,13.24a1.51,1.51,0,1,1-1.51-1.51A1.51,1.51,0,0,1,241.28,13.24Z"/><path class="cls-33" d="M245.09,13.24a1,1,0,1,1-1.91,0,1,1,0,0,1,1.91,0Z"/><circle class="cls-13" cx="229.15" cy="59.61" r="6.55"/><path class="cls-8" d="M233.33,56.51a1.17,1.17,0,1,1-1.16-1.17A1.17,1.17,0,0,1,233.33,56.51Z"/></g></g></svg>