<svg id="Layer_1" xmlns="http://www.w3.org/2000/svg" xmlns:xlink="http://www.w3.org/1999/xlink" viewBox="0 0 288 221.5"><style>.st0{opacity:.8;clip-path:url(#SVGID_2_)}.st1{fill:#595959}.st2{clip-path:url(#SVGID_2_)}.st3{opacity:.3}.st4{opacity:.8}.st4,.st5{clip-path:url(#SVGID_4_)}.st6{opacity:.8}.st6,.st7{clip-path:url(#SVGID_6_)}.st8{opacity:.8}.st8,.st9{clip-path:url(#SVGID_8_)}.st10{opacity:.8}.st10,.st11{clip-path:url(#SVGID_10_)}</style><defs><path id="SVGID_1_" d="M0-66.5h288v288H0z"/></defs><clipPath id="SVGID_2_"><use xlink:href="#SVGID_1_" overflow="visible"/></clipPath><g class="st0"><path class="st1" d="M71 169.6h-.2L53 159.7c-.1-.1-.2-.2-.2-.4 0-.1.1-.3.2-.3l22.6-9.2c.1-.1.3 0 .4.1.1.1.2.2.1.4l-4.8 19.1c0 .1-.1.2-.2.3 0-.1-.1-.1-.1-.1zm-17-10.2l16.7 9.3 4.5-17.9-21.2 8.6z" id="triangle36_292_"/><path class="st1" d="M53.1 159.7c-.1 0-.2-.1-.3-.2-.1-.1-.1-.3 0-.5l27.3-29.7c.1-.1.3-.2.5-.1s.2.2.2.4l-4.7 20.5c0 .1-.1.2-.2.3l-22.6 9.2c-.1.1-.1.1-.2.1zm26.7-28.8l-25.2 27.4 20.9-8.5 4.3-18.9z" id="triangle36_291_"/><path class="st1" d="M75.7 150.5h-.1c-.2-.1-.3-.3-.2-.4l4.7-20.5c0-.1.1-.1.1-.2l24.2-23.5c.1-.1.4-.1.5 0 .1.1.2.3.1.5l-28.9 44c-.1 0-.2.1-.4.1zm5.1-20.7l-4.2 18.3 25.9-39.3-21.7 21z" id="triangle36_290_"/><path class="st1" d="M75.7 150.5c-.1 0-.2 0-.3-.1-.1-.1-.1-.3 0-.4l28.9-44c.1-.1.2-.2.4-.2l59.6 9.1c.2 0 .3.2.3.3 0 .2-.1.3-.2.4l-88.5 34.8c-.1.1-.1.1-.2.1zm29.1-43.9l-28.1 42.8 86.1-33.9-58-8.9z" id="triangle36_289_"/><path class="st1" d="M164.2 115.7l-59.6-9.1c-.1 0-.2-.1-.3-.2-.1-.1-.1-.2 0-.3l6.1-20.5c0-.1.1-.2.2-.2h.3l53.5 29.6c.2 0 .3.2.3.4-.1.1-.2.3-.5.3zm-59.1-9.8l57.1 8.7L111 86.2l-5.9 19.7z" id="triangle36_288_"/><path class="st1" d="M25.6 203.6c-.1 0-.2 0-.3-.1-.1-.1-.2-.3-.1-.5l27.6-43.9c.1-.2.3-.2.5-.1l17.8 9.9c.1.1.2.2.2.3 0 .1 0 .2-.1.3l-45.4 34c-.1.1-.2.1-.2.1zm27.7-43.7L27 201.7l43.3-32.4-17-9.4z" id="triangle36_287_"/><path class="st1" d="M53.9 246.7c-.1 0-.2-.1-.3-.2l-28.3-43.1c-.1-.2-.1-.4.1-.5l45.4-34c.1-.1.3-.1.4 0 .1.1.2.2.2.4l-17.1 77.1c-.1.1-.2.3-.4.3.1 0 0 0 0 0zm-27.8-43.4l27.7 42 16.7-75.2-44.4 33.2z" id="triangle36_286_"/><path class="st1" d="M53.9 246.7c-.1 0-.2 0-.2-.1-.1-.1-.2-.2-.1-.4l17.1-77.1c0-.2.2-.3.4-.3l112 3.8c.2 0 .3.1.4.3 0 .2 0 .3-.2.4l-129 73.3c-.3.1-.3.1-.4.1zm17.4-77.1l-16.8 75.9 127.2-72.2-110.4-3.7z" id="triangle36_285_"/><path class="st1" d="M183 173.4c-.1 0-.1 0 0 0l-112-3.8c-.1 0-.2-.1-.3-.1-.1-.1-.1-.2-.1-.3l4.8-19.1c0-.2.2-.3.4-.3L183 172.6c.2 0 .4.2.4.4-.1.2-.2.4-.4.4zm-111.6-4.5l107.3 3.6L76 150.6l-4.6 18.3z" id="triangle36_284_"/><path class="st1" d="M182.9 173.4L75.7 150.5c-.2 0-.3-.2-.3-.3 0-.2.1-.3.2-.4l88.5-34.8h.3c.1 0 .2.1.2.2l18.7 57.6c0 .1.1.1.1.2-.1.2-.2.4-.5.4.1 0 0 0 0 0zM77 150l105.3 22.5-18.3-56.7L77 150z" id="triangle36_283_"/><path class="st1" d="M182.9 173.4c-.1 0-.2-.1-.3-.2-.1-.1-.1-.2 0-.4l25-62c.1-.2.2-.2.4-.2s.3.1.3.3l14.1 60c0 .1 0 .2-.1.3-.1.1-.2.1-.3.1l-39.1 2.1c.1 0 .1 0 0 0zm24.9-61.1l-24.3 60.3 38-1.9-13.7-58.4z" id="triangle36_282_"/><path class="st1" d="M182.9 173.4c-.2 0-.3-.1-.4-.3l-18.7-57.7v-.3c.1-.1.2-.2.3-.2l43.7-4.2c.1 0 .3 0 .3.1.1.1.1.2 0 .4l-25 62c.1.1 0 .2-.2.2zm-18.1-57.8l18.2 56.3 24.3-60.4-42.5 4.1z" id="triangle36_281_"/><path class="st1" d="M53.9 246.7c-.2 0-.3-.1-.4-.3-.1-.2 0-.4.2-.4l129-73.3c.1-.1.3-.1.4 0l61.6 51.5c.1.1.2.3.1.4 0 .1-.2.2-.3.3L53.9 246.7zm129-73.2L55.7 245.7l188-21.5-60.8-50.7z" id="triangle36_280_"/><path class="st1" d="M244.6 224.9c-.1 0-.2 0-.2-.1l-61.6-51.5c-.1-.1-.2-.3-.1-.4 0-.1.2-.2.3-.3l39-2c.1 0 .3.1.4.2l22.6 53.4c.1.1.1.2.1.2-.1.3-.3.5-.5.5zm-60.7-51.6l59.7 49.9-21.9-51.8-37.8 1.9z" id="triangle36_279_"/><path class="st1" d="M268.2 225.7l-23.6-.8c-.1 0-.3-.1-.3-.2l-22.6-53.5c-.1-.2 0-.4.1-.5.2-.1.4-.1.5.1l46.2 54.3c.1.1.1.3.1.4-.1.1-.3.2-.4.2zm-23.4-1.6l22.5.8-44.1-51.8 21.6 51z" id="triangle36_278_"/><path class="st1" d="M53.1 159.7c-.1 0-.1 0-.2-.1-.2-.1-.2-.3-.1-.5l18.8-45.5c.1-.1.2-.2.3-.2.1 0 .3.1.3.2l8.6 15.7c.1.1.1.3-.1.4l-27.3 29.7c-.1.3-.2.3-.3.3zm18.8-44.9l-17.7 42.8 25.7-28-8-14.8z" id="triangle36_277_"/><path class="st1" d="M80.5 130s-.1 0 0 0c-.2 0-.3-.1-.3-.2l-8.6-15.7c-.1-.1-.1-.2 0-.3 0-.1.1-.2.3-.2l32.8-7.7c.2 0 .3 0 .4.2.1.1.1.3-.1.4L80.8 130h-.3zm-8-15.8l8.1 14.9 22.8-22.2-30.9 7.3z" id="triangle36_276_"/><path class="st1" d="M71.9 114.3c-.1 0-.3-.1-.3-.2-.1-.2 0-.4.1-.5l38.8-28.3c.1-.1.3-.1.4 0 .1.1.2.3.1.4l-6.1 20.5c0 .1-.1.2-.3.3l-32.7 7.8zm38.2-27.7l-36.4 26.5 30.7-7.3 5.7-19.2z" id="triangle36_275_"/><path class="st1" d="M164.2 115.7h-.2L110.6 86c-.1-.1-.2-.2-.2-.3 0-.1.1-.3.2-.3l51.7-25.6c.1-.1.2-.1.4 0 .1.1.2.2.2.3l1.8 55.2c0 .1-.1.3-.2.3s-.2.1-.3.1zm-52.7-30.1l52.3 29-1.7-54-50.6 25z" id="triangle36_274_"/><path class="st1" d="M110.7 86c-.1 0-.2 0-.2-.1-.1-.1-.2-.2-.1-.4l6.4-32c0-.2.2-.3.4-.3l45.4 6.5c.2 0 .3.1.3.3 0 .2-.1.3-.2.4L110.9 86h-.2zm6.7-32l-6.1 31 50-24.7-43.9-6.3z" id="triangle36_273_"/><path class="st1" d="M164.2 115.7c-.1 0-.2 0-.2-.1-.1-.1-.1-.2-.1-.3l-1.8-55.2c0-.2.1-.3.2-.4.1-.1.3 0 .4.1l45.4 51c.1.1.1.3.1.4-.1.1-.2.2-.3.2l-43.7 4.3c.1 0 .1 0 0 0zm-1.3-54.6l1.7 53.8 42.5-4.1-44.2-49.7z" id="triangle36_272_"/><path class="st1" d="M162.5 60.5s-.1 0 0 0L117.1 54c-.2 0-.3-.2-.3-.4l.4-8.8c0-.1.1-.2.2-.3.1-.1.2-.1.3 0l44.9 15.2c.2 0 .3.2.3.4s-.2.4-.4.4zm-45-7.2l41 5.8-40.7-13.8-.3 8z" id="triangle36_271_"/><path class="st1" d="M162.5 60.5h-.1l-45-15.3c-.1 0-.2-.2-.3-.3 0-.2.1-.3.2-.4l34.5-16.6h.3c.1 0 .2.1.2.2l10.4 31.7c0 .1.1.1.1.2.1.3-.1.4-.3.5zm-44-15.7l43.4 14.7-10.1-30.7-33.3 16z" id="triangle36_270_"/><path class="st1" d="M207.9 111.4c-.1 0-.2 0-.3-.1l-45.4-51c-.1-.1-.1-.2-.1-.3 0-.1.1-.2.1-.3L235.1 0c.1-.1.3-.1.4 0 .1.1.2.3.2.4L208.3 111c-.1.3-.2.4-.4.4.1 0 0 0 0 0zM163 60.1l44.7 50.1 27-108.9L163 60.1z" id="triangle36_269_"/><path class="st1" d="M162.5 60.5h-.1c-.1 0-.2-.1-.3-.2l-10.5-31.8c-.1-.2 0-.4.2-.5l83.4-28c.2-.1.4 0 .4.2.1.2 0 .4-.1.5l-72.9 59.7s0 .1-.1.1zm-10-32l10.2 31 70.9-58-81.1 27z" id="triangle36_268_"/><path class="st1" d="M243.9 331.4h-.2l-190-84.8c-.2-.1-.2-.2-.2-.4s.2-.3.3-.3l190.7-21.8c.1 0 .2 0 .3.1.1.1.1.2.1.3l-.6 106.6c0 .1-.1.2-.2.3h-.2zM55.3 246.5l188.3 84 .6-105.6-188.9 21.6z" id="triangle36_267_"/><path class="st1" d="M53.9 246.7s-.1 0 0 0l-11.6-2.8c-.1 0-.2-.1-.3-.2l-16.8-40.3c-.1-.2 0-.4.2-.5.2-.1.4 0 .5.1l28.3 43.1c.1.1.1.3 0 .4-.1.1-.2.2-.3.2zm-11.3-3.5l10.4 2.5-25.6-38.9 15.2 36.4z" id="triangle36_266_"/><path class="st1" d="M314.2 107.4c-.1 0-.2-.1-.3-.2L235.1.6c-.1-.1-.1-.3 0-.5.1-.1.3-.2.5-.1l103.7 61.5c.2.1.2.3.1.5l-24.8 45.1c-.1.2-.2.3-.4.3.1 0 .1 0 0 0zM236.8 1.7l77.4 104.6L338.6 62 236.8 1.7z" id="triangle36_265_"/><path class="st1" d="M207.9 111.4c-.1 0-.2-.1-.3-.1-.1-.1-.1-.2-.1-.3L235 .3c0-.1.1-.2.3-.3.1 0 .3 0 .4.1l78.9 106.6c.1.1.1.3 0 .4-.1.1-.2.2-.3.2l-106.4 4.1zM235.5 1.3l-27.1 109.4 105.1-4-78-105.4z" id="triangle36_264_"/><path class="st1" d="M254.5 346.4c-.1 0-.2-.1-.3-.2l-10.6-15c-.1-.1-.1-.3 0-.4.1-.1.3-.2.4-.1l10.9 3.5c.2.1.3.2.3.4l-.3 11.5c0 .2-.1.3-.3.3h-.1zm-9.6-14.6l9.3 13.1.3-10.1-9.6-3z" id="triangle36_263_"/><path class="st1" d="M254.8 334.9h-.1l-10.9-3.5c-.2-.1-.3-.2-.3-.4l14.9-83c0-.2.2-.3.4-.3s.3.2.3.4l-4 86.5c0 .1-.1.2-.2.3h-.1zm-10.4-4.1l10.1 3.2 3.7-80.3-13.8 77.1z" id="triangle36_262_"/><path class="st1" d="M243.9 331.4c-.2 0-.4-.2-.4-.4l.6-106.6c0-.2.1-.3.3-.4.2 0 .3 0 .4.2l14.2 23.6c0 .1.1.2 0 .3l-14.9 83c.2.2 0 .3-.2.3zm1-105.6l-.6 100.9 14.1-78.6-13.5-22.3z" id="triangle36_261_"/><path class="st1" d="M258.8 248.4c-.1 0-.3-.1-.3-.2l-14.2-23.6c-.1-.1-.1-.3 0-.4.1-.1.2-.2.3-.2l23.6.8c.1 0 .2.1.3.2.1.1.1.2 0 .3l-9.4 22.7c0 .3-.1.4-.3.4zm-13.6-23.5l13.5 22.3 8.9-21.5-22.4-.8z" id="triangle36_260_"/><path class="st1" d="M337.4 135.2c-.1 0-.2 0-.3-.1L314 107.2c-.1-.1-.1-.2-.1-.3 0-.1.1-.2.2-.3l54.2-33.8c.1-.1.3-.1.5 0 .1.1.2.3.1.4l-31 61.6c-.2.3-.4.4-.5.4zm-22.6-28.1l22.5 27.1 30.2-59.9-52.7 32.8z" id="triangle36_259_"/><path class="st1" d="M314.2 107.4c-.1 0-.2 0-.3-.1-.1-.1-.2-.3-.1-.5l24.8-45.1c.1-.2.3-.2.5-.2l29.3 11.3c.1.1.2.2.2.3 0 .1-.1.3-.2.4l-54.2 33.8c.2 0 .1.1 0 .1zm25-45l-24 43.5 52.3-32.6-28.3-10.9z" id="triangle36_258_"/><path class="st1" d="M283.8 144.7c-.1 0-.3-.1-.3-.2-.1-.1-.1-.3 0-.4l30.5-37.3c.1-.1.2-.1.3-.1.1 0 .2 0 .3.1l23.1 27.8c.1.1.1.2.1.4 0 .1-.2.2-.3.2l-53.7 9.5c0-.1 0 0 0 0zm30.4-37.1l-29.5 36.2 52-9.2-22.5-27z" id="triangle36_257_"/><path class="st1" d="M268.2 225.7c-.1 0-.2 0-.3-.1l-46.2-54.3c-.1-.1-.1-.2-.1-.3 0-.1.1-.2.2-.3l61.8-26.7c.1-.1.3 0 .4.1.1.1.2.2.1.4l-15.6 81s-.1.1-.3.2zm-45.6-54.5l45.4 53.3 15.3-79.6-60.7 26.3z" id="triangle36_256_"/><path class="st1" d="M222 171.4h-.2c-.1 0-.2-.1-.2-.2l-14.1-60c0-.1 0-.3.1-.4.1-.1.3-.1.4-.1l75.9 33.2c.1.1.2.2.2.3 0 .1-.1.3-.2.3l-61.8 26.7c0 .2-.1.2-.1.2zm-13.6-59.7l13.8 58.8 60.6-26.2-74.4-32.6z" id="triangle36_255_"/><path class="st1" d="M283.8 144.7h-.2l-75.9-33.2c-.2-.1-.2-.2-.2-.4s.2-.3.4-.3l106.3-4.1c.2 0 .3.1.3.2.1.1 0 .3 0 .4L284 144.6s-.1.1-.2.1zm-74.2-33.3l74.1 32.5 29.8-36.4-103.9 3.9z" id="triangle36_254_"/></g><g class="st2"><g id="triangle36_253_" class="st3"><path class="st1" d="M229.4 427.7c-.1 0-.2 0-.3-.1l-22-24.8c-.1-.1-.1-.3-.1-.4.1-.1.2-.2.3-.2l26.6-2.5c.1 0 .2 0 .3.1.1.1.1.2.1.3l-4.6 27.3c0 .1-.1.3-.3.3.1 0 0 0 0 0zm-21.2-24.8l21 23.7 4.4-26-25.4 2.3z"/></g><g id="triangle36_252_" class="st3"><path class="st1" d="M229.4 427.7h-.1L179 406.1c-.2-.1-.2-.2-.2-.4s.2-.3.3-.3l28.3-3.1c.1 0 .2 0 .3.1l22 24.8c.1.1.1.3 0 .5h-.3zm-48.9-21.8l47.5 20.4-20.7-23.3-26.8 2.9z"/></g><g id="triangle36_251_" class="st3"><path class="st1" d="M179.1 406.1h-.2L138 385.7c-.2-.1-.3-.3-.2-.5.1-.2.3-.3.4-.2l69.3 17.2c.2 0 .3.2.3.4s-.2.3-.3.3l-28.4 3.2zm-37.7-19.6l37.8 18.8 26.1-2.9-63.9-15.9z"/></g><g id="triangle36_250_" class="st3"><path class="st1" d="M207.4 403s0-.1 0 0L138 385.7c-.1 0-.3-.2-.3-.3L122.6 305c0-.2.1-.3.2-.4.2-.1.3 0 .4.1l84.4 97.6c.1.1.1.3 0 .4.1.2-.1.3-.2.3zm-68.9-18l67.9 16.9-82.7-95.7 14.8 78.8z"/></g><g id="triangle36_249_" class="st3"><path class="st1" d="M109.1 387.2c-.1 0-.2 0-.3-.1-.1-.1-.1-.2-.1-.3l13.9-81.8c0-.2.2-.3.4-.3s.3.1.4.3l15.1 80.4c0 .1 0 .2-.1.3-.1.1-.2.1-.3.1l-29 1.4zm13.9-80.1l-13.5 79.3 28.1-1.4-14.6-77.9z"/></g><g id="triangle36_248_" class="st3"><path class="st1" d="M298 443.3s-.1 0 0 0l-68.7-15.6c-.2 0-.3-.2-.3-.4l4.6-27.3c0-.1.1-.2.2-.3h.4l63.9 42.8c.1.1.2.2.2.4.1.2-.1.4-.3.4zm-68.2-16.2l66.3 15-61.8-41.4-4.5 26.4z"/></g><g id="triangle36_247_" class="st3"><path class="st1" d="M298 443.3c-.1 0-.1 0-.2-.1l-63.9-42.8c-.1-.1-.2-.2-.2-.4s.2-.3.3-.3l106.3-12.8c.2 0 .3.1.4.2.1.1.1.3 0 .4l-42.4 55.6c-.1.1-.2.2-.3.2zm-62.9-43l62.8 42.1 41.6-54.7-104.4 12.6z"/></g><g id="triangle36_246_" class="st3"><path class="st1" d="M234 400.5c-.2 0-.3-.1-.4-.3l-45.6-145c0-.2 0-.3.2-.4.1-.1.3-.1.5 0L340.6 387c.1.1.2.3.1.4 0 .1-.2.2-.3.3L234 400.5c.1 0 .1 0 0 0zm-44.8-144.3l45.1 143.5L339.5 387 189.2 256.2z"/></g><g id="triangle36_245_" class="st3"><path class="st1" d="M207.4 403c-.2 0-.3-.1-.4-.3l-18.9-147.5c0-.2.1-.4.3-.4.2 0 .4.1.4.3l45.6 145v.3c-.1.1-.2.2-.3.2l-26.7 2.4zm-18-143.8l18.3 143 25.8-2.4-44.1-140.6z"/></g><g id="triangle36_244_" class="st3"><path class="st1" d="M207.4 403c-.1 0-.2 0-.3-.1l-84.4-97.6c-.1-.1-.1-.2-.1-.3 0-.1.1-.2.1-.3l65.5-49.9c.1-.1.2-.1.4 0 .1.1.2.2.2.3l18.9 147.4v.2c.1.1-.1.3-.3.3zm-83.8-98l83.3 96.4-18.7-145.6-64.6 49.2z"/></g><g id="triangle36_243_" class="st3"><path class="st1" d="M188.5 255.4l-90.6-4.1c-.2 0-.3-.1-.3-.3 0-.2 0-.3.2-.4l70.5-45c.1-.1.2-.1.3 0 .1 0 .2.1.2.2l20.1 49.1v.4c-.2.1-.3.1-.4.1zm-89.4-4.7l88.8 4-19.7-48.1-69.1 44.1z"/></g><g id="triangle36_242_" class="st3"><path class="st1" d="M123 305.3c-.2 0-.3-.1-.3-.2l-25.1-54c-.1-.1 0-.3 0-.4.1-.1.2-.2.3-.2l90.5 4.1c.2 0 .3.1.3.3 0 .2 0 .3-.1.4l-65.5 49.9c.1.1 0 .1-.1.1zm-24.5-53.9l24.6 53 64.3-49-88.9-4z"/></g><g id="triangle36_241_" class="st3"><path class="st1" d="M340.4 387.6c-.1 0-.2 0-.3-.1L188.2 255.3c-.1-.1-.2-.3-.1-.4l38.2-102c.1-.1.2-.2.3-.2.1 0 .3.1.4.2L340.7 387c.1.1.1.2.1.3 0 .2-.2.3-.4.3zM188.9 255l150.3 130.8L226.7 154l-37.8 101z"/></g><g id="triangle36_240_" class="st3"><path class="st1" d="M188.5 255.4c-.2 0-.3-.1-.3-.2l-20.1-49.1c-.1-.1 0-.3.1-.4l58.3-53c.1-.1.3-.1.5 0 .1.1.2.3.1.4l-38.2 102c-.1.2-.2.3-.4.3zm-19.7-49.3l19.6 47.9 37.3-99.7-56.9 51.8z"/></g><g id="triangle36_239_" class="st3"><path class="st1" d="M168.4 206.4c-.1 0-.2 0-.2-.1-.1-.1-.2-.3-.1-.5l48.7-83.6c.1-.1.2-.2.4-.2.1 0 .3.1.3.3l9.6 30.6c0 .1 0 .3-.1.4l-58.3 53c-.1.1-.2.1-.3.1zm48.6-83l-47 80.7 56.3-51.2-9.3-29.5z"/></g><g id="triangle36_238_" class="st3"><path class="st1" d="M229.4 427.7l-66.6-3.6c-.1 0-.3-.1-.3-.2-.1-.1 0-.3.1-.4l16.3-18.1c.1-.1.3-.2.4-.1l50.3 21.6c.2.1.3.3.2.4-.1.3-.2.4-.4.4zm-65.8-4.2l63.7 3.4-48.2-20.7-15.5 17.3z"/></g><g id="triangle36_237_" class="st3"><path class="st1" d="M162.8 424.2c-.1 0-.3-.1-.3-.2l-24.6-38.5c-.1-.1-.1-.3 0-.5.1-.1.3-.2.4-.1l40.9 20.4c.1.1.2.2.2.3 0 .1 0 .2-.1.3L163 424c0 .1-.1.2-.2.2zm-23.6-37.9l23.6 36.9 15.6-17.3-39.2-19.6z"/></g><g id="triangle36_236_" class="st3"><path class="st1" d="M162.8 424.2c-.1 0-.1 0-.2-.1l-53.7-37c-.1-.1-.2-.3-.1-.4 0-.2.2-.3.3-.3l29-1.5c.1 0 .3.1.3.2l24.6 38.5c.1.2.1.3-.1.5.1 0 0 .1-.1.1zm-52.6-37.1l51.2 35.3-23.5-36.7-27.7 1.4z"/></g><g id="triangle36_235_" class="st3"><path class="st1" d="M109.1 387.2c-.1 0-.2 0-.3-.1l-56-54.7c-.1-.1-.1-.2-.1-.3 0-.1.1-.2.2-.3l69.9-27.1c.1 0 .3 0 .4.1.1.1.2.2.1.4L109.4 387c0 .1-.1.3-.3.3.1-.1.1-.1 0-.1zm-55.3-55l55.1 53.8 13.7-80.5-68.8 26.7z"/></g><g id="triangle36_234_" class="st3"><path class="st1" d="M65.3 393.4c-.2 0-.3-.1-.4-.3l-12.1-61c0-.2 0-.3.2-.4.1-.1.3-.1.4.1l56 54.7c.1.1.1.2.1.4 0 .1-.2.2-.3.3l-43.9 6.2zm-11.6-60.2l11.8 59.4 42.8-6.1-54.6-53.3z"/></g><g id="triangle36_233_" class="st3"><path class="st1" d="M53.1 332.4c-.1 0-.2 0-.3-.1-.1-.1-.1-.3 0-.4l44.8-81.1c.1-.1.2-.2.3-.2.1 0 .3.1.3.2l25.1 54v.3c0 .1-.1.2-.2.2l-69.9 27.1h-.1zm44.8-80.6L54 331.3l68.5-26.6-24.6-52.9z"/></g><g id="triangle36_232_" class="st3"><path class="st1" d="M53.8 396.8c-.1 0-.2 0-.2-.1-.1-.1-.2-.2-.2-.3l-.7-64.4c0-.2.1-.4.3-.4.2 0 .4.1.4.3l12.1 61c0 .2-.1.4-.3.4l-11.4 3.4c.1.1.1.1 0 .1zm-.2-60.7l.6 59.9 10.6-3.2-11.2-56.7z"/></g><g id="triangle36_231_" class="st3"><path class="st1" d="M53.8 396.8c-.1 0-.2 0-.3-.1L16.8 360c-.1-.1-.1-.2-.1-.3 0-.1.1-.2.1-.3l36.1-27.7c.1-.1.3-.1.4 0 .1.1.2.2.2.3l.7 64.3v.1c0 .3-.1.5-.4.4zm-36.1-37l35.8 35.8-.7-62.7-35.1 26.9z"/></g><g id="triangle36_230_" class="st3"><path class="st1" d="M53.1 332.4c-.1 0-.1 0-.2-.1l-109.2-66.5c-.1-.1-.2-.2-.2-.4s.2-.3.3-.3l154-14.6c.1 0 .3.1.3.2.1.1.1.3 0 .4l-44.8 81.1c.1.1 0 .2-.2.2.1 0 .1 0 0 0zm-108-66.5L53 331.5l44.3-80.1-152.2 14.5z"/></g><g id="triangle36_229_" class="st3"><path class="st1" d="M17.1 360.1c-.1 0-.2 0-.3-.1l-73.1-94.2c-.1-.1-.1-.3 0-.5.1-.1.3-.2.5-.1l109.2 66.5c.1.1.2.2.2.3 0 .1 0 .2-.1.3L17.4 360c-.2.1-.2.1-.3.1zM-54.5 267l71.6 92.3 35.3-27.1L-54.5 267z"/></g><g id="triangle36_228_" class="st3"><path class="st1" d="M340.4 387.6c-.1 0-.3-.1-.3-.2L226.3 153.2v-.3c0-.1.1-.2.2-.2l136.7-47.1c.1 0 .3 0 .4.1.1.1.2.2.1.3l-23 281.4c0 .1-.1.2-.3.2zM227.2 153.2l112.9 232.6L363 106.4l-135.8 46.8z"/></g><g id="triangle36_227_" class="st3"><path class="st1" d="M298 443.3c-.1 0-.2 0-.3-.1-.1-.1-.2-.3 0-.5l42.4-55.6c.1-.1.3-.2.4-.1.1 0 .3.2.3.3l1.6 16c0 .1 0 .2-.1.3l-44 39.6c-.1.1-.2.1-.3.1zm42.1-55L300.7 440l40.9-36.8-1.5-14.9z"/></g><g id="triangle36_226_" class="st3"><path class="st1" d="M-56 266h-.1c-.2-.1-.3-.2-.2-.4l32.1-160.4c0-.2.2-.3.4-.3L45 116.3c.1 0 .2.1.3.2.1.1 0 .3 0 .4l-101 148.9c-.1.1-.2.2-.3.2zm32.3-160.4l-31.6 158.2L44.3 117l-68-11.4z"/></g><g id="triangle36_225_" class="st3"><path class="st1" d="M-56 266c-.1 0-.3-.1-.3-.2-.1-.1-.1-.3 0-.4l101-148.9c.1-.1.2-.2.4-.2.1 0 .3.1.3.2l53 134.3v.3c-.1.1-.2.2-.3.2L-56 266zM44.8 117.5L-55.3 265.2l152.7-14.5-52.6-133.2z"/></g><g id="triangle36_224_" class="st3"><path class="st1" d="M363.4 106.3h-.1c-.2 0-.3-.2-.3-.3l-.4-15.5c0-.2.1-.3.3-.4l14.8-4.8c.2 0 .3 0 .4.1.1.1.1.3 0 .4l-14.4 20.3c-.1.1-.2.2-.3.2zm0-15.7l.4 14.1 13.1-18.5-13.5 4.4z"/></g><g id="triangle36_223_" class="st3"><path class="st1" d="M250.4 124.6c-.2 0-.3-.1-.4-.3 0-.2.1-.4.3-.4L362.9 90c.1 0 .2 0 .3.1.1.1.2.2.2.3l.4 15.5c0 .2-.1.4-.3.4l-113.1 18.3c.1 0 .1 0 0 0zm112.2-33.7l-106.6 32 107-17.4-.4-14.6z"/></g><g id="triangle36_222_" class="st3"><path class="st1" d="M226.7 153.4c-.1 0-.2-.1-.3-.2-.1-.1-.1-.3 0-.5l23.8-28.8c.1-.1.1-.1.2-.1l113-18.3c.2 0 .4.1.4.3 0 .2-.1.4-.2.4l-136.7 47.1c-.1.1-.2.1-.2.1zm23.9-28.8l-22.8 27.7L359.1 107l-108.5 17.6z"/></g><g id="triangle36_221_" class="st3"><path class="st1" d="M226.7 153.4s-.1 0 0 0c-.2 0-.3-.1-.4-.3l-9.6-30.6c0-.1 0-.2.1-.3.1-.1.2-.2.3-.1l33.3 1.8c.1 0 .3.1.3.2.1.1 0 .3-.1.4L227 153.3c-.1 0-.2.1-.3.1zm-9.1-30.6l9.2 29.4 22.8-27.7-32-1.7z"/></g><g id="triangle36_220_" class="st3"><path class="st1" d="M44.9 117.1c-.1 0-.2 0-.2-.1l-67.6-54.2c-.1-.1-.2-.3-.1-.4.1-.2.2-.2.4-.2l92.8 12c.1 0 .2.1.3.2.1.1 0 .2 0 .4l-25.2 42.1c-.1.1-.2.1-.4.2.1 0 .1 0 0 0zm-66.3-54l66.2 53 24.7-41.3-90.9-11.7z"/></g><g id="triangle36_219_" class="st3"><path class="st1" d="M44.9 117.1l-69-11.5c-.2 0-.3-.2-.3-.4l1.3-42.6c0-.1.1-.3.2-.3.1-.1.3 0 .4 0L45 116.4c.1.1.2.2.2.3.1.2 0 .4-.3.4zm-68.5-12.2l67.1 11.2-65.9-52.8-1.2 41.6z"/></g><g id="triangle36_218_" class="st3"><path class="st1" d="M106.4 139.3h-.1L44.8 117c-.1 0-.2-.1-.2-.2v-.3l25.2-42.1c.1-.1.2-.2.3-.2.1 0 .3.1.3.2l36.2 64.4c.1.1.1.3 0 .4 0 0-.1.1-.2.1zm-60.9-22.8l60.1 21.7-35.5-62.9-24.6 41.2z"/></g><g id="triangle36_217_" class="st3"><path class="st1" d="M168.4 206.4c-.1 0-.2 0-.3-.1l-62-67.1c-.1-.1-.1-.2-.1-.4 0-.1.2-.2.3-.2L217 122.1c.1 0 .3 0 .4.2.1.1.1.3 0 .4l-48.7 83.6s-.1.1-.3.1zm-61.3-67.2l61.2 66.2 48.1-82.5-109.3 16.3z"/></g><g id="triangle36_216_" class="st3"><path class="st1" d="M97.9 251.3c-.1 0-.1 0-.2-.1s-.2-.2-.2-.4l8.4-112.1c0-.1.1-.3.3-.3.1 0 .3 0 .4.1l62 67.1c.1.1.1.2.1.3 0 .1-.1.2-.2.3l-70.5 45c.1.1 0 .1-.1.1zm8.8-111.5l-8.3 110.5 69.4-44.3-61.1-66.2z"/></g><g id="triangle36_215_" class="st3"><path class="st1" d="M97.9 251.3c-.2 0-.3-.1-.3-.2l-53-134.3c-.1-.1 0-.3.1-.4.1-.1.3-.1.4-.1l61.4 22.2c.2.1.3.2.2.4L98.3 251c0 .2-.1.3-.4.3.1 0 .1 0 0 0zm-52.3-134l52.1 132 8.3-110.1-60.4-21.9z"/></g></g><defs><path id="SVGID_3_" d="M0-66.5h288v288H0z"/></defs><clipPath id="SVGID_4_"><use xlink:href="#SVGID_3_" overflow="visible"/></clipPath><g class="st4"><path class="st1" d="M71 169.6h-.2L53 159.7c-.1-.1-.2-.2-.2-.4 0-.1.1-.3.2-.3l22.6-9.2c.1-.1.3 0 .4.1.1.1.2.2.1.4l-4.8 19.1c0 .1-.1.2-.2.3 0-.1-.1-.1-.1-.1zm-17-10.2l16.7 9.3 4.5-17.9-21.2 8.6z" id="triangle36_370_"/><path class="st1" d="M53.1 159.7c-.1 0-.2-.1-.3-.2-.1-.1-.1-.3 0-.5l27.3-29.7c.1-.1.3-.2.5-.1s.2.2.2.4l-4.7 20.5c0 .1-.1.2-.2.3l-22.6 9.2c-.1.1-.1.1-.2.1zm26.7-28.8l-25.2 27.4 20.9-8.5 4.3-18.9z" id="triangle36_369_"/><path class="st1" d="M75.7 150.5h-.1c-.2-.1-.3-.3-.2-.4l4.7-20.5c0-.1.1-.1.1-.2l24.2-23.5c.1-.1.4-.1.5 0 .1.1.2.3.1.5l-28.9 44c-.1 0-.2.1-.4.1zm5.1-20.7l-4.2 18.3 25.9-39.3-21.7 21z" id="triangle36_368_"/><path class="st1" d="M75.7 150.5c-.1 0-.2 0-.3-.1-.1-.1-.1-.3 0-.4l28.9-44c.1-.1.2-.2.4-.2l59.6 9.1c.2 0 .3.2.3.3 0 .2-.1.3-.2.4l-88.5 34.8c-.1.1-.1.1-.2.1zm29.1-43.9l-28.1 42.8 86.1-33.9-58-8.9z" id="triangle36_367_"/><path class="st1" d="M164.2 115.7l-59.6-9.1c-.1 0-.2-.1-.3-.2-.1-.1-.1-.2 0-.3l6.1-20.5c0-.1.1-.2.2-.2h.3l53.5 29.6c.2 0 .3.2.3.4-.1.1-.2.3-.5.3zm-59.1-9.8l57.1 8.7L111 86.2l-5.9 19.7z" id="triangle36_366_"/><path class="st1" d="M25.6 203.6c-.1 0-.2 0-.3-.1-.1-.1-.2-.3-.1-.5l27.6-43.9c.1-.2.3-.2.5-.1l17.8 9.9c.1.1.2.2.2.3 0 .1 0 .2-.1.3l-45.4 34c-.1.1-.2.1-.2.1zm27.7-43.7L27 201.7l43.3-32.4-17-9.4z" id="triangle36_365_"/><path class="st1" d="M53.9 246.7c-.1 0-.2-.1-.3-.2l-28.3-43.1c-.1-.2-.1-.4.1-.5l45.4-34c.1-.1.3-.1.4 0 .1.1.2.2.2.4l-17.1 77.1c-.1.1-.2.3-.4.3.1 0 0 0 0 0zm-27.8-43.4l27.7 42 16.7-75.2-44.4 33.2z" id="triangle36_364_"/><path class="st1" d="M53.9 246.7c-.1 0-.2 0-.2-.1-.1-.1-.2-.2-.1-.4l17.1-77.1c0-.2.2-.3.4-.3l112 3.8c.2 0 .3.1.4.3 0 .2 0 .3-.2.4l-129 73.3c-.3.1-.3.1-.4.1zm17.4-77.1l-16.8 75.9 127.2-72.2-110.4-3.7z" id="triangle36_363_"/><path class="st1" d="M183 173.4c-.1 0-.1 0 0 0l-112-3.8c-.1 0-.2-.1-.3-.1-.1-.1-.1-.2-.1-.3l4.8-19.1c0-.2.2-.3.4-.3L183 172.6c.2 0 .4.2.4.4-.1.2-.2.4-.4.4zm-111.6-4.5l107.3 3.6L76 150.6l-4.6 18.3z" id="triangle36_362_"/><path class="st1" d="M182.9 173.4L75.7 150.5c-.2 0-.3-.2-.3-.3 0-.2.1-.3.2-.4l88.5-34.8h.3c.1 0 .2.1.2.2l18.7 57.6c0 .1.1.1.1.2-.1.2-.2.4-.5.4.1 0 0 0 0 0zM77 150l105.3 22.5-18.3-56.7L77 150z" id="triangle36_361_"/><path class="st1" d="M182.9 173.4c-.1 0-.2-.1-.3-.2-.1-.1-.1-.2 0-.4l25-62c.1-.2.2-.2.4-.2s.3.1.3.3l14.1 60c0 .1 0 .2-.1.3-.1.1-.2.1-.3.1l-39.1 2.1c.1 0 .1 0 0 0zm24.9-61.1l-24.3 60.3 38-1.9-13.7-58.4z" id="triangle36_360_"/><path class="st1" d="M182.9 173.4c-.2 0-.3-.1-.4-.3l-18.7-57.7v-.3c.1-.1.2-.2.3-.2l43.7-4.2c.1 0 .3 0 .3.1.1.1.1.2 0 .4l-25 62c.1.1 0 .2-.2.2zm-18.1-57.8l18.2 56.3 24.3-60.4-42.5 4.1z" id="triangle36_359_"/><path class="st1" d="M53.9 246.7c-.2 0-.3-.1-.4-.3-.1-.2 0-.4.2-.4l129-73.3c.1-.1.3-.1.4 0l61.6 51.5c.1.1.2.3.1.4 0 .1-.2.2-.3.3L53.9 246.7zm129-73.2L55.7 245.7l188-21.5-60.8-50.7z" id="triangle36_358_"/><path class="st1" d="M244.6 224.9c-.1 0-.2 0-.2-.1l-61.6-51.5c-.1-.1-.2-.3-.1-.4 0-.1.2-.2.3-.3l39-2c.1 0 .3.1.4.2l22.6 53.4c.1.1.1.2.1.2-.1.3-.3.5-.5.5zm-60.7-51.6l59.7 49.9-21.9-51.8-37.8 1.9z" id="triangle36_357_"/><path class="st1" d="M268.2 225.7l-23.6-.8c-.1 0-.3-.1-.3-.2l-22.6-53.5c-.1-.2 0-.4.1-.5.2-.1.4-.1.5.1l46.2 54.3c.1.1.1.3.1.4-.1.1-.3.2-.4.2zm-23.4-1.6l22.5.8-44.1-51.8 21.6 51z" id="triangle36_356_"/><path class="st1" d="M53.1 159.7c-.1 0-.1 0-.2-.1-.2-.1-.2-.3-.1-.5l18.8-45.5c.1-.1.2-.2.3-.2.1 0 .3.1.3.2l8.6 15.7c.1.1.1.3-.1.4l-27.3 29.7c-.1.3-.2.3-.3.3zm18.8-44.9l-17.7 42.8 25.7-28-8-14.8z" id="triangle36_355_"/><path class="st1" d="M80.5 130s-.1 0 0 0c-.2 0-.3-.1-.3-.2l-8.6-15.7c-.1-.1-.1-.2 0-.3 0-.1.1-.2.3-.2l32.8-7.7c.2 0 .3 0 .4.2.1.1.1.3-.1.4L80.8 130h-.3zm-8-15.8l8.1 14.9 22.8-22.2-30.9 7.3z" id="triangle36_354_"/><path class="st1" d="M71.9 114.3c-.1 0-.3-.1-.3-.2-.1-.2 0-.4.1-.5l38.8-28.3c.1-.1.3-.1.4 0 .1.1.2.3.1.4l-6.1 20.5c0 .1-.1.2-.3.3l-32.7 7.8zm38.2-27.7l-36.4 26.5 30.7-7.3 5.7-19.2z" id="triangle36_353_"/><path class="st1" d="M164.2 115.7h-.2L110.6 86c-.1-.1-.2-.2-.2-.3 0-.1.1-.3.2-.3l51.7-25.6c.1-.1.2-.1.4 0 .1.1.2.2.2.3l1.8 55.2c0 .1-.1.3-.2.3s-.2.1-.3.1zm-52.7-30.1l52.3 29-1.7-54-50.6 25z" id="triangle36_352_"/><path class="st1" d="M110.7 86c-.1 0-.2 0-.2-.1-.1-.1-.2-.2-.1-.4l6.4-32c0-.2.2-.3.4-.3l45.4 6.5c.2 0 .3.1.3.3 0 .2-.1.3-.2.4L110.9 86h-.2zm6.7-32l-6.1 31 50-24.7-43.9-6.3z" id="triangle36_351_"/><path class="st1" d="M164.2 115.7c-.1 0-.2 0-.2-.1-.1-.1-.1-.2-.1-.3l-1.8-55.2c0-.2.1-.3.2-.4.1-.1.3 0 .4.1l45.4 51c.1.1.1.3.1.4-.1.1-.2.2-.3.2l-43.7 4.3c.1 0 .1 0 0 0zm-1.3-54.6l1.7 53.8 42.5-4.1-44.2-49.7z" id="triangle36_350_"/><path class="st1" d="M162.5 60.5s-.1 0 0 0L117.1 54c-.2 0-.3-.2-.3-.4l.4-8.8c0-.1.1-.2.2-.3.1-.1.2-.1.3 0l44.9 15.2c.2 0 .3.2.3.4s-.2.4-.4.4zm-45-7.2l41 5.8-40.7-13.8-.3 8z" id="triangle36_349_"/><path class="st1" d="M162.5 60.5h-.1l-45-15.3c-.1 0-.2-.2-.3-.3 0-.2.1-.3.2-.4l34.5-16.6h.3c.1 0 .2.1.2.2l10.4 31.7c0 .1.1.1.1.2.1.3-.1.4-.3.5zm-44-15.7l43.4 14.7-10.1-30.7-33.3 16z" id="triangle36_348_"/><path class="st1" d="M207.9 111.4c-.1 0-.2 0-.3-.1l-45.4-51c-.1-.1-.1-.2-.1-.3 0-.1.1-.2.1-.3L235.1 0c.1-.1.3-.1.4 0 .1.1.2.3.2.4L208.3 111c-.1.3-.2.4-.4.4.1 0 0 0 0 0zM163 60.1l44.7 50.1 27-108.9L163 60.1z" id="triangle36_347_"/><path class="st1" d="M162.5 60.5h-.1c-.1 0-.2-.1-.3-.2l-10.5-31.8c-.1-.2 0-.4.2-.5l83.4-28c.2-.1.4 0 .4.2.1.2 0 .4-.1.5l-72.9 59.7s0 .1-.1.1zm-10-32l10.2 31 70.9-58-81.1 27z" id="triangle36_346_"/><path class="st1" d="M243.9 331.4h-.2l-190-84.8c-.2-.1-.2-.2-.2-.4s.2-.3.3-.3l190.7-21.8c.1 0 .2 0 .3.1.1.1.1.2.1.3l-.6 106.6c0 .1-.1.2-.2.3h-.2zM55.3 246.5l188.3 84 .6-105.6-188.9 21.6z" id="triangle36_345_"/><path class="st1" d="M53.9 246.7s-.1 0 0 0l-11.6-2.8c-.1 0-.2-.1-.3-.2l-16.8-40.3c-.1-.2 0-.4.2-.5.2-.1.4 0 .5.1l28.3 43.1c.1.1.1.3 0 .4-.1.1-.2.2-.3.2zm-11.3-3.5l10.4 2.5-25.6-38.9 15.2 36.4z" id="triangle36_344_"/><path class="st1" d="M314.2 107.4c-.1 0-.2-.1-.3-.2L235.1.6c-.1-.1-.1-.3 0-.5.1-.1.3-.2.5-.1l103.7 61.5c.2.1.2.3.1.5l-24.8 45.1c-.1.2-.2.3-.4.3.1 0 .1 0 0 0zM236.8 1.7l77.4 104.6L338.6 62 236.8 1.7z" id="triangle36_343_"/><path class="st1" d="M207.9 111.4c-.1 0-.2-.1-.3-.1-.1-.1-.1-.2-.1-.3L235 .3c0-.1.1-.2.3-.3.1 0 .3 0 .4.1l78.9 106.6c.1.1.1.3 0 .4-.1.1-.2.2-.3.2l-106.4 4.1zM235.5 1.3l-27.1 109.4 105.1-4-78-105.4z" id="triangle36_342_"/><path class="st1" d="M254.5 346.4c-.1 0-.2-.1-.3-.2l-10.6-15c-.1-.1-.1-.3 0-.4.1-.1.3-.2.4-.1l10.9 3.5c.2.1.3.2.3.4l-.3 11.5c0 .2-.1.3-.3.3h-.1zm-9.6-14.6l9.3 13.1.3-10.1-9.6-3z" id="triangle36_341_"/><path class="st1" d="M254.8 334.9h-.1l-10.9-3.5c-.2-.1-.3-.2-.3-.4l14.9-83c0-.2.2-.3.4-.3s.3.2.3.4l-4 86.5c0 .1-.1.2-.2.3h-.1zm-10.4-4.1l10.1 3.2 3.7-80.3-13.8 77.1z" id="triangle36_340_"/><path class="st1" d="M243.9 331.4c-.2 0-.4-.2-.4-.4l.6-106.6c0-.2.1-.3.3-.4.2 0 .3 0 .4.2l14.2 23.6c0 .1.1.2 0 .3l-14.9 83c.2.2 0 .3-.2.3zm1-105.6l-.6 100.9 14.1-78.6-13.5-22.3z" id="triangle36_339_"/><path class="st1" d="M258.8 248.4c-.1 0-.3-.1-.3-.2l-14.2-23.6c-.1-.1-.1-.3 0-.4.1-.1.2-.2.3-.2l23.6.8c.1 0 .2.1.3.2.1.1.1.2 0 .3l-9.4 22.7c0 .3-.1.4-.3.4zm-13.6-23.5l13.5 22.3 8.9-21.5-22.4-.8z" id="triangle36_338_"/><path class="st1" d="M337.4 135.2c-.1 0-.2 0-.3-.1L314 107.2c-.1-.1-.1-.2-.1-.3 0-.1.1-.2.2-.3l54.2-33.8c.1-.1.3-.1.5 0 .1.1.2.3.1.4l-31 61.6c-.2.3-.4.4-.5.4zm-22.6-28.1l22.5 27.1 30.2-59.9-52.7 32.8z" id="triangle36_337_"/><path class="st1" d="M314.2 107.4c-.1 0-.2 0-.3-.1-.1-.1-.2-.3-.1-.5l24.8-45.1c.1-.2.3-.2.5-.2l29.3 11.3c.1.1.2.2.2.3 0 .1-.1.3-.2.4l-54.2 33.8c.2 0 .1.1 0 .1zm25-45l-24 43.5 52.3-32.6-28.3-10.9z" id="triangle36_336_"/><path class="st1" d="M283.8 144.7c-.1 0-.3-.1-.3-.2-.1-.1-.1-.3 0-.4l30.5-37.3c.1-.1.2-.1.3-.1.1 0 .2 0 .3.1l23.1 27.8c.1.1.1.2.1.4 0 .1-.2.2-.3.2l-53.7 9.5c0-.1 0 0 0 0zm30.4-37.1l-29.5 36.2 52-9.2-22.5-27z" id="triangle36_335_"/><path class="st1" d="M268.2 225.7c-.1 0-.2 0-.3-.1l-46.2-54.3c-.1-.1-.1-.2-.1-.3 0-.1.1-.2.2-.3l61.8-26.7c.1-.1.3 0 .4.1.1.1.2.2.1.4l-15.6 81s-.1.1-.3.2zm-45.6-54.5l45.4 53.3 15.3-79.6-60.7 26.3z" id="triangle36_334_"/><path class="st1" d="M222 171.4h-.2c-.1 0-.2-.1-.2-.2l-14.1-60c0-.1 0-.3.1-.4.1-.1.3-.1.4-.1l75.9 33.2c.1.1.2.2.2.3 0 .1-.1.3-.2.3l-61.8 26.7c0 .2-.1.2-.1.2zm-13.6-59.7l13.8 58.8 60.6-26.2-74.4-32.6z" id="triangle36_333_"/><path class="st1" d="M283.8 144.7h-.2l-75.9-33.2c-.2-.1-.2-.2-.2-.4s.2-.3.4-.3l106.3-4.1c.2 0 .3.1.3.2.1.1 0 .3 0 .4L284 144.6s-.1.1-.2.1zm-74.2-33.3l74.1 32.5 29.8-36.4-103.9 3.9z" id="triangle36_332_"/></g><g class="st5"><g id="triangle36_331_" class="st3"><path class="st1" d="M229.4 427.7c-.1 0-.2 0-.3-.1l-22-24.8c-.1-.1-.1-.3-.1-.4.1-.1.2-.2.3-.2l26.6-2.5c.1 0 .2 0 .3.1.1.1.1.2.1.3l-4.6 27.3c0 .1-.1.3-.3.3.1 0 0 0 0 0zm-21.2-24.8l21 23.7 4.4-26-25.4 2.3z"/></g><g id="triangle36_330_" class="st3"><path class="st1" d="M229.4 427.7h-.1L179 406.1c-.2-.1-.2-.2-.2-.4s.2-.3.3-.3l28.3-3.1c.1 0 .2 0 .3.1l22 24.8c.1.1.1.3 0 .5h-.3zm-48.9-21.8l47.5 20.4-20.7-23.3-26.8 2.9z"/></g><g id="triangle36_329_" class="st3"><path class="st1" d="M179.1 406.1h-.2L138 385.7c-.2-.1-.3-.3-.2-.5.1-.2.3-.3.4-.2l69.3 17.2c.2 0 .3.2.3.4s-.2.3-.3.3l-28.4 3.2zm-37.7-19.6l37.8 18.8 26.1-2.9-63.9-15.9z"/></g><g id="triangle36_328_" class="st3"><path class="st1" d="M207.4 403s0-.1 0 0L138 385.7c-.1 0-.3-.2-.3-.3L122.6 305c0-.2.1-.3.2-.4.2-.1.3 0 .4.1l84.4 97.6c.1.1.1.3 0 .4.1.2-.1.3-.2.3zm-68.9-18l67.9 16.9-82.7-95.7 14.8 78.8z"/></g><g id="triangle36_327_" class="st3"><path class="st1" d="M109.1 387.2c-.1 0-.2 0-.3-.1-.1-.1-.1-.2-.1-.3l13.9-81.8c0-.2.2-.3.4-.3s.3.1.4.3l15.1 80.4c0 .1 0 .2-.1.3-.1.1-.2.1-.3.1l-29 1.4zm13.9-80.1l-13.5 79.3 28.1-1.4-14.6-77.9z"/></g><g id="triangle36_326_" class="st3"><path class="st1" d="M298 443.3s-.1 0 0 0l-68.7-15.6c-.2 0-.3-.2-.3-.4l4.6-27.3c0-.1.1-.2.2-.3h.4l63.9 42.8c.1.1.2.2.2.4.1.2-.1.4-.3.4zm-68.2-16.2l66.3 15-61.8-41.4-4.5 26.4z"/></g><g id="triangle36_325_" class="st3"><path class="st1" d="M298 443.3c-.1 0-.1 0-.2-.1l-63.9-42.8c-.1-.1-.2-.2-.2-.4s.2-.3.3-.3l106.3-12.8c.2 0 .3.1.4.2.1.1.1.3 0 .4l-42.4 55.6c-.1.1-.2.2-.3.2zm-62.9-43l62.8 42.1 41.6-54.7-104.4 12.6z"/></g><g id="triangle36_324_" class="st3"><path class="st1" d="M234 400.5c-.2 0-.3-.1-.4-.3l-45.6-145c0-.2 0-.3.2-.4.1-.1.3-.1.5 0L340.6 387c.1.1.2.3.1.4 0 .1-.2.2-.3.3L234 400.5c.1 0 .1 0 0 0zm-44.8-144.3l45.1 143.5L339.5 387 189.2 256.2z"/></g><g id="triangle36_323_" class="st3"><path class="st1" d="M207.4 403c-.2 0-.3-.1-.4-.3l-18.9-147.5c0-.2.1-.4.3-.4.2 0 .4.1.4.3l45.6 145v.3c-.1.1-.2.2-.3.2l-26.7 2.4zm-18-143.8l18.3 143 25.8-2.4-44.1-140.6z"/></g><g id="triangle36_322_" class="st3"><path class="st1" d="M207.4 403c-.1 0-.2 0-.3-.1l-84.4-97.6c-.1-.1-.1-.2-.1-.3 0-.1.1-.2.1-.3l65.5-49.9c.1-.1.2-.1.4 0 .1.1.2.2.2.3l18.9 147.4v.2c.1.1-.1.3-.3.3zm-83.8-98l83.3 96.4-18.7-145.6-64.6 49.2z"/></g><g id="triangle36_321_" class="st3"><path class="st1" d="M188.5 255.4l-90.6-4.1c-.2 0-.3-.1-.3-.3 0-.2 0-.3.2-.4l70.5-45c.1-.1.2-.1.3 0 .1 0 .2.1.2.2l20.1 49.1v.4c-.2.1-.3.1-.4.1zm-89.4-4.7l88.8 4-19.7-48.1-69.1 44.1z"/></g><g id="triangle36_320_" class="st3"><path class="st1" d="M123 305.3c-.2 0-.3-.1-.3-.2l-25.1-54c-.1-.1 0-.3 0-.4.1-.1.2-.2.3-.2l90.5 4.1c.2 0 .3.1.3.3 0 .2 0 .3-.1.4l-65.5 49.9c.1.1 0 .1-.1.1zm-24.5-53.9l24.6 53 64.3-49-88.9-4z"/></g><g id="triangle36_319_" class="st3"><path class="st1" d="M340.4 387.6c-.1 0-.2 0-.3-.1L188.2 255.3c-.1-.1-.2-.3-.1-.4l38.2-102c.1-.1.2-.2.3-.2.1 0 .3.1.4.2L340.7 387c.1.1.1.2.1.3 0 .2-.2.3-.4.3zM188.9 255l150.3 130.8L226.7 154l-37.8 101z"/></g><g id="triangle36_318_" class="st3"><path class="st1" d="M188.5 255.4c-.2 0-.3-.1-.3-.2l-20.1-49.1c-.1-.1 0-.3.1-.4l58.3-53c.1-.1.3-.1.5 0 .1.1.2.3.1.4l-38.2 102c-.1.2-.2.3-.4.3zm-19.7-49.3l19.6 47.9 37.3-99.7-56.9 51.8z"/></g><g id="triangle36_317_" class="st3"><path class="st1" d="M168.4 206.4c-.1 0-.2 0-.2-.1-.1-.1-.2-.3-.1-.5l48.7-83.6c.1-.1.2-.2.4-.2.1 0 .3.1.3.3l9.6 30.6c0 .1 0 .3-.1.4l-58.3 53c-.1.1-.2.1-.3.1zm48.6-83l-47 80.7 56.3-51.2-9.3-29.5z"/></g><g id="triangle36_316_" class="st3"><path class="st1" d="M229.4 427.7l-66.6-3.6c-.1 0-.3-.1-.3-.2-.1-.1 0-.3.1-.4l16.3-18.1c.1-.1.3-.2.4-.1l50.3 21.6c.2.1.3.3.2.4-.1.3-.2.4-.4.4zm-65.8-4.2l63.7 3.4-48.2-20.7-15.5 17.3z"/></g><g id="triangle36_315_" class="st3"><path class="st1" d="M162.8 424.2c-.1 0-.3-.1-.3-.2l-24.6-38.5c-.1-.1-.1-.3 0-.5.1-.1.3-.2.4-.1l40.9 20.4c.1.1.2.2.2.3 0 .1 0 .2-.1.3L163 424c0 .1-.1.2-.2.2zm-23.6-37.9l23.6 36.9 15.6-17.3-39.2-19.6z"/></g><g id="triangle36_314_" class="st3"><path class="st1" d="M162.8 424.2c-.1 0-.1 0-.2-.1l-53.7-37c-.1-.1-.2-.3-.1-.4 0-.2.2-.3.3-.3l29-1.5c.1 0 .3.1.3.2l24.6 38.5c.1.2.1.3-.1.5.1 0 0 .1-.1.1zm-52.6-37.1l51.2 35.3-23.5-36.7-27.7 1.4z"/></g><g id="triangle36_313_" class="st3"><path class="st1" d="M109.1 387.2c-.1 0-.2 0-.3-.1l-56-54.7c-.1-.1-.1-.2-.1-.3 0-.1.1-.2.2-.3l69.9-27.1c.1 0 .3 0 .4.1.1.1.2.2.1.4L109.4 387c0 .1-.1.3-.3.3.1-.1.1-.1 0-.1zm-55.3-55l55.1 53.8 13.7-80.5-68.8 26.7z"/></g><g id="triangle36_312_" class="st3"><path class="st1" d="M65.3 393.4c-.2 0-.3-.1-.4-.3l-12.1-61c0-.2 0-.3.2-.4.1-.1.3-.1.4.1l56 54.7c.1.1.1.2.1.4 0 .1-.2.2-.3.3l-43.9 6.2zm-11.6-60.2l11.8 59.4 42.8-6.1-54.6-53.3z"/></g><g id="triangle36_311_" class="st3"><path class="st1" d="M53.1 332.4c-.1 0-.2 0-.3-.1-.1-.1-.1-.3 0-.4l44.8-81.1c.1-.1.2-.2.3-.2.1 0 .3.1.3.2l25.1 54v.3c0 .1-.1.2-.2.2l-69.9 27.1h-.1zm44.8-80.6L54 331.3l68.5-26.6-24.6-52.9z"/></g><g id="triangle36_310_" class="st3"><path class="st1" d="M53.8 396.8c-.1 0-.2 0-.2-.1-.1-.1-.2-.2-.2-.3l-.7-64.4c0-.2.1-.4.3-.4.2 0 .4.1.4.3l12.1 61c0 .2-.1.4-.3.4l-11.4 3.4c.1.1.1.1 0 .1zm-.2-60.7l.6 59.9 10.6-3.2-11.2-56.7z"/></g><g id="triangle36_309_" class="st3"><path class="st1" d="M53.8 396.8c-.1 0-.2 0-.3-.1L16.8 360c-.1-.1-.1-.2-.1-.3 0-.1.1-.2.1-.3l36.1-27.7c.1-.1.3-.1.4 0 .1.1.2.2.2.3l.7 64.3v.1c0 .3-.1.5-.4.4zm-36.1-37l35.8 35.8-.7-62.7-35.1 26.9z"/></g><g id="triangle36_308_" class="st3"><path class="st1" d="M53.1 332.4c-.1 0-.1 0-.2-.1l-109.2-66.5c-.1-.1-.2-.2-.2-.4s.2-.3.3-.3l154-14.6c.1 0 .3.1.3.2.1.1.1.3 0 .4l-44.8 81.1c.1.1 0 .2-.2.2.1 0 .1 0 0 0zm-108-66.5L53 331.5l44.3-80.1-152.2 14.5z"/></g><g id="triangle36_307_" class="st3"><path class="st1" d="M17.1 360.1c-.1 0-.2 0-.3-.1l-73.1-94.2c-.1-.1-.1-.3 0-.5.1-.1.3-.2.5-.1l109.2 66.5c.1.1.2.2.2.3 0 .1 0 .2-.1.3L17.4 360c-.2.1-.2.1-.3.1zM-54.5 267l71.6 92.3 35.3-27.1L-54.5 267z"/></g><g id="triangle36_306_" class="st3"><path class="st1" d="M340.4 387.6c-.1 0-.3-.1-.3-.2L226.3 153.2v-.3c0-.1.1-.2.2-.2l136.7-47.1c.1 0 .3 0 .4.1.1.1.2.2.1.3l-23 281.4c0 .1-.1.2-.3.2zM227.2 153.2l112.9 232.6L363 106.4l-135.8 46.8z"/></g><g id="triangle36_305_" class="st3"><path class="st1" d="M298 443.3c-.1 0-.2 0-.3-.1-.1-.1-.2-.3 0-.5l42.4-55.6c.1-.1.3-.2.4-.1.1 0 .3.2.3.3l1.6 16c0 .1 0 .2-.1.3l-44 39.6c-.1.1-.2.1-.3.1zm42.1-55L300.7 440l40.9-36.8-1.5-14.9z"/></g><g id="triangle36_304_" class="st3"><path class="st1" d="M-56 266h-.1c-.2-.1-.3-.2-.2-.4l32.1-160.4c0-.2.2-.3.4-.3L45 116.3c.1 0 .2.1.3.2.1.1 0 .3 0 .4l-101 148.9c-.1.1-.2.2-.3.2zm32.3-160.4l-31.6 158.2L44.3 117l-68-11.4z"/></g><g id="triangle36_303_" class="st3"><path class="st1" d="M-56 266c-.1 0-.3-.1-.3-.2-.1-.1-.1-.3 0-.4l101-148.9c.1-.1.2-.2.4-.2.1 0 .3.1.3.2l53 134.3v.3c-.1.1-.2.2-.3.2L-56 266zM44.8 117.5L-55.3 265.2l152.7-14.5-52.6-133.2z"/></g><g id="triangle36_302_" class="st3"><path class="st1" d="M363.4 106.3h-.1c-.2 0-.3-.2-.3-.3l-.4-15.5c0-.2.1-.3.3-.4l14.8-4.8c.2 0 .3 0 .4.1.1.1.1.3 0 .4l-14.4 20.3c-.1.1-.2.2-.3.2zm0-15.7l.4 14.1 13.1-18.5-13.5 4.4z"/></g><g id="triangle36_301_" class="st3"><path class="st1" d="M250.4 124.6c-.2 0-.3-.1-.4-.3 0-.2.1-.4.3-.4L362.9 90c.1 0 .2 0 .3.1.1.1.2.2.2.3l.4 15.5c0 .2-.1.4-.3.4l-113.1 18.3c.1 0 .1 0 0 0zm112.2-33.7l-106.6 32 107-17.4-.4-14.6z"/></g><g id="triangle36_300_" class="st3"><path class="st1" d="M226.7 153.4c-.1 0-.2-.1-.3-.2-.1-.1-.1-.3 0-.5l23.8-28.8c.1-.1.1-.1.2-.1l113-18.3c.2 0 .4.1.4.3 0 .2-.1.4-.2.4l-136.7 47.1c-.1.1-.2.1-.2.1zm23.9-28.8l-22.8 27.7L359.1 107l-108.5 17.6z"/></g><g id="triangle36_299_" class="st3"><path class="st1" d="M226.7 153.4s-.1 0 0 0c-.2 0-.3-.1-.4-.3l-9.6-30.6c0-.1 0-.2.1-.3.1-.1.2-.2.3-.1l33.3 1.8c.1 0 .3.1.3.2.1.1 0 .3-.1.4L227 153.3c-.1 0-.2.1-.3.1zm-9.1-30.6l9.2 29.4 22.8-27.7-32-1.7z"/></g><g id="triangle36_298_" class="st3"><path class="st1" d="M44.9 117.1c-.1 0-.2 0-.2-.1l-67.6-54.2c-.1-.1-.2-.3-.1-.4.1-.2.2-.2.4-.2l92.8 12c.1 0 .2.1.3.2.1.1 0 .2 0 .4l-25.2 42.1c-.1.1-.2.1-.4.2.1 0 .1 0 0 0zm-66.3-54l66.2 53 24.7-41.3-90.9-11.7z"/></g><g id="triangle36_297_" class="st3"><path class="st1" d="M44.9 117.1l-69-11.5c-.2 0-.3-.2-.3-.4l1.3-42.6c0-.1.1-.3.2-.3.1-.1.3 0 .4 0L45 116.4c.1.1.2.2.2.3.1.2 0 .4-.3.4zm-68.5-12.2l67.1 11.2-65.9-52.8-1.2 41.6z"/></g><g id="triangle36_296_" class="st3"><path class="st1" d="M106.4 139.3h-.1L44.8 117c-.1 0-.2-.1-.2-.2v-.3l25.2-42.1c.1-.1.2-.2.3-.2.1 0 .3.1.3.2l36.2 64.4c.1.1.1.3 0 .4 0 0-.1.1-.2.1zm-60.9-22.8l60.1 21.7-35.5-62.9-24.6 41.2z"/></g><g id="triangle36_295_" class="st3"><path class="st1" d="M168.4 206.4c-.1 0-.2 0-.3-.1l-62-67.1c-.1-.1-.1-.2-.1-.4 0-.1.2-.2.3-.2L217 122.1c.1 0 .3 0 .4.2.1.1.1.3 0 .4l-48.7 83.6s-.1.1-.3.1zm-61.3-67.2l61.2 66.2 48.1-82.5-109.3 16.3z"/></g><g id="triangle36_294_" class="st3"><path class="st1" d="M97.9 251.3c-.1 0-.1 0-.2-.1s-.2-.2-.2-.4l8.4-112.1c0-.1.1-.3.3-.3.1 0 .3 0 .4.1l62 67.1c.1.1.1.2.1.3 0 .1-.1.2-.2.3l-70.5 45c.1.1 0 .1-.1.1zm8.8-111.5l-8.3 110.5 69.4-44.3-61.1-66.2z"/></g><g id="triangle36_293_" class="st3"><path class="st1" d="M97.9 251.3c-.2 0-.3-.1-.3-.2l-53-134.3c-.1-.1 0-.3.1-.4.1-.1.3-.1.4-.1l61.4 22.2c.2.1.3.2.2.4L98.3 251c0 .2-.1.3-.4.3.1 0 .1 0 0 0zm-52.3-134l52.1 132 8.3-110.1-60.4-21.9z"/></g></g><defs><path id="SVGID_5_" d="M0-66.5h288v288H0z"/></defs><clipPath id="SVGID_6_"><use xlink:href="#SVGID_5_" overflow="visible"/></clipPath><g class="st6"><path class="st1" d="M71 169.6h-.2L53 159.7c-.1-.1-.2-.2-.2-.4 0-.1.1-.3.2-.3l22.6-9.2c.1-.1.3 0 .4.1.1.1.2.2.1.4l-4.8 19.1c0 .1-.1.2-.2.3 0-.1-.1-.1-.1-.1zm-17-10.2l16.7 9.3 4.5-17.9-21.2 8.6z" id="triangle36_448_"/><path class="st1" d="M53.1 159.7c-.1 0-.2-.1-.3-.2-.1-.1-.1-.3 0-.5l27.3-29.7c.1-.1.3-.2.5-.1s.2.2.2.4l-4.7 20.5c0 .1-.1.2-.2.3l-22.6 9.2c-.1.1-.1.1-.2.1zm26.7-28.8l-25.2 27.4 20.9-8.5 4.3-18.9z" id="triangle36_447_"/><path class="st1" d="M75.7 150.5h-.1c-.2-.1-.3-.3-.2-.4l4.7-20.5c0-.1.1-.1.1-.2l24.2-23.5c.1-.1.4-.1.5 0 .1.1.2.3.1.5l-28.9 44c-.1 0-.2.1-.4.1zm5.1-20.7l-4.2 18.3 25.9-39.3-21.7 21z" id="triangle36_446_"/><path class="st1" d="M75.7 150.5c-.1 0-.2 0-.3-.1-.1-.1-.1-.3 0-.4l28.9-44c.1-.1.2-.2.4-.2l59.6 9.1c.2 0 .3.2.3.3 0 .2-.1.3-.2.4l-88.5 34.8c-.1.1-.1.1-.2.1zm29.1-43.9l-28.1 42.8 86.1-33.9-58-8.9z" id="triangle36_445_"/><path class="st1" d="M164.2 115.7l-59.6-9.1c-.1 0-.2-.1-.3-.2-.1-.1-.1-.2 0-.3l6.1-20.5c0-.1.1-.2.2-.2h.3l53.5 29.6c.2 0 .3.2.3.4-.1.1-.2.3-.5.3zm-59.1-9.8l57.1 8.7L111 86.2l-5.9 19.7z" id="triangle36_444_"/><path class="st1" d="M25.6 203.6c-.1 0-.2 0-.3-.1-.1-.1-.2-.3-.1-.5l27.6-43.9c.1-.2.3-.2.5-.1l17.8 9.9c.1.1.2.2.2.3 0 .1 0 .2-.1.3l-45.4 34c-.1.1-.2.1-.2.1zm27.7-43.7L27 201.7l43.3-32.4-17-9.4z" id="triangle36_443_"/><path class="st1" d="M53.9 246.7c-.1 0-.2-.1-.3-.2l-28.3-43.1c-.1-.2-.1-.4.1-.5l45.4-34c.1-.1.3-.1.4 0 .1.1.2.2.2.4l-17.1 77.1c-.1.1-.2.3-.4.3.1 0 0 0 0 0zm-27.8-43.4l27.7 42 16.7-75.2-44.4 33.2z" id="triangle36_442_"/><path class="st1" d="M53.9 246.7c-.1 0-.2 0-.2-.1-.1-.1-.2-.2-.1-.4l17.1-77.1c0-.2.2-.3.4-.3l112 3.8c.2 0 .3.1.4.3 0 .2 0 .3-.2.4l-129 73.3c-.3.1-.3.1-.4.1zm17.4-77.1l-16.8 75.9 127.2-72.2-110.4-3.7z" id="triangle36_441_"/><path class="st1" d="M183 173.4c-.1 0-.1 0 0 0l-112-3.8c-.1 0-.2-.1-.3-.1-.1-.1-.1-.2-.1-.3l4.8-19.1c0-.2.2-.3.4-.3L183 172.6c.2 0 .4.2.4.4-.1.2-.2.4-.4.4zm-111.6-4.5l107.3 3.6L76 150.6l-4.6 18.3z" id="triangle36_440_"/><path class="st1" d="M182.9 173.4L75.7 150.5c-.2 0-.3-.2-.3-.3 0-.2.1-.3.2-.4l88.5-34.8h.3c.1 0 .2.1.2.2l18.7 57.6c0 .1.1.1.1.2-.1.2-.2.4-.5.4.1 0 0 0 0 0zM77 150l105.3 22.5-18.3-56.7L77 150z" id="triangle36_439_"/><path class="st1" d="M182.9 173.4c-.1 0-.2-.1-.3-.2-.1-.1-.1-.2 0-.4l25-62c.1-.2.2-.2.4-.2s.3.1.3.3l14.1 60c0 .1 0 .2-.1.3-.1.1-.2.1-.3.1l-39.1 2.1c.1 0 .1 0 0 0zm24.9-61.1l-24.3 60.3 38-1.9-13.7-58.4z" id="triangle36_438_"/><path class="st1" d="M182.9 173.4c-.2 0-.3-.1-.4-.3l-18.7-57.7v-.3c.1-.1.2-.2.3-.2l43.7-4.2c.1 0 .3 0 .3.1.1.1.1.2 0 .4l-25 62c.1.1 0 .2-.2.2zm-18.1-57.8l18.2 56.3 24.3-60.4-42.5 4.1z" id="triangle36_437_"/><path class="st1" d="M53.9 246.7c-.2 0-.3-.1-.4-.3-.1-.2 0-.4.2-.4l129-73.3c.1-.1.3-.1.4 0l61.6 51.5c.1.1.2.3.1.4 0 .1-.2.2-.3.3L53.9 246.7zm129-73.2L55.7 245.7l188-21.5-60.8-50.7z" id="triangle36_436_"/><path class="st1" d="M244.6 224.9c-.1 0-.2 0-.2-.1l-61.6-51.5c-.1-.1-.2-.3-.1-.4 0-.1.2-.2.3-.3l39-2c.1 0 .3.1.4.2l22.6 53.4c.1.1.1.2.1.2-.1.3-.3.5-.5.5zm-60.7-51.6l59.7 49.9-21.9-51.8-37.8 1.9z" id="triangle36_435_"/><path class="st1" d="M268.2 225.7l-23.6-.8c-.1 0-.3-.1-.3-.2l-22.6-53.5c-.1-.2 0-.4.1-.5.2-.1.4-.1.5.1l46.2 54.3c.1.1.1.3.1.4-.1.1-.3.2-.4.2zm-23.4-1.6l22.5.8-44.1-51.8 21.6 51z" id="triangle36_434_"/><path class="st1" d="M53.1 159.7c-.1 0-.1 0-.2-.1-.2-.1-.2-.3-.1-.5l18.8-45.5c.1-.1.2-.2.3-.2.1 0 .3.1.3.2l8.6 15.7c.1.1.1.3-.1.4l-27.3 29.7c-.1.3-.2.3-.3.3zm18.8-44.9l-17.7 42.8 25.7-28-8-14.8z" id="triangle36_433_"/><path class="st1" d="M80.5 130s-.1 0 0 0c-.2 0-.3-.1-.3-.2l-8.6-15.7c-.1-.1-.1-.2 0-.3 0-.1.1-.2.3-.2l32.8-7.7c.2 0 .3 0 .4.2.1.1.1.3-.1.4L80.8 130h-.3zm-8-15.8l8.1 14.9 22.8-22.2-30.9 7.3z" id="triangle36_432_"/><path class="st1" d="M71.9 114.3c-.1 0-.3-.1-.3-.2-.1-.2 0-.4.1-.5l38.8-28.3c.1-.1.3-.1.4 0 .1.1.2.3.1.4l-6.1 20.5c0 .1-.1.2-.3.3l-32.7 7.8zm38.2-27.7l-36.4 26.5 30.7-7.3 5.7-19.2z" id="triangle36_431_"/><path class="st1" d="M164.2 115.7h-.2L110.6 86c-.1-.1-.2-.2-.2-.3 0-.1.1-.3.2-.3l51.7-25.6c.1-.1.2-.1.4 0 .1.1.2.2.2.3l1.8 55.2c0 .1-.1.3-.2.3s-.2.1-.3.1zm-52.7-30.1l52.3 29-1.7-54-50.6 25z" id="triangle36_430_"/><path class="st1" d="M110.7 86c-.1 0-.2 0-.2-.1-.1-.1-.2-.2-.1-.4l6.4-32c0-.2.2-.3.4-.3l45.4 6.5c.2 0 .3.1.3.3 0 .2-.1.3-.2.4L110.9 86h-.2zm6.7-32l-6.1 31 50-24.7-43.9-6.3z" id="triangle36_429_"/><path class="st1" d="M164.2 115.7c-.1 0-.2 0-.2-.1-.1-.1-.1-.2-.1-.3l-1.8-55.2c0-.2.1-.3.2-.4.1-.1.3 0 .4.1l45.4 51c.1.1.1.3.1.4-.1.1-.2.2-.3.2l-43.7 4.3c.1 0 .1 0 0 0zm-1.3-54.6l1.7 53.8 42.5-4.1-44.2-49.7z" id="triangle36_428_"/><path class="st1" d="M162.5 60.5s-.1 0 0 0L117.1 54c-.2 0-.3-.2-.3-.4l.4-8.8c0-.1.1-.2.2-.3.1-.1.2-.1.3 0l44.9 15.2c.2 0 .3.2.3.4s-.2.4-.4.4zm-45-7.2l41 5.8-40.7-13.8-.3 8z" id="triangle36_427_"/><path class="st1" d="M162.5 60.5h-.1l-45-15.3c-.1 0-.2-.2-.3-.3 0-.2.1-.3.2-.4l34.5-16.6h.3c.1 0 .2.1.2.2l10.4 31.7c0 .1.1.1.1.2.1.3-.1.4-.3.5zm-44-15.7l43.4 14.7-10.1-30.7-33.3 16z" id="triangle36_426_"/><path class="st1" d="M207.9 111.4c-.1 0-.2 0-.3-.1l-45.4-51c-.1-.1-.1-.2-.1-.3 0-.1.1-.2.1-.3L235.1 0c.1-.1.3-.1.4 0 .1.1.2.3.2.4L208.3 111c-.1.3-.2.4-.4.4.1 0 0 0 0 0zM163 60.1l44.7 50.1 27-108.9L163 60.1z" id="triangle36_425_"/><path class="st1" d="M162.5 60.5h-.1c-.1 0-.2-.1-.3-.2l-10.5-31.8c-.1-.2 0-.4.2-.5l83.4-28c.2-.1.4 0 .4.2.1.2 0 .4-.1.5l-72.9 59.7s0 .1-.1.1zm-10-32l10.2 31 70.9-58-81.1 27z" id="triangle36_424_"/><path class="st1" d="M243.9 331.4h-.2l-190-84.8c-.2-.1-.2-.2-.2-.4s.2-.3.3-.3l190.7-21.8c.1 0 .2 0 .3.1.1.1.1.2.1.3l-.6 106.6c0 .1-.1.2-.2.3h-.2zM55.3 246.5l188.3 84 .6-105.6-188.9 21.6z" id="triangle36_423_"/><path class="st1" d="M53.9 246.7s-.1 0 0 0l-11.6-2.8c-.1 0-.2-.1-.3-.2l-16.8-40.3c-.1-.2 0-.4.2-.5.2-.1.4 0 .5.1l28.3 43.1c.1.1.1.3 0 .4-.1.1-.2.2-.3.2zm-11.3-3.5l10.4 2.5-25.6-38.9 15.2 36.4z" id="triangle36_422_"/><path class="st1" d="M314.2 107.4c-.1 0-.2-.1-.3-.2L235.1.6c-.1-.1-.1-.3 0-.5.1-.1.3-.2.5-.1l103.7 61.5c.2.1.2.3.1.5l-24.8 45.1c-.1.2-.2.3-.4.3.1 0 .1 0 0 0zM236.8 1.7l77.4 104.6L338.6 62 236.8 1.7z" id="triangle36_421_"/><path class="st1" d="M207.9 111.4c-.1 0-.2-.1-.3-.1-.1-.1-.1-.2-.1-.3L235 .3c0-.1.1-.2.3-.3.1 0 .3 0 .4.1l78.9 106.6c.1.1.1.3 0 .4-.1.1-.2.2-.3.2l-106.4 4.1zM235.5 1.3l-27.1 109.4 105.1-4-78-105.4z" id="triangle36_420_"/><path class="st1" d="M254.5 346.4c-.1 0-.2-.1-.3-.2l-10.6-15c-.1-.1-.1-.3 0-.4.1-.1.3-.2.4-.1l10.9 3.5c.2.1.3.2.3.4l-.3 11.5c0 .2-.1.3-.3.3h-.1zm-9.6-14.6l9.3 13.1.3-10.1-9.6-3z" id="triangle36_419_"/><path class="st1" d="M254.8 334.9h-.1l-10.9-3.5c-.2-.1-.3-.2-.3-.4l14.9-83c0-.2.2-.3.4-.3s.3.2.3.4l-4 86.5c0 .1-.1.2-.2.3h-.1zm-10.4-4.1l10.1 3.2 3.7-80.3-13.8 77.1z" id="triangle36_418_"/><path class="st1" d="M243.9 331.4c-.2 0-.4-.2-.4-.4l.6-106.6c0-.2.1-.3.3-.4.2 0 .3 0 .4.2l14.2 23.6c0 .1.1.2 0 .3l-14.9 83c.2.2 0 .3-.2.3zm1-105.6l-.6 100.9 14.1-78.6-13.5-22.3z" id="triangle36_417_"/><path class="st1" d="M258.8 248.4c-.1 0-.3-.1-.3-.2l-14.2-23.6c-.1-.1-.1-.3 0-.4.1-.1.2-.2.3-.2l23.6.8c.1 0 .2.1.3.2.1.1.1.2 0 .3l-9.4 22.7c0 .3-.1.4-.3.4zm-13.6-23.5l13.5 22.3 8.9-21.5-22.4-.8z" id="triangle36_416_"/><path class="st1" d="M337.4 135.2c-.1 0-.2 0-.3-.1L314 107.2c-.1-.1-.1-.2-.1-.3 0-.1.1-.2.2-.3l54.2-33.8c.1-.1.3-.1.5 0 .1.1.2.3.1.4l-31 61.6c-.2.3-.4.4-.5.4zm-22.6-28.1l22.5 27.1 30.2-59.9-52.7 32.8z" id="triangle36_415_"/><path class="st1" d="M314.2 107.4c-.1 0-.2 0-.3-.1-.1-.1-.2-.3-.1-.5l24.8-45.1c.1-.2.3-.2.5-.2l29.3 11.3c.1.1.2.2.2.3 0 .1-.1.3-.2.4l-54.2 33.8c.2 0 .1.1 0 .1zm25-45l-24 43.5 52.3-32.6-28.3-10.9z" id="triangle36_414_"/><path class="st1" d="M283.8 144.7c-.1 0-.3-.1-.3-.2-.1-.1-.1-.3 0-.4l30.5-37.3c.1-.1.2-.1.3-.1.1 0 .2 0 .3.1l23.1 27.8c.1.1.1.2.1.4 0 .1-.2.2-.3.2l-53.7 9.5c0-.1 0 0 0 0zm30.4-37.1l-29.5 36.2 52-9.2-22.5-27z" id="triangle36_413_"/><path class="st1" d="M268.2 225.7c-.1 0-.2 0-.3-.1l-46.2-54.3c-.1-.1-.1-.2-.1-.3 0-.1.1-.2.2-.3l61.8-26.7c.1-.1.3 0 .4.1.1.1.2.2.1.4l-15.6 81s-.1.1-.3.2zm-45.6-54.5l45.4 53.3 15.3-79.6-60.7 26.3z" id="triangle36_412_"/><path class="st1" d="M222 171.4h-.2c-.1 0-.2-.1-.2-.2l-14.1-60c0-.1 0-.3.1-.4.1-.1.3-.1.4-.1l75.9 33.2c.1.1.2.2.2.3 0 .1-.1.3-.2.3l-61.8 26.7c0 .2-.1.2-.1.2zm-13.6-59.7l13.8 58.8 60.6-26.2-74.4-32.6z" id="triangle36_411_"/><path class="st1" d="M283.8 144.7h-.2l-75.9-33.2c-.2-.1-.2-.2-.2-.4s.2-.3.4-.3l106.3-4.1c.2 0 .3.1.3.2.1.1 0 .3 0 .4L284 144.6s-.1.1-.2.1zm-74.2-33.3l74.1 32.5 29.8-36.4-103.9 3.9z" id="triangle36_410_"/></g><g class="st7"><g id="triangle36_409_" class="st3"><path class="st1" d="M229.4 427.7c-.1 0-.2 0-.3-.1l-22-24.8c-.1-.1-.1-.3-.1-.4.1-.1.2-.2.3-.2l26.6-2.5c.1 0 .2 0 .3.1.1.1.1.2.1.3l-4.6 27.3c0 .1-.1.3-.3.3.1 0 0 0 0 0zm-21.2-24.8l21 23.7 4.4-26-25.4 2.3z"/></g><g id="triangle36_408_" class="st3"><path class="st1" d="M229.4 427.7h-.1L179 406.1c-.2-.1-.2-.2-.2-.4s.2-.3.3-.3l28.3-3.1c.1 0 .2 0 .3.1l22 24.8c.1.1.1.3 0 .5h-.3zm-48.9-21.8l47.5 20.4-20.7-23.3-26.8 2.9z"/></g><g id="triangle36_407_" class="st3"><path class="st1" d="M179.1 406.1h-.2L138 385.7c-.2-.1-.3-.3-.2-.5.1-.2.3-.3.4-.2l69.3 17.2c.2 0 .3.2.3.4s-.2.3-.3.3l-28.4 3.2zm-37.7-19.6l37.8 18.8 26.1-2.9-63.9-15.9z"/></g><g id="triangle36_406_" class="st3"><path class="st1" d="M207.4 403s0-.1 0 0L138 385.7c-.1 0-.3-.2-.3-.3L122.6 305c0-.2.1-.3.2-.4.2-.1.3 0 .4.1l84.4 97.6c.1.1.1.3 0 .4.1.2-.1.3-.2.3zm-68.9-18l67.9 16.9-82.7-95.7 14.8 78.8z"/></g><g id="triangle36_405_" class="st3"><path class="st1" d="M109.1 387.2c-.1 0-.2 0-.3-.1-.1-.1-.1-.2-.1-.3l13.9-81.8c0-.2.2-.3.4-.3s.3.1.4.3l15.1 80.4c0 .1 0 .2-.1.3-.1.1-.2.1-.3.1l-29 1.4zm13.9-80.1l-13.5 79.3 28.1-1.4-14.6-77.9z"/></g><g id="triangle36_404_" class="st3"><path class="st1" d="M298 443.3s-.1 0 0 0l-68.7-15.6c-.2 0-.3-.2-.3-.4l4.6-27.3c0-.1.1-.2.2-.3h.4l63.9 42.8c.1.1.2.2.2.4.1.2-.1.4-.3.4zm-68.2-16.2l66.3 15-61.8-41.4-4.5 26.4z"/></g><g id="triangle36_403_" class="st3"><path class="st1" d="M298 443.3c-.1 0-.1 0-.2-.1l-63.9-42.8c-.1-.1-.2-.2-.2-.4s.2-.3.3-.3l106.3-12.8c.2 0 .3.1.4.2.1.1.1.3 0 .4l-42.4 55.6c-.1.1-.2.2-.3.2zm-62.9-43l62.8 42.1 41.6-54.7-104.4 12.6z"/></g><g id="triangle36_402_" class="st3"><path class="st1" d="M234 400.5c-.2 0-.3-.1-.4-.3l-45.6-145c0-.2 0-.3.2-.4.1-.1.3-.1.5 0L340.6 387c.1.1.2.3.1.4 0 .1-.2.2-.3.3L234 400.5c.1 0 .1 0 0 0zm-44.8-144.3l45.1 143.5L339.5 387 189.2 256.2z"/></g><g id="triangle36_401_" class="st3"><path class="st1" d="M207.4 403c-.2 0-.3-.1-.4-.3l-18.9-147.5c0-.2.1-.4.3-.4.2 0 .4.1.4.3l45.6 145v.3c-.1.1-.2.2-.3.2l-26.7 2.4zm-18-143.8l18.3 143 25.8-2.4-44.1-140.6z"/></g><g id="triangle36_400_" class="st3"><path class="st1" d="M207.4 403c-.1 0-.2 0-.3-.1l-84.4-97.6c-.1-.1-.1-.2-.1-.3 0-.1.1-.2.1-.3l65.5-49.9c.1-.1.2-.1.4 0 .1.1.2.2.2.3l18.9 147.4v.2c.1.1-.1.3-.3.3zm-83.8-98l83.3 96.4-18.7-145.6-64.6 49.2z"/></g><g id="triangle36_399_" class="st3"><path class="st1" d="M188.5 255.4l-90.6-4.1c-.2 0-.3-.1-.3-.3 0-.2 0-.3.2-.4l70.5-45c.1-.1.2-.1.3 0 .1 0 .2.1.2.2l20.1 49.1v.4c-.2.1-.3.1-.4.1zm-89.4-4.7l88.8 4-19.7-48.1-69.1 44.1z"/></g><g id="triangle36_398_" class="st3"><path class="st1" d="M123 305.3c-.2 0-.3-.1-.3-.2l-25.1-54c-.1-.1 0-.3 0-.4.1-.1.2-.2.3-.2l90.5 4.1c.2 0 .3.1.3.3 0 .2 0 .3-.1.4l-65.5 49.9c.1.1 0 .1-.1.1zm-24.5-53.9l24.6 53 64.3-49-88.9-4z"/></g><g id="triangle36_397_" class="st3"><path class="st1" d="M340.4 387.6c-.1 0-.2 0-.3-.1L188.2 255.3c-.1-.1-.2-.3-.1-.4l38.2-102c.1-.1.2-.2.3-.2.1 0 .3.1.4.2L340.7 387c.1.1.1.2.1.3 0 .2-.2.3-.4.3zM188.9 255l150.3 130.8L226.7 154l-37.8 101z"/></g><g id="triangle36_396_" class="st3"><path class="st1" d="M188.5 255.4c-.2 0-.3-.1-.3-.2l-20.1-49.1c-.1-.1 0-.3.1-.4l58.3-53c.1-.1.3-.1.5 0 .1.1.2.3.1.4l-38.2 102c-.1.2-.2.3-.4.3zm-19.7-49.3l19.6 47.9 37.3-99.7-56.9 51.8z"/></g><g id="triangle36_395_" class="st3"><path class="st1" d="M168.4 206.4c-.1 0-.2 0-.2-.1-.1-.1-.2-.3-.1-.5l48.7-83.6c.1-.1.2-.2.4-.2.1 0 .3.1.3.3l9.6 30.6c0 .1 0 .3-.1.4l-58.3 53c-.1.1-.2.1-.3.1zm48.6-83l-47 80.7 56.3-51.2-9.3-29.5z"/></g><g id="triangle36_394_" class="st3"><path class="st1" d="M229.4 427.7l-66.6-3.6c-.1 0-.3-.1-.3-.2-.1-.1 0-.3.1-.4l16.3-18.1c.1-.1.3-.2.4-.1l50.3 21.6c.2.1.3.3.2.4-.1.3-.2.4-.4.4zm-65.8-4.2l63.7 3.4-48.2-20.7-15.5 17.3z"/></g><g id="triangle36_393_" class="st3"><path class="st1" d="M162.8 424.2c-.1 0-.3-.1-.3-.2l-24.6-38.5c-.1-.1-.1-.3 0-.5.1-.1.3-.2.4-.1l40.9 20.4c.1.1.2.2.2.3 0 .1 0 .2-.1.3L163 424c0 .1-.1.2-.2.2zm-23.6-37.9l23.6 36.9 15.6-17.3-39.2-19.6z"/></g><g id="triangle36_392_" class="st3"><path class="st1" d="M162.8 424.2c-.1 0-.1 0-.2-.1l-53.7-37c-.1-.1-.2-.3-.1-.4 0-.2.2-.3.3-.3l29-1.5c.1 0 .3.1.3.2l24.6 38.5c.1.2.1.3-.1.5.1 0 0 .1-.1.1zm-52.6-37.1l51.2 35.3-23.5-36.7-27.7 1.4z"/></g><g id="triangle36_391_" class="st3"><path class="st1" d="M109.1 387.2c-.1 0-.2 0-.3-.1l-56-54.7c-.1-.1-.1-.2-.1-.3 0-.1.1-.2.2-.3l69.9-27.1c.1 0 .3 0 .4.1.1.1.2.2.1.4L109.4 387c0 .1-.1.3-.3.3.1-.1.1-.1 0-.1zm-55.3-55l55.1 53.8 13.7-80.5-68.8 26.7z"/></g><g id="triangle36_390_" class="st3"><path class="st1" d="M65.3 393.4c-.2 0-.3-.1-.4-.3l-12.1-61c0-.2 0-.3.2-.4.1-.1.3-.1.4.1l56 54.7c.1.1.1.2.1.4 0 .1-.2.2-.3.3l-43.9 6.2zm-11.6-60.2l11.8 59.4 42.8-6.1-54.6-53.3z"/></g><g id="triangle36_389_" class="st3"><path class="st1" d="M53.1 332.4c-.1 0-.2 0-.3-.1-.1-.1-.1-.3 0-.4l44.8-81.1c.1-.1.2-.2.3-.2.1 0 .3.1.3.2l25.1 54v.3c0 .1-.1.2-.2.2l-69.9 27.1h-.1zm44.8-80.6L54 331.3l68.5-26.6-24.6-52.9z"/></g><g id="triangle36_388_" class="st3"><path class="st1" d="M53.8 396.8c-.1 0-.2 0-.2-.1-.1-.1-.2-.2-.2-.3l-.7-64.4c0-.2.1-.4.3-.4.2 0 .4.1.4.3l12.1 61c0 .2-.1.4-.3.4l-11.4 3.4c.1.1.1.1 0 .1zm-.2-60.7l.6 59.9 10.6-3.2-11.2-56.7z"/></g><g id="triangle36_387_" class="st3"><path class="st1" d="M53.8 396.8c-.1 0-.2 0-.3-.1L16.8 360c-.1-.1-.1-.2-.1-.3 0-.1.1-.2.1-.3l36.1-27.7c.1-.1.3-.1.4 0 .1.1.2.2.2.3l.7 64.3v.1c0 .3-.1.5-.4.4zm-36.1-37l35.8 35.8-.7-62.7-35.1 26.9z"/></g><g id="triangle36_386_" class="st3"><path class="st1" d="M53.1 332.4c-.1 0-.1 0-.2-.1l-109.2-66.5c-.1-.1-.2-.2-.2-.4s.2-.3.3-.3l154-14.6c.1 0 .3.1.3.2.1.1.1.3 0 .4l-44.8 81.1c.1.1 0 .2-.2.2.1 0 .1 0 0 0zm-108-66.5L53 331.5l44.3-80.1-152.2 14.5z"/></g><g id="triangle36_385_" class="st3"><path class="st1" d="M17.1 360.1c-.1 0-.2 0-.3-.1l-73.1-94.2c-.1-.1-.1-.3 0-.5.1-.1.3-.2.5-.1l109.2 66.5c.1.1.2.2.2.3 0 .1 0 .2-.1.3L17.4 360c-.2.1-.2.1-.3.1zM-54.5 267l71.6 92.3 35.3-27.1L-54.5 267z"/></g><g id="triangle36_384_" class="st3"><path class="st1" d="M340.4 387.6c-.1 0-.3-.1-.3-.2L226.3 153.2v-.3c0-.1.1-.2.2-.2l136.7-47.1c.1 0 .3 0 .4.1.1.1.2.2.1.3l-23 281.4c0 .1-.1.2-.3.2zM227.2 153.2l112.9 232.6L363 106.4l-135.8 46.8z"/></g><g id="triangle36_383_" class="st3"><path class="st1" d="M298 443.3c-.1 0-.2 0-.3-.1-.1-.1-.2-.3 0-.5l42.4-55.6c.1-.1.3-.2.4-.1.1 0 .3.2.3.3l1.6 16c0 .1 0 .2-.1.3l-44 39.6c-.1.1-.2.1-.3.1zm42.1-55L300.7 440l40.9-36.8-1.5-14.9z"/></g><g id="triangle36_382_" class="st3"><path class="st1" d="M-56 266h-.1c-.2-.1-.3-.2-.2-.4l32.1-160.4c0-.2.2-.3.4-.3L45 116.3c.1 0 .2.1.3.2.1.1 0 .3 0 .4l-101 148.9c-.1.1-.2.2-.3.2zm32.3-160.4l-31.6 158.2L44.3 117l-68-11.4z"/></g><g id="triangle36_381_" class="st3"><path class="st1" d="M-56 266c-.1 0-.3-.1-.3-.2-.1-.1-.1-.3 0-.4l101-148.9c.1-.1.2-.2.4-.2.1 0 .3.1.3.2l53 134.3v.3c-.1.1-.2.2-.3.2L-56 266zM44.8 117.5L-55.3 265.2l152.7-14.5-52.6-133.2z"/></g><g id="triangle36_380_" class="st3"><path class="st1" d="M363.4 106.3h-.1c-.2 0-.3-.2-.3-.3l-.4-15.5c0-.2.1-.3.3-.4l14.8-4.8c.2 0 .3 0 .4.1.1.1.1.3 0 .4l-14.4 20.3c-.1.1-.2.2-.3.2zm0-15.7l.4 14.1 13.1-18.5-13.5 4.4z"/></g><g id="triangle36_379_" class="st3"><path class="st1" d="M250.4 124.6c-.2 0-.3-.1-.4-.3 0-.2.1-.4.3-.4L362.9 90c.1 0 .2 0 .3.1.1.1.2.2.2.3l.4 15.5c0 .2-.1.4-.3.4l-113.1 18.3c.1 0 .1 0 0 0zm112.2-33.7l-106.6 32 107-17.4-.4-14.6z"/></g><g id="triangle36_378_" class="st3"><path class="st1" d="M226.7 153.4c-.1 0-.2-.1-.3-.2-.1-.1-.1-.3 0-.5l23.8-28.8c.1-.1.1-.1.2-.1l113-18.3c.2 0 .4.1.4.3 0 .2-.1.4-.2.4l-136.7 47.1c-.1.1-.2.1-.2.1zm23.9-28.8l-22.8 27.7L359.1 107l-108.5 17.6z"/></g><g id="triangle36_377_" class="st3"><path class="st1" d="M226.7 153.4s-.1 0 0 0c-.2 0-.3-.1-.4-.3l-9.6-30.6c0-.1 0-.2.1-.3.1-.1.2-.2.3-.1l33.3 1.8c.1 0 .3.1.3.2.1.1 0 .3-.1.4L227 153.3c-.1 0-.2.1-.3.1zm-9.1-30.6l9.2 29.4 22.8-27.7-32-1.7z"/></g><g id="triangle36_376_" class="st3"><path class="st1" d="M44.9 117.1c-.1 0-.2 0-.2-.1l-67.6-54.2c-.1-.1-.2-.3-.1-.4.1-.2.2-.2.4-.2l92.8 12c.1 0 .2.1.3.2.1.1 0 .2 0 .4l-25.2 42.1c-.1.1-.2.1-.4.2.1 0 .1 0 0 0zm-66.3-54l66.2 53 24.7-41.3-90.9-11.7z"/></g><g id="triangle36_375_" class="st3"><path class="st1" d="M44.9 117.1l-69-11.5c-.2 0-.3-.2-.3-.4l1.3-42.6c0-.1.1-.3.2-.3.1-.1.3 0 .4 0L45 116.4c.1.1.2.2.2.3.1.2 0 .4-.3.4zm-68.5-12.2l67.1 11.2-65.9-52.8-1.2 41.6z"/></g><g id="triangle36_374_" class="st3"><path class="st1" d="M106.4 139.3h-.1L44.8 117c-.1 0-.2-.1-.2-.2v-.3l25.2-42.1c.1-.1.2-.2.3-.2.1 0 .3.1.3.2l36.2 64.4c.1.1.1.3 0 .4 0 0-.1.1-.2.1zm-60.9-22.8l60.1 21.7-35.5-62.9-24.6 41.2z"/></g><g id="triangle36_373_" class="st3"><path class="st1" d="M168.4 206.4c-.1 0-.2 0-.3-.1l-62-67.1c-.1-.1-.1-.2-.1-.4 0-.1.2-.2.3-.2L217 122.1c.1 0 .3 0 .4.2.1.1.1.3 0 .4l-48.7 83.6s-.1.1-.3.1zm-61.3-67.2l61.2 66.2 48.1-82.5-109.3 16.3z"/></g><g id="triangle36_372_" class="st3"><path class="st1" d="M97.9 251.3c-.1 0-.1 0-.2-.1s-.2-.2-.2-.4l8.4-112.1c0-.1.1-.3.3-.3.1 0 .3 0 .4.1l62 67.1c.1.1.1.2.1.3 0 .1-.1.2-.2.3l-70.5 45c.1.1 0 .1-.1.1zm8.8-111.5l-8.3 110.5 69.4-44.3-61.1-66.2z"/></g><g id="triangle36_371_" class="st3"><path class="st1" d="M97.9 251.3c-.2 0-.3-.1-.3-.2l-53-134.3c-.1-.1 0-.3.1-.4.1-.1.3-.1.4-.1l61.4 22.2c.2.1.3.2.2.4L98.3 251c0 .2-.1.3-.4.3.1 0 .1 0 0 0zm-52.3-134l52.1 132 8.3-110.1-60.4-21.9z"/></g></g><defs><path id="SVGID_7_" d="M0-66.5h288v288H0z"/></defs><clipPath id="SVGID_8_"><use xlink:href="#SVGID_7_" overflow="visible"/></clipPath><g class="st8"><path class="st1" d="M71 169.6h-.2L53 159.7c-.1-.1-.2-.2-.2-.4 0-.1.1-.3.2-.3l22.6-9.2c.1-.1.3 0 .4.1.1.1.2.2.1.4l-4.8 19.1c0 .1-.1.2-.2.3 0-.1-.1-.1-.1-.1zm-17-10.2l16.7 9.3 4.5-17.9-21.2 8.6z" id="triangle36_526_"/><path class="st1" d="M53.1 159.7c-.1 0-.2-.1-.3-.2-.1-.1-.1-.3 0-.5l27.3-29.7c.1-.1.3-.2.5-.1s.2.2.2.4l-4.7 20.5c0 .1-.1.2-.2.3l-22.6 9.2c-.1.1-.1.1-.2.1zm26.7-28.8l-25.2 27.4 20.9-8.5 4.3-18.9z" id="triangle36_525_"/><path class="st1" d="M75.7 150.5h-.1c-.2-.1-.3-.3-.2-.4l4.7-20.5c0-.1.1-.1.1-.2l24.2-23.5c.1-.1.4-.1.5 0 .1.1.2.3.1.5l-28.9 44c-.1 0-.2.1-.4.1zm5.1-20.7l-4.2 18.3 25.9-39.3-21.7 21z" id="triangle36_524_"/><path class="st1" d="M75.7 150.5c-.1 0-.2 0-.3-.1-.1-.1-.1-.3 0-.4l28.9-44c.1-.1.2-.2.4-.2l59.6 9.1c.2 0 .3.2.3.3 0 .2-.1.3-.2.4l-88.5 34.8c-.1.1-.1.1-.2.1zm29.1-43.9l-28.1 42.8 86.1-33.9-58-8.9z" id="triangle36_523_"/><path class="st1" d="M164.2 115.7l-59.6-9.1c-.1 0-.2-.1-.3-.2-.1-.1-.1-.2 0-.3l6.1-20.5c0-.1.1-.2.2-.2h.3l53.5 29.6c.2 0 .3.2.3.4-.1.1-.2.3-.5.3zm-59.1-9.8l57.1 8.7L111 86.2l-5.9 19.7z" id="triangle36_522_"/><path class="st1" d="M25.6 203.6c-.1 0-.2 0-.3-.1-.1-.1-.2-.3-.1-.5l27.6-43.9c.1-.2.3-.2.5-.1l17.8 9.9c.1.1.2.2.2.3 0 .1 0 .2-.1.3l-45.4 34c-.1.1-.2.1-.2.1zm27.7-43.7L27 201.7l43.3-32.4-17-9.4z" id="triangle36_521_"/><path class="st1" d="M53.9 246.7c-.1 0-.2-.1-.3-.2l-28.3-43.1c-.1-.2-.1-.4.1-.5l45.4-34c.1-.1.3-.1.4 0 .1.1.2.2.2.4l-17.1 77.1c-.1.1-.2.3-.4.3.1 0 0 0 0 0zm-27.8-43.4l27.7 42 16.7-75.2-44.4 33.2z" id="triangle36_520_"/><path class="st1" d="M53.9 246.7c-.1 0-.2 0-.2-.1-.1-.1-.2-.2-.1-.4l17.1-77.1c0-.2.2-.3.4-.3l112 3.8c.2 0 .3.1.4.3 0 .2 0 .3-.2.4l-129 73.3c-.3.1-.3.1-.4.1zm17.4-77.1l-16.8 75.9 127.2-72.2-110.4-3.7z" id="triangle36_519_"/><path class="st1" d="M183 173.4c-.1 0-.1 0 0 0l-112-3.8c-.1 0-.2-.1-.3-.1-.1-.1-.1-.2-.1-.3l4.8-19.1c0-.2.2-.3.4-.3L183 172.6c.2 0 .4.2.4.4-.1.2-.2.4-.4.4zm-111.6-4.5l107.3 3.6L76 150.6l-4.6 18.3z" id="triangle36_518_"/><path class="st1" d="M182.9 173.4L75.7 150.5c-.2 0-.3-.2-.3-.3 0-.2.1-.3.2-.4l88.5-34.8h.3c.1 0 .2.1.2.2l18.7 57.6c0 .1.1.1.1.2-.1.2-.2.4-.5.4.1 0 0 0 0 0zM77 150l105.3 22.5-18.3-56.7L77 150z" id="triangle36_517_"/><path class="st1" d="M182.9 173.4c-.1 0-.2-.1-.3-.2-.1-.1-.1-.2 0-.4l25-62c.1-.2.2-.2.4-.2s.3.1.3.3l14.1 60c0 .1 0 .2-.1.3-.1.1-.2.1-.3.1l-39.1 2.1c.1 0 .1 0 0 0zm24.9-61.1l-24.3 60.3 38-1.9-13.7-58.4z" id="triangle36_516_"/><path class="st1" d="M182.9 173.4c-.2 0-.3-.1-.4-.3l-18.7-57.7v-.3c.1-.1.2-.2.3-.2l43.7-4.2c.1 0 .3 0 .3.1.1.1.1.2 0 .4l-25 62c.1.1 0 .2-.2.2zm-18.1-57.8l18.2 56.3 24.3-60.4-42.5 4.1z" id="triangle36_515_"/><path class="st1" d="M53.9 246.7c-.2 0-.3-.1-.4-.3-.1-.2 0-.4.2-.4l129-73.3c.1-.1.3-.1.4 0l61.6 51.5c.1.1.2.3.1.4 0 .1-.2.2-.3.3L53.9 246.7zm129-73.2L55.7 245.7l188-21.5-60.8-50.7z" id="triangle36_514_"/><path class="st1" d="M244.6 224.9c-.1 0-.2 0-.2-.1l-61.6-51.5c-.1-.1-.2-.3-.1-.4 0-.1.2-.2.3-.3l39-2c.1 0 .3.1.4.2l22.6 53.4c.1.1.1.2.1.2-.1.3-.3.5-.5.5zm-60.7-51.6l59.7 49.9-21.9-51.8-37.8 1.9z" id="triangle36_513_"/><path class="st1" d="M268.2 225.7l-23.6-.8c-.1 0-.3-.1-.3-.2l-22.6-53.5c-.1-.2 0-.4.1-.5.2-.1.4-.1.5.1l46.2 54.3c.1.1.1.3.1.4-.1.1-.3.2-.4.2zm-23.4-1.6l22.5.8-44.1-51.8 21.6 51z" id="triangle36_512_"/><path class="st1" d="M53.1 159.7c-.1 0-.1 0-.2-.1-.2-.1-.2-.3-.1-.5l18.8-45.5c.1-.1.2-.2.3-.2.1 0 .3.1.3.2l8.6 15.7c.1.1.1.3-.1.4l-27.3 29.7c-.1.3-.2.3-.3.3zm18.8-44.9l-17.7 42.8 25.7-28-8-14.8z" id="triangle36_511_"/><path class="st1" d="M80.5 130s-.1 0 0 0c-.2 0-.3-.1-.3-.2l-8.6-15.7c-.1-.1-.1-.2 0-.3 0-.1.1-.2.3-.2l32.8-7.7c.2 0 .3 0 .4.2.1.1.1.3-.1.4L80.8 130h-.3zm-8-15.8l8.1 14.9 22.8-22.2-30.9 7.3z" id="triangle36_510_"/><path class="st1" d="M71.9 114.3c-.1 0-.3-.1-.3-.2-.1-.2 0-.4.1-.5l38.8-28.3c.1-.1.3-.1.4 0 .1.1.2.3.1.4l-6.1 20.5c0 .1-.1.2-.3.3l-32.7 7.8zm38.2-27.7l-36.4 26.5 30.7-7.3 5.7-19.2z" id="triangle36_509_"/><path class="st1" d="M164.2 115.7h-.2L110.6 86c-.1-.1-.2-.2-.2-.3 0-.1.1-.3.2-.3l51.7-25.6c.1-.1.2-.1.4 0 .1.1.2.2.2.3l1.8 55.2c0 .1-.1.3-.2.3s-.2.1-.3.1zm-52.7-30.1l52.3 29-1.7-54-50.6 25z" id="triangle36_508_"/><path class="st1" d="M110.7 86c-.1 0-.2 0-.2-.1-.1-.1-.2-.2-.1-.4l6.4-32c0-.2.2-.3.4-.3l45.4 6.5c.2 0 .3.1.3.3 0 .2-.1.3-.2.4L110.9 86h-.2zm6.7-32l-6.1 31 50-24.7-43.9-6.3z" id="triangle36_507_"/><path class="st1" d="M164.2 115.7c-.1 0-.2 0-.2-.1-.1-.1-.1-.2-.1-.3l-1.8-55.2c0-.2.1-.3.2-.4.1-.1.3 0 .4.1l45.4 51c.1.1.1.3.1.4-.1.1-.2.2-.3.2l-43.7 4.3c.1 0 .1 0 0 0zm-1.3-54.6l1.7 53.8 42.5-4.1-44.2-49.7z" id="triangle36_506_"/><path class="st1" d="M162.5 60.5s-.1 0 0 0L117.1 54c-.2 0-.3-.2-.3-.4l.4-8.8c0-.1.1-.2.2-.3.1-.1.2-.1.3 0l44.9 15.2c.2 0 .3.2.3.4s-.2.4-.4.4zm-45-7.2l41 5.8-40.7-13.8-.3 8z" id="triangle36_505_"/><path class="st1" d="M162.5 60.5h-.1l-45-15.3c-.1 0-.2-.2-.3-.3 0-.2.1-.3.2-.4l34.5-16.6h.3c.1 0 .2.1.2.2l10.4 31.7c0 .1.1.1.1.2.1.3-.1.4-.3.5zm-44-15.7l43.4 14.7-10.1-30.7-33.3 16z" id="triangle36_504_"/><path class="st1" d="M207.9 111.4c-.1 0-.2 0-.3-.1l-45.4-51c-.1-.1-.1-.2-.1-.3 0-.1.1-.2.1-.3L235.1 0c.1-.1.3-.1.4 0 .1.1.2.3.2.4L208.3 111c-.1.3-.2.4-.4.4.1 0 0 0 0 0zM163 60.1l44.7 50.1 27-108.9L163 60.1z" id="triangle36_503_"/><path class="st1" d="M162.5 60.5h-.1c-.1 0-.2-.1-.3-.2l-10.5-31.8c-.1-.2 0-.4.2-.5l83.4-28c.2-.1.4 0 .4.2.1.2 0 .4-.1.5l-72.9 59.7s0 .1-.1.1zm-10-32l10.2 31 70.9-58-81.1 27z" id="triangle36_502_"/><path class="st1" d="M243.9 331.4h-.2l-190-84.8c-.2-.1-.2-.2-.2-.4s.2-.3.3-.3l190.7-21.8c.1 0 .2 0 .3.1.1.1.1.2.1.3l-.6 106.6c0 .1-.1.2-.2.3h-.2zM55.3 246.5l188.3 84 .6-105.6-188.9 21.6z" id="triangle36_501_"/><path class="st1" d="M53.9 246.7s-.1 0 0 0l-11.6-2.8c-.1 0-.2-.1-.3-.2l-16.8-40.3c-.1-.2 0-.4.2-.5.2-.1.4 0 .5.1l28.3 43.1c.1.1.1.3 0 .4-.1.1-.2.2-.3.2zm-11.3-3.5l10.4 2.5-25.6-38.9 15.2 36.4z" id="triangle36_500_"/><path class="st1" d="M314.2 107.4c-.1 0-.2-.1-.3-.2L235.1.6c-.1-.1-.1-.3 0-.5.1-.1.3-.2.5-.1l103.7 61.5c.2.1.2.3.1.5l-24.8 45.1c-.1.2-.2.3-.4.3.1 0 .1 0 0 0zM236.8 1.7l77.4 104.6L338.6 62 236.8 1.7z" id="triangle36_499_"/><path class="st1" d="M207.9 111.4c-.1 0-.2-.1-.3-.1-.1-.1-.1-.2-.1-.3L235 .3c0-.1.1-.2.3-.3.1 0 .3 0 .4.1l78.9 106.6c.1.1.1.3 0 .4-.1.1-.2.2-.3.2l-106.4 4.1zM235.5 1.3l-27.1 109.4 105.1-4-78-105.4z" id="triangle36_498_"/><path class="st1" d="M254.5 346.4c-.1 0-.2-.1-.3-.2l-10.6-15c-.1-.1-.1-.3 0-.4.1-.1.3-.2.4-.1l10.9 3.5c.2.1.3.2.3.4l-.3 11.5c0 .2-.1.3-.3.3h-.1zm-9.6-14.6l9.3 13.1.3-10.1-9.6-3z" id="triangle36_497_"/><path class="st1" d="M254.8 334.9h-.1l-10.9-3.5c-.2-.1-.3-.2-.3-.4l14.9-83c0-.2.2-.3.4-.3s.3.2.3.4l-4 86.5c0 .1-.1.2-.2.3h-.1zm-10.4-4.1l10.1 3.2 3.7-80.3-13.8 77.1z" id="triangle36_496_"/><path class="st1" d="M243.9 331.4c-.2 0-.4-.2-.4-.4l.6-106.6c0-.2.1-.3.3-.4.2 0 .3 0 .4.2l14.2 23.6c0 .1.1.2 0 .3l-14.9 83c.2.2 0 .3-.2.3zm1-105.6l-.6 100.9 14.1-78.6-13.5-22.3z" id="triangle36_495_"/><path class="st1" d="M258.8 248.4c-.1 0-.3-.1-.3-.2l-14.2-23.6c-.1-.1-.1-.3 0-.4.1-.1.2-.2.3-.2l23.6.8c.1 0 .2.1.3.2.1.1.1.2 0 .3l-9.4 22.7c0 .3-.1.4-.3.4zm-13.6-23.5l13.5 22.3 8.9-21.5-22.4-.8z" id="triangle36_494_"/><path class="st1" d="M337.4 135.2c-.1 0-.2 0-.3-.1L314 107.2c-.1-.1-.1-.2-.1-.3 0-.1.1-.2.2-.3l54.2-33.8c.1-.1.3-.1.5 0 .1.1.2.3.1.4l-31 61.6c-.2.3-.4.4-.5.4zm-22.6-28.1l22.5 27.1 30.2-59.9-52.7 32.8z" id="triangle36_493_"/><path class="st1" d="M314.2 107.4c-.1 0-.2 0-.3-.1-.1-.1-.2-.3-.1-.5l24.8-45.1c.1-.2.3-.2.5-.2l29.3 11.3c.1.1.2.2.2.3 0 .1-.1.3-.2.4l-54.2 33.8c.2 0 .1.1 0 .1zm25-45l-24 43.5 52.3-32.6-28.3-10.9z" id="triangle36_492_"/><path class="st1" d="M283.8 144.7c-.1 0-.3-.1-.3-.2-.1-.1-.1-.3 0-.4l30.5-37.3c.1-.1.2-.1.3-.1.1 0 .2 0 .3.1l23.1 27.8c.1.1.1.2.1.4 0 .1-.2.2-.3.2l-53.7 9.5c0-.1 0 0 0 0zm30.4-37.1l-29.5 36.2 52-9.2-22.5-27z" id="triangle36_491_"/><path class="st1" d="M268.2 225.7c-.1 0-.2 0-.3-.1l-46.2-54.3c-.1-.1-.1-.2-.1-.3 0-.1.1-.2.2-.3l61.8-26.7c.1-.1.3 0 .4.1.1.1.2.2.1.4l-15.6 81s-.1.1-.3.2zm-45.6-54.5l45.4 53.3 15.3-79.6-60.7 26.3z" id="triangle36_490_"/><path class="st1" d="M222 171.4h-.2c-.1 0-.2-.1-.2-.2l-14.1-60c0-.1 0-.3.1-.4.1-.1.3-.1.4-.1l75.9 33.2c.1.1.2.2.2.3 0 .1-.1.3-.2.3l-61.8 26.7c0 .2-.1.2-.1.2zm-13.6-59.7l13.8 58.8 60.6-26.2-74.4-32.6z" id="triangle36_489_"/><path class="st1" d="M283.8 144.7h-.2l-75.9-33.2c-.2-.1-.2-.2-.2-.4s.2-.3.4-.3l106.3-4.1c.2 0 .3.1.3.2.1.1 0 .3 0 .4L284 144.6s-.1.1-.2.1zm-74.2-33.3l74.1 32.5 29.8-36.4-103.9 3.9z" id="triangle36_488_"/></g><g class="st9"><g id="triangle36_487_" class="st3"><path class="st1" d="M229.4 427.7c-.1 0-.2 0-.3-.1l-22-24.8c-.1-.1-.1-.3-.1-.4.1-.1.2-.2.3-.2l26.6-2.5c.1 0 .2 0 .3.1.1.1.1.2.1.3l-4.6 27.3c0 .1-.1.3-.3.3.1 0 0 0 0 0zm-21.2-24.8l21 23.7 4.4-26-25.4 2.3z"/></g><g id="triangle36_486_" class="st3"><path class="st1" d="M229.4 427.7h-.1L179 406.1c-.2-.1-.2-.2-.2-.4s.2-.3.3-.3l28.3-3.1c.1 0 .2 0 .3.1l22 24.8c.1.1.1.3 0 .5h-.3zm-48.9-21.8l47.5 20.4-20.7-23.3-26.8 2.9z"/></g><g id="triangle36_485_" class="st3"><path class="st1" d="M179.1 406.1h-.2L138 385.7c-.2-.1-.3-.3-.2-.5.1-.2.3-.3.4-.2l69.3 17.2c.2 0 .3.2.3.4s-.2.3-.3.3l-28.4 3.2zm-37.7-19.6l37.8 18.8 26.1-2.9-63.9-15.9z"/></g><g id="triangle36_484_" class="st3"><path class="st1" d="M207.4 403s0-.1 0 0L138 385.7c-.1 0-.3-.2-.3-.3L122.6 305c0-.2.1-.3.2-.4.2-.1.3 0 .4.1l84.4 97.6c.1.1.1.3 0 .4.1.2-.1.3-.2.3zm-68.9-18l67.9 16.9-82.7-95.7 14.8 78.8z"/></g><g id="triangle36_483_" class="st3"><path class="st1" d="M109.1 387.2c-.1 0-.2 0-.3-.1-.1-.1-.1-.2-.1-.3l13.9-81.8c0-.2.2-.3.4-.3s.3.1.4.3l15.1 80.4c0 .1 0 .2-.1.3-.1.1-.2.1-.3.1l-29 1.4zm13.9-80.1l-13.5 79.3 28.1-1.4-14.6-77.9z"/></g><g id="triangle36_482_" class="st3"><path class="st1" d="M298 443.3s-.1 0 0 0l-68.7-15.6c-.2 0-.3-.2-.3-.4l4.6-27.3c0-.1.1-.2.2-.3h.4l63.9 42.8c.1.1.2.2.2.4.1.2-.1.4-.3.4zm-68.2-16.2l66.3 15-61.8-41.4-4.5 26.4z"/></g><g id="triangle36_481_" class="st3"><path class="st1" d="M298 443.3c-.1 0-.1 0-.2-.1l-63.9-42.8c-.1-.1-.2-.2-.2-.4s.2-.3.3-.3l106.3-12.8c.2 0 .3.1.4.2.1.1.1.3 0 .4l-42.4 55.6c-.1.1-.2.2-.3.2zm-62.9-43l62.8 42.1 41.6-54.7-104.4 12.6z"/></g><g id="triangle36_480_" class="st3"><path class="st1" d="M234 400.5c-.2 0-.3-.1-.4-.3l-45.6-145c0-.2 0-.3.2-.4.1-.1.3-.1.5 0L340.6 387c.1.1.2.3.1.4 0 .1-.2.2-.3.3L234 400.5c.1 0 .1 0 0 0zm-44.8-144.3l45.1 143.5L339.5 387 189.2 256.2z"/></g><g id="triangle36_479_" class="st3"><path class="st1" d="M207.4 403c-.2 0-.3-.1-.4-.3l-18.9-147.5c0-.2.1-.4.3-.4.2 0 .4.1.4.3l45.6 145v.3c-.1.1-.2.2-.3.2l-26.7 2.4zm-18-143.8l18.3 143 25.8-2.4-44.1-140.6z"/></g><g id="triangle36_478_" class="st3"><path class="st1" d="M207.4 403c-.1 0-.2 0-.3-.1l-84.4-97.6c-.1-.1-.1-.2-.1-.3 0-.1.1-.2.1-.3l65.5-49.9c.1-.1.2-.1.4 0 .1.1.2.2.2.3l18.9 147.4v.2c.1.1-.1.3-.3.3zm-83.8-98l83.3 96.4-18.7-145.6-64.6 49.2z"/></g><g id="triangle36_477_" class="st3"><path class="st1" d="M188.5 255.4l-90.6-4.1c-.2 0-.3-.1-.3-.3 0-.2 0-.3.2-.4l70.5-45c.1-.1.2-.1.3 0 .1 0 .2.1.2.2l20.1 49.1v.4c-.2.1-.3.1-.4.1zm-89.4-4.7l88.8 4-19.7-48.1-69.1 44.1z"/></g><g id="triangle36_476_" class="st3"><path class="st1" d="M123 305.3c-.2 0-.3-.1-.3-.2l-25.1-54c-.1-.1 0-.3 0-.4.1-.1.2-.2.3-.2l90.5 4.1c.2 0 .3.1.3.3 0 .2 0 .3-.1.4l-65.5 49.9c.1.1 0 .1-.1.1zm-24.5-53.9l24.6 53 64.3-49-88.9-4z"/></g><g id="triangle36_475_" class="st3"><path class="st1" d="M340.4 387.6c-.1 0-.2 0-.3-.1L188.2 255.3c-.1-.1-.2-.3-.1-.4l38.2-102c.1-.1.2-.2.3-.2.1 0 .3.1.4.2L340.7 387c.1.1.1.2.1.3 0 .2-.2.3-.4.3zM188.9 255l150.3 130.8L226.7 154l-37.8 101z"/></g><g id="triangle36_474_" class="st3"><path class="st1" d="M188.5 255.4c-.2 0-.3-.1-.3-.2l-20.1-49.1c-.1-.1 0-.3.1-.4l58.3-53c.1-.1.3-.1.5 0 .1.1.2.3.1.4l-38.2 102c-.1.2-.2.3-.4.3zm-19.7-49.3l19.6 47.9 37.3-99.7-56.9 51.8z"/></g><g id="triangle36_473_" class="st3"><path class="st1" d="M168.4 206.4c-.1 0-.2 0-.2-.1-.1-.1-.2-.3-.1-.5l48.7-83.6c.1-.1.2-.2.4-.2.1 0 .3.1.3.3l9.6 30.6c0 .1 0 .3-.1.4l-58.3 53c-.1.1-.2.1-.3.1zm48.6-83l-47 80.7 56.3-51.2-9.3-29.5z"/></g><g id="triangle36_472_" class="st3"><path class="st1" d="M229.4 427.7l-66.6-3.6c-.1 0-.3-.1-.3-.2-.1-.1 0-.3.1-.4l16.3-18.1c.1-.1.3-.2.4-.1l50.3 21.6c.2.1.3.3.2.4-.1.3-.2.4-.4.4zm-65.8-4.2l63.7 3.4-48.2-20.7-15.5 17.3z"/></g><g id="triangle36_471_" class="st3"><path class="st1" d="M162.8 424.2c-.1 0-.3-.1-.3-.2l-24.6-38.5c-.1-.1-.1-.3 0-.5.1-.1.3-.2.4-.1l40.9 20.4c.1.1.2.2.2.3 0 .1 0 .2-.1.3L163 424c0 .1-.1.2-.2.2zm-23.6-37.9l23.6 36.9 15.6-17.3-39.2-19.6z"/></g><g id="triangle36_470_" class="st3"><path class="st1" d="M162.8 424.2c-.1 0-.1 0-.2-.1l-53.7-37c-.1-.1-.2-.3-.1-.4 0-.2.2-.3.3-.3l29-1.5c.1 0 .3.1.3.2l24.6 38.5c.1.2.1.3-.1.5.1 0 0 .1-.1.1zm-52.6-37.1l51.2 35.3-23.5-36.7-27.7 1.4z"/></g><g id="triangle36_469_" class="st3"><path class="st1" d="M109.1 387.2c-.1 0-.2 0-.3-.1l-56-54.7c-.1-.1-.1-.2-.1-.3 0-.1.1-.2.2-.3l69.9-27.1c.1 0 .3 0 .4.1.1.1.2.2.1.4L109.4 387c0 .1-.1.3-.3.3.1-.1.1-.1 0-.1zm-55.3-55l55.1 53.8 13.7-80.5-68.8 26.7z"/></g><g id="triangle36_468_" class="st3"><path class="st1" d="M65.3 393.4c-.2 0-.3-.1-.4-.3l-12.1-61c0-.2 0-.3.2-.4.1-.1.3-.1.4.1l56 54.7c.1.1.1.2.1.4 0 .1-.2.2-.3.3l-43.9 6.2zm-11.6-60.2l11.8 59.4 42.8-6.1-54.6-53.3z"/></g><g id="triangle36_467_" class="st3"><path class="st1" d="M53.1 332.4c-.1 0-.2 0-.3-.1-.1-.1-.1-.3 0-.4l44.8-81.1c.1-.1.2-.2.3-.2.1 0 .3.1.3.2l25.1 54v.3c0 .1-.1.2-.2.2l-69.9 27.1h-.1zm44.8-80.6L54 331.3l68.5-26.6-24.6-52.9z"/></g><g id="triangle36_466_" class="st3"><path class="st1" d="M53.8 396.8c-.1 0-.2 0-.2-.1-.1-.1-.2-.2-.2-.3l-.7-64.4c0-.2.1-.4.3-.4.2 0 .4.1.4.3l12.1 61c0 .2-.1.4-.3.4l-11.4 3.4c.1.1.1.1 0 .1zm-.2-60.7l.6 59.9 10.6-3.2-11.2-56.7z"/></g><g id="triangle36_465_" class="st3"><path class="st1" d="M53.8 396.8c-.1 0-.2 0-.3-.1L16.8 360c-.1-.1-.1-.2-.1-.3 0-.1.1-.2.1-.3l36.1-27.7c.1-.1.3-.1.4 0 .1.1.2.2.2.3l.7 64.3v.1c0 .3-.1.5-.4.4zm-36.1-37l35.8 35.8-.7-62.7-35.1 26.9z"/></g><g id="triangle36_464_" class="st3"><path class="st1" d="M53.1 332.4c-.1 0-.1 0-.2-.1l-109.2-66.5c-.1-.1-.2-.2-.2-.4s.2-.3.3-.3l154-14.6c.1 0 .3.1.3.2.1.1.1.3 0 .4l-44.8 81.1c.1.1 0 .2-.2.2.1 0 .1 0 0 0zm-108-66.5L53 331.5l44.3-80.1-152.2 14.5z"/></g><g id="triangle36_463_" class="st3"><path class="st1" d="M17.1 360.1c-.1 0-.2 0-.3-.1l-73.1-94.2c-.1-.1-.1-.3 0-.5.1-.1.3-.2.5-.1l109.2 66.5c.1.1.2.2.2.3 0 .1 0 .2-.1.3L17.4 360c-.2.1-.2.1-.3.1zM-54.5 267l71.6 92.3 35.3-27.1L-54.5 267z"/></g><g id="triangle36_462_" class="st3"><path class="st1" d="M340.4 387.6c-.1 0-.3-.1-.3-.2L226.3 153.2v-.3c0-.1.1-.2.2-.2l136.7-47.1c.1 0 .3 0 .4.1.1.1.2.2.1.3l-23 281.4c0 .1-.1.2-.3.2zM227.2 153.2l112.9 232.6L363 106.4l-135.8 46.8z"/></g><g id="triangle36_461_" class="st3"><path class="st1" d="M298 443.3c-.1 0-.2 0-.3-.1-.1-.1-.2-.3 0-.5l42.4-55.6c.1-.1.3-.2.4-.1.1 0 .3.2.3.3l1.6 16c0 .1 0 .2-.1.3l-44 39.6c-.1.1-.2.1-.3.1zm42.1-55L300.7 440l40.9-36.8-1.5-14.9z"/></g><g id="triangle36_460_" class="st3"><path class="st1" d="M-56 266h-.1c-.2-.1-.3-.2-.2-.4l32.1-160.4c0-.2.2-.3.4-.3L45 116.3c.1 0 .2.1.3.2.1.1 0 .3 0 .4l-101 148.9c-.1.1-.2.2-.3.2zm32.3-160.4l-31.6 158.2L44.3 117l-68-11.4z"/></g><g id="triangle36_459_" class="st3"><path class="st1" d="M-56 266c-.1 0-.3-.1-.3-.2-.1-.1-.1-.3 0-.4l101-148.9c.1-.1.2-.2.4-.2.1 0 .3.1.3.2l53 134.3v.3c-.1.1-.2.2-.3.2L-56 266zM44.8 117.5L-55.3 265.2l152.7-14.5-52.6-133.2z"/></g><g id="triangle36_458_" class="st3"><path class="st1" d="M363.4 106.3h-.1c-.2 0-.3-.2-.3-.3l-.4-15.5c0-.2.1-.3.3-.4l14.8-4.8c.2 0 .3 0 .4.1.1.1.1.3 0 .4l-14.4 20.3c-.1.1-.2.2-.3.2zm0-15.7l.4 14.1 13.1-18.5-13.5 4.4z"/></g><g id="triangle36_457_" class="st3"><path class="st1" d="M250.4 124.6c-.2 0-.3-.1-.4-.3 0-.2.1-.4.3-.4L362.9 90c.1 0 .2 0 .3.1.1.1.2.2.2.3l.4 15.5c0 .2-.1.4-.3.4l-113.1 18.3c.1 0 .1 0 0 0zm112.2-33.7l-106.6 32 107-17.4-.4-14.6z"/></g><g id="triangle36_456_" class="st3"><path class="st1" d="M226.7 153.4c-.1 0-.2-.1-.3-.2-.1-.1-.1-.3 0-.5l23.8-28.8c.1-.1.1-.1.2-.1l113-18.3c.2 0 .4.1.4.3 0 .2-.1.4-.2.4l-136.7 47.1c-.1.1-.2.1-.2.1zm23.9-28.8l-22.8 27.7L359.1 107l-108.5 17.6z"/></g><g id="triangle36_455_" class="st3"><path class="st1" d="M226.7 153.4s-.1 0 0 0c-.2 0-.3-.1-.4-.3l-9.6-30.6c0-.1 0-.2.1-.3.1-.1.2-.2.3-.1l33.3 1.8c.1 0 .3.1.3.2.1.1 0 .3-.1.4L227 153.3c-.1 0-.2.1-.3.1zm-9.1-30.6l9.2 29.4 22.8-27.7-32-1.7z"/></g><g id="triangle36_454_" class="st3"><path class="st1" d="M44.9 117.1c-.1 0-.2 0-.2-.1l-67.6-54.2c-.1-.1-.2-.3-.1-.4.1-.2.2-.2.4-.2l92.8 12c.1 0 .2.1.3.2.1.1 0 .2 0 .4l-25.2 42.1c-.1.1-.2.1-.4.2.1 0 .1 0 0 0zm-66.3-54l66.2 53 24.7-41.3-90.9-11.7z"/></g><g id="triangle36_453_" class="st3"><path class="st1" d="M44.9 117.1l-69-11.5c-.2 0-.3-.2-.3-.4l1.3-42.6c0-.1.1-.3.2-.3.1-.1.3 0 .4 0L45 116.4c.1.1.2.2.2.3.1.2 0 .4-.3.4zm-68.5-12.2l67.1 11.2-65.9-52.8-1.2 41.6z"/></g><g id="triangle36_452_" class="st3"><path class="st1" d="M106.4 139.3h-.1L44.8 117c-.1 0-.2-.1-.2-.2v-.3l25.2-42.1c.1-.1.2-.2.3-.2.1 0 .3.1.3.2l36.2 64.4c.1.1.1.3 0 .4 0 0-.1.1-.2.1zm-60.9-22.8l60.1 21.7-35.5-62.9-24.6 41.2z"/></g><g id="triangle36_451_" class="st3"><path class="st1" d="M168.4 206.4c-.1 0-.2 0-.3-.1l-62-67.1c-.1-.1-.1-.2-.1-.4 0-.1.2-.2.3-.2L217 122.1c.1 0 .3 0 .4.2.1.1.1.3 0 .4l-48.7 83.6s-.1.1-.3.1zm-61.3-67.2l61.2 66.2 48.1-82.5-109.3 16.3z"/></g><g id="triangle36_450_" class="st3"><path class="st1" d="M97.9 251.3c-.1 0-.1 0-.2-.1s-.2-.2-.2-.4l8.4-112.1c0-.1.1-.3.3-.3.1 0 .3 0 .4.1l62 67.1c.1.1.1.2.1.3 0 .1-.1.2-.2.3l-70.5 45c.1.1 0 .1-.1.1zm8.8-111.5l-8.3 110.5 69.4-44.3-61.1-66.2z"/></g><g id="triangle36_449_" class="st3"><path class="st1" d="M97.9 251.3c-.2 0-.3-.1-.3-.2l-53-134.3c-.1-.1 0-.3.1-.4.1-.1.3-.1.4-.1l61.4 22.2c.2.1.3.2.2.4L98.3 251c0 .2-.1.3-.4.3.1 0 .1 0 0 0zm-52.3-134l52.1 132 8.3-110.1-60.4-21.9z"/></g></g><defs><path id="SVGID_9_" d="M0-66.5h288v288H0z"/></defs><clipPath id="SVGID_10_"><use xlink:href="#SVGID_9_" overflow="visible"/></clipPath><g class="st10"><path class="st1" d="M71 169.6h-.2L53 159.7c-.1-.1-.2-.2-.2-.4 0-.1.1-.3.2-.3l22.6-9.2c.1-.1.3 0 .4.1.1.1.2.2.1.4l-4.8 19.1c0 .1-.1.2-.2.3 0-.1-.1-.1-.1-.1zm-17-10.2l16.7 9.3 4.5-17.9-21.2 8.6z" id="triangle36_604_"/><path class="st1" d="M53.1 159.7c-.1 0-.2-.1-.3-.2-.1-.1-.1-.3 0-.5l27.3-29.7c.1-.1.3-.2.5-.1s.2.2.2.4l-4.7 20.5c0 .1-.1.2-.2.3l-22.6 9.2c-.1.1-.1.1-.2.1zm26.7-28.8l-25.2 27.4 20.9-8.5 4.3-18.9z" id="triangle36_603_"/><path class="st1" d="M75.7 150.5h-.1c-.2-.1-.3-.3-.2-.4l4.7-20.5c0-.1.1-.1.1-.2l24.2-23.5c.1-.1.4-.1.5 0 .1.1.2.3.1.5l-28.9 44c-.1 0-.2.1-.4.1zm5.1-20.7l-4.2 18.3 25.9-39.3-21.7 21z" id="triangle36_602_"/><path class="st1" d="M75.7 150.5c-.1 0-.2 0-.3-.1-.1-.1-.1-.3 0-.4l28.9-44c.1-.1.2-.2.4-.2l59.6 9.1c.2 0 .3.2.3.3 0 .2-.1.3-.2.4l-88.5 34.8c-.1.1-.1.1-.2.1zm29.1-43.9l-28.1 42.8 86.1-33.9-58-8.9z" id="triangle36_601_"/><path class="st1" d="M164.2 115.7l-59.6-9.1c-.1 0-.2-.1-.3-.2-.1-.1-.1-.2 0-.3l6.1-20.5c0-.1.1-.2.2-.2h.3l53.5 29.6c.2 0 .3.2.3.4-.1.1-.2.3-.5.3zm-59.1-9.8l57.1 8.7L111 86.2l-5.9 19.7z" id="triangle36_600_"/><path class="st1" d="M25.6 203.6c-.1 0-.2 0-.3-.1-.1-.1-.2-.3-.1-.5l27.6-43.9c.1-.2.3-.2.5-.1l17.8 9.9c.1.1.2.2.2.3 0 .1 0 .2-.1.3l-45.4 34c-.1.1-.2.1-.2.1zm27.7-43.7L27 201.7l43.3-32.4-17-9.4z" id="triangle36_599_"/><path class="st1" d="M53.9 246.7c-.1 0-.2-.1-.3-.2l-28.3-43.1c-.1-.2-.1-.4.1-.5l45.4-34c.1-.1.3-.1.4 0 .1.1.2.2.2.4l-17.1 77.1c-.1.1-.2.3-.4.3.1 0 0 0 0 0zm-27.8-43.4l27.7 42 16.7-75.2-44.4 33.2z" id="triangle36_598_"/><path class="st1" d="M53.9 246.7c-.1 0-.2 0-.2-.1-.1-.1-.2-.2-.1-.4l17.1-77.1c0-.2.2-.3.4-.3l112 3.8c.2 0 .3.1.4.3 0 .2 0 .3-.2.4l-129 73.3c-.3.1-.3.1-.4.1zm17.4-77.1l-16.8 75.9 127.2-72.2-110.4-3.7z" id="triangle36_597_"/><path class="st1" d="M183 173.4c-.1 0-.1 0 0 0l-112-3.8c-.1 0-.2-.1-.3-.1-.1-.1-.1-.2-.1-.3l4.8-19.1c0-.2.2-.3.4-.3L183 172.6c.2 0 .4.2.4.4-.1.2-.2.4-.4.4zm-111.6-4.5l107.3 3.6L76 150.6l-4.6 18.3z" id="triangle36_596_"/><path class="st1" d="M182.9 173.4L75.7 150.5c-.2 0-.3-.2-.3-.3 0-.2.1-.3.2-.4l88.5-34.8h.3c.1 0 .2.1.2.2l18.7 57.6c0 .1.1.1.1.2-.1.2-.2.4-.5.4.1 0 0 0 0 0zM77 150l105.3 22.5-18.3-56.7L77 150z" id="triangle36_595_"/><path class="st1" d="M182.9 173.4c-.1 0-.2-.1-.3-.2-.1-.1-.1-.2 0-.4l25-62c.1-.2.2-.2.4-.2s.3.1.3.3l14.1 60c0 .1 0 .2-.1.3-.1.1-.2.1-.3.1l-39.1 2.1c.1 0 .1 0 0 0zm24.9-61.1l-24.3 60.3 38-1.9-13.7-58.4z" id="triangle36_594_"/><path class="st1" d="M182.9 173.4c-.2 0-.3-.1-.4-.3l-18.7-57.7v-.3c.1-.1.2-.2.3-.2l43.7-4.2c.1 0 .3 0 .3.1.1.1.1.2 0 .4l-25 62c.1.1 0 .2-.2.2zm-18.1-57.8l18.2 56.3 24.3-60.4-42.5 4.1z" id="triangle36_593_"/><path class="st1" d="M53.9 246.7c-.2 0-.3-.1-.4-.3-.1-.2 0-.4.2-.4l129-73.3c.1-.1.3-.1.4 0l61.6 51.5c.1.1.2.3.1.4 0 .1-.2.2-.3.3L53.9 246.7zm129-73.2L55.7 245.7l188-21.5-60.8-50.7z" id="triangle36_592_"/><path class="st1" d="M244.6 224.9c-.1 0-.2 0-.2-.1l-61.6-51.5c-.1-.1-.2-.3-.1-.4 0-.1.2-.2.3-.3l39-2c.1 0 .3.1.4.2l22.6 53.4c.1.1.1.2.1.2-.1.3-.3.5-.5.5zm-60.7-51.6l59.7 49.9-21.9-51.8-37.8 1.9z" id="triangle36_591_"/><path class="st1" d="M268.2 225.7l-23.6-.8c-.1 0-.3-.1-.3-.2l-22.6-53.5c-.1-.2 0-.4.1-.5.2-.1.4-.1.5.1l46.2 54.3c.1.1.1.3.1.4-.1.1-.3.2-.4.2zm-23.4-1.6l22.5.8-44.1-51.8 21.6 51z" id="triangle36_590_"/><path class="st1" d="M53.1 159.7c-.1 0-.1 0-.2-.1-.2-.1-.2-.3-.1-.5l18.8-45.5c.1-.1.2-.2.3-.2.1 0 .3.1.3.2l8.6 15.7c.1.1.1.3-.1.4l-27.3 29.7c-.1.3-.2.3-.3.3zm18.8-44.9l-17.7 42.8 25.7-28-8-14.8z" id="triangle36_589_"/><path class="st1" d="M80.5 130s-.1 0 0 0c-.2 0-.3-.1-.3-.2l-8.6-15.7c-.1-.1-.1-.2 0-.3 0-.1.1-.2.3-.2l32.8-7.7c.2 0 .3 0 .4.2.1.1.1.3-.1.4L80.8 130h-.3zm-8-15.8l8.1 14.9 22.8-22.2-30.9 7.3z" id="triangle36_588_"/><path class="st1" d="M71.9 114.3c-.1 0-.3-.1-.3-.2-.1-.2 0-.4.1-.5l38.8-28.3c.1-.1.3-.1.4 0 .1.1.2.3.1.4l-6.1 20.5c0 .1-.1.2-.3.3l-32.7 7.8zm38.2-27.7l-36.4 26.5 30.7-7.3 5.7-19.2z" id="triangle36_587_"/><path class="st1" d="M164.2 115.7h-.2L110.6 86c-.1-.1-.2-.2-.2-.3 0-.1.1-.3.2-.3l51.7-25.6c.1-.1.2-.1.4 0 .1.1.2.2.2.3l1.8 55.2c0 .1-.1.3-.2.3s-.2.1-.3.1zm-52.7-30.1l52.3 29-1.7-54-50.6 25z" id="triangle36_586_"/><path class="st1" d="M110.7 86c-.1 0-.2 0-.2-.1-.1-.1-.2-.2-.1-.4l6.4-32c0-.2.2-.3.4-.3l45.4 6.5c.2 0 .3.1.3.3 0 .2-.1.3-.2.4L110.9 86h-.2zm6.7-32l-6.1 31 50-24.7-43.9-6.3z" id="triangle36_585_"/><path class="st1" d="M164.2 115.7c-.1 0-.2 0-.2-.1-.1-.1-.1-.2-.1-.3l-1.8-55.2c0-.2.1-.3.2-.4.1-.1.3 0 .4.1l45.4 51c.1.1.1.3.1.4-.1.1-.2.2-.3.2l-43.7 4.3c.1 0 .1 0 0 0zm-1.3-54.6l1.7 53.8 42.5-4.1-44.2-49.7z" id="triangle36_584_"/><path class="st1" d="M162.5 60.5s-.1 0 0 0L117.1 54c-.2 0-.3-.2-.3-.4l.4-8.8c0-.1.1-.2.2-.3.1-.1.2-.1.3 0l44.9 15.2c.2 0 .3.2.3.4s-.2.4-.4.4zm-45-7.2l41 5.8-40.7-13.8-.3 8z" id="triangle36_583_"/><path class="st1" d="M162.5 60.5h-.1l-45-15.3c-.1 0-.2-.2-.3-.3 0-.2.1-.3.2-.4l34.5-16.6h.3c.1 0 .2.1.2.2l10.4 31.7c0 .1.1.1.1.2.1.3-.1.4-.3.5zm-44-15.7l43.4 14.7-10.1-30.7-33.3 16z" id="triangle36_582_"/><path class="st1" d="M207.9 111.4c-.1 0-.2 0-.3-.1l-45.4-51c-.1-.1-.1-.2-.1-.3 0-.1.1-.2.1-.3L235.1 0c.1-.1.3-.1.4 0 .1.1.2.3.2.4L208.3 111c-.1.3-.2.4-.4.4.1 0 0 0 0 0zM163 60.1l44.7 50.1 27-108.9L163 60.1z" id="triangle36_581_"/><path class="st1" d="M162.5 60.5h-.1c-.1 0-.2-.1-.3-.2l-10.5-31.8c-.1-.2 0-.4.2-.5l83.4-28c.2-.1.4 0 .4.2.1.2 0 .4-.1.5l-72.9 59.7s0 .1-.1.1zm-10-32l10.2 31 70.9-58-81.1 27z" id="triangle36_580_"/><path class="st1" d="M243.9 331.4h-.2l-190-84.8c-.2-.1-.2-.2-.2-.4s.2-.3.3-.3l190.7-21.8c.1 0 .2 0 .3.1.1.1.1.2.1.3l-.6 106.6c0 .1-.1.2-.2.3h-.2zM55.3 246.5l188.3 84 .6-105.6-188.9 21.6z" id="triangle36_579_"/><path class="st1" d="M53.9 246.7s-.1 0 0 0l-11.6-2.8c-.1 0-.2-.1-.3-.2l-16.8-40.3c-.1-.2 0-.4.2-.5.2-.1.4 0 .5.1l28.3 43.1c.1.1.1.3 0 .4-.1.1-.2.2-.3.2zm-11.3-3.5l10.4 2.5-25.6-38.9 15.2 36.4z" id="triangle36_578_"/><path class="st1" d="M314.2 107.4c-.1 0-.2-.1-.3-.2L235.1.6c-.1-.1-.1-.3 0-.5.1-.1.3-.2.5-.1l103.7 61.5c.2.1.2.3.1.5l-24.8 45.1c-.1.2-.2.3-.4.3.1 0 .1 0 0 0zM236.8 1.7l77.4 104.6L338.6 62 236.8 1.7z" id="triangle36_577_"/><path class="st1" d="M207.9 111.4c-.1 0-.2-.1-.3-.1-.1-.1-.1-.2-.1-.3L235 .3c0-.1.1-.2.3-.3.1 0 .3 0 .4.1l78.9 106.6c.1.1.1.3 0 .4-.1.1-.2.2-.3.2l-106.4 4.1zM235.5 1.3l-27.1 109.4 105.1-4-78-105.4z" id="triangle36_576_"/><path class="st1" d="M254.5 346.4c-.1 0-.2-.1-.3-.2l-10.6-15c-.1-.1-.1-.3 0-.4.1-.1.3-.2.4-.1l10.9 3.5c.2.1.3.2.3.4l-.3 11.5c0 .2-.1.3-.3.3h-.1zm-9.6-14.6l9.3 13.1.3-10.1-9.6-3z" id="triangle36_575_"/><path class="st1" d="M254.8 334.9h-.1l-10.9-3.5c-.2-.1-.3-.2-.3-.4l14.9-83c0-.2.2-.3.4-.3s.3.2.3.4l-4 86.5c0 .1-.1.2-.2.3h-.1zm-10.4-4.1l10.1 3.2 3.7-80.3-13.8 77.1z" id="triangle36_574_"/><path class="st1" d="M243.9 331.4c-.2 0-.4-.2-.4-.4l.6-106.6c0-.2.1-.3.3-.4.2 0 .3 0 .4.2l14.2 23.6c0 .1.1.2 0 .3l-14.9 83c.2.2 0 .3-.2.3zm1-105.6l-.6 100.9 14.1-78.6-13.5-22.3z" id="triangle36_573_"/><path class="st1" d="M258.8 248.4c-.1 0-.3-.1-.3-.2l-14.2-23.6c-.1-.1-.1-.3 0-.4.1-.1.2-.2.3-.2l23.6.8c.1 0 .2.1.3.2.1.1.1.2 0 .3l-9.4 22.7c0 .3-.1.4-.3.4zm-13.6-23.5l13.5 22.3 8.9-21.5-22.4-.8z" id="triangle36_572_"/><path class="st1" d="M337.4 135.2c-.1 0-.2 0-.3-.1L314 107.2c-.1-.1-.1-.2-.1-.3 0-.1.1-.2.2-.3l54.2-33.8c.1-.1.3-.1.5 0 .1.1.2.3.1.4l-31 61.6c-.2.3-.4.4-.5.4zm-22.6-28.1l22.5 27.1 30.2-59.9-52.7 32.8z" id="triangle36_571_"/><path class="st1" d="M314.2 107.4c-.1 0-.2 0-.3-.1-.1-.1-.2-.3-.1-.5l24.8-45.1c.1-.2.3-.2.5-.2l29.3 11.3c.1.1.2.2.2.3 0 .1-.1.3-.2.4l-54.2 33.8c.2 0 .1.1 0 .1zm25-45l-24 43.5 52.3-32.6-28.3-10.9z" id="triangle36_570_"/><path class="st1" d="M283.8 144.7c-.1 0-.3-.1-.3-.2-.1-.1-.1-.3 0-.4l30.5-37.3c.1-.1.2-.1.3-.1.1 0 .2 0 .3.1l23.1 27.8c.1.1.1.2.1.4 0 .1-.2.2-.3.2l-53.7 9.5c0-.1 0 0 0 0zm30.4-37.1l-29.5 36.2 52-9.2-22.5-27z" id="triangle36_569_"/><path class="st1" d="M268.2 225.7c-.1 0-.2 0-.3-.1l-46.2-54.3c-.1-.1-.1-.2-.1-.3 0-.1.1-.2.2-.3l61.8-26.7c.1-.1.3 0 .4.1.1.1.2.2.1.4l-15.6 81s-.1.1-.3.2zm-45.6-54.5l45.4 53.3 15.3-79.6-60.7 26.3z" id="triangle36_568_"/><path class="st1" d="M222 171.4h-.2c-.1 0-.2-.1-.2-.2l-14.1-60c0-.1 0-.3.1-.4.1-.1.3-.1.4-.1l75.9 33.2c.1.1.2.2.2.3 0 .1-.1.3-.2.3l-61.8 26.7c0 .2-.1.2-.1.2zm-13.6-59.7l13.8 58.8 60.6-26.2-74.4-32.6z" id="triangle36_567_"/><path class="st1" d="M283.8 144.7h-.2l-75.9-33.2c-.2-.1-.2-.2-.2-.4s.2-.3.4-.3l106.3-4.1c.2 0 .3.1.3.2.1.1 0 .3 0 .4L284 144.6s-.1.1-.2.1zm-74.2-33.3l74.1 32.5 29.8-36.4-103.9 3.9z" id="triangle36_566_"/></g><g class="st11"><g id="triangle36_565_" class="st3"><path class="st1" d="M229.4 427.7c-.1 0-.2 0-.3-.1l-22-24.8c-.1-.1-.1-.3-.1-.4.1-.1.2-.2.3-.2l26.6-2.5c.1 0 .2 0 .3.1.1.1.1.2.1.3l-4.6 27.3c0 .1-.1.3-.3.3.1 0 0 0 0 0zm-21.2-24.8l21 23.7 4.4-26-25.4 2.3z"/></g><g id="triangle36_564_" class="st3"><path class="st1" d="M229.4 427.7h-.1L179 406.1c-.2-.1-.2-.2-.2-.4s.2-.3.3-.3l28.3-3.1c.1 0 .2 0 .3.1l22 24.8c.1.1.1.3 0 .5h-.3zm-48.9-21.8l47.5 20.4-20.7-23.3-26.8 2.9z"/></g><g id="triangle36_563_" class="st3"><path class="st1" d="M179.1 406.1h-.2L138 385.7c-.2-.1-.3-.3-.2-.5.1-.2.3-.3.4-.2l69.3 17.2c.2 0 .3.2.3.4s-.2.3-.3.3l-28.4 3.2zm-37.7-19.6l37.8 18.8 26.1-2.9-63.9-15.9z"/></g><g id="triangle36_562_" class="st3"><path class="st1" d="M207.4 403s0-.1 0 0L138 385.7c-.1 0-.3-.2-.3-.3L122.6 305c0-.2.1-.3.2-.4.2-.1.3 0 .4.1l84.4 97.6c.1.1.1.3 0 .4.1.2-.1.3-.2.3zm-68.9-18l67.9 16.9-82.7-95.7 14.8 78.8z"/></g><g id="triangle36_561_" class="st3"><path class="st1" d="M109.1 387.2c-.1 0-.2 0-.3-.1-.1-.1-.1-.2-.1-.3l13.9-81.8c0-.2.2-.3.4-.3s.3.1.4.3l15.1 80.4c0 .1 0 .2-.1.3-.1.1-.2.1-.3.1l-29 1.4zm13.9-80.1l-13.5 79.3 28.1-1.4-14.6-77.9z"/></g><g id="triangle36_560_" class="st3"><path class="st1" d="M298 443.3s-.1 0 0 0l-68.7-15.6c-.2 0-.3-.2-.3-.4l4.6-27.3c0-.1.1-.2.2-.3h.4l63.9 42.8c.1.1.2.2.2.4.1.2-.1.4-.3.4zm-68.2-16.2l66.3 15-61.8-41.4-4.5 26.4z"/></g><g id="triangle36_559_" class="st3"><path class="st1" d="M298 443.3c-.1 0-.1 0-.2-.1l-63.9-42.8c-.1-.1-.2-.2-.2-.4s.2-.3.3-.3l106.3-12.8c.2 0 .3.1.4.2.1.1.1.3 0 .4l-42.4 55.6c-.1.1-.2.2-.3.2zm-62.9-43l62.8 42.1 41.6-54.7-104.4 12.6z"/></g><g id="triangle36_558_" class="st3"><path class="st1" d="M234 400.5c-.2 0-.3-.1-.4-.3l-45.6-145c0-.2 0-.3.2-.4.1-.1.3-.1.5 0L340.6 387c.1.1.2.3.1.4 0 .1-.2.2-.3.3L234 400.5c.1 0 .1 0 0 0zm-44.8-144.3l45.1 143.5L339.5 387 189.2 256.2z"/></g><g id="triangle36_557_" class="st3"><path class="st1" d="M207.4 403c-.2 0-.3-.1-.4-.3l-18.9-147.5c0-.2.1-.4.3-.4.2 0 .4.1.4.3l45.6 145v.3c-.1.1-.2.2-.3.2l-26.7 2.4zm-18-143.8l18.3 143 25.8-2.4-44.1-140.6z"/></g><g id="triangle36_556_" class="st3"><path class="st1" d="M207.4 403c-.1 0-.2 0-.3-.1l-84.4-97.6c-.1-.1-.1-.2-.1-.3 0-.1.1-.2.1-.3l65.5-49.9c.1-.1.2-.1.4 0 .1.1.2.2.2.3l18.9 147.4v.2c.1.1-.1.3-.3.3zm-83.8-98l83.3 96.4-18.7-145.6-64.6 49.2z"/></g><g id="triangle36_555_" class="st3"><path class="st1" d="M188.5 255.4l-90.6-4.1c-.2 0-.3-.1-.3-.3 0-.2 0-.3.2-.4l70.5-45c.1-.1.2-.1.3 0 .1 0 .2.1.2.2l20.1 49.1v.4c-.2.1-.3.1-.4.1zm-89.4-4.7l88.8 4-19.7-48.1-69.1 44.1z"/></g><g id="triangle36_554_" class="st3"><path class="st1" d="M123 305.3c-.2 0-.3-.1-.3-.2l-25.1-54c-.1-.1 0-.3 0-.4.1-.1.2-.2.3-.2l90.5 4.1c.2 0 .3.1.3.3 0 .2 0 .3-.1.4l-65.5 49.9c.1.1 0 .1-.1.1zm-24.5-53.9l24.6 53 64.3-49-88.9-4z"/></g><g id="triangle36_553_" class="st3"><path class="st1" d="M340.4 387.6c-.1 0-.2 0-.3-.1L188.2 255.3c-.1-.1-.2-.3-.1-.4l38.2-102c.1-.1.2-.2.3-.2.1 0 .3.1.4.2L340.7 387c.1.1.1.2.1.3 0 .2-.2.3-.4.3zM188.9 255l150.3 130.8L226.7 154l-37.8 101z"/></g><g id="triangle36_552_" class="st3"><path class="st1" d="M188.5 255.4c-.2 0-.3-.1-.3-.2l-20.1-49.1c-.1-.1 0-.3.1-.4l58.3-53c.1-.1.3-.1.5 0 .1.1.2.3.1.4l-38.2 102c-.1.2-.2.3-.4.3zm-19.7-49.3l19.6 47.9 37.3-99.7-56.9 51.8z"/></g><g id="triangle36_551_" class="st3"><path class="st1" d="M168.4 206.4c-.1 0-.2 0-.2-.1-.1-.1-.2-.3-.1-.5l48.7-83.6c.1-.1.2-.2.4-.2.1 0 .3.1.3.3l9.6 30.6c0 .1 0 .3-.1.4l-58.3 53c-.1.1-.2.1-.3.1zm48.6-83l-47 80.7 56.3-51.2-9.3-29.5z"/></g><g id="triangle36_550_" class="st3"><path class="st1" d="M229.4 427.7l-66.6-3.6c-.1 0-.3-.1-.3-.2-.1-.1 0-.3.1-.4l16.3-18.1c.1-.1.3-.2.4-.1l50.3 21.6c.2.1.3.3.2.4-.1.3-.2.4-.4.4zm-65.8-4.2l63.7 3.4-48.2-20.7-15.5 17.3z"/></g><g id="triangle36_549_" class="st3"><path class="st1" d="M162.8 424.2c-.1 0-.3-.1-.3-.2l-24.6-38.5c-.1-.1-.1-.3 0-.5.1-.1.3-.2.4-.1l40.9 20.4c.1.1.2.2.2.3 0 .1 0 .2-.1.3L163 424c0 .1-.1.2-.2.2zm-23.6-37.9l23.6 36.9 15.6-17.3-39.2-19.6z"/></g><g id="triangle36_548_" class="st3"><path class="st1" d="M162.8 424.2c-.1 0-.1 0-.2-.1l-53.7-37c-.1-.1-.2-.3-.1-.4 0-.2.2-.3.3-.3l29-1.5c.1 0 .3.1.3.2l24.6 38.5c.1.2.1.3-.1.5.1 0 0 .1-.1.1zm-52.6-37.1l51.2 35.3-23.5-36.7-27.7 1.4z"/></g><g id="triangle36_547_" class="st3"><path class="st1" d="M109.1 387.2c-.1 0-.2 0-.3-.1l-56-54.7c-.1-.1-.1-.2-.1-.3 0-.1.1-.2.2-.3l69.9-27.1c.1 0 .3 0 .4.1.1.1.2.2.1.4L109.4 387c0 .1-.1.3-.3.3.1-.1.1-.1 0-.1zm-55.3-55l55.1 53.8 13.7-80.5-68.8 26.7z"/></g><g id="triangle36_546_" class="st3"><path class="st1" d="M65.3 393.4c-.2 0-.3-.1-.4-.3l-12.1-61c0-.2 0-.3.2-.4.1-.1.3-.1.4.1l56 54.7c.1.1.1.2.1.4 0 .1-.2.2-.3.3l-43.9 6.2zm-11.6-60.2l11.8 59.4 42.8-6.1-54.6-53.3z"/></g><g id="triangle36_545_" class="st3"><path class="st1" d="M53.1 332.4c-.1 0-.2 0-.3-.1-.1-.1-.1-.3 0-.4l44.8-81.1c.1-.1.2-.2.3-.2.1 0 .3.1.3.2l25.1 54v.3c0 .1-.1.2-.2.2l-69.9 27.1h-.1zm44.8-80.6L54 331.3l68.5-26.6-24.6-52.9z"/></g><g id="triangle36_544_" class="st3"><path class="st1" d="M53.8 396.8c-.1 0-.2 0-.2-.1-.1-.1-.2-.2-.2-.3l-.7-64.4c0-.2.1-.4.3-.4.2 0 .4.1.4.3l12.1 61c0 .2-.1.4-.3.4l-11.4 3.4c.1.1.1.1 0 .1zm-.2-60.7l.6 59.9 10.6-3.2-11.2-56.7z"/></g><g id="triangle36_543_" class="st3"><path class="st1" d="M53.8 396.8c-.1 0-.2 0-.3-.1L16.8 360c-.1-.1-.1-.2-.1-.3 0-.1.1-.2.1-.3l36.1-27.7c.1-.1.3-.1.4 0 .1.1.2.2.2.3l.7 64.3v.1c0 .3-.1.5-.4.4zm-36.1-37l35.8 35.8-.7-62.7-35.1 26.9z"/></g><g id="triangle36_542_" class="st3"><path class="st1" d="M53.1 332.4c-.1 0-.1 0-.2-.1l-109.2-66.5c-.1-.1-.2-.2-.2-.4s.2-.3.3-.3l154-14.6c.1 0 .3.1.3.2.1.1.1.3 0 .4l-44.8 81.1c.1.1 0 .2-.2.2.1 0 .1 0 0 0zm-108-66.5L53 331.5l44.3-80.1-152.2 14.5z"/></g><g id="triangle36_541_" class="st3"><path class="st1" d="M17.1 360.1c-.1 0-.2 0-.3-.1l-73.1-94.2c-.1-.1-.1-.3 0-.5.1-.1.3-.2.5-.1l109.2 66.5c.1.1.2.2.2.3 0 .1 0 .2-.1.3L17.4 360c-.2.1-.2.1-.3.1zM-54.5 267l71.6 92.3 35.3-27.1L-54.5 267z"/></g><g id="triangle36_540_" class="st3"><path class="st1" d="M340.4 387.6c-.1 0-.3-.1-.3-.2L226.3 153.2v-.3c0-.1.1-.2.2-.2l136.7-47.1c.1 0 .3 0 .4.1.1.1.2.2.1.3l-23 281.4c0 .1-.1.2-.3.2zM227.2 153.2l112.9 232.6L363 106.4l-135.8 46.8z"/></g><g id="triangle36_539_" class="st3"><path class="st1" d="M298 443.3c-.1 0-.2 0-.3-.1-.1-.1-.2-.3 0-.5l42.4-55.6c.1-.1.3-.2.4-.1.1 0 .3.2.3.3l1.6 16c0 .1 0 .2-.1.3l-44 39.6c-.1.1-.2.1-.3.1zm42.1-55L300.7 440l40.9-36.8-1.5-14.9z"/></g><g id="triangle36_538_" class="st3"><path class="st1" d="M-56 266h-.1c-.2-.1-.3-.2-.2-.4l32.1-160.4c0-.2.2-.3.4-.3L45 116.3c.1 0 .2.1.3.2.1.1 0 .3 0 .4l-101 148.9c-.1.1-.2.2-.3.2zm32.3-160.4l-31.6 158.2L44.3 117l-68-11.4z"/></g><g id="triangle36_537_" class="st3"><path class="st1" d="M-56 266c-.1 0-.3-.1-.3-.2-.1-.1-.1-.3 0-.4l101-148.9c.1-.1.2-.2.4-.2.1 0 .3.1.3.2l53 134.3v.3c-.1.1-.2.2-.3.2L-56 266zM44.8 117.5L-55.3 265.2l152.7-14.5-52.6-133.2z"/></g><g id="triangle36_536_" class="st3"><path class="st1" d="M363.4 106.3h-.1c-.2 0-.3-.2-.3-.3l-.4-15.5c0-.2.1-.3.3-.4l14.8-4.8c.2 0 .3 0 .4.1.1.1.1.3 0 .4l-14.4 20.3c-.1.1-.2.2-.3.2zm0-15.7l.4 14.1 13.1-18.5-13.5 4.4z"/></g><g id="triangle36_535_" class="st3"><path class="st1" d="M250.4 124.6c-.2 0-.3-.1-.4-.3 0-.2.1-.4.3-.4L362.9 90c.1 0 .2 0 .3.1.1.1.2.2.2.3l.4 15.5c0 .2-.1.4-.3.4l-113.1 18.3c.1 0 .1 0 0 0zm112.2-33.7l-106.6 32 107-17.4-.4-14.6z"/></g><g id="triangle36_534_" class="st3"><path class="st1" d="M226.7 153.4c-.1 0-.2-.1-.3-.2-.1-.1-.1-.3 0-.5l23.8-28.8c.1-.1.1-.1.2-.1l113-18.3c.2 0 .4.1.4.3 0 .2-.1.4-.2.4l-136.7 47.1c-.1.1-.2.1-.2.1zm23.9-28.8l-22.8 27.7L359.1 107l-108.5 17.6z"/></g><g id="triangle36_533_" class="st3"><path class="st1" d="M226.7 153.4s-.1 0 0 0c-.2 0-.3-.1-.4-.3l-9.6-30.6c0-.1 0-.2.1-.3.1-.1.2-.2.3-.1l33.3 1.8c.1 0 .3.1.3.2.1.1 0 .3-.1.4L227 153.3c-.1 0-.2.1-.3.1zm-9.1-30.6l9.2 29.4 22.8-27.7-32-1.7z"/></g><g id="triangle36_532_" class="st3"><path class="st1" d="M44.9 117.1c-.1 0-.2 0-.2-.1l-67.6-54.2c-.1-.1-.2-.3-.1-.4.1-.2.2-.2.4-.2l92.8 12c.1 0 .2.1.3.2.1.1 0 .2 0 .4l-25.2 42.1c-.1.1-.2.1-.4.2.1 0 .1 0 0 0zm-66.3-54l66.2 53 24.7-41.3-90.9-11.7z"/></g><g id="triangle36_531_" class="st3"><path class="st1" d="M44.9 117.1l-69-11.5c-.2 0-.3-.2-.3-.4l1.3-42.6c0-.1.1-.3.2-.3.1-.1.3 0 .4 0L45 116.4c.1.1.2.2.2.3.1.2 0 .4-.3.4zm-68.5-12.2l67.1 11.2-65.9-52.8-1.2 41.6z"/></g><g id="triangle36_530_" class="st3"><path class="st1" d="M106.4 139.3h-.1L44.8 117c-.1 0-.2-.1-.2-.2v-.3l25.2-42.1c.1-.1.2-.2.3-.2.1 0 .3.1.3.2l36.2 64.4c.1.1.1.3 0 .4 0 0-.1.1-.2.1zm-60.9-22.8l60.1 21.7-35.5-62.9-24.6 41.2z"/></g><g id="triangle36_529_" class="st3"><path class="st1" d="M168.4 206.4c-.1 0-.2 0-.3-.1l-62-67.1c-.1-.1-.1-.2-.1-.4 0-.1.2-.2.3-.2L217 122.1c.1 0 .3 0 .4.2.1.1.1.3 0 .4l-48.7 83.6s-.1.1-.3.1zm-61.3-67.2l61.2 66.2 48.1-82.5-109.3 16.3z"/></g><g id="triangle36_528_" class="st3"><path class="st1" d="M97.9 251.3c-.1 0-.1 0-.2-.1s-.2-.2-.2-.4l8.4-112.1c0-.1.1-.3.3-.3.1 0 .3 0 .4.1l62 67.1c.1.1.1.2.1.3 0 .1-.1.2-.2.3l-70.5 45c.1.1 0 .1-.1.1zm8.8-111.5l-8.3 110.5 69.4-44.3-61.1-66.2z"/></g><g id="triangle36_527_" class="st3"><path class="st1" d="M97.9 251.3c-.2 0-.3-.1-.3-.2l-53-134.3c-.1-.1 0-.3.1-.4.1-.1.3-.1.4-.1l61.4 22.2c.2.1.3.2.2.4L98.3 251c0 .2-.1.3-.4.3.1 0 .1 0 0 0zm-52.3-134l52.1 132 8.3-110.1-60.4-21.9z"/></g></g></svg>