<svg id="Слой_1" data-name="Слой 1" xmlns="http://www.w3.org/2000/svg" xmlns:xlink="http://www.w3.org/1999/xlink" viewBox="0 0 600 450"><defs><style>.cls-1{fill:none;}.cls-2{fill:url(#Безымянный_градиент_27);}.cls-3{fill:url(#Безымянный_градиент_15);}.cls-4{fill:url(#Безымянный_градиент_15-2);}.cls-5{fill:url(#Безымянный_градиент_15-3);}.cls-6{fill:url(#Безымянный_градиент_15-4);}.cls-7{fill:url(#Безымянный_градиент_15-5);}.cls-8{fill:url(#Безымянный_градиент_3);}.cls-9{fill:url(#Безымянный_градиент_24);}.cls-10{fill:#24126a;}.cls-11{opacity:0.51;}.cls-12{fill:#453c9e;}.cls-13{fill:url(#Безымянный_градиент_24-2);}.cls-14{fill:url(#Безымянный_градиент_3-2);}.cls-15{fill:#2842a2;}.cls-16{fill:#adb1f2;}.cls-17{fill:#9198db;}.cls-18{fill:url(#Безымянный_градиент_3-3);}.cls-19{opacity:0.11;}.cls-20{clip-path:url(#clip-path);}.cls-21{fill:url(#Безымянный_градиент_3-4);}.cls-22{fill:url(#Безымянный_градиент_3-5);}.cls-23{fill:url(#Безымянный_градиент_15-6);}.cls-24{fill:url(#Безымянный_градиент_24-3);}.cls-25{fill:url(#Безымянный_градиент_25);}.cls-26{fill:url(#Безымянный_градиент_24-4);}.cls-27{fill:url(#Безымянный_градиент_3-6);}.cls-28,.cls-29{fill:#42e8e0;}.cls-28{opacity:0.5;}</style><radialGradient id="Безымянный_градиент_27" cx="-73.16" cy="72.67" r="904.51" gradientUnits="userSpaceOnUse"><stop offset="0" stop-color="#42e8e0"/><stop offset="0.03" stop-color="#3fd3d5"/><stop offset="0.12" stop-color="#39a6bc"/><stop offset="0.21" stop-color="#337ea6"/><stop offset="0.3" stop-color="#2e5d93"/><stop offset="0.41" stop-color="#2b4184"/><stop offset="0.52" stop-color="#282c79"/><stop offset="0.64" stop-color="#261d70"/><stop offset="0.78" stop-color="#24156b"/><stop offset="1" stop-color="#24126a"/></radialGradient><linearGradient id="Безымянный_градиент_15" x1="-3562.78" y1="376.29" x2="-3554.22" y2="381.24" gradientTransform="matrix(-1, 0, 0, 1, -3113.99, 0)" gradientUnits="userSpaceOnUse"><stop offset="0" stop-color="#42e8e0"/><stop offset="0.15" stop-color="#43e3e0"/><stop offset="0.33" stop-color="#45d5df"/><stop offset="0.52" stop-color="#49bddd"/><stop offset="0.72" stop-color="#4e9cdb"/><stop offset="0.93" stop-color="#5472d8"/><stop offset="1" stop-color="#5761d7"/></linearGradient><linearGradient id="Безымянный_градиент_15-2" x1="-1350.85" y1="1867.76" x2="-1332.97" y2="1867.76" gradientTransform="matrix(-0.87, 0.5, 1, 0.58, -2572.11, -14.66)" xlink:href="#Безымянный_градиент_15"/><linearGradient id="Безымянный_градиент_15-3" x1="-3556.99" y1="388.97" x2="-3542.03" y2="388.97" xlink:href="#Безымянный_градиент_15"/><linearGradient id="Безымянный_градиент_15-4" x1="-3546.73" y1="382.74" x2="-3552.28" y2="395.2" xlink:href="#Безымянный_градиент_15"/><linearGradient id="Безымянный_градиент_15-5" x1="-3695.79" y1="394.89" x2="-3577.14" y2="394.89" xlink:href="#Безымянный_градиент_15"/><linearGradient id="Безымянный_градиент_3" x1="-3712.02" y1="337.57" x2="-3621.55" y2="337.57" gradientTransform="matrix(-1, 0, 0, 1, -3113.99, 0)" gradientUnits="userSpaceOnUse"><stop offset="0" stop-color="#c0bff6"/><stop offset="0.29" stop-color="#c5c4f7"/><stop offset="0.64" stop-color="#d3d2f9"/><stop offset="1" stop-color="#e9e9fd"/></linearGradient><linearGradient id="Безымянный_градиент_24" x1="-3712.02" y1="360.77" x2="-3696.49" y2="360.77" gradientTransform="matrix(-1, 0, 0, 1, -3113.99, 0)" gradientUnits="userSpaceOnUse"><stop offset="0" stop-color="#5761d7"/><stop offset="0.18" stop-color="#5c66d9"/><stop offset="0.39" stop-color="#6a73df"/><stop offset="0.61" stop-color="#8289e8"/><stop offset="0.85" stop-color="#a3a7f5"/><stop offset="1" stop-color="#bcbeff"/></linearGradient><linearGradient id="Безымянный_градиент_24-2" x1="-3699.9" y1="386.86" x2="-3572.12" y2="386.86" xlink:href="#Безымянный_градиент_24"/><linearGradient id="Безымянный_градиент_3-2" x1="-3656.97" y1="382.6" x2="-3529.12" y2="382.6" xlink:href="#Безымянный_градиент_3"/><linearGradient id="Безымянный_градиент_3-3" x1="-3635.32" y1="389.85" x2="-3602.59" y2="389.85" xlink:href="#Безымянный_градиент_3"/><clipPath id="clip-path"><polygon id="SVGID" class="cls-1" points="518.48 288.56 593.97 332.15 584.61 387.34 509.17 343.78 518.48 288.56"/></clipPath><linearGradient id="Безымянный_градиент_3-4" x1="-3705.81" y1="354.26" x2="-3577.96" y2="354.26" xlink:href="#Безымянный_градиент_3"/><linearGradient id="Безымянный_градиент_3-5" x1="-3714.23" y1="344.87" x2="-3681.5" y2="344.87" xlink:href="#Безымянный_градиент_3"/><linearGradient id="Безымянный_градиент_15-6" x1="-3560.84" y1="363.57" x2="-3512.1" y2="363.57" xlink:href="#Безымянный_градиент_15"/><linearGradient id="Безымянный_градиент_24-3" x1="-4273.29" y1="-1880.95" x2="-4227.95" y2="-1880.95" gradientTransform="matrix(-0.87, -0.5, 0, 1.15, -3253.78, 395.17)" xlink:href="#Безымянный_градиент_24"/><radialGradient id="Безымянный_градиент_25" cx="-3551.65" cy="348.1" fx="-3569.3184135263227" r="18.73" gradientTransform="matrix(-1, 0, 0, 1, -3113.99, 0)" gradientUnits="userSpaceOnUse"><stop offset="0" stop-color="#2b237c"/><stop offset="1" stop-color="#180d5b"/></radialGradient><linearGradient id="Безымянный_градиент_24-4" x1="-3560.88" y1="353.98" x2="-3515.75" y2="353.98" xlink:href="#Безымянный_градиент_24"/><linearGradient id="Безымянный_градиент_3-6" x1="-4264.5" y1="-1873.32" x2="-4219.16" y2="-1873.32" gradientTransform="matrix(-0.87, -0.5, 0, 1.15, -3253.78, 395.17)" xlink:href="#Безымянный_градиент_3"/></defs><title>Монтажная область 105</title><rect class="cls-2" width="600" height="450"/><path class="cls-3" d="M442.58,385.28l-.35-.57,7.51-4.52a.49.49,0,0,0,.23-.41.47.47,0,0,0-.24-.41L442.36,375l.34-.57,7.37,4.38a1.14,1.14,0,0,1,0,2Z"/><path class="cls-4" d="M457.82,401.21a3.93,3.93,0,0,1-2-.53L442.51,393l.33-.58,13.35,7.71a3.27,3.27,0,0,0,3.26,0l13.2-7.62.33.58-13.2,7.61A3.9,3.9,0,0,1,457.82,401.21Z"/><path class="cls-5" d="M435.52,393.42a10.69,10.69,0,0,1-5.22-1.24h0a3.41,3.41,0,0,1,0-6.42,11.53,11.53,0,0,1,10.44,0,3.4,3.4,0,0,1,0,6.41A10.69,10.69,0,0,1,435.52,393.42Zm0-8.25a10,10,0,0,0-4.89,1.17,2.76,2.76,0,0,0,0,5.26h0a10.8,10.8,0,0,0,9.78,0,2.76,2.76,0,0,0,0-5.26A10,10,0,0,0,435.52,385.17Zm0,6.37a5.9,5.9,0,0,1-2.9-.7,2.24,2.24,0,0,1-1.3-1.87,2.22,2.22,0,0,1,1.3-1.86,6.38,6.38,0,0,1,5.8,0,2.22,2.22,0,0,1,1.3,1.86,2.24,2.24,0,0,1-1.3,1.87A5.9,5.9,0,0,1,435.52,391.54Zm0-4.47a5.25,5.25,0,0,0-2.57.61,1.35,1.35,0,0,0,0,2.58,5.68,5.68,0,0,0,5.14,0,1.35,1.35,0,0,0,0-2.58A5.25,5.25,0,0,0,435.52,387.07Z"/><path class="cls-6" d="M435.52,394.92a14.33,14.33,0,0,1-7-1.69c-2-1.12-3-2.63-3-4.26s1.07-3.14,3-4.26a15.57,15.57,0,0,1,14.1,0c1.95,1.12,3,2.64,3,4.26s-1.07,3.14-3,4.26A14.33,14.33,0,0,1,435.52,394.92Zm0-11.24a13.74,13.74,0,0,0-6.72,1.6c-1.73,1-2.68,2.31-2.68,3.69s.95,2.69,2.68,3.69h0a14.87,14.87,0,0,0,13.44,0c1.73-1,2.69-2.31,2.69-3.69s-1-2.69-2.69-3.69A13.74,13.74,0,0,0,435.52,383.68Z"/><path class="cls-7" d="M537.29,429.4a6.21,6.21,0,0,1-3.15-.85L463.8,387.94a1.26,1.26,0,0,1-.65-1.11,1.28,1.28,0,0,1,.65-1.12l43.87-25.33.16.1,73.34,42.34a1.28,1.28,0,0,1,0,2.22l-40.72,23.51A6.27,6.27,0,0,1,537.29,429.4Zm-29.62-68.25-43.54,25.14a.6.6,0,0,0-.31.54.62.62,0,0,0,.31.54L534.47,428a5.7,5.7,0,0,0,5.65,0l40.71-23.51a.6.6,0,0,0,.31-.54.62.62,0,0,0-.31-.54Z"/><path class="cls-8" d="M507.58,343.2l9.8-58.14-.79-.33,1.18-.68h0a.85.85,0,0,1,.91.07L597,329.33a2.22,2.22,0,0,1,1,2l-9.88,58.61a.73.73,0,0,1-.41.59h0l-1.16.67-.2-1.08.07,0-77.85-44.94A2.2,2.2,0,0,1,507.58,343.2Z"/><path class="cls-9" d="M596.57,330.92l1.28-.57a1.73,1.73,0,0,1,.17,1l-9.88,58.61a.73.73,0,0,1-.41.59h0l-1.16.67-.2-1.08.07,0-3.94-2.27Z"/><path class="cls-10" d="M507.37,345.89l78.31,45.22c.61.35,1.13.15,1.23-.48l9.88-58.6a2.2,2.2,0,0,0-1-2l-78.31-45.22c-.61-.35-1.13-.15-1.23.48l-9.88,58.6A2.2,2.2,0,0,0,507.37,345.89Z"/><g class="cls-11"><polygon class="cls-12" points="518.48 288.56 593.97 332.15 584.61 387.34 509.17 343.78 518.48 288.56"/></g><path class="cls-13" d="M458.13,373.64l4.28,2.23,42.86-24.75a3.1,3.1,0,0,1,2.79.12L582,393.92c.71-.4,3.93-1.95,3.93-1.95l-1.56,4.08h0a.94.94,0,0,1-.43.49l-45.14,26.06a3.12,3.12,0,0,1-2.8-.12L460.33,378.8a1.32,1.32,0,0,1-.63-.67h0Z"/><path class="cls-14" d="M458.8,374.34l77.52,44.76a3.21,3.21,0,0,0,2.87.12l46.26-26.71c.73-.43.64-1.17-.21-1.66l-77.52-44.76a3.17,3.17,0,0,0-2.87-.11l-46.26,26.7C457.86,373.11,458,373.85,458.8,374.34Z"/><path class="cls-15" d="M559.7,409.41v-.85c0-.08-.05-.11-.11-.08l-3,1.73a.27.27,0,0,0-.11.21v.85c0,.08,0,.12.11.09l3-1.74A.25.25,0,0,0,559.7,409.41Z"/><path class="cls-15" d="M555.22,412v-.85c0-.08-.05-.11-.11-.08l-3,1.73a.27.27,0,0,0-.11.21v.85c0,.08,0,.12.11.08l3-1.73A.26.26,0,0,0,555.22,412Z"/><path class="cls-16" d="M573.38,390,509,352.81a1.36,1.36,0,0,0-1.38,0l-22.94,13.28a.49.49,0,0,0,0,.85L549,404.12a1.36,1.36,0,0,0,1.38,0l23-13.26A.49.49,0,0,0,573.38,390Z"/><path class="cls-17" d="M573.38,390.86l-.23.14L509,353.94a1.36,1.36,0,0,0-1.38,0l-22.71,13.13-.23-.13a.49.49,0,0,1,0-.85l22.94-13.28a1.36,1.36,0,0,1,1.38,0L573.38,390A.49.49,0,0,1,573.38,390.86Z"/><polygon class="cls-10" points="505.85 356.17 561.8 388.48 564.29 387.05 508.33 354.74 505.85 356.17"/><polygon class="cls-10" points="499.75 359.7 552.23 390 554.72 388.56 502.23 358.26 499.75 359.7"/><polygon class="cls-10" points="495.77 361.99 557.57 397.67 560.06 396.23 498.26 360.55 495.77 361.99"/><polygon class="cls-10" points="491.8 364.28 553.6 399.96 556.09 398.53 494.29 362.85 491.8 364.28"/><polygon class="cls-10" points="487.83 366.58 549.62 402.26 552.11 400.82 490.31 365.14 487.83 366.58"/><polygon class="cls-10" points="565.18 390.43 567.67 391.87 570.16 390.43 567.67 389 565.18 390.43"/><polygon class="cls-10" points="556.41 392.41 561.57 395.39 564.06 393.96 558.9 390.97 556.41 392.41"/><path class="cls-18" d="M506.48,399l-17.37-10a.75.75,0,0,1,0-1.42L501,380.7a2.73,2.73,0,0,1,2.46,0l17.37,10a.75.75,0,0,1,0,1.42L508.94,399A2.73,2.73,0,0,1,506.48,399Z"/><path class="cls-17" d="M520.82,391.31l-17.37-10a2.73,2.73,0,0,0-2.46,0l-11.88,6.86a1.05,1.05,0,0,0-.42.42c-.18-.34-.05-.73.42-1L501,380.7a2.73,2.73,0,0,1,2.46,0l17.37,10c.47.27.61.66.43,1A1.09,1.09,0,0,0,520.82,391.31Z"/><g class="cls-19"><g class="cls-20"><path class="cls-21" d="M507.64,346l77.52,44.76a3.21,3.21,0,0,0,2.87.12l46.26-26.71c.74-.42.64-1.17-.21-1.66l-77.52-44.75a3.15,3.15,0,0,0-2.86-.12l-46.26,26.71C506.7,344.77,506.79,345.51,507.64,346Z"/><path class="cls-22" d="M585.39,354,568,344a.75.75,0,0,1,0-1.42l11.88-6.86a2.73,2.73,0,0,1,2.46,0l17.37,10a.75.75,0,0,1,0,1.42L587.85,354A2.73,2.73,0,0,1,585.39,354Z"/><path class="cls-17" d="M599.73,346.33l-17.37-10a2.73,2.73,0,0,0-2.46,0L568,343.16a1.05,1.05,0,0,0-.42.42c-.18-.34-.05-.73.42-1l11.88-6.86a2.73,2.73,0,0,1,2.46,0l17.37,10c.47.27.61.66.43,1A1.09,1.09,0,0,0,599.73,346.33Z"/><path class="cls-16" d="M607.37,369.7,543,332.51a1.38,1.38,0,0,0-1.39,0l-22.94,13.27a.5.5,0,0,0,0,.86L583,383.81a1.38,1.38,0,0,0,1.39,0l23-13.25A.5.5,0,0,0,607.37,369.7Z"/><path class="cls-17" d="M607.37,370.56l-.23.13L543,333.63a1.38,1.38,0,0,0-1.39,0l-22.71,13.14-.23-.13a.5.5,0,0,1,0-.86l22.94-13.27a1.38,1.38,0,0,1,1.39,0l64.42,37.19A.5.5,0,0,1,607.37,370.56Z"/><polygon class="cls-10" points="524.62 344.87 580.74 377.27 578.52 378.56 522.4 346.16 524.62 344.87"/><polygon class="cls-10" points="530.53 341.46 583.88 372.26 581.65 373.54 528.31 342.74 530.53 341.46"/><polygon class="cls-10" points="587.86 374.56 592.84 377.43 590.62 378.72 585.64 375.84 587.86 374.56"/><polygon class="cls-10" points="583.46 378.84 586.93 380.85 584.71 382.13 581.24 380.13 583.46 378.84"/><polygon class="cls-10" points="534.24 339.32 596.55 375.29 594.32 376.58 532.02 340.6 534.24 339.32"/><polygon class="cls-10" points="537.95 337.18 600.25 373.15 598.03 374.44 535.72 338.46 537.95 337.18"/><polygon class="cls-10" points="541.65 335.04 603.96 371.01 601.74 372.3 539.43 336.32 541.65 335.04"/></g></g><path class="cls-23" d="M437.29,377.79a1.8,1.8,0,0,1-.89-.21l-37.82-21.83a.85.85,0,0,1-.47-.73,1,1,0,0,1,.59-.86l7.86-4.53a2.17,2.17,0,0,1,2-.07l37.81,21.83a.85.85,0,0,1,.47.73,1,1,0,0,1-.59.86l-7.86,4.53A2.21,2.21,0,0,1,437.29,377.79Zm-.52-.85a1.41,1.41,0,0,0,1.26-.07l7.86-4.53c.18-.11.22-.2.22-.22s0,0-.1-.09L408.2,350.2a1.46,1.46,0,0,0-1.27.06l-7.86,4.54c-.18.11-.22.2-.22.22s0,0,.1.09Z"/><path class="cls-24" d="M414,337a11.24,11.24,0,0,1,2.77,2.34c1.17-3.73,4.71-4.89,8.9-2.47,3.47,2,6.49,5.94,8.09,10.11a3.79,3.79,0,0,1,1.74.56,9,9,0,0,1,4.1,7.09v.17a4.91,4.91,0,0,1,2.1.7,11.59,11.59,0,0,1,5.25,9.08c0,3.34-2.35,4.7-5.25,3l-27.7-16a14,14,0,0,1-6.32-11C407.63,336.61,410.46,335,414,337Z"/><path class="cls-25" d="M414,337a10.63,10.63,0,0,1,1.67,1.22l3.09-1.79h0c1.71-1.19,4.17-1.14,6.91.44,3.47,2,6.49,5.94,8.09,10.11a3.79,3.79,0,0,1,1.74.56,9,9,0,0,1,4.1,7.09v.17a4.91,4.91,0,0,1,2.1.7,11.59,11.59,0,0,1,5.25,9.08,3.7,3.7,0,0,1-1.52,3.38h0l-7.59,4.41-1.66-8L414,351.6a14,14,0,0,1-6.32-11C407.63,336.61,410.46,335,414,337Z"/><path class="cls-26" d="M401.76,341l7.69-4.47h0c1.14-.68,2.74-.6,4.5.42a10.63,10.63,0,0,1,1.67,1.22l3.09-1.79h0c1.71-1.19,4.17-1.14,6.91.44,3.47,2,6.49,5.94,8.09,10.11a3.79,3.79,0,0,1,1.74.56,9,9,0,0,1,4.1,7.09v.17a4.91,4.91,0,0,1,2.1.7,11.59,11.59,0,0,1,5.25,9.08,3.7,3.7,0,0,1-1.52,3.38h0l-7.59,4.41-1.66-8L414,351.6a14.15,14.15,0,0,1-6-8.59Z"/><path class="cls-27" d="M406.34,341.41a11,11,0,0,1,2.77,2.34c1.16-3.73,4.71-4.89,8.9-2.47,3.47,2,6.49,5.94,8.09,10.11a3.77,3.77,0,0,1,1.74.55,9.06,9.06,0,0,1,4.1,7.1.81.81,0,0,1,0,.16,5.07,5.07,0,0,1,2.11.71,11.57,11.57,0,0,1,5.24,9.08c0,3.34-2.34,4.69-5.24,3l-27.7-16a14,14,0,0,1-6.32-11C400,341,402.85,339.39,406.34,341.41Z"/><polygon class="cls-28" points="13.83 273.92 0.38 266.15 0.38 263.2 13.83 270.97 13.83 273.92"/><polygon class="cls-28" points="20.73 277.9 15.89 275.11 15.89 272.15 20.73 274.95 20.73 277.9"/><polygon class="cls-28" points="26.08 280.99 22.79 279.09 22.79 276.14 26.08 278.04 26.08 280.99"/><polygon class="cls-28" points="7.71 277.13 0.38 272.9 0.38 269.95 7.71 274.18 7.71 277.13"/><polygon class="cls-28" points="18.75 283.51 9.76 278.32 9.76 275.37 18.75 280.55 18.75 283.51"/><polygon class="cls-28" points="24.09 286.6 20.8 284.69 20.8 281.74 24.09 283.64 24.09 286.6"/><polygon class="cls-28" points="29.18 289.53 25.89 287.63 25.89 284.68 29.18 286.58 29.18 289.53"/><polygon class="cls-29" points="5.68 282.71 0.38 279.65 0.38 276.7 5.68 279.76 5.68 282.71"/><polygon class="cls-29" points="9.55 284.95 7.74 283.9 7.74 280.95 9.55 281.99 9.55 284.95"/><polygon class="cls-28" points="14.9 288.03 11.61 286.13 11.61 283.18 14.9 285.08 14.9 288.03"/><polygon class="cls-28" points="19.95 297.7 0.38 286.4 0.38 283.45 19.95 294.75 19.95 297.7"/><polygon class="cls-28" points="26.85 301.69 22.01 298.89 22.01 295.94 26.85 298.73 26.85 301.69"/><polygon class="cls-28" points="5.68 296.21 0.38 293.15 0.38 290.19 5.68 293.26 5.68 296.21"/><polygon class="cls-28" points="18.13 303.4 7.74 297.4 7.74 294.44 18.13 300.44 18.13 303.4"/><polygon class="cls-28" points="23.48 306.49 20.18 304.58 20.18 301.63 23.48 303.53 23.48 306.49"/><polygon class="cls-28" points="11.23 306.16 0.38 299.9 0.38 296.94 11.23 303.21 11.23 306.16"/><polygon class="cls-29" points="21.13 311.88 13.29 307.35 13.29 304.4 21.13 308.93 21.13 311.88"/><polygon class="cls-28" points="28.49 316.13 23.19 313.07 23.19 310.11 28.49 313.18 28.49 316.13"/><polygon class="cls-28" points="4.04 308.76 0.38 306.65 0.38 303.69 4.04 305.81 4.04 308.76"/><polygon class="cls-28" points="10.94 312.75 6.1 309.95 6.1 307 10.94 309.79 10.94 312.75"/><polygon class="cls-28" points="20.8 318.44 13 313.93 13 310.98 20.8 315.49 20.8 318.44"/><polygon class="cls-28" points="11.61 319.88 0.38 313.4 0.38 310.44 11.61 316.92 11.61 319.88"/><polygon class="cls-28" points="24.18 327.14 13.66 321.06 13.66 318.11 24.18 324.18 24.18 327.14"/><polygon class="cls-29" points="29.53 330.23 26.23 328.32 26.23 325.37 29.53 327.27 29.53 330.23"/><polygon class="cls-28" points="34.66 333.19 31.37 331.29 31.37 328.33 34.66 330.23 34.66 333.19"/><polygon class="cls-28" points="7.1 324.03 0.38 320.14 0.38 317.19 7.1 321.07 7.1 324.03"/><polygon class="cls-29" points="35.24 286.28 44.56 291.67 44.56 288.71 35.24 283.32 35.24 286.28"/><polygon class="cls-28" points="37.23 294.18 44.56 298.41 44.56 295.46 37.23 291.23 37.23 294.18"/><polygon class="cls-28" points="39.26 302.1 44.56 305.16 44.56 302.21 39.26 299.15 39.26 302.1"/><polygon class="cls-28" points="36.85 307.46 44.56 311.91 44.56 308.96 36.85 304.5 36.85 307.46"/><polygon class="cls-28" points="39.26 315.6 44.56 318.66 44.56 315.71 39.26 312.64 39.26 315.6"/><polygon class="cls-28" points="37.84 321.53 44.56 325.41 44.56 322.46 37.84 318.57 37.84 321.53"/><polygon class="cls-28" points="40.9 330.04 44.56 332.16 44.56 329.2 40.9 327.09 40.9 330.04"/><polygon class="cls-28" points="37.46 334.81 44.56 338.91 44.56 335.95 37.46 331.85 37.46 334.81"/><polygon class="cls-28" points="37.84 341.77 44.56 345.66 44.56 342.7 37.84 338.82 37.84 341.77"/><polygon class="cls-28" points="12.02 326.87 9.16 325.22 9.16 322.26 12.02 323.91 12.02 326.87"/><polygon class="cls-28" points="20.51 331.77 14.07 328.05 14.07 325.1 20.51 328.82 20.51 331.77"/><polygon class="cls-28" points="66 303.93 52.55 296.16 52.55 293.2 66 300.97 66 303.93"/><polygon class="cls-28" points="72.9 307.91 68.06 305.11 68.06 302.16 72.9 304.95 72.9 307.91"/><polygon class="cls-29" points="78.25 311 74.95 309.1 74.95 306.14 78.25 308.04 78.25 311"/><polygon class="cls-28" points="59.88 307.14 52.55 302.91 52.55 299.95 59.88 304.18 59.88 307.14"/><polygon class="cls-28" points="70.92 313.51 61.93 308.32 61.93 305.37 70.92 310.56 70.92 313.51"/><polygon class="cls-29" points="76.26 316.6 72.97 314.7 72.97 311.74 76.26 313.64 76.26 316.6"/><polygon class="cls-28" points="81.35 319.54 78.06 317.64 78.06 314.68 81.35 316.58 81.35 319.54"/><polygon class="cls-28" points="57.85 312.72 52.55 309.66 52.55 306.7 57.85 309.76 57.85 312.72"/><polygon class="cls-28" points="61.72 314.95 59.91 313.9 59.91 310.95 61.72 312 61.72 314.95"/><polygon class="cls-28" points="67.06 318.04 63.77 316.14 63.77 313.18 67.06 315.08 67.06 318.04"/><polygon class="cls-28" points="72.12 327.71 52.55 316.4 52.55 313.45 72.12 324.75 72.12 327.71"/><polygon class="cls-28" points="79.02 331.69 74.18 328.89 74.18 325.94 79.02 328.74 79.02 331.69"/><polygon class="cls-28" points="57.85 326.22 52.55 323.15 52.55 320.2 57.85 323.26 57.85 326.22"/><polygon class="cls-28" points="70.3 333.4 59.91 327.4 59.91 324.45 70.3 330.45 70.3 333.4"/><polygon class="cls-28" points="75.64 336.49 72.35 334.59 72.35 331.63 75.64 333.54 75.64 336.49"/><polygon class="cls-29" points="63.4 336.17 52.55 329.9 52.55 326.95 63.4 333.21 63.4 336.17"/><polygon class="cls-28" points="73.3 341.89 65.45 337.36 65.45 334.4 73.3 338.93 73.3 341.89"/><polygon class="cls-28" points="80.66 346.13 75.36 343.07 75.36 340.12 80.66 343.18 80.66 346.13"/><polygon class="cls-28" points="56.21 338.77 52.55 336.65 52.55 333.7 56.21 335.81 56.21 338.77"/><polygon class="cls-28" points="63.11 342.75 58.27 339.95 58.27 337 63.11 339.8 63.11 342.75"/><polygon class="cls-29" points="72.97 348.44 65.17 343.94 65.17 340.98 72.97 345.49 72.97 348.44"/><polygon class="cls-28" points="63.77 349.88 52.55 343.4 52.55 340.45 63.77 346.93 63.77 349.88"/><polygon class="cls-28" points="76.35 357.14 65.83 351.07 65.83 348.12 76.35 354.19 76.35 357.14"/><polygon class="cls-28" points="81.7 360.23 78.4 358.33 78.4 355.38 81.7 357.27 81.7 360.23"/><polygon class="cls-28" points="86.83 363.19 83.53 361.29 83.53 358.34 86.83 360.24 86.83 363.19"/><polygon class="cls-28" points="59.27 354.03 52.55 350.15 52.55 347.19 59.27 351.08 59.27 354.03"/><polygon class="cls-29" points="87.41 316.28 96.73 321.67 96.73 318.71 87.41 313.33 87.41 316.28"/><polygon class="cls-28" points="89.4 324.19 96.73 328.42 96.73 325.46 89.4 321.23 89.4 324.19"/><polygon class="cls-28" points="91.43 332.11 96.73 335.17 96.73 332.21 91.43 329.15 91.43 332.11"/><polygon class="cls-28" points="89.02 337.46 96.73 341.92 96.73 338.96 89.02 334.51 89.02 337.46"/><polygon class="cls-28" points="91.43 345.6 96.73 348.67 96.73 345.71 91.43 342.65 91.43 345.6"/><polygon class="cls-28" points="90.01 351.53 96.73 355.41 96.73 352.46 90.01 348.58 90.01 351.53"/><polygon class="cls-28" points="93.07 360.05 96.73 362.16 96.73 359.21 93.07 357.09 93.07 360.05"/><polygon class="cls-28" points="89.63 364.81 96.73 368.91 96.73 365.96 89.63 361.86 89.63 364.81"/><polygon class="cls-28" points="90.01 371.78 96.73 375.66 96.73 372.71 90.01 368.82 90.01 371.78"/><polygon class="cls-29" points="64.19 356.87 61.33 355.22 61.33 352.26 64.19 353.92 64.19 356.87"/><polygon class="cls-28" points="72.68 361.78 66.24 358.06 66.24 355.1 72.68 358.82 72.68 361.78"/><polygon class="cls-28" points="13.83 334.7 0.38 326.93 0.38 323.98 13.83 331.75 13.83 334.7"/><polygon class="cls-28" points="20.73 338.68 15.89 335.89 15.89 332.93 20.73 335.73 20.73 338.68"/><polygon class="cls-28" points="26.08 341.77 22.79 339.87 22.79 336.92 26.08 338.82 26.08 341.77"/><polygon class="cls-28" points="7.71 337.92 0.38 333.68 0.38 330.73 7.71 334.96 7.71 337.92"/><polygon class="cls-28" points="18.75 344.29 9.76 339.1 9.76 336.15 18.75 341.33 18.75 344.29"/><polygon class="cls-28" points="24.09 347.38 20.8 345.48 20.8 342.52 24.09 344.42 24.09 347.38"/><polygon class="cls-28" points="29.18 350.31 25.89 348.41 25.89 345.46 29.18 347.36 29.18 350.31"/><polygon class="cls-28" points="5.68 343.49 0.38 340.43 0.38 337.48 5.68 340.54 5.68 343.49"/><polygon class="cls-28" points="9.55 345.73 7.74 344.68 7.74 341.73 9.55 342.77 9.55 345.73"/><polygon class="cls-28" points="14.9 348.81 11.61 346.91 11.61 343.96 14.9 345.86 14.9 348.81"/><polygon class="cls-28" points="19.95 358.48 0.38 347.18 0.38 344.23 19.95 355.53 19.95 358.48"/><polygon class="cls-28" points="26.85 362.47 22.01 359.67 22.01 356.71 26.85 359.51 26.85 362.47"/><polygon class="cls-28" points="5.68 356.99 0.38 353.93 0.38 350.98 5.68 354.04 5.68 356.99"/><polygon class="cls-28" points="18.13 364.18 7.74 358.18 7.74 355.22 18.13 361.22 18.13 364.18"/><polygon class="cls-28" points="23.48 367.26 20.18 365.37 20.18 362.41 23.48 364.31 23.48 367.26"/><polygon class="cls-28" points="11.23 366.94 0.38 360.68 0.38 357.72 11.23 363.99 11.23 366.94"/><polygon class="cls-28" points="21.13 372.66 13.29 368.13 13.29 365.18 21.13 369.71 21.13 372.66"/><polygon class="cls-28" points="28.49 376.91 23.19 373.85 23.19 370.89 28.49 373.96 28.49 376.91"/><polygon class="cls-28" points="4.04 369.54 0.38 367.43 0.38 364.47 4.04 366.59 4.04 369.54"/><polygon class="cls-28" points="10.94 373.53 6.1 370.73 6.1 367.78 10.94 370.57 10.94 373.53"/><polygon class="cls-28" points="20.8 379.22 13 374.71 13 371.76 20.8 376.26 20.8 379.22"/><polygon class="cls-28" points="11.61 380.66 0.38 374.18 0.38 371.22 11.61 377.7 11.61 380.66"/><polygon class="cls-28" points="24.18 387.92 13.66 381.85 13.66 378.89 24.18 384.96 24.18 387.92"/><polygon class="cls-28" points="29.53 391.01 26.23 389.11 26.23 386.15 29.53 388.05 29.53 391.01"/><polygon class="cls-28" points="34.66 393.97 31.37 392.07 31.37 389.11 34.66 391.01 34.66 393.97"/><polygon class="cls-28" points="7.1 384.81 0.38 380.93 0.38 377.97 7.1 381.86 7.1 384.81"/><polygon class="cls-28" points="35.24 347.06 44.56 352.44 44.56 349.49 35.24 344.11 35.24 347.06"/><polygon class="cls-28" points="37.23 354.96 44.56 359.19 44.56 356.24 37.23 352.01 37.23 354.96"/><polygon class="cls-28" points="39.26 362.88 44.56 365.94 44.56 362.99 39.26 359.93 39.26 362.88"/><polygon class="cls-28" points="36.85 368.24 44.56 372.69 44.56 369.74 36.85 365.28 36.85 368.24"/><polygon class="cls-28" points="39.26 376.38 44.56 379.44 44.56 376.49 39.26 373.42 39.26 376.38"/><polygon class="cls-28" points="37.84 382.31 44.56 386.19 44.56 383.24 37.84 379.35 37.84 382.31"/><polygon class="cls-28" points="40.9 390.82 44.56 392.94 44.56 389.99 40.9 387.87 40.9 390.82"/><polygon class="cls-28" points="37.46 395.59 44.56 399.69 44.56 396.73 37.46 392.63 37.46 395.59"/><polygon class="cls-28" points="37.84 402.55 44.56 406.44 44.56 403.48 37.84 399.6 37.84 402.55"/><polygon class="cls-28" points="12.02 387.65 9.16 386 9.16 383.04 12.02 384.69 12.02 387.65"/><polygon class="cls-28" points="20.51 392.55 14.07 388.83 14.07 385.88 20.51 389.6 20.51 392.55"/><polygon class="cls-28" points="25.84 415.25 14.97 408.98 14.97 406.03 25.84 412.3 25.84 415.25"/><polygon class="cls-28" points="33.28 419.55 29 417.08 29 414.13 33.28 416.6 33.28 419.55"/><polygon class="cls-28" points="66 364.7 52.55 356.94 52.55 353.98 66 361.75 66 364.7"/><polygon class="cls-28" points="72.9 368.69 68.06 365.89 68.06 362.94 72.9 365.73 72.9 368.69"/><polygon class="cls-28" points="78.25 371.77 74.95 369.88 74.95 366.92 78.25 368.82 78.25 371.77"/><polygon class="cls-28" points="59.88 367.92 52.55 363.69 52.55 360.73 59.88 364.96 59.88 367.92"/><polygon class="cls-28" points="70.92 374.29 61.93 369.11 61.93 366.15 70.92 371.34 70.92 374.29"/><polygon class="cls-28" points="76.26 377.38 72.97 375.48 72.97 372.52 76.26 374.43 76.26 377.38"/><polygon class="cls-28" points="81.35 380.32 78.06 378.42 78.06 375.46 81.35 377.36 81.35 380.32"/><polygon class="cls-28" points="57.85 373.5 52.55 370.44 52.55 367.48 57.85 370.54 57.85 373.5"/><polygon class="cls-28" points="61.72 375.73 59.91 374.69 59.91 371.73 61.72 372.78 61.72 375.73"/><polygon class="cls-28" points="67.06 378.82 63.77 376.92 63.77 373.96 67.06 375.86 67.06 378.82"/><polygon class="cls-28" points="72.12 388.49 52.55 377.19 52.55 374.23 72.12 385.53 72.12 388.49"/><polygon class="cls-28" points="79.02 392.47 74.18 389.67 74.18 386.72 79.02 389.52 79.02 392.47"/><polygon class="cls-28" points="57.85 387 52.55 383.93 52.55 380.98 57.85 384.04 57.85 387"/><polygon class="cls-28" points="70.3 394.18 59.91 388.18 59.91 385.23 70.3 391.23 70.3 394.18"/><polygon class="cls-28" points="75.64 397.27 72.35 395.37 72.35 392.41 75.64 394.31 75.64 397.27"/><polygon class="cls-28" points="63.4 396.95 52.55 390.68 52.55 387.73 63.4 393.99 63.4 396.95"/><polygon class="cls-28" points="73.3 402.67 65.45 398.13 65.45 395.18 73.3 399.71 73.3 402.67"/><polygon class="cls-28" points="80.66 406.91 75.36 403.85 75.36 400.9 80.66 403.96 80.66 406.91"/><polygon class="cls-28" points="56.21 399.55 52.55 397.43 52.55 394.48 56.21 396.59 56.21 399.55"/><polygon class="cls-28" points="63.11 403.53 58.27 400.74 58.27 397.78 63.11 400.58 63.11 403.53"/><polygon class="cls-28" points="72.97 409.22 65.17 404.72 65.17 401.76 72.97 406.27 72.97 409.22"/><polygon class="cls-28" points="63.77 410.66 52.55 404.18 52.55 401.23 63.77 407.71 63.77 410.66"/><polygon class="cls-28" points="76.35 417.92 65.83 411.85 65.83 408.89 76.35 414.97 76.35 417.92"/><polygon class="cls-28" points="81.7 421.01 78.4 419.11 78.4 416.15 81.7 418.06 81.7 421.01"/><polygon class="cls-28" points="86.83 423.97 83.53 422.07 83.53 419.12 86.83 421.02 86.83 423.97"/><polygon class="cls-28" points="59.27 414.81 52.55 410.93 52.55 407.98 59.27 411.86 59.27 414.81"/><polygon class="cls-28" points="87.41 377.06 96.73 382.45 96.73 379.5 87.41 374.11 87.41 377.06"/><polygon class="cls-28" points="89.4 384.97 96.73 389.2 96.73 386.24 89.4 382.01 89.4 384.97"/><polygon class="cls-28" points="91.43 392.88 96.73 395.95 96.73 392.99 91.43 389.93 91.43 392.88"/><polygon class="cls-28" points="89.02 398.24 96.73 402.7 96.73 399.74 89.02 395.29 89.02 398.24"/><polygon class="cls-28" points="91.43 406.38 96.73 409.44 96.73 406.49 91.43 403.43 91.43 406.38"/><polygon class="cls-28" points="90.01 412.31 96.73 416.19 96.73 413.24 90.01 409.36 90.01 412.31"/><polygon class="cls-28" points="93.07 420.83 96.73 422.94 96.73 419.99 93.07 417.87 93.07 420.83"/><polygon class="cls-28" points="89.63 425.59 96.73 429.69 96.73 426.74 89.63 422.64 89.63 425.59"/><polygon class="cls-28" points="90.01 432.56 96.73 436.44 96.73 433.49 90.01 429.6 90.01 432.56"/><polygon class="cls-28" points="64.19 417.65 61.33 416 61.33 413.05 64.19 414.7 64.19 417.65"/><polygon class="cls-28" points="72.68 422.56 66.24 418.84 66.24 415.88 72.68 419.6 72.68 422.56"/><polygon class="cls-28" points="78.01 445.26 67.14 438.99 67.14 436.03 78.01 442.3 78.01 445.26"/><polygon class="cls-28" points="85.45 449.56 81.17 447.08 81.17 444.13 85.45 446.6 85.45 449.56"/></svg>