<svg width="181" height="143" viewBox="0 0 181 143" fill="none" xmlns="http://www.w3.org/2000/svg"><path d="M131.394 62.585c2.668 6.572 5.919 8.112 10.011 6.943 2.261-.643 3.458 4.278 3.059 5.475s-6.042.399-7.678.534c-3.709.3-18.977-14.03-5.392-12.952z" fill="#fff"/><path d="M120.202 65.09c1.703-4.828 6.517-6.783 12.532 3.436 2.596 4.39 7.091.846 8.938 2.443 1.229 1.065 1.117 4.345.531 4.656l-10.809.052c-1.62-3.507-11.99-8.328-11.192-10.586z" fill="url(#paint0_linear_171_75)"/><path d="M107.475 71.77c-4.571 6.577-16.505 19.897-16.505 24.797 0 8.778-10.737 4.313-9.891 2.214 1.04-2.597 2.548-7.462 2.696-16.36.163-9.916 30.197-20.008 23.7-10.65z" fill="url(#paint1_linear_171_75)"/><path d="M94.233 112.345c-3.825-.18-3.833-2.794-12.173-10.722-5.317-5.068 8.902-5.942 8.91-5.068.008.874-.14 6.181 6.194 10.375 3.586 2.358.894 5.598-2.931 5.415zm73.129-87.86c.798-1.373 2.393-2.534 1.32-4.956-1.073-2.422-2.102-4.022-7.378-8.332-2.314-1.883-6.147-4.856-12.401-4.174-2.879.315-8.288 4.174-15.264 7.626-4.104 2.063-18.136 5.93-20.162 9.493-21.318 30.514-33.615 25.841-41.88 32.226-9.647 1.556-1.088 39.7 3.59 39.856 4.68.155 21.008-20.706 40.285-26.002a58.268 58.268 0 009.297-3.395c9.971-4.673 17.761-12.83 21.98-26.496a15.675 15.675 0 012.932-6.453c1.005-.977 2.744-2.195 4.734-1.48 3.127 1.125 7.16 3.647 10.291 1.333 3.131-2.315 3.705-3.84 3.705-3.84s.882-.558.259-1.655c-.754-1.377-1.95-2.662-1.308-3.751z" fill="#fff"/><path d="M97.164 106.918c4.029-2.53 6.254-.862 7.056 1.767.85 2.794-4.387 2.654-6.78 2.299-2.394-.355-.276-4.066-.276-4.066z" fill="#fff"/><path d="M92.047 111.531c.734 1.951 9.872 1.225 11.048.514 1.177-.71.148-3.902-2.062-3.898-2.21.004-9.724 1.432-8.986 3.384zm-17.829-58.2s-18.467 2.51-27.52 27.821C35.968 111.2 12 122.72 3.13 121.307c-6.553-1.033-1.867 8.232 5.289 9.178 7.155.946 21.478-3.699 36.108-29.078 4.455-7.73 9.648-36.915 26.607-38.626 7.51-.759 3.083-9.45 3.083-9.45zM175.67 42.274s1.695-1.644 2.541-.942c.49.4 2.481 3.48 2.122 4.322a2.845 2.845 0 01-1.735 1.512c-1.36.228-2.928-4.892-2.928-4.892z" fill="#fff"/><path d="M177.178 48.563a8.72 8.72 0 002.684-.767c1.125-.502-1.256-4.696-1.902-4.963-.647-.268-2.314.59-2.764 1.288-.451.699.698 4.294 1.982 4.442z" fill="#fff"/><path d="M174.254 43.826a1.377 1.377 0 012.13.471c.87 1.464 3.522 4.278 2.334 5.008-3.235 1.995-9.062-3-15.468-2.299-3.482.4-15.711 9.286-23.289 12.071-4.862 1.788-6.529 1.054-9.668 1.66-4.184.798-4.926.914-4.443-1.017.482-1.932 5.867-13.069 8.073-14.05 6.489-2.89 16.328-2.89 23.308-5.156 3.833-1.245 5.891-2.31 7.216-1.871 2.193.726 9.807 5.183 9.807 5.183z" fill="#fff"/><path d="M139.506 41.157s1.995 3.747 17.725-.643c0 0 5.516 2.267-22.734 11.037-3.546 1.122 5.009-10.394 5.009-10.394zm24.721-2.567c-.75.4-1.436 1.445.116 3.353 1.42 1.743 2.572 3.108 10.717 3.59 3.342.204 3.215-3.99 2.62-4.389-1.364-.973-4.359.667-7.977-.49-1.755-.551-5.041-2.29-5.476-2.063z" fill="#fff"/><path d="M116.213 20.056c-11.227 4.56-5.759 35.223 9.573 40.98 2.728 1.026 13.96-11.544 14.642-18.255 2.201-21.86-16.122-26.021-24.215-22.725zm25.264 5.826c-2.589-4.925 6.353-13.272 11.73-14.366 5.002-1.033 6.657 3.62 9.142 9.39.797 1.82 4.786 5.854 1.711 10.115-1.328 1.804-18.407 2.813-22.583-5.14z" fill="#fff"/><path d="M158.368 8.855c-3.298-2.08-9.572 1.763-5.512 2.342 2.082.3 4.686-.479 8.456 8.5.398.917 4.275.878 6.206 0-.323 1.963-.674 4.517-.267 5.43.63 1.417.019 2.686.49 3.704.471 1.017 1.145 1.388 1.157 0 .012-1.39-1.899-2.977-.216-5.344 3.805-5.303-8.527-13.51-10.314-14.632zm2.597 1.36S162.261 5.71 162.7 4.8c.438-.91-2.166-.18-3.267 1.549-1.101 1.728 1.532 3.866 1.532 3.866z" fill="#fff"/><path d="M161.304 11.197c-1.596-3.62-.06-7.506-.148-9.728-.072-1.808-.869-1.676-1.715-1.034-4.1 3.156-10.27 5.399-11.359 7.606-.379.798.654 2.585 5.125 3.455 0 0-.287-6.432 8.097-.299z" fill="#fff"/><path d="M161.304 11.197c-.922-4.238.02-8.779-.172-10.008-.064-.351-.104-1.36-.718-.674a18.106 18.106 0 01-2.393 2.554c-2.792 2.438-4.18 5.89-4.244 6.36 1.193-1.297 3.57-1.313 7.527 1.768zM159.9 31.608c-1.484-.623-8.293.69-6.689.578 1.603-.111 4.519 1.672 6.928 2.303 3.753.981 4.595-.758 4.595-.758s.335.06-4.834-2.123zm1.1-11.364s5.02-.824 6.551-1.228c.837-.216 1.811 1.82 1.314 3.756-.239.943-1.623 1.632-1.389 2.368.585 1.832 1.167 3.217.619 3.848-.318.385-6.091-9.022-7.095-8.744z" fill="#fff"/><path d="M163.764 21.456s-2.911-2.194-2.791-1.141c.227 2.055 1.025 2.741 1.38 5.1.315 2.087-8.017 6.412 2.819 8.415.611.112 3.171-1.596 3.271-2.829a20.877 20.877 0 00-3.478-7.003c-.79-1.061-1.504-2.45-1.201-2.542z" fill="#fff"/><path d="M167.725 28.842c.399-.243.949.236 1.157 0a.858.858 0 01.662.798c0 .56-1.105 1.345-1.105 1.345s-1.32-1.78-.714-2.143zM52.808 136.011s2.6-.367 3.414-.187c.814.179 3.761 2.945 2.637 3.962-1.125 1.018-1.197.116-3.215.18-2.018.064-4.902-1.137-2.836-3.955z" fill="#fff"/><path d="M52.952 141.454s2.66.758 4.419-.239c1.759-.998-1.815-3.735-2.453-4.39-.638-.654-5.018.272-5.018.272s.42 4.106 3.052 4.357z" fill="#fff"/><path d="M65.097 75.976s-12.632 36.376-17.913 41.101c0 0 2.046 4.501 5.54 6.676-3.11 3.244-3.214 14.142-2.572 14.457.83.399 3.466.714 2.656-3.077-.81-3.79 3.43-11.831 3.43-11.831 2.992-4.629 9.353-15.395 18.93-23.982 3.11-2.79-6.294-27.633-10.071-23.344z" fill="#fff"/><path d="M97.164 65.282c2.669 8.32-5.707 26.668-22.012 34.05-8.113 3.675-14.526-14.262-11.336-26.632 5.516-21.32 23.473-38.183 33.348-7.418zm-42.625 77.441s2.353-4.154-3.342-5.263c-1.84-.355 4.538-11.026 3.825-15.499-.714-4.473-8.807-8.092-8.273-2.905.427 4.174.603 8.504-1.475 14.705-2.078 6.201 1.551 9.608 9.265 8.962zM161.056 20.064s6.817-1.066 8.181-.036c0 0 1.224-2.486-.798-3.12-1.32-.42-7.646 1.919-7.383 3.156z" fill="#fff"/><defs><linearGradient id="paint0_linear_171_75" x1="7395.35" y1="2718.4" x2="7544.89" y2="2392.51" gradientUnits="userSpaceOnUse"><stop stop-color="#fff"/></linearGradient><linearGradient id="paint1_linear_171_75" x1="-3387.82" y1="6882.36" x2="-1512.62" y2="7411.05" gradientUnits="userSpaceOnUse"><stop offset="1" stop-color="#fff"/></linearGradient></defs></svg>