<svg width="84" height="44" viewBox="0 0 84 44" fill="none" xmlns="http://www.w3.org/2000/svg">
<path d="M52.0189 34.8721H42.2515V44.0001H52.0189V34.8721Z" fill="url(#paint0_linear_232_598)"/>
<path d="M44.4554 43.0169L43.7938 36.9395H51.0609L50.3978 43.0157L47.4221 43.6919L44.4554 43.0169Z" fill="#C54E2D"/>
<path d="M47.428 43.175L49.8315 42.6296L50.3978 37.4363H47.428V43.175Z" fill="#D36531"/>
<path d="M47.4281 39.6904H46.2241L46.1407 38.9275H47.4281V38.1824H47.4236H45.1468L45.1677 38.382L45.3927 40.4356H47.4281V39.6904Z" fill="#E9E9E9"/>
<path d="M47.4281 41.6265L47.4236 41.6276L46.4104 41.403L46.3463 40.8088H45.8531H45.4329L45.5595 41.9794L47.4236 42.4025L47.4281 42.4013V41.6265Z" fill="#E9E9E9"/>
<path d="M43.6558 35.2891H44.1812V35.7148H44.6625V35.2891H45.1879V36.5772H44.6625V36.146H44.1812V36.5772H43.6558V35.2891Z" fill="black"/>
<path d="M45.8794 35.7162H45.4167V35.2891H46.8692V35.7162H46.4065V36.5772H45.8794V35.7162Z" fill="black"/>
<path d="M47.0995 35.2891H47.647L47.9859 35.7419L48.3249 35.2891H48.874V36.5772H48.3503V35.9392L47.9876 36.3974H47.9792L47.6165 35.9392V36.5772H47.108L47.0995 35.2891Z" fill="black"/>
<path d="M49.1317 35.2891H49.6571V36.1582H50.3978V36.584H49.1317V35.2891Z" fill="black"/>
<path d="M47.4235 39.6909V40.436H48.5441L48.4383 41.4034L47.4235 41.6268V42.4028L49.2891 41.9798L49.3025 41.8538L49.5156 39.8906L49.5379 39.6909H49.2936H47.4235Z" fill="white"/>
<path d="M47.4235 38.1824V38.6447V38.9251V38.9275H49.6184H49.6214L49.6393 38.7599L49.681 38.382L49.7033 38.1824H47.4235Z" fill="white"/>
<path d="M40 33.7891V42.4002L42.2515 43.9593V34.8717L40 33.7891Z" fill="url(#paint1_linear_232_598)"/>
<path d="M52.0175 34.8717L49.0552 33.7891H40L42.2515 34.8717H52.0175Z" fill="url(#paint2_linear_232_598)"/>
<path d="M67.6215 23.6174H57.854V43.958H67.6215V23.6174Z" fill="url(#paint3_linear_232_598)"/>
<path d="M55.6458 23.6189V42.4003L57.8973 43.9594V23.6189H55.6458Z" fill="url(#paint4_linear_232_598)"/>
<path d="M62.7326 38.2039L59.7688 37.5348L59.1072 31.5073H66.3669L65.7053 37.5337L62.7251 38.2039H62.7326Z" fill="#384EDE"/>
<path d="M65.1391 37.15L65.7038 32.0007H62.7371V37.6919L65.1391 37.15Z" fill="#4365EC"/>
<path d="M60.6227 34.2362L60.7032 34.9754H62.7371V34.2362H60.6227ZM60.4588 32.74L60.5408 33.4792H62.7371V32.74H60.4588ZM62.7371 36.1554L61.7209 35.9344L61.6568 35.3402H60.7449L60.8716 36.5001L62.7327 36.9208L62.7371 36.1554Z" fill="#E9E9E9"/>
<path d="M58.4054 28.4973H60.9978V29.2217H59.4908V29.9461H61.0013V30.6705H58.4054V28.4973ZM61.5177 28.4973H64.1136V29.1274H62.6031V29.2516H64.1136V30.7027H61.5177V30.0404H63.0247V29.9139H61.5142V28.4973H61.5177ZM64.6335 28.4973H67.24V29.1274H65.7295V29.2516H67.24V30.7027H64.6476V30.0404H66.1545V29.9139H64.6476V28.4973H64.6335Z" fill="black"/>
<path d="M64.8455 34.2362L65.0109 32.74H62.7341V33.4792H64.014L63.9321 34.2362H62.74V34.9754H63.8591L63.7533 35.9332L62.74 36.1566V36.9255L64.6026 36.5048L64.616 36.38L64.8306 34.4346L64.8515 34.2362H64.8455Z" fill="white"/>
<path d="M83.8516 16H74.0841V43.9593H83.8516V16Z" fill="url(#paint5_linear_232_598)"/>
<path d="M71.8325 18.2033L74.084 16V43.9593L71.8325 42.4002V18.2033Z" fill="url(#paint6_linear_232_598)"/>
<path d="M76.0746 22.6669L76.676 22.2995C76.7912 22.5073 76.8965 22.6796 77.1495 22.6796C77.4026 22.6796 77.5454 22.5833 77.5454 22.2095V19.6758H78.2833V22.2248C78.2833 22.9976 77.8361 23.3497 77.1821 23.3497C76.9509 23.3625 76.7213 23.3041 76.5235 23.1822C76.3258 23.0603 76.1693 22.8806 76.0746 22.6669Z" fill="black"/>
<path d="M79.0193 22.5923L79.7089 22.2446C79.8913 22.5023 80.1269 22.6924 80.5435 22.6924C80.894 22.6924 81.1181 22.5398 81.1181 22.3284C81.1181 22.0783 80.8883 21.987 80.5018 21.8394L80.2892 21.7606C79.6787 21.5343 79.2736 21.2504 79.2736 20.65C79.2736 20.0973 79.7577 19.6758 80.5133 19.6758C81.052 19.6758 81.4384 19.8384 81.7171 20.2648L81.0578 20.64C80.9141 20.4137 80.7547 20.3236 80.5133 20.3236C80.4624 20.3193 80.411 20.3242 80.3624 20.3381C80.3137 20.352 80.2689 20.3745 80.2308 20.4043C80.1928 20.434 80.1622 20.4703 80.1411 20.5109C80.12 20.5515 80.1088 20.5955 80.1082 20.64C80.1082 20.8614 80.2662 20.9502 80.6282 21.0878L80.8394 21.1666C81.5577 21.4355 81.9642 21.7094 81.9642 22.3247C81.9642 22.9875 81.3666 23.3515 80.5622 23.3515C79.7577 23.3515 79.2693 23.025 79.0193 22.6011" fill="black"/>
<path fill-rule="evenodd" clip-rule="evenodd" d="M67.6924 2.1637L67.6968 2.16338C68.1714 1.87268 68.968 1.57267 69.8432 1.24307C70.7265 0.91041 71.6899 0.547591 72.4829 0.133837C72.8673 -0.064116 73.2299 -0.10469 73.2626 0.452282C73.2656 0.50484 73.2643 0.560418 73.2597 0.618747C73.2528 0.730128 73.2377 0.864539 73.2205 1.01696C73.2036 1.16777 73.1847 1.33622 73.1697 1.51743C73.6406 1.32785 74.0937 1.29697 73.9643 1.47888C73.7995 1.7105 73.3685 2.69841 73.2238 3.03471C73.2435 3.13641 73.2675 3.23825 73.2964 3.33971C74.2265 3.81114 75.4161 4.4886 76.1957 5.20216C76.3574 5.18967 76.4883 5.19088 76.5735 5.2092C77.4707 5.40001 76.9619 6.13431 76.937 6.16938C77.0829 6.54463 77.0313 6.90871 76.6841 7.23672C76.1635 7.7328 76.3991 8.11788 76.6012 8.44813C76.6962 8.60326 76.7837 8.74629 76.782 8.88305L76.7819 8.88791C76.8617 8.90181 76.9332 8.93245 76.9859 8.97553C77.0402 9.01989 77.0717 9.07503 77.0757 9.13261C77.0757 9.30475 76.5735 9.54696 76.5735 9.54696L76.5731 9.54663L76.5753 9.55191C76.53 9.93183 75.3659 10.4581 75.0885 10.4236C75.0192 10.415 74.9516 10.4061 74.8857 10.3972C74.8454 10.4466 74.4252 10.9036 72.8491 10.635C72.2344 10.5513 71.6123 10.3741 71.0273 10.2075C70.7403 10.1258 70.4622 10.0466 70.1983 9.98222C70.0177 9.9383 69.8417 9.91808 69.6719 9.91624C69.6648 9.91646 69.6577 9.91674 69.6507 9.91707C69.598 9.91956 69.5653 9.91976 69.5502 9.91805C68.9222 9.94341 68.3897 10.2118 68.046 10.4384C67.3836 11.0233 66.9276 11.7034 66.7133 12.4265C66.6038 12.6668 66.4891 12.9015 66.3692 13.1308C66.6864 13.12 67.0367 13.0995 67.4235 13.0669C68.0307 13.0028 68.6321 12.9363 69.2158 12.8607C69.8902 12.7652 70.6415 12.6413 71.4784 12.483C71.9439 12.3805 72.3517 12.282 72.711 12.1952C73.6277 11.9738 74.2283 11.8287 74.6628 11.8891C74.786 11.8534 75.3326 12.0155 75.925 12.1913C76.3573 12.3195 76.8139 12.455 77.1483 12.5261C78.0367 12.7187 78.8426 12.6598 79.4936 12.6122C80.0477 12.5717 80.4895 12.5394 80.7747 12.6773L80.7782 12.679L80.7826 12.6813C80.8681 12.6812 80.948 12.6969 81.0158 12.7351C81.2388 12.858 82.1436 13.8072 81.9804 14.0666C81.9368 14.13 81.8823 14.1893 81.8182 14.2436C81.929 14.4773 81.9463 14.6724 81.7665 14.7269C81.6244 14.7721 81.4787 14.8114 81.3302 14.8448C81.4132 14.9991 81.4081 15.1242 81.2461 15.1916C80.4982 15.5043 79.4455 15.2598 78.2083 14.9724C77.013 14.6948 75.6455 14.3771 74.2145 14.4834C73.4267 14.5446 71.6539 15.2536 69.6471 16.0562C67.6216 16.8663 65.3577 17.7717 63.6273 18.2027C62.5572 18.4694 61.8275 18.554 61.1975 18.5914C60.7441 18.8695 60.2728 19.1285 59.7847 19.3695C60.9879 21.322 62.4499 21.778 64.2836 21.4229C65.3117 21.225 65.8557 22.741 65.6743 23.1098C65.5655 23.3311 64.5984 23.3311 63.6814 23.3048L59.7325 23.3176C59.3813 22.8021 58.125 22.1945 56.9464 21.6245C56.4482 21.3836 55.9638 21.1494 55.5676 20.9316C54.5657 21.209 53.5393 21.4445 52.4942 21.6368C50.9611 21.9223 49.4691 22.3545 48.0393 22.8731C47.5838 23.2807 47.0624 23.7317 46.5161 24.2042L46.5156 24.2046C44.1673 26.2357 41.3594 28.6643 41.3557 29.752L41.3559 29.7742C41.3578 30.1045 41.3671 31.6877 44.1694 32.9462L44.1716 32.9435C46.003 32.164 47.0147 32.6779 47.3792 33.4882C47.4975 33.7519 47.3561 33.9308 47.0717 34.0489C47.1276 34.253 47.0678 34.4416 46.8678 34.5234C46.3777 34.724 42.8481 34.9287 42.0047 34.4988C41.4551 34.3405 41.0335 34.0135 40.3041 33.4477C39.653 32.9426 38.7567 32.2473 37.305 31.3119C36.7419 30.9482 36.6609 30.6545 36.8678 30.4215C37.0334 30.14 37.2239 29.7736 37.4046 29.2994C36.4191 29.802 35.3381 30.2459 34.1671 30.6054C30.262 32.9798 27.5334 35.8938 26.0324 37.4969C25.8611 37.6799 25.7056 37.8459 25.5664 37.9919C25.5664 37.9919 23.6389 40.4694 24.007 41.6375C24.0375 41.7342 24.0572 41.8223 24.0676 41.9023C24.3135 41.8803 25.2395 41.8023 25.5591 41.8501C25.929 41.9054 27.269 42.7575 26.7576 43.071C26.5558 43.1948 26.4286 43.2264 26.2921 43.2205C26.3234 43.3369 26.2695 43.4389 26.0813 43.5112C25.7411 43.642 25.3267 43.6749 24.9628 43.6694C24.8981 43.8513 24.7939 43.976 24.7939 43.976C21.2872 44.1752 19.6372 43.1251 20.5819 41.2145C21.5266 39.3038 21.4468 37.9698 21.2528 36.6837C21.2097 36.4007 21.2896 36.2028 21.4521 36.0764L21.4504 36.0739C21.458 36.0692 21.4657 36.0645 21.4734 36.0597C21.4781 36.0568 21.4828 36.0538 21.4875 36.0508C21.4934 36.0468 21.4995 36.0429 21.5056 36.039C23.3251 34.8493 26.9481 28.3728 28.6583 25.1846C28.5763 24.2336 28.6797 23.2721 29.0114 22.4004C29.3754 21.4468 29.8586 20.5221 30.4324 19.6671C25.8746 20.9351 23.5153 25.4024 21.8523 28.5513C21.2479 29.6959 20.7354 30.6662 20.2428 31.2455C13.592 39.0652 7.0808 40.4964 3.82792 40.205C0.575035 39.9136 -1.55547 37.0587 1.42361 37.3771C5.45617 37.8124 16.3517 34.2627 21.2292 25.0045C24.912 18.0264 32.0206 16.6728 33.4761 16.4652C35.3746 15.0994 37.561 14.5036 39.6225 15.266C42.4729 14.3128 45.9682 12.5818 50.3413 8.60915C50.7001 7.44288 51.5123 6.5425 52.8314 6.17929C53.585 5.97128 54.5337 5.85967 55.5573 5.87158C56.3814 5.64974 57.2372 5.43778 58.0276 5.24201L58.028 5.2419C59.171 4.9588 60.1773 4.70957 60.7533 4.51332C61.9566 4.10977 63.0573 3.68817 64.0316 3.31501C65.6249 2.70471 66.88 2.22398 67.6924 2.1637ZM76.0136 7.708C76.0152 7.72054 76.0186 7.73311 76.0241 7.74572C76.0596 7.8276 76.0951 7.9067 76.1292 7.98273L76.1294 7.98312L76.1551 8.04057C76.1363 7.94383 76.1002 7.84418 76.0331 7.74205C76.0261 7.73141 76.0196 7.72005 76.0136 7.708Z" fill="url(#paint7_linear_232_598)"/>
<defs>
<linearGradient id="paint0_linear_232_598" x1="47.0689" y1="44.4624" x2="47.1495" y2="34.7671" gradientUnits="userSpaceOnUse">
<stop stop-color="#AB2E27"/>
<stop offset="0.3" stop-color="#BC4629"/>
<stop offset="0.75" stop-color="#D0642B"/>
<stop offset="1" stop-color="#D86F2C"/>
</linearGradient>
<linearGradient id="paint1_linear_232_598" x1="520.585" y1="3261.43" x2="462.093" y2="3257.49" gradientUnits="userSpaceOnUse">
<stop stop-color="#AB2E27"/>
<stop offset="0.3" stop-color="#BC4629"/>
<stop offset="0.75" stop-color="#D0642B"/>
<stop offset="1" stop-color="#D86F2C"/>
</linearGradient>
<linearGradient id="paint2_linear_232_598" x1="42.9429" y1="34.2157" x2="50.7028" y2="34.7287" gradientUnits="userSpaceOnUse">
<stop stop-color="#8B2E18"/>
<stop offset="0.14" stop-color="#9C411F"/>
<stop offset="0.53" stop-color="#C67132"/>
<stop offset="0.83" stop-color="#E08F3E"/>
<stop offset="1" stop-color="#EA9A42"/>
</linearGradient>
<linearGradient id="paint3_linear_232_598" x1="62.6252" y1="44.2016" x2="62.7759" y2="22.1599" gradientUnits="userSpaceOnUse">
<stop stop-color="#4F2EA6"/>
<stop offset="0.04" stop-color="#382290"/>
<stop offset="1" stop-color="#56B3EF"/>
</linearGradient>
<linearGradient id="paint4_linear_232_598" x1="58.5083" y1="33.9805" x2="52.2783" y2="30.8996" gradientUnits="userSpaceOnUse">
<stop stop-color="#382290"/>
<stop offset="1" stop-color="#56B3EF"/>
</linearGradient>
<linearGradient id="paint5_linear_232_598" x1="79.0192" y1="44.1495" x2="78.9595" y2="18.6821" gradientUnits="userSpaceOnUse">
<stop stop-color="#E08327"/>
<stop offset="1" stop-color="#FFD115"/>
</linearGradient>
<linearGradient id="paint6_linear_232_598" x1="74.157" y1="30.0147" x2="66.6667" y2="24.4558" gradientUnits="userSpaceOnUse">
<stop stop-color="#E08327"/>
<stop offset="1" stop-color="#FFCE00"/>
</linearGradient>
<linearGradient id="paint7_linear_232_598" x1="12.2128" y1="39.6709" x2="82.3868" y2="-2.87421" gradientUnits="userSpaceOnUse">
<stop stop-color="#1063A6"/>
<stop offset="0.467727" stop-color="#1489C8"/>
<stop offset="1" stop-color="#1E8DCB"/>
</linearGradient>
</defs>
</svg>
