<svg xmlns="http://www.w3.org/2000/svg" xmlns:xlink="http://www.w3.org/1999/xlink" viewBox="0 0 501.44 360.87"><defs><linearGradient id="Безымянный_градиент_485" x1="58.24" y1="353.93" x2="437.4" y2="352.64" gradientUnits="userSpaceOnUse"><stop offset="0" stop-color="#012c5c" stop-opacity=".5"/><stop offset=".18"/><stop offset=".19" stop-color="#00060c" stop-opacity=".93"/><stop offset=".23" stop-color="#011b38" stop-opacity=".69"/><stop offset=".28" stop-color="#012853" stop-opacity=".55"/><stop offset=".32" stop-color="#012c5c" stop-opacity=".5"/><stop offset=".39"/><stop offset=".59" stop-color="#012a57" stop-opacity=".5"/><stop offset=".68"/><stop offset=".89" stop-color="#012853" stop-opacity=".5"/><stop offset=".96"/></linearGradient><linearGradient id="Безымянный_градиент_238" x1="254.59" y1="364.76" x2="255.44" y2="283.18" gradientUnits="userSpaceOnUse"><stop offset="0" stop-color="#ab2e27"/><stop offset=".3" stop-color="#bc4629"/><stop offset=".75" stop-color="#d0642b"/><stop offset="1" stop-color="#d86f2c"/></linearGradient><linearGradient id="Безымянный_градиент_238-2" x1="213.45" y1="317.36" x2="189.56" y2="310.1" xlink:href="#Безымянный_градиент_238"/><linearGradient id="Безымянный_градиент_276" x1="226.9" y1="278.54" x2="279.06" y2="281.29" gradientUnits="userSpaceOnUse"><stop offset="0" stop-color="#8b2e18"/><stop offset=".14" stop-color="#9c411f"/><stop offset=".53" stop-color="#c67132"/><stop offset=".83" stop-color="#e08f3e"/><stop offset="1" stop-color="#ea9a42"/></linearGradient><linearGradient id="Безымянный_градиент_304" x1="358.99" y1="362.57" x2="360.58" y2="177.1" gradientUnits="userSpaceOnUse"><stop offset="0" stop-color="#4f2ea6"/><stop offset=".04" stop-color="#382290"/><stop offset="1" stop-color="#56b3ef"/></linearGradient><linearGradient id="Безымянный_градиент_308" x1="331.36" y1="276.56" x2="286.33" y2="258.8" gradientUnits="userSpaceOnUse"><stop offset="0" stop-color="#382290"/><stop offset="1" stop-color="#56b3ef"/></linearGradient><linearGradient id="Безымянный_градиент_357" x1="469.01" y1="362.13" x2="468.38" y2="147.83" gradientUnits="userSpaceOnUse"><stop offset="0" stop-color="#e08327"/><stop offset="1" stop-color="#ffd115"/></linearGradient><linearGradient id="Безымянный_градиент_331" x1="436.38" y1="243.19" x2="378.65" y2="209.02" gradientUnits="userSpaceOnUse"><stop offset="0" stop-color="#e08327"/><stop offset="1" stop-color="#ffce00"/></linearGradient><linearGradient id="Безымянный_градиент_320" x1="333.23" y1="182.49" x2="344.94" y2="166" gradientUnits="userSpaceOnUse"><stop offset="0"/><stop offset=".17" stop-color="#00050a"/><stop offset=".45" stop-color="#001224"/><stop offset=".81" stop-color="#01264f"/><stop offset="1" stop-color="#013369"/></linearGradient><linearGradient id="Безымянный_градиент_320-2" x1="323.79" y1="182.94" x2="336.61" y2="164.88" xlink:href="#Безымянный_градиент_320"/><linearGradient id="Безымянный_градиент_320-3" x1="154.16" y1="201.96" x2="77.69" y2="234.38" gradientTransform="matrix(-.82 0 0 1 345.23 0)" xlink:href="#Безымянный_градиент_320"/><linearGradient id="Безымянный_градиент_320-4" x1="151.92" y1="264.78" x2="109.79" y2="243.11" gradientTransform="matrix(-.82 -.04 -.05 1 357.4 6.17)" xlink:href="#Безымянный_градиент_320"/><linearGradient id="Безымянный_градиент_320-5" x1="117.17" y1="281.87" x2="110.41" y2="260.34" gradientTransform="matrix(-.82 0 0 1 345.23 0)" xlink:href="#Безымянный_градиент_320"/><linearGradient id="Безымянный_градиент_320-6" x1="134.68" y1="293.41" x2="107.11" y2="260.46" gradientTransform="matrix(-.82 0 0 1 345.23 0)" xlink:href="#Безымянный_градиент_320"/><linearGradient id="Безымянный_градиент_41" y1="230.46" x2="189.33" y2="230.46" gradientUnits="userSpaceOnUse"><stop offset="0"/><stop offset="1" stop-color="#013369"/></linearGradient><linearGradient id="Безымянный_градиент_15" x1="443.96" y1="111.31" x2="455.41" y2="108.42" gradientUnits="userSpaceOnUse"><stop offset="0"/><stop offset=".7" stop-color="#01244a"/><stop offset="1" stop-color="#013369"/></linearGradient><linearGradient id="Безымянный_градиент_41-2" x1="439.01" y1="114.73" x2="452.7" y2="114.07" xlink:href="#Безымянный_градиент_41"/><linearGradient id="Безымянный_градиент_41-3" x1="327.02" y1="119.81" x2="410.69" y2="101.37" xlink:href="#Безымянный_градиент_41"/><linearGradient id="Безымянный_градиент_41-4" x1="390.2" y1="105.42" x2="451.71" y2="105.42" xlink:href="#Безымянный_градиент_41"/><linearGradient id="Безымянный_градиент_709" x1="396.97" y1="2.63" x2="405.34" y2="2.63" gradientTransform="matrix(.83 .4 -.38 .79 75.9 -143.82)" xlink:href="#Безымянный_градиент_41"/><linearGradient id="Безымянный_градиент_46" x1="367.94" y1="23.96" x2="404.9" y2="-9.77" gradientTransform="matrix(.83 .4 -.38 .79 75.9 -143.82)" gradientUnits="userSpaceOnUse"><stop offset="0"/><stop offset=".24" stop-color="#001325"/><stop offset=".58" stop-color="#012b55"/><stop offset=".85" stop-color="#013a73"/><stop offset="1" stop-color="#01407e"/></linearGradient><linearGradient id="Безымянный_градиент_427" x1="440.91" y1="53.41" x2="444.4" y2="50.22" gradientTransform="matrix(.83 .4 -.38 .79 75.9 -143.82)" gradientUnits="userSpaceOnUse"><stop offset="0"/><stop offset=".23" stop-color="#000c19"/><stop offset=".72" stop-color="#012c57"/><stop offset="1" stop-color="#01407e"/></linearGradient><linearGradient id="Безымянный_градиент_320-7" x1="142.47" y1="341.85" x2="162.27" y2="318.41" gradientTransform="matrix(.76 -.04 .05 .84 13.22 67.52)" xlink:href="#Безымянный_градиент_320"/><linearGradient id="Безымянный_градиент_320-8" x1="135.41" y1="341.5" x2="159.24" y2="331.1" gradientTransform="matrix(.76 -.04 .05 .84 13.22 67.52)" xlink:href="#Безымянный_градиент_320"/><linearGradient id="Безымянный_градиент_502" x1="403.78" y1="46.26" x2="425.23" y2="46.26" gradientUnits="userSpaceOnUse"><stop offset="0"/><stop offset=".52" stop-color="#012242"/><stop offset="1" stop-color="#013f7c"/></linearGradient><radialGradient id="Безымянный_градиент_477" cx="235.41" cy="6.36" r="171.88" gradientUnits="userSpaceOnUse"><stop offset="0" stop-color="#012a56"/><stop offset=".69" stop-color="#000e1c"/><stop offset="1"/></radialGradient><radialGradient id="Безымянный_градиент_474" cx="380.02" cy="86.09" r="103.81" gradientUnits="userSpaceOnUse"><stop offset="0" stop-color="#012348"/><stop offset=".37" stop-color="#001224"/><stop offset=".61" stop-color="#000912"/><stop offset="1" stop-color="#00152a"/></radialGradient><radialGradient id="Безымянный_градиент_474-2" cx="354.5" cy="72.44" r="110.27" xlink:href="#Безымянный_градиент_474"/><radialGradient id="Безымянный_градиент_591" cx="419.46" cy="11.49" fx="398.889" r="83.88" gradientTransform="matrix(.83 .4 -.38 .79 75.9 -143.82)" gradientUnits="userSpaceOnUse"><stop offset="0" stop-color="#01305f"/><stop offset=".62" stop-color="#000b15"/><stop offset="1" stop-color="#000e1c"/></radialGradient><radialGradient id="Безымянный_градиент_420" cx="418.38" cy="40.49" r="43.38" gradientTransform="translate(-.4)" gradientUnits="userSpaceOnUse"><stop offset="0" stop-color="#01407e"/><stop offset="1" stop-color="#000d1a"/></radialGradient><radialGradient id="Безымянный_градиент_467" cx="401.41" cy="3.67" r="19.81" gradientTransform="matrix(.83 .4 -.38 .79 75.9 -143.82)" gradientUnits="userSpaceOnUse"><stop offset=".03" stop-color="#013f7c"/><stop offset=".18" stop-color="#013364"/><stop offset=".54" stop-color="#00172e"/><stop offset=".82" stop-color="#00060d"/><stop offset=".96"/></radialGradient><radialGradient id="Безымянный_градиент_496" cx="429.04" cy="80.26" r="14.86" gradientTransform="matrix(.83 .4 -.38 .79 75.9 -143.82)" gradientUnits="userSpaceOnUse"><stop offset="0" stop-color="#011a35"/><stop offset="1"/></radialGradient><radialGradient id="Безымянный_градиент_489" cx="436.03" cy="38.02" r="13.05" gradientTransform="matrix(.83 .4 -.38 .79 75.9 -143.82)" gradientUnits="userSpaceOnUse"><stop offset="0" stop-color="#012348"/><stop offset=".61" stop-color="#001224"/><stop offset="1" stop-color="#000912"/></radialGradient><radialGradient id="Безымянный_градиент_703" cx="429.11" cy="37.7" r="6.58" gradientTransform="matrix(.83 .4 -.38 .79 75.9 -143.82)" gradientUnits="userSpaceOnUse"><stop offset="0" stop-color="#ffd800"/><stop offset="1" stop-color="#d6681f"/></radialGradient><radialGradient id="Безымянный_градиент_580" cx="434.8" cy="46.01" r="24.82" gradientTransform="matrix(.83 .4 -.38 .79 75.9 -143.82)" gradientUnits="userSpaceOnUse"><stop offset="0" stop-color="#01407e"/><stop offset=".21" stop-color="#012e5b"/><stop offset=".52" stop-color="#00152b"/><stop offset=".68" stop-color="#000c19"/><stop offset="1" stop-color="#00152a"/></radialGradient><radialGradient id="Безымянный_градиент_662" cx="415.52" cy="54.08" r="3.31" gradientTransform="matrix(0 -1.24 1.15 0 354.58 572.87)" gradientUnits="userSpaceOnUse"><stop offset="0" stop-color="#013369"/><stop offset="1"/></radialGradient><radialGradient id="Безымянный_градиент_474-3" cx="183.91" cy="284.07" r="78.97" xlink:href="#Безымянный_градиент_474"/><radialGradient id="Безымянный_градиент_474-4" cx="294.71" cy="147.62" r="142.7" gradientTransform="matrix(.75 .18 -.15 .95 35.18 -22.99)" xlink:href="#Безымянный_градиент_474"/><radialGradient id="Безымянный_градиент_378" cx="177.47" cy="313.45" r="67.25" gradientTransform="matrix(.76 -.04 .05 .84 13.22 67.52)" gradientUnits="userSpaceOnUse"><stop offset="0" stop-color="#013063"/><stop offset=".67" stop-color="#001021"/><stop offset="1"/></radialGradient><style>.cls-5{fill:#e9e9e9}.cls-6{fill:#fff}</style></defs><g id="Слой_2" data-name="Слой 2"><g id="Слой_2-2" data-name="Слой 2"><path opacity=".54" fill="url(#Безымянный_градиент_485)" d="M435.89 360.53l-388.18.34 53.13-14.98 319.31 1.52 15.74 13.12z"/><path fill="url(#Безымянный_градиент_238)" d="M222.26 284.06h65.55v76.81h-65.55z"/><path fill="#c54e2d" d="M237.05 352.6l-4.44-51.14h48.77l-4.45 51.13-19.97 5.69-19.91-5.68z"/><path fill="#d36531" d="M257 353.93l16.13-4.59 3.8-43.7H257v48.29z"/><path class="cls-5" d="M257 324.61h-8.08l-.56-6.42H257v-6.27h-15.31l.14 1.68 1.51 17.28H257v-6.27zm0 16.29l-.03.01-6.8-1.89-.43-5h-6.13l.85 9.85 12.51 3.56.03-.01v-6.52z"/><path d="M237.15 287.57h3.1v3.15h2.84v-3.15h3.1v9.53h-3.1v-3.19h-2.84v3.19h-3.1v-9.53zm13.12 3.16h-2.73v-3.16h8.57v3.16h-2.73v6.37h-3.11v-6.37zm7.2-3.16h3.23l2 3.35 2-3.35h3.24v9.53h-3.09v-4.72l-2.14 3.39h-.05l-2.14-3.39v4.72h-3zm11.99 0h3.1V294h4.37v3.15h-7.47z"/><path class="cls-6" d="M256.97 324.61v6.27h7.52l-.71 8.14-6.81 1.88v6.53l12.52-3.56.09-1.06 1.43-16.52.15-1.68h-14.19zm0-12.69v6.27h14.75l.12-1.41.28-3.18.15-1.68h-15.3z"/><path fill="url(#Безымянный_градиент_238-2)" d="M207.15 274.95v72.46l15.11 13.12v-76.47l-15.11-9.11z"/><path fill="url(#Безымянный_градиент_276)" d="M287.8 284.06l-19.88-9.11h-60.77l15.11 9.11h65.54z"/><path fill="url(#Безымянный_градиент_304)" d="M326.97 189.36h65.55v171.16h-65.55z"/><path fill="url(#Безымянный_градиент_308)" d="M312.15 189.37v158.04l15.11 13.12V189.37h-15.11z"/><path d="M359.71 312.1l-19.89-5.63-4.44-50.72h48.72l-4.44 50.71-20 5.64z" fill="#384ede"/><path d="M375.86 303.23l3.79-43.33h-19.91v47.89l16.12-4.56z" fill="#4365ec"/><path class="cls-5" d="M345.55 278.71l.54 6.22h13.65v-6.22zm-1.1-12.59l.55 6.22h14.74v-6.22zm15.29 28.74l-6.82-1.86-.43-5h-6.12l.85 9.76 12.49 3.54z"/><path d="M346.85 242h7.38v3.15h-4.29v3.15h4.3v3.15h-7.39zm8.86 0h7.39v2.74h-4.3v.54h4.3v6.31h-7.39v-2.88H360v-.55h-4.3V242zm8.87 0H372v2.74h-4.3v.54h4.3v6.31h-7.38v-2.88h4.29v-.55h-4.29V242z"/><path class="cls-6" d="M373.89 278.71l1.11-12.59h-15.28v6.22h8.59l-.55 6.37h-8v6.22h7.51l-.71 8.06-6.8 1.88v6.47l12.5-3.54.09-1.05 1.44-16.37.14-1.67z"/><path fill="url(#Безымянный_градиент_357)" d="M435.89 125.26h65.55v235.27h-65.55z"/><path fill="url(#Безымянный_градиент_331)" d="M420.78 143.8l15.11-18.54v235.27l-15.11-13.12V143.8z"/><path d="M453.8 179.06l4.8-2.9c.92 1.64 1.76 3 3.78 3s3.16-.76 3.16-3.71v-20h5.89v20.12c0 6.1-3.57 8.88-8.79 8.88a9.14 9.14 0 01-8.84-5.39m20.83-.63l4.8-2.78c1.27 2.06 2.91 3.58 5.81 3.58 2.44 0 4-1.22 4-2.91 0-2-1.6-2.73-4.29-3.91l-1.48-.63c-4.25-1.81-7.07-4.08-7.07-8.88 0-4.42 3.37-7.79 8.63-7.79 3.75 0 6.44 1.3 8.38 4.71l-4.59 3c-1-1.81-2.11-2.53-3.79-2.53a2.57 2.57 0 00-2.82 2.53c0 1.77 1.1 2.48 3.62 3.58l1.47.63c5 2.15 7.83 4.34 7.83 9.26 0 5.3-4.16 8.21-9.76 8.21s-9-2.61-10.74-6"/></g><g id="Слой_1-2" data-name="Слой 1"><path d="M329.43 156.84c6.69 16.47 14.84 20.33 25.1 17.4 5.67-1.61 8.67 10.72 7.67 13.72s-15.15 1-19.25 1.34c-9.3.75-47.58-35.16-13.52-32.46z" fill="url(#Безымянный_градиент_320)"/><path d="M301.37 163.12c4.27-12.1 16.34-17 31.42 8.61 6.51 11 17.78 2.12 22.41 6.12 3.08 2.67 2.8 10.89 1.33 11.67l-27.1.13c-4.06-8.79-30.06-20.87-28.06-26.53z" fill="url(#Безымянный_градиент_320-2)"/><path d="M269.46 179.86C258 196.34 228.08 229.72 228.08 242c0 22-26.92 10.81-24.8 5.55 2.61-6.51 6.39-18.7 6.76-41 .41-24.85 75.71-50.14 59.42-26.69z" fill="url(#Безымянный_градиент_320-3)"/><path d="M236.26 281.54c-9.59-.45-9.61-7-30.52-26.87-13.33-12.7 22.32-14.89 22.34-12.7s-.35 15.49 15.53 26c8.99 5.91 2.24 14.03-7.35 13.57z" fill="url(#Безымянный_градиент_320-4)"/><path d="M419.61 61.36c2-3.44 6-6.35 3.31-12.42s-5.27-10.08-18.5-20.88c-5.8-4.72-15.41-12.17-31.09-10.46-7.22.79-20.78 10.46-38.27 19.11-10.29 5.17-45.47 14.86-50.55 23.79-53.45 76.47-84.28 64.76-105 80.76-24.19 3.9-2.73 99.49 9 99.88s52.67-51.89 101-65.16a146.08 146.08 0 0023.31-8.51c25-11.71 44.53-32.15 55.11-66.4a39.25 39.25 0 017.35-16.17c2.52-2.45 6.88-5.5 11.87-3.71 7.84 2.82 17.95 9.14 25.8 3.34s9.29-9.62 9.29-9.62 2.21-1.4.65-4.15c-1.89-3.45-4.89-6.67-3.28-9.4z" fill="url(#Безымянный_градиент_477)"/><path d="M243.61 267.94c10.1-6.34 15.68-2.16 17.69 4.43 2.13 7-11 6.65-17 5.76s-.69-10.19-.69-10.19z" fill="url(#Безымянный_градиент_320-5)"/><path d="M230.78 279.5c1.84 4.89 24.75 3.07 27.7 1.29s.37-9.78-5.17-9.77-24.38 3.59-22.53 8.48z" fill="url(#Безымянный_градиент_320-6)"/><path d="M186.08 133.65s-46.3 6.29-69 69.72C90.18 278.67 30.09 307.54 7.85 304c-16.43-2.59-4.68 20.63 13.26 23s53.85-9.27 90.53-72.87c11.17-19.37 24.19-92.51 66.71-96.8 18.83-1.9 7.73-23.68 7.73-23.68z" fill="url(#Безымянный_градиент_41)"/><path d="M440.44 105.94s4.25-4.12 6.37-2.36c1.23 1 6.22 8.72 5.32 10.83a7.12 7.12 0 01-4.35 3.79c-3.41.57-7.34-12.26-7.34-12.26z" fill="url(#Безымянный_градиент_15)"/><path d="M444.22 121.7a21.87 21.87 0 006.73-1.92c2.82-1.26-3.15-11.77-4.77-12.44s-5.8 1.48-6.93 3.23 1.75 10.76 4.97 11.13z" fill="url(#Безымянный_градиент_41-2)"/><path d="M436.89 109.83a3.45 3.45 0 015.34 1.18c2.18 3.67 8.83 10.72 5.85 12.55-8.11 5-22.72-7.52-38.78-5.76-8.73 1-39.39 23.27-58.39 30.25-12.19 4.48-16.37 2.64-24.24 4.16-10.49 2-12.35 2.29-11.14-2.55s14.71-32.75 20.24-35.21c16.27-7.24 40.94-7.24 58.44-12.92 9.61-3.12 14.77-5.79 18.09-4.69 5.5 1.82 24.59 12.99 24.59 12.99z" fill="url(#Безымянный_градиент_474)"/><path d="M349.77 103.14s5 9.39 44.44-1.61c0 0 13.83 5.68-57 27.66-8.89 2.81 12.56-26.05 12.56-26.05z" fill="url(#Безымянный_градиент_41-3)"/><path d="M411.75 96.71c-1.88 1-3.6 3.62.29 8.4 3.56 4.37 6.45 7.79 26.87 9 8.38.51 8.06-10 6.57-11-3.42-2.44-10.93 1.67-20-1.23-4.4-1.38-12.64-5.74-13.73-5.17z" fill="url(#Безымянный_градиент_41-4)"/><path d="M291.37 50.26c-28.15 11.43-14.44 88.27 24 102.7 6.84 2.57 35-28.93 36.71-45.75 5.52-54.78-40.42-65.21-60.71-56.95z" fill="url(#Безымянный_градиент_474-2)"/><path d="M354.71 64.86c-6.49-12.34 15.93-33.26 29.41-36 12.54-2.59 16.69 9.07 22.92 23.53 2 4.56 12 14.67 4.29 25.35-3.33 4.52-46.15 7.05-56.62-12.88z" fill="url(#Безымянный_градиент_591)"/><path d="M397.06 22.19c-8.27-5.21-24 4.42-13.82 5.87 5.22.75 11.75-1.2 21.2 21.3 1 2.3 10.72 2.2 15.56 0-.81 4.92-1.69 11.32-.67 13.61 1.58 3.55.05 6.73 1.23 9.28s2.87 3.48 2.9 0-4.76-7.46-.54-13.39c9.54-13.29-21.38-33.86-25.86-36.67z" fill="url(#Безымянный_градиент_420)"/><path d="M403.57 25.6s3.25-11.29 4.35-13.57-5.43-.45-8.19 3.88 3.84 9.69 3.84 9.69z" fill="url(#Безымянный_градиент_709)"/><path d="M404.42 28.06c-4-9.07-.15-18.81-.37-24.38-.18-4.53-2.18-4.2-4.3-2.59C389.47 9 374 14.62 371.27 20.15c-.95 2 1.64 6.48 12.85 8.66 0 0-.72-16.12 20.3-.75z" fill="url(#Безымянный_градиент_46)"/><path d="M404.42 28.06c-2.31-10.62.05-22-.43-25.08-.16-.88-.26-3.41-1.8-1.69a45.43 45.43 0 01-6 6.4c-7 6.11-10.48 14.76-10.64 15.94 2.99-3.25 8.95-3.29 18.87 4.43z" fill="url(#Безымянный_градиент_467)"/><path d="M400.9 79.21c-3.72-1.56-20.79 1.73-16.77 1.45s11.33 4.19 17.37 5.77c9.41 2.46 11.52-1.9 11.52-1.9s.84.15-12.12-5.32z" fill="url(#Безымянный_градиент_496)"/><path d="M403.8 50.28s12-2.14 15.66-3.19c2-.56 4.33 4.73 3.14 9.76-.57 2.45-3.88 4.24-3.32 6.15 1.4 4.76 2.79 8.36 1.48 10-.76 1-14.56-23.44-16.96-22.72z" fill="url(#Безымянный_градиент_489)"/><path d="M410.59 53.77a47 47 0 016.7-1.43c1-.13 2.17 6.1-2.82 9a36 36 0 01-4-6.38c-.19-.69-.26-1.11.12-1.19z" fill="url(#Безымянный_градиент_703)"/><path d="M410.59 53.77s-7.3-5.5-7-2.86c.57 5.15 2.57 6.87 3.46 12.78.79 5.23-20.1 16.07 7.07 21.09 1.53.28 7.95-4 8.2-7.09a52.33 52.33 0 00-8.72-17.55c-1.98-2.66-3.77-6.14-3.01-6.37z" fill="url(#Безымянный_градиент_580)"/><path d="M420.52 72.28c1-.61 2.38.59 2.9 0a2.16 2.16 0 011.66 2c0 1.4-2.77 3.37-2.77 3.37s-3.31-4.46-1.79-5.37z" fill="url(#Безымянный_градиент_427)"/><ellipse cx="416.36" cy="55.49" rx="3.29" ry="1.53" transform="rotate(-82.74 416.356 55.495)" fill="url(#Безымянный_градиент_662)"/><path d="M132.4 340.85s6.52-.92 8.56-.47 9.43 7.38 6.61 9.93-3 .29-8.06.45-12.29-2.85-7.11-9.91z" fill="url(#Безымянный_градиент_320-7)"/><path d="M132.76 354.49s6.67 1.9 11.08-.6-4.55-9.36-6.15-11-12.58.68-12.58.68 1.05 10.29 7.65 10.92z" fill="url(#Безымянный_градиент_320-8)"/><path d="M163.21 190.4s-31.67 91.16-44.91 103c0 0 5.13 11.28 13.89 16.73-7.8 8.13-8.06 35.44-6.45 36.23 2.08 1 8.69 1.79 6.66-7.71S141 309 141 309c7.5-11.6 23.45-38.58 47.46-60.1 7.8-6.99-15.78-69.25-25.25-58.5z" fill="url(#Безымянный_градиент_474-3)"/><path d="M243.61 163.6c6.69 20.85-14.31 66.83-55.19 85.33-20.34 9.21-36.42-35.74-28.42-66.74 13.83-53.43 58.85-95.69 83.61-18.59z" fill="url(#Безымянный_градиент_474-4)"/><path d="M136.74 357.67s5.9-10.41-8.38-13.19c-4.61-.89 11.38-27.63 9.59-38.84s-22.08-20.28-20.74-7.28c1.07 10.46 1.51 21.31-3.7 36.85s3.89 24.08 23.23 22.46z" fill="url(#Безымянный_градиент_378)"/><path d="M403.8 50.28s17.09-2.67 20.51-.09c0 0 3.07-6.23-2-7.82-3.31-1.05-19.17 4.81-18.51 7.91z" fill="url(#Безымянный_градиент_502)"/></g></g></svg>