<svg width="125" height="72" viewBox="0 0 125 72" fill="none" xmlns="http://www.w3.org/2000/svg">
<g clip-path="url(#clip0_167_3)">
<path d="M71.7458 56.5571H55.4054V71.8502H71.7458V56.5571Z" fill="url(#paint0_linear_167_3)"/>
<path d="M59.0923 70.2039L57.9855 60.0217H70.143L69.0337 70.2019L64.0555 71.3348L59.0923 70.2039Z" fill="#C54E2D"/>
<path d="M64.0655 70.4687L68.0864 69.5548L69.0337 60.854H64.0655V70.4687Z" fill="#D36531"/>
<path d="M64.0655 64.6309H62.0513L61.9117 63.3526H64.0655V62.1042H64.0581H60.249L60.2839 62.4387L60.6603 65.8793H64.0655V64.6309Z" fill="#E9E9E9"/>
<path d="M64.0655 67.8742L64.058 67.8762L62.3629 67.4999L62.2557 66.5044H61.4306H60.7276L60.9395 68.4656L64.058 69.1744L64.0655 69.1724V67.8742Z" fill="#E9E9E9"/>
<path d="M59.1172 57.2561H59.89V57.8833H60.598V57.2561H61.3708V59.1536H60.598V58.5184H59.89V59.1536H59.1172V57.2561Z" fill="black"/>
<path d="M62.3878 57.8853H61.7073V57.2561H63.8436V57.8853H63.1631V59.1536H62.3878V57.8853Z" fill="black"/>
<path d="M64.1826 57.2561H64.9878L65.4864 57.9231L65.9849 57.2561H66.7926V59.1536H66.0223V58.2138L65.4888 58.8887H65.4764L64.9429 58.2138V59.1536H64.1951L64.1826 57.2561Z" fill="black"/>
<path d="M67.1715 57.2561H67.9443V58.5363H69.0336V59.1635H67.1715V57.2561Z" fill="black"/>
<path d="M64.058 64.6309V65.8792H65.9326L65.7556 67.4999L64.058 67.8743V69.1744L67.179 68.4656L67.2014 68.2546L67.5579 64.9654L67.5953 64.6309H67.1865H64.058Z" fill="white"/>
<path d="M64.058 62.1042V62.8788V63.3487V63.3526H67.7299H67.7349L67.7648 63.0719L67.8346 62.4387L67.872 62.1042H64.058Z" fill="white"/>
<path d="M51.6388 54.7434V69.1704L55.4054 71.7827V56.5572L51.6388 54.7434Z" fill="url(#paint1_linear_167_3)"/>
<path d="M71.7434 56.5572L66.7877 54.7434H51.6388L55.4054 56.5572H71.7434Z" fill="url(#paint2_linear_167_3)"/>
<path d="M97.8482 37.7021H81.5078V71.7807H97.8482V37.7021Z" fill="url(#paint3_linear_167_3)"/>
<path d="M77.8134 37.7041V69.1704L81.58 71.7826V37.7041H77.8134Z" fill="url(#paint4_linear_167_3)"/>
<path d="M89.6693 62.1401L84.7111 61.0192L83.6042 50.9207H95.7493L94.6425 61.0172L89.6568 62.1401H89.6693Z" fill="#384EDE"/>
<path d="M93.6952 60.3742L94.64 51.7471H89.6768V61.2821L93.6952 60.3742Z" fill="#4365EC"/>
<path d="M86.1394 55.4921L86.2741 56.7305H89.6768V55.4921H86.1394ZM85.8652 52.9854L86.0023 54.2238H89.6768V52.9854H85.8652ZM89.6768 58.7076L87.9767 58.3372L87.8695 57.3417H86.3439L86.5557 59.285L89.6693 59.9898L89.6768 58.7076Z" fill="#E9E9E9"/>
<path d="M86.4635 48.1831H88.3032V48.8103H87.2338V49.4375H88.3057V50.0646H86.4635V48.1831ZM88.6721 48.1831H90.5143V48.7286H89.4424V48.8362H90.5143V50.0925H88.6721V49.5191H89.7416V49.4096H88.6696V48.1831H88.6721ZM90.8833 48.1831H92.7329V48.7286H91.661V48.8362H92.7329V50.0925H90.8932V49.5191H91.9627V49.4096H90.8932V48.1831H90.8833Z" fill="black"/>
<path d="M93.2041 55.4921L93.4808 52.9854H89.6718V54.2238H91.8131L91.676 55.4921H89.6817V56.7305H91.5538L91.3768 58.3352L89.6817 58.7096V59.9978L92.7978 59.2929L92.8202 59.0839L93.1792 55.8246L93.214 55.4921H93.2041Z" fill="white"/>
<path d="M125 24.9397H108.66V71.7827H125V24.9397Z" fill="url(#paint5_linear_167_3)"/>
<path d="M104.893 28.6311L108.659 24.9397V71.7827L104.893 69.1705V28.6311Z" fill="url(#paint6_linear_167_3)"/>
<path d="M113.124 35.6515L114.321 35.0741C114.55 35.4006 114.759 35.6714 115.263 35.6714C115.767 35.6714 116.051 35.5201 116.051 34.9328V30.9507H117.519V34.9566C117.519 36.1712 116.629 36.7247 115.328 36.7247C114.868 36.7448 114.411 36.6529 114.017 36.4613C113.624 36.2698 113.313 35.9874 113.124 35.6515Z" fill="black"/>
<path d="M118.317 35.5259L119.513 34.9724C119.83 35.3825 120.239 35.6852 120.962 35.6852C121.57 35.6852 121.959 35.4423 121.959 35.1058C121.959 34.7076 121.56 34.5622 120.889 34.3273L120.52 34.2019C119.461 33.8415 118.758 33.3895 118.758 32.4338C118.758 31.5538 119.598 30.8828 120.909 30.8828C121.844 30.8828 122.515 31.1416 122.998 31.8206L121.854 32.4179C121.605 32.0575 121.328 31.9142 120.909 31.9142C120.821 31.9073 120.732 31.9151 120.647 31.9372C120.563 31.9593 120.485 31.9952 120.419 32.0426C120.353 32.0899 120.3 32.1477 120.263 32.2124C120.227 32.277 120.207 32.347 120.206 32.4179C120.206 32.7703 120.481 32.9117 121.109 33.1307L121.475 33.2561C122.722 33.6842 123.427 34.1202 123.427 35.0998C123.427 36.1551 122.39 36.7345 120.994 36.7345C119.598 36.7345 118.751 36.2148 118.317 35.5398" fill="black"/>
<path d="M82.121 31.2274C83.7887 34.5066 85.8204 35.2751 88.378 34.6918C89.7914 34.3712 90.5393 36.8261 90.29 37.4234C90.0407 38.0208 86.5134 37.6226 85.4913 37.6902C83.173 37.8396 73.6304 30.6898 82.121 31.2274Z" fill="url(#paint7_linear_167_3)"/>
<path d="M75.1262 32.4778C76.1906 30.0686 79.1995 29.093 82.9586 34.192C84.5814 36.3822 87.3909 34.6141 88.545 35.4106C89.3128 35.9422 89.243 37.5788 88.8766 37.7341L82.121 37.76C81.1089 36.0099 74.6276 33.6047 75.1262 32.4778Z" fill="url(#paint8_linear_167_3)"/>
<path d="M67.1715 35.8107C64.3148 39.092 56.8563 45.738 56.8563 48.183C56.8563 52.5633 50.1456 50.3353 50.6741 49.2881C51.3247 47.9919 52.267 45.5648 52.3592 41.1248C52.4614 36.1771 71.2323 31.1418 67.1715 35.8107Z" fill="url(#paint9_linear_167_3)"/>
<path d="M58.8954 56.0555C56.5048 55.9659 56.4998 54.6618 51.2873 50.7056C47.9644 48.177 56.8513 47.741 56.8563 48.177C56.8612 48.613 56.769 51.2611 60.7276 53.3537C62.9687 54.5304 61.286 56.1471 58.8954 56.0555Z" fill="url(#paint10_linear_167_3)"/>
<path d="M104.601 12.2169C105.1 11.532 106.097 10.9526 105.426 9.74404C104.756 8.53548 104.113 7.73707 100.815 5.58676C99.3688 4.64699 96.9732 3.16367 93.0645 3.50414C91.2647 3.66143 87.8844 5.58676 83.5244 7.309C80.9593 8.33837 72.1896 10.2677 70.9232 12.0457C57.5991 27.2711 49.9137 24.9396 44.7486 28.1252C38.7185 28.9018 44.0681 47.934 46.9922 48.0117C49.9162 48.0893 60.1218 37.6802 72.1696 35.0381C74.1632 34.606 76.1072 34.0391 77.9804 33.3437C84.2125 31.0122 89.0809 26.9426 91.7183 20.1233C92.0131 18.9524 92.6398 17.851 93.5506 16.9038C94.1788 16.416 95.2656 15.8087 96.5095 16.1651C98.4639 16.7266 100.984 17.9849 102.941 16.8301C104.898 15.6753 105.257 14.9147 105.257 14.9147C105.257 14.9147 105.808 14.636 105.419 14.0885C104.948 13.4016 104.2 12.7605 104.601 12.2169Z" fill="url(#paint11_radial_167_3)"/>
<path d="M60.7276 53.3478C63.2454 52.0855 64.6364 52.9178 65.1374 54.2299C65.6684 55.6236 62.3953 55.5539 60.8996 55.3767C59.4039 55.1995 60.7276 53.3478 60.7276 53.3478Z" fill="url(#paint12_linear_167_3)"/>
<path d="M57.5293 55.6493C57.988 56.623 63.699 56.2606 64.4344 55.9062C65.1698 55.5518 64.5266 53.9589 63.1456 53.9609C61.7646 53.9629 57.0681 54.6757 57.5293 55.6493Z" fill="url(#paint13_linear_167_3)"/>
<path d="M46.3864 26.6104C46.3864 26.6104 34.8446 27.8627 29.1859 40.4918C22.4802 55.4843 7.50088 61.2324 1.95684 60.5276C-2.13886 60.0119 0.790202 64.6351 5.26232 65.107C9.73444 65.5788 18.6862 63.2613 27.8298 50.5983C30.6143 46.7417 33.86 32.1793 44.4594 31.3251C49.1534 30.9468 46.3864 26.6104 46.3864 26.6104Z" fill="url(#paint14_linear_167_3)"/>
<path d="M109.794 21.0931C109.794 21.0931 110.853 20.2728 111.382 20.6232C111.688 20.8223 112.932 22.3594 112.708 22.7795C112.603 22.9588 112.452 23.1185 112.266 23.2485C112.079 23.3784 111.86 23.4757 111.624 23.5341C110.774 23.6476 109.794 21.0931 109.794 21.0931Z" fill="url(#paint15_linear_167_3)"/>
<path d="M110.736 24.231C111.317 24.1764 111.884 24.0473 112.414 23.8487C113.117 23.5979 111.629 21.5053 111.225 21.3719C110.821 21.2385 109.779 21.6666 109.497 22.015C109.216 22.3634 109.933 24.1574 110.736 24.231Z" fill="url(#paint16_linear_167_3)"/>
<path d="M108.909 21.8675C109.01 21.7999 109.129 21.7518 109.257 21.7268C109.385 21.7017 109.518 21.7005 109.647 21.7232C109.775 21.7459 109.896 21.7919 109.999 21.8577C110.102 21.9234 110.184 22.0072 110.24 22.1025C110.783 22.8332 112.441 24.2368 111.698 24.6012C109.677 25.5967 106.035 23.1039 102.031 23.4544C99.8549 23.6535 92.212 28.0875 87.4756 29.4772C84.4368 30.3692 83.3948 30.0029 81.433 30.3055C78.818 30.7037 78.3544 30.7615 78.656 29.7978C78.9576 28.8341 82.3229 23.2772 83.7015 22.7874C87.7573 21.3459 93.9071 21.3459 98.2695 20.215C100.665 19.5938 101.951 19.0622 102.779 19.2812C104.15 19.6435 108.909 21.8675 108.909 21.8675Z" fill="url(#paint17_radial_167_3)"/>
<path d="M87.1914 20.5356C87.1914 20.5356 88.4378 22.4052 98.2695 20.2151C98.2695 20.2151 101.717 21.346 84.0604 25.7223C81.8443 26.2818 87.1914 20.5356 87.1914 20.5356Z" fill="url(#paint18_linear_167_3)"/>
<path d="M102.642 19.2553C102.173 19.4544 101.744 19.976 102.714 20.9278C103.602 21.7978 104.322 22.4788 109.412 22.7197C111.501 22.8212 111.422 20.7287 111.05 20.5295C110.198 20.0437 108.325 20.862 106.064 20.2846C104.968 20.0099 102.914 19.1418 102.642 19.2553Z" fill="url(#paint19_linear_167_3)"/>
<path d="M72.6333 10.007C65.616 12.2828 69.0337 27.5819 78.6161 30.4549C80.3212 30.9666 87.3409 24.6949 87.7672 21.346C89.1433 10.4391 77.6912 8.36244 72.6333 10.007Z" fill="url(#paint20_radial_167_3)"/>
<path d="M88.4228 12.9139C86.805 10.457 92.3939 6.29172 95.7542 5.74618C98.8802 5.2305 99.9147 7.55205 101.468 10.4311C101.966 11.339 104.459 13.3519 102.537 15.4784C101.707 16.3783 91.0328 16.882 88.4228 12.9139Z" fill="url(#paint21_radial_167_3)"/>
<path d="M98.9799 4.4181C96.9184 3.38077 92.9972 5.29813 95.5348 5.58683C96.8361 5.73616 98.4639 5.34791 100.82 9.82773C101.069 10.2857 103.492 10.2658 104.698 9.82773C104.497 10.8073 104.277 12.0816 104.531 12.5375C104.925 13.2443 104.544 13.8775 104.838 14.3852C105.132 14.8929 105.553 15.0781 105.561 14.3852C105.568 13.6923 104.374 12.8999 105.426 11.7192C107.804 9.07313 100.097 4.97758 98.9799 4.4181Z" fill="url(#paint22_radial_167_3)"/>
<path d="M100.603 5.09715C100.603 5.09715 101.413 2.84927 101.687 2.39531C101.961 1.94136 100.334 2.30572 99.6455 3.16783C98.9575 4.02995 100.603 5.09715 100.603 5.09715Z" fill="url(#paint23_linear_167_3)"/>
<path d="M100.815 5.58703C99.8175 3.78117 100.777 1.8419 100.722 0.732895C100.678 -0.169043 100.179 -0.103338 99.6505 0.217218C97.0879 1.79212 93.2315 2.91109 92.551 4.01213C92.3141 4.41033 92.9598 5.30232 95.7542 5.73636C95.7542 5.73636 95.5748 2.52682 100.815 5.58703Z" fill="url(#paint24_linear_167_3)"/>
<path d="M100.815 5.58674C100.239 3.47226 100.827 1.20647 100.707 0.593229C100.668 0.418018 100.643 -0.085713 100.259 0.256745C99.8128 0.719042 99.3119 1.14578 98.7631 1.53101C97.0181 2.74753 96.1506 4.46977 96.1107 4.70471C96.8561 4.05763 98.3418 4.04966 100.815 5.58674Z" fill="url(#paint25_radial_167_3)"/>
<path d="M99.9372 15.771C99.0098 15.4604 94.7546 16.1154 95.7567 16.0597C96.7588 16.0039 98.5811 16.8939 100.087 17.2085C102.432 17.6983 102.958 16.8302 102.958 16.8302C102.958 16.8302 103.168 16.8601 99.9372 15.771Z" fill="url(#paint26_radial_167_3)"/>
<path d="M100.66 10.011C100.66 10.011 103.652 9.58488 104.564 9.37582C105.062 9.26432 105.643 10.3176 105.347 11.3191C105.205 11.8069 104.379 12.1633 104.519 12.5436C104.868 13.4913 105.215 14.2081 104.888 14.5346C104.699 14.7337 101.258 9.8676 100.66 10.011Z" fill="url(#paint27_radial_167_3)"/>
<path d="M102.353 10.7058C102.9 10.5785 103.458 10.4834 104.023 10.4211C104.272 10.3952 104.564 11.6356 103.32 12.213C102.933 11.8186 102.599 11.3928 102.323 10.9427C102.275 10.8053 102.258 10.7217 102.353 10.7058Z" fill="url(#paint28_radial_167_3)"/>
<path d="M102.353 10.7058C102.353 10.7058 100.533 9.61078 100.608 10.1364C100.75 11.1618 101.248 11.5042 101.47 12.6809C101.667 13.7223 96.4597 15.8805 103.233 16.88C103.614 16.9358 105.214 16.0836 105.277 15.4684C104.834 14.2047 104.097 13.0192 103.103 11.9741C102.609 11.4445 102.163 10.7516 102.353 10.7058Z" fill="url(#paint29_radial_167_3)"/>
<path d="M104.828 14.3912C105.077 14.2697 105.421 14.5087 105.551 14.3912C105.665 14.4127 105.767 14.4632 105.841 14.535C105.916 14.6069 105.959 14.6962 105.965 14.7894C105.965 15.0681 105.274 15.4604 105.274 15.4604C105.274 15.4604 104.449 14.5724 104.828 14.3912Z" fill="url(#paint30_linear_167_3)"/>
<path d="M104.167 11.0869C104.225 10.728 104.102 10.4198 103.893 10.3986C103.684 10.3773 103.468 10.651 103.411 11.0099C103.353 11.3687 103.476 11.6769 103.685 11.6982C103.894 11.7194 104.11 11.4457 104.167 11.0869Z" fill="url(#paint31_radial_167_3)"/>
<path d="M33.0049 67.8644C33.0049 67.8644 34.6302 67.6812 35.1388 67.7708C35.6473 67.8604 37.4895 69.2401 36.7865 69.7479C36.0836 70.2556 36.0387 69.8056 34.7773 69.8375C33.516 69.8693 31.7136 69.27 33.0049 67.8644Z" fill="url(#paint32_linear_167_3)"/>
<path d="M33.0947 70.5802C33.0947 70.5802 34.7574 70.9585 35.8567 70.4607C36.9561 69.963 34.7225 68.5971 34.3237 68.2706C33.9248 67.9441 31.1877 68.406 31.1877 68.406C31.1877 68.406 31.4494 70.4547 33.0947 70.5802Z" fill="url(#paint33_linear_167_3)"/>
<path d="M40.6853 37.9093C40.6853 37.9093 32.7905 56.0596 29.4901 58.4169C29.4901 58.4169 30.7689 60.6628 32.9526 61.7479C31.0082 63.3667 30.9434 68.8042 31.3447 68.9615C31.8632 69.1606 33.511 69.3179 33.0049 67.4264C32.4989 65.5349 35.1488 61.523 35.1488 61.523C37.0184 59.2134 40.9944 53.8416 46.9797 49.5569C48.9241 48.1651 43.046 35.769 40.6853 37.9093Z" fill="url(#paint34_radial_167_3)"/>
<path d="M60.7276 32.5735C62.3953 36.7248 57.1604 45.8795 46.9698 49.5629C41.8994 51.3967 37.8909 42.447 39.8852 36.2748C43.3327 25.6367 54.5554 17.2226 60.7276 32.5735Z" fill="url(#paint35_radial_167_3)"/>
<path d="M34.0868 71.2132C34.0868 71.2132 35.5576 69.1405 31.9978 68.587C30.8487 68.4098 34.8347 63.0858 34.3885 60.8538C33.9422 58.6219 28.8843 56.816 29.2184 59.4044C29.4851 61.487 29.5948 63.6473 28.296 66.7413C26.9972 69.8354 29.2657 71.5357 34.0868 71.2132Z" fill="url(#paint36_radial_167_3)"/>
<path d="M100.66 10.011C100.66 10.011 104.92 9.47942 105.773 9.99311C105.773 9.99311 106.538 8.7527 105.274 8.43612C104.449 8.22706 100.496 9.39381 100.66 10.011Z" fill="url(#paint37_linear_167_3)"/>
</g>
<defs>
<linearGradient id="paint0_linear_167_3" x1="63.4647" y1="72.6248" x2="63.5999" y2="56.3813" gradientUnits="userSpaceOnUse">
<stop stop-color="#AB2E27"/>
<stop offset="0.3" stop-color="#BC4629"/>
<stop offset="0.75" stop-color="#D0642B"/>
<stop offset="1" stop-color="#D86F2C"/>
</linearGradient>
<linearGradient id="paint1_linear_167_3" x1="855.631" y1="5462.32" x2="757.777" y2="5455.75" gradientUnits="userSpaceOnUse">
<stop stop-color="#AB2E27"/>
<stop offset="0.3" stop-color="#BC4629"/>
<stop offset="0.75" stop-color="#D0642B"/>
<stop offset="1" stop-color="#D86F2C"/>
</linearGradient>
<linearGradient id="paint2_linear_167_3" x1="56.5621" y1="55.4582" x2="69.5442" y2="56.3151" gradientUnits="userSpaceOnUse">
<stop stop-color="#8B2E18"/>
<stop offset="0.14" stop-color="#9C411F"/>
<stop offset="0.53" stop-color="#C67132"/>
<stop offset="0.83" stop-color="#E08F3E"/>
<stop offset="1" stop-color="#EA9A42"/>
</linearGradient>
<linearGradient id="paint3_linear_167_3" x1="89.4898" y1="72.1888" x2="89.7427" y2="35.2602" gradientUnits="userSpaceOnUse">
<stop stop-color="#4F2EA6"/>
<stop offset="0.04" stop-color="#382290"/>
<stop offset="1" stop-color="#56B3EF"/>
</linearGradient>
<linearGradient id="paint4_linear_167_3" x1="82.6021" y1="55.0639" x2="72.1736" y2="49.9143" gradientUnits="userSpaceOnUse">
<stop stop-color="#382290"/>
<stop offset="1" stop-color="#56B3EF"/>
</linearGradient>
<linearGradient id="paint5_linear_167_3" x1="116.916" y1="72.1013" x2="116.816" y2="29.4333" gradientUnits="userSpaceOnUse">
<stop stop-color="#E08327"/>
<stop offset="1" stop-color="#FFD115"/>
</linearGradient>
<linearGradient id="paint6_linear_167_3" x1="108.782" y1="48.4199" x2="96.2377" y2="39.1241" gradientUnits="userSpaceOnUse">
<stop stop-color="#E08327"/>
<stop offset="1" stop-color="#FFCE00"/>
</linearGradient>
<linearGradient id="paint7_linear_167_3" x1="83.0683" y1="36.3344" x2="85.1877" y2="32.5976" gradientUnits="userSpaceOnUse">
<stop/>
<stop offset="0.17" stop-color="#00050A"/>
<stop offset="0.45" stop-color="#001224"/>
<stop offset="0.81" stop-color="#01264F"/>
<stop offset="1" stop-color="#013369"/>
</linearGradient>
<linearGradient id="paint8_linear_167_3" x1="4622.09" y1="1356.37" x2="4685.67" y2="1182.82" gradientUnits="userSpaceOnUse">
<stop/>
<stop offset="0.17" stop-color="#00050A"/>
<stop offset="0.45" stop-color="#001224"/>
<stop offset="0.81" stop-color="#01264F"/>
<stop offset="1" stop-color="#013369"/>
</linearGradient>
<linearGradient id="paint9_linear_167_3" x1="-2117.38" y1="3434.03" x2="-992.52" y2="3831.28" gradientUnits="userSpaceOnUse">
<stop/>
<stop offset="0.17" stop-color="#00050A"/>
<stop offset="0.45" stop-color="#001224"/>
<stop offset="0.81" stop-color="#01264F"/>
<stop offset="1" stop-color="#013369"/>
</linearGradient>
<linearGradient id="paint10_linear_167_3" x1="-1488.25" y1="2119.4" x2="-1108.28" y2="1923.45" gradientUnits="userSpaceOnUse">
<stop/>
<stop offset="0.17" stop-color="#00050A"/>
<stop offset="0.45" stop-color="#001224"/>
<stop offset="0.81" stop-color="#01264F"/>
<stop offset="1" stop-color="#013369"/>
</linearGradient>
<radialGradient id="paint11_radial_167_3" cx="0" cy="0" r="1" gradientUnits="userSpaceOnUse" gradientTransform="translate(58.6835 1.26622) scale(42.8466 34.2219)">
<stop stop-color="#012A56"/>
<stop offset="0.69" stop-color="#000E1C"/>
<stop offset="1"/>
</radialGradient>
<linearGradient id="paint12_linear_167_3" x1="-444.452" y1="827.234" x2="-431.375" y2="764.99" gradientUnits="userSpaceOnUse">
<stop/>
<stop offset="0.17" stop-color="#00050A"/>
<stop offset="0.45" stop-color="#001224"/>
<stop offset="0.81" stop-color="#01264F"/>
<stop offset="1" stop-color="#013369"/>
</linearGradient>
<linearGradient id="paint13_linear_167_3" x1="-761.157" y1="733.385" x2="-722.917" y2="616.14" gradientUnits="userSpaceOnUse">
<stop/>
<stop offset="0.17" stop-color="#00050A"/>
<stop offset="0.45" stop-color="#001224"/>
<stop offset="0.81" stop-color="#01264F"/>
<stop offset="1" stop-color="#013369"/>
</linearGradient>
<linearGradient id="paint14_linear_167_3" x1="-2.18295e-05" y1="45.8855" x2="47.1966" y2="45.8855" gradientUnits="userSpaceOnUse">
<stop/>
<stop offset="1" stop-color="#013369"/>
</linearGradient>
<linearGradient id="paint15_linear_167_3" x1="110.671" y1="22.1623" x2="113.432" y2="21.2899" gradientUnits="userSpaceOnUse">
<stop/>
<stop offset="0.7" stop-color="#01244A"/>
<stop offset="1" stop-color="#013369"/>
</linearGradient>
<linearGradient id="paint16_linear_167_3" x1="1498.87" y1="352.239" x2="1542.18" y2="349.948" gradientUnits="userSpaceOnUse">
<stop/>
<stop offset="1" stop-color="#013369"/>
</linearGradient>
<radialGradient id="paint17_radial_167_3" cx="0" cy="0" r="1" gradientUnits="userSpaceOnUse" gradientTransform="translate(94.7322 17.1408) scale(25.878 20.6689)">
<stop stop-color="#012348"/>
<stop offset="0.37" stop-color="#001224"/>
<stop offset="0.61" stop-color="#000912"/>
<stop offset="1" stop-color="#00152A"/>
</radialGradient>
<linearGradient id="paint18_linear_167_3" x1="4995.03" y1="684.629" x2="5966.57" y2="104.733" gradientUnits="userSpaceOnUse">
<stop/>
<stop offset="1" stop-color="#013369"/>
</linearGradient>
<linearGradient id="paint19_linear_167_3" x1="3662.71" y1="385.911" x2="4223.99" y2="385.911" gradientUnits="userSpaceOnUse">
<stop/>
<stop offset="1" stop-color="#013369"/>
</linearGradient>
<radialGradient id="paint20_radial_167_3" cx="0" cy="0" r="1" gradientUnits="userSpaceOnUse" gradientTransform="translate(6793.37 1529.09) scale(2091.7 2313.15)">
<stop stop-color="#012348"/>
<stop offset="0.37" stop-color="#001224"/>
<stop offset="0.61" stop-color="#000912"/>
<stop offset="1" stop-color="#00152A"/>
</radialGradient>
<radialGradient id="paint21_radial_167_3" cx="0" cy="0" r="1" gradientUnits="userSpaceOnUse" gradientTransform="translate(104.62 6.57865) rotate(21.0527) scale(18.5964 15.1673)">
<stop stop-color="#01305F"/>
<stop offset="0.62" stop-color="#000B15"/>
<stop offset="1" stop-color="#000E1C"/>
</radialGradient>
<radialGradient id="paint22_radial_167_3" cx="0" cy="0" r="1" gradientUnits="userSpaceOnUse" gradientTransform="translate(104.195 8.06169) scale(10.8139 8.6371)">
<stop stop-color="#01407E"/>
<stop offset="1" stop-color="#000D1A"/>
</radialGradient>
<linearGradient id="paint23_linear_167_3" x1="835.074" y1="295.071" x2="849.145" y2="303.545" gradientUnits="userSpaceOnUse">
<stop/>
<stop offset="1" stop-color="#013369"/>
</linearGradient>
<linearGradient id="paint24_linear_167_3" x1="92.7792" y1="4.43709" x2="102.894" y2="0.298336" gradientUnits="userSpaceOnUse">
<stop/>
<stop offset="0.24" stop-color="#001325"/>
<stop offset="0.58" stop-color="#012B55"/>
<stop offset="0.85" stop-color="#013A73"/>
<stop offset="1" stop-color="#01407E"/>
</linearGradient>
<radialGradient id="paint25_radial_167_3" cx="0" cy="0" r="1" gradientUnits="userSpaceOnUse" gradientTransform="translate(101.626 3.91095) rotate(21.0527) scale(4.39193 3.58206)">
<stop offset="0.03" stop-color="#013F7C"/>
<stop offset="0.18" stop-color="#013364"/>
<stop offset="0.54" stop-color="#00172E"/>
<stop offset="0.82" stop-color="#00060D"/>
<stop offset="0.96"/>
</radialGradient>
<radialGradient id="paint26_radial_167_3" cx="0" cy="0" r="1" gradientUnits="userSpaceOnUse" gradientTransform="translate(100.088 18.1585) rotate(21.0528) scale(3.29449 2.687)">
<stop stop-color="#011A35"/>
<stop offset="1"/>
</radialGradient>
<radialGradient id="paint27_radial_167_3" cx="0" cy="0" r="1" gradientUnits="userSpaceOnUse" gradientTransform="translate(105.535 12.0712) rotate(21.0526) scale(2.89323 2.35971)">
<stop stop-color="#012348"/>
<stop offset="0.61" stop-color="#001224"/>
<stop offset="1" stop-color="#000912"/>
</radialGradient>
<radialGradient id="paint28_radial_167_3" cx="0" cy="0" r="1" gradientUnits="userSpaceOnUse" gradientTransform="translate(104.134 11.4697) rotate(21.0527) scale(1.4588 1.1898)">
<stop stop-color="#FFD800"/>
<stop offset="1" stop-color="#D6681F"/>
</radialGradient>
<radialGradient id="paint29_radial_167_3" cx="0" cy="0" r="1" gradientUnits="userSpaceOnUse" gradientTransform="translate(104.524 13.2301) rotate(21.0526) scale(5.50266 4.48797)">
<stop stop-color="#01407E"/>
<stop offset="0.21" stop-color="#012E5B"/>
<stop offset="0.52" stop-color="#00152B"/>
<stop offset="0.68" stop-color="#000C19"/>
<stop offset="1" stop-color="#00152A"/>
</radialGradient>
<linearGradient id="paint30_linear_167_3" x1="105.087" y1="14.8806" x2="106.042" y2="14.4887" gradientUnits="userSpaceOnUse">
<stop/>
<stop offset="0.23" stop-color="#000C19"/>
<stop offset="0.72" stop-color="#012C57"/>
<stop offset="1" stop-color="#01407E"/>
</linearGradient>
<radialGradient id="paint31_radial_167_3" cx="0" cy="0" r="1" gradientUnits="userSpaceOnUse" gradientTransform="translate(104.33 11.0207) rotate(-174.19) scale(1.02021 0.760084)">
<stop stop-color="#013369"/>
<stop offset="1"/>
</radialGradient>
<linearGradient id="paint32_linear_167_3" x1="555.119" y1="693.997" x2="581.354" y2="631.675" gradientUnits="userSpaceOnUse">
<stop/>
<stop offset="0.17" stop-color="#00050A"/>
<stop offset="0.45" stop-color="#001224"/>
<stop offset="0.81" stop-color="#01264F"/>
<stop offset="1" stop-color="#013369"/>
</linearGradient>
<linearGradient id="paint33_linear_167_3" x1="597.58" y1="783.7" x2="660.932" y2="728.717" gradientUnits="userSpaceOnUse">
<stop/>
<stop offset="0.17" stop-color="#00050A"/>
<stop offset="0.45" stop-color="#001224"/>
<stop offset="0.81" stop-color="#01264F"/>
<stop offset="1" stop-color="#013369"/>
</linearGradient>
<radialGradient id="paint34_radial_167_3" cx="0" cy="0" r="1" gradientUnits="userSpaceOnUse" gradientTransform="translate(3317.34 8961.32) scale(1411.79 2480.73)">
<stop stop-color="#012348"/>
<stop offset="0.37" stop-color="#001224"/>
<stop offset="0.61" stop-color="#000912"/>
<stop offset="1" stop-color="#00152A"/>
</radialGradient>
<radialGradient id="paint35_radial_167_3" cx="0" cy="0" r="1" gradientUnits="userSpaceOnUse" gradientTransform="translate(4113.15 4536.15) rotate(10.8514) scale(2361.51 3541.33)">
<stop stop-color="#012348"/>
<stop offset="0.37" stop-color="#001224"/>
<stop offset="0.61" stop-color="#000912"/>
<stop offset="1" stop-color="#00152A"/>
</radialGradient>
<radialGradient id="paint36_radial_167_3" cx="0" cy="0" r="1" gradientUnits="userSpaceOnUse" gradientTransform="translate(40.8249 64.4535) rotate(-2.40714) scale(12.7521 11.2726)">
<stop stop-color="#013063"/>
<stop offset="0.67" stop-color="#001021"/>
<stop offset="1"/>
</radialGradient>
<linearGradient id="paint37_linear_167_3" x1="100.655" y1="9.21063" x2="106.002" y2="9.21063" gradientUnits="userSpaceOnUse">
<stop/>
<stop offset="0.52" stop-color="#012242"/>
<stop offset="1" stop-color="#013F7C"/>
</linearGradient>
<clipPath id="clip0_167_3">
<rect width="125" height="71.8504" fill="white"/>
</clipPath>
</defs>
</svg>
