<svg width="200" height="115" viewBox="0 0 200 115" fill="none" xmlns="http://www.w3.org/2000/svg"><g clip-path="url(#clip0_167_3)"><path d="M114.793 90.523H88.649V115h26.144V90.523z" fill="url(#paint0_linear_167_3)"/><path d="M94.548 112.365l-1.771-16.297h19.452l-1.775 16.293-7.965 1.814-7.941-1.81z" fill="#C54E2D"/><path d="M102.505 112.788l6.433-1.462 1.516-13.926h-7.949v15.388z" fill="#D36531"/><path d="M102.505 103.445h-3.223l-.223-2.046h3.446v-1.998h-6.107l.056.535.603 5.507h5.448v-1.998zm0 5.191l-.012.003-2.712-.602-.172-1.593h-2.445l.34 3.139 4.989 1.134.012-.003v-2.078z" fill="#E9E9E9"/><path d="M94.588 91.641h1.236v1.004h1.133V91.64h1.236v3.037h-1.236v-1.016h-1.133v1.016h-1.236V91.64zm5.232 1.007h-1.088v-1.007h3.418v1.007h-1.089v2.03h-1.24v-2.03zm2.872-1.007h1.289l.797 1.068.798-1.068h1.292v3.037h-1.232v-1.504l-.854 1.08h-.02l-.853-1.08v1.504h-1.197l-.02-3.037zm4.782 0h1.237v2.05h1.743v1.003h-2.98v-3.053z" fill="#000"/><path d="M102.493 103.445v1.998h2.999l-.283 2.594-2.716.599v2.081l4.993-1.134.036-.338.571-5.265.059-.535h-5.659zm0-4.044v1.998h5.883l.048-.449.111-1.014.06-.535h-6.102z" fill="#fff"/><path d="M82.622 87.62v23.091l6.027 4.181v-24.37l-6.027-2.902z" fill="url(#paint1_linear_167_3)"/><path d="M114.789 90.523l-7.929-2.903H82.622l6.027 2.903h26.14z" fill="url(#paint2_linear_167_3)"/><path d="M156.557 60.344h-26.145v54.545h26.145V60.344z" fill="url(#paint3_linear_167_3)"/><path d="M124.501 60.347v50.364l6.027 4.181V60.347h-6.027z" fill="url(#paint4_linear_167_3)"/><path d="M143.471 99.459l-7.933-1.795-1.771-16.163h19.432l-1.771 16.16-7.977 1.797h.02z" fill="#384EDE"/><path d="M149.912 96.632l1.512-13.809h-7.941v15.262l6.429-1.453z" fill="#4365EC"/><path d="M137.823 88.818l.215 1.982h5.445v-1.982h-5.66zm-.439-4.012l.22 1.982h5.879v-1.982h-6.099zm6.099 9.158l-2.72-.592-.172-1.594h-2.441l.339 3.11 4.982 1.129.012-2.053z" fill="#E9E9E9"/><path d="M138.342 77.12h2.943v1.003h-1.711v1.004h1.715v1.004h-2.947v-3.012zm3.533 0h2.948v.873h-1.715v.172h1.715v2.01h-2.948v-.917h1.711v-.176h-1.715V77.12h.004zm3.538 0h2.96v.873h-1.715v.172h1.715v2.01h-2.944v-.917h1.711v-.176h-1.711V77.12h-.016z" fill="#000"/><path d="M149.126 88.818l.443-4.012h-6.094v1.982h3.426l-.219 2.03h-3.191V90.8h2.995l-.283 2.568-2.712.6v2.061l4.985-1.128.036-.334.575-5.217.055-.532h-.016z" fill="#fff"/><path d="M200 39.917h-26.145v74.975H200V39.917z" fill="url(#paint5_linear_167_3)"/><path d="M167.829 45.825l6.026-5.908v74.975l-6.026-4.181V45.825z" fill="url(#paint6_linear_167_3)"/><path d="M180.999 57.062l1.914-.924c.367.523.702.956 1.508.956s1.26-.242 1.26-1.182v-6.374h2.35v6.412c0 1.944-1.424 2.83-3.506 2.83a4.38 4.38 0 01-2.097-.422c-.63-.306-1.128-.758-1.429-1.296zm8.308-.201l1.914-.886c.507.657 1.161 1.141 2.318 1.141.973 0 1.595-.389 1.595-.927 0-.638-.638-.87-1.711-1.246l-.59-.201c-1.696-.577-2.82-1.3-2.82-2.83 0-1.408 1.344-2.482 3.442-2.482 1.496 0 2.568.414 3.342 1.5l-1.831.957c-.398-.577-.841-.807-1.511-.807a1.268 1.268 0 00-.419.037c-.135.036-.26.093-.365.169a.863.863 0 00-.25.272.696.696 0 00-.091.329c0 .564.439.79 1.444 1.14l.586.201c1.994.685 3.123 1.383 3.123 2.951 0 1.69-1.659 2.616-3.893 2.616-2.233 0-3.589-.831-4.283-1.912" fill="#000"/><path d="M131.394 49.981c2.668 5.249 5.919 6.479 10.011 5.545 2.261-.513 3.458 3.416 3.059 4.372s-6.043.319-7.678.427c-3.709.24-18.977-11.204-5.392-10.344z" fill="url(#paint7_linear_167_3)"/><path d="M120.202 51.982c1.703-3.856 6.517-5.417 12.532 2.744 2.596 3.505 7.091.676 8.938 1.95 1.228.851 1.117 3.47.53 3.72l-10.808.04c-1.62-2.8-11.99-6.65-11.192-8.454z" fill="url(#paint8_linear_167_3)"/><path d="M107.474 57.317c-4.57 5.252-16.504 15.889-16.504 19.802 0 7.011-10.737 3.445-9.891 1.769 1.04-2.075 2.548-5.96 2.696-13.066.163-7.919 30.197-15.978 23.699-8.505z" fill="url(#paint9_linear_167_3)"/><path d="M94.233 89.72c-3.825-.144-3.833-2.231-12.173-8.563-5.317-4.047 8.902-4.745 8.91-4.047.008.698-.14 4.936 6.194 8.285 3.586 1.884.894 4.471-2.931 4.325z" fill="url(#paint10_linear_167_3)"/><path d="M167.362 19.554c.798-1.096 2.393-2.024 1.32-3.958-1.073-1.934-2.102-3.212-7.379-6.654-2.313-1.504-6.146-3.878-12.4-3.333-2.88.252-8.288 3.333-15.264 6.09-4.104 1.647-18.136 4.735-20.162 7.58-21.318 24.37-33.615 20.638-41.88 25.737-9.647 1.243-1.088 31.705 3.59 31.83 4.679.123 21.008-16.537 40.284-20.766 3.19-.691 6.3-1.599 9.298-2.712 9.971-3.731 17.76-10.245 21.98-21.16.472-1.874 1.475-3.636 2.932-5.152 1.005-.781 2.744-1.753 4.734-1.183 3.127.899 7.16 2.913 10.291 1.065 3.131-1.849 3.705-3.066 3.705-3.066s.881-.446.259-1.323c-.754-1.099-1.95-2.125-1.308-2.995z" fill="url(#paint11_radial_167_3)"/><path d="M97.164 85.386c4.029-2.02 6.254-.689 7.056 1.411.849 2.231-4.388 2.12-6.78 1.836-2.394-.284-.276-3.247-.276-3.247z" fill="url(#paint12_linear_167_3)"/><path d="M92.047 89.07c.734 1.558 9.871.978 11.048.41 1.177-.567.148-3.116-2.062-3.113-2.21.003-9.724 1.144-8.986 2.703z" fill="url(#paint13_linear_167_3)"/><path d="M74.218 42.59s-18.467 2.005-27.52 22.219C35.968 88.805 12 98.005 3.13 96.877c-6.553-.825-1.867 6.574 5.289 7.33 7.155.755 21.478-2.955 36.108-23.222 4.455-6.173 9.648-29.48 26.607-30.848 7.51-.605 3.083-7.546 3.083-7.546z" fill="url(#paint14_linear_167_3)"/><path d="M175.67 33.76s1.695-1.313 2.541-.752c.49.319 2.481 2.78 2.122 3.451a2.402 2.402 0 01-.708.751 3.104 3.104 0 01-1.027.457c-1.36.182-2.928-3.907-2.928-3.907z" fill="url(#paint15_linear_167_3)"/><path d="M177.178 38.783c.93-.088 1.836-.294 2.684-.612 1.125-.402-1.256-3.751-1.903-3.965-.646-.213-2.313.472-2.764 1.03-.45.558.698 3.429 1.983 3.547z" fill="url(#paint16_linear_167_3)"/><path d="M174.254 35c.162-.108.352-.185.557-.225.205-.04.418-.042.624-.006.206.036.398.11.563.215.164.105.297.24.386.392.869 1.17 3.522 3.416 2.333 4-3.234 1.593-9.062-2.397-15.467-1.836-3.482.319-15.711 7.415-23.289 9.64-4.862 1.427-6.529.841-9.668 1.325-4.184.638-4.926.73-4.443-.812.482-1.543 5.867-10.437 8.072-11.22 6.49-2.308 16.329-2.308 23.309-4.118 3.833-.994 5.891-1.845 7.215-1.495 2.194.58 9.808 4.14 9.808 4.14z" fill="url(#paint17_radial_167_3)"/><path d="M139.506 32.868s1.994 2.992 17.725-.513c0 0 5.516 1.81-22.734 8.815-3.546.895 5.009-8.302 5.009-8.302z" fill="url(#paint18_linear_167_3)"/><path d="M164.227 30.819c-.75.319-1.436 1.154.116 2.677 1.42 1.392 2.572 2.482 10.717 2.868 3.342.163 3.215-3.187 2.62-3.505-1.364-.778-4.359.532-7.977-.392-1.755-.44-5.041-1.83-5.476-1.648z" fill="url(#paint19_linear_167_3)"/><path d="M116.213 16.017c-11.227 3.642-5.759 28.129 9.573 32.728 2.728.818 13.96-9.22 14.642-14.58 2.201-17.457-16.122-20.78-24.215-18.148z" fill="url(#paint20_radial_167_3)"/><path d="M141.477 20.67c-2.589-3.933 6.353-10.6 11.73-11.473 5.001-.825 6.657 2.89 9.141 7.498.798 1.453 4.787 4.675 1.712 8.079-1.329 1.44-18.407 2.246-22.583-4.105z" fill="url(#paint21_radial_167_3)"/><path d="M158.368 7.072c-3.299-1.66-9.573 1.408-5.512 1.87 2.082.24 4.686-.382 8.455 6.788.399.733 4.276.701 6.207 0-.324 1.568-.675 3.607-.268 4.337.63 1.131.02 2.145.491 2.957.471.813 1.145 1.11 1.157 0 .012-1.109-1.899-2.377-.216-4.267 3.805-4.235-8.527-10.79-10.314-11.685z" fill="url(#paint22_radial_167_3)"/><path d="M160.964 8.158s1.297-3.598 1.735-4.324c.439-.727-2.165-.144-3.266 1.236s1.531 3.088 1.531 3.088z" fill="url(#paint23_linear_167_3)"/><path d="M161.303 8.942c-1.595-2.89-.059-5.994-.147-7.769-.072-1.444-.87-1.338-1.715-.825-4.1 2.52-10.271 4.311-11.36 6.074-.378.637.655 2.065 5.126 2.76 0 0-.287-5.138 8.096-.24z" fill="url(#paint24_linear_167_3)"/><path d="M161.303 8.942c-.921-3.384.02-7.01-.171-7.992-.064-.28-.104-1.087-.718-.539a16.437 16.437 0 01-2.393 2.04c-2.792 1.947-4.18 4.703-4.244 5.08 1.193-1.036 3.57-1.049 7.526 1.411z" fill="url(#paint25_radial_167_3)"/><path d="M159.9 25.242c-1.484-.497-8.293.552-6.689.462 1.603-.089 4.519 1.336 6.928 1.84 3.753.783 4.595-.606 4.595-.606s.335.047-4.834-1.696z" fill="url(#paint26_radial_167_3)"/><path d="M161.056 16.023s4.786-.682 6.246-1.017c.798-.178 1.727 1.508 1.253 3.11-.228.782-1.548 1.352-1.325 1.96.559 1.517 1.113 2.665.591 3.187-.303.319-5.808-7.47-6.765-7.24z" fill="url(#paint27_radial_167_3)"/><path d="M163.764 17.135a22.919 22.919 0 012.673-.455c.399-.042.865 1.944-1.125 2.868a11.448 11.448 0 01-1.595-2.033c-.076-.22-.104-.354.047-.38z" fill="url(#paint28_radial_167_3)"/><path d="M163.764 17.135s-2.911-1.752-2.792-.911c.228 1.641 1.025 2.19 1.38 4.073.316 1.666-8.016 5.12 2.82 6.72.611.09 3.171-1.274 3.271-2.26-.708-2.022-1.888-3.92-3.478-5.592-.79-.848-1.504-1.956-1.201-2.03z" fill="url(#paint29_radial_167_3)"/><path d="M167.725 23.034c.399-.194.949.188 1.157 0a.911.911 0 01.464.23.62.62 0 01.198.407c0 .446-1.105 1.074-1.105 1.074s-1.32-1.421-.714-1.711z" fill="url(#paint30_linear_167_3)"/><path d="M166.668 17.745c.091-.574-.106-1.068-.44-1.102-.334-.034-.68.404-.771.979-.092.574.105 1.067.439 1.102.335.034.68-.404.772-.979z" fill="url(#paint31_radial_167_3)"/><path d="M52.808 108.62s2.6-.293 3.414-.15c.814.144 3.761 2.352 2.636 3.165-1.124.812-1.196.092-3.214.143-2.018.051-4.902-.908-2.836-3.158z" fill="url(#paint32_linear_167_3)"/><path d="M52.952 112.967s2.66.605 4.419-.191c1.759-.797-1.815-2.983-2.453-3.506-.638-.522-5.018.217-5.018.217s.42 3.279 3.052 3.48z" fill="url(#paint33_linear_167_3)"/><path d="M65.097 60.676s-12.632 29.05-17.913 32.823c0 0 2.046 3.595 5.54 5.332-3.11 2.59-3.215 11.293-2.572 11.545.83.319 3.466.571 2.656-2.457-.81-3.027 3.43-9.448 3.43-9.448 2.991-3.697 9.353-12.295 18.93-19.153 3.11-2.227-6.294-22.068-10.072-18.642z" fill="url(#paint34_radial_167_3)"/><path d="M97.164 52.135c2.668 6.645-5.707 21.297-22.012 27.193-8.113 2.935-14.527-11.39-11.336-21.269 5.516-17.026 23.473-30.494 33.348-5.924z" fill="url(#paint35_radial_167_3)"/><path d="M54.539 113.98s2.353-3.317-3.343-4.203c-1.838-.284 4.54-8.805 3.826-12.377-.714-3.573-8.807-6.463-8.273-2.32.427 3.333.603 6.791-1.475 11.743-2.078 4.952 1.551 7.674 9.265 7.157z" fill="url(#paint36_radial_167_3)"/><path d="M161.056 16.023s6.817-.85 8.181-.029c0 0 1.224-1.985-.798-2.492-1.32-.334-7.646 1.533-7.383 2.521z" fill="url(#paint37_linear_167_3)"/></g><defs><linearGradient id="paint0_linear_167_3" x1="101.543" y1="116.24" x2="101.76" y2="90.241" gradientUnits="userSpaceOnUse"><stop stop-color="#AB2E27"/><stop offset=".3" stop-color="#BC4629"/><stop offset=".75" stop-color="#D0642B"/><stop offset="1" stop-color="#D86F2C"/></linearGradient><linearGradient id="paint1_linear_167_3" x1="1369.01" y1="8742.71" x2="1212.44" y2="8732.19" gradientUnits="userSpaceOnUse"><stop stop-color="#AB2E27"/><stop offset=".3" stop-color="#BC4629"/><stop offset=".75" stop-color="#D0642B"/><stop offset="1" stop-color="#D86F2C"/></linearGradient><linearGradient id="paint2_linear_167_3" x1="90.499" y1="88.764" x2="111.271" y2="90.134" gradientUnits="userSpaceOnUse"><stop stop-color="#8B2E18"/><stop offset=".14" stop-color="#9C411F"/><stop offset=".53" stop-color="#C67132"/><stop offset=".83" stop-color="#E08F3E"/><stop offset="1" stop-color="#EA9A42"/></linearGradient><linearGradient id="paint3_linear_167_3" x1="143.184" y1="115.542" x2="143.588" y2="56.436" gradientUnits="userSpaceOnUse"><stop stop-color="#4F2EA6"/><stop offset=".04" stop-color="#382290"/><stop offset="1" stop-color="#56B3EF"/></linearGradient><linearGradient id="paint4_linear_167_3" x1="132.163" y1="88.133" x2="115.476" y2="79.895" gradientUnits="userSpaceOnUse"><stop stop-color="#382290"/><stop offset="1" stop-color="#56B3EF"/></linearGradient><linearGradient id="paint5_linear_167_3" x1="187.065" y1="115.402" x2="186.905" y2="47.109" gradientUnits="userSpaceOnUse"><stop stop-color="#E08327"/><stop offset="1" stop-color="#FFD115"/></linearGradient><linearGradient id="paint6_linear_167_3" x1="174.051" y1="77.499" x2="153.976" y2="62.627" gradientUnits="userSpaceOnUse"><stop stop-color="#E08327"/><stop offset="1" stop-color="#FFCE00"/></linearGradient><linearGradient id="paint7_linear_167_3" x1="132.909" y1="58.155" x2="136.302" y2="52.175" gradientUnits="userSpaceOnUse"><stop/><stop offset=".17" stop-color="#00050A"/><stop offset=".45" stop-color="#001224"/><stop offset=".81" stop-color="#01264F"/><stop offset="1" stop-color="#013369"/></linearGradient><linearGradient id="paint8_linear_167_3" x1="7395.35" y1="2170.94" x2="7497.14" y2="1893.19" gradientUnits="userSpaceOnUse"><stop/><stop offset=".17" stop-color="#00050A"/><stop offset=".45" stop-color="#001224"/><stop offset=".81" stop-color="#01264F"/><stop offset="1" stop-color="#013369"/></linearGradient><linearGradient id="paint9_linear_167_3" x1="-3387.82" y1="5496.33" x2="-1587.9" y2="6131.76" gradientUnits="userSpaceOnUse"><stop/><stop offset=".17" stop-color="#00050A"/><stop offset=".45" stop-color="#001224"/><stop offset=".81" stop-color="#01264F"/><stop offset="1" stop-color="#013369"/></linearGradient><linearGradient id="paint10_linear_167_3" x1="-2381.19" y1="3392.21" x2="-1773.16" y2="3078.75" gradientUnits="userSpaceOnUse"><stop/><stop offset=".17" stop-color="#00050A"/><stop offset=".45" stop-color="#001224"/><stop offset=".81" stop-color="#01264F"/><stop offset="1" stop-color="#013369"/></linearGradient><linearGradient id="paint12_linear_167_3" x1="-711.123" y1="1324.03" x2="-690.186" y2="1224.41" gradientUnits="userSpaceOnUse"><stop/><stop offset=".17" stop-color="#00050A"/><stop offset=".45" stop-color="#001224"/><stop offset=".81" stop-color="#01264F"/><stop offset="1" stop-color="#013369"/></linearGradient><linearGradient id="paint13_linear_167_3" x1="-1217.85" y1="1173.82" x2="-1156.63" y2="986.175" gradientUnits="userSpaceOnUse"><stop/><stop offset=".17" stop-color="#00050A"/><stop offset=".45" stop-color="#001224"/><stop offset=".81" stop-color="#01264F"/><stop offset="1" stop-color="#013369"/></linearGradient><linearGradient id="paint14_linear_167_3" x1="0" y1="73.442" x2="75.514" y2="73.442" gradientUnits="userSpaceOnUse"><stop/><stop offset="1" stop-color="#013369"/></linearGradient><linearGradient id="paint15_linear_167_3" x1="177.074" y1="35.472" x2="181.491" y2="34.076" gradientUnits="userSpaceOnUse"><stop/><stop offset=".7" stop-color="#01244A"/><stop offset="1" stop-color="#013369"/></linearGradient><linearGradient id="paint16_linear_167_3" x1="2398.18" y1="563.776" x2="2467.47" y2="560.111" gradientUnits="userSpaceOnUse"><stop/><stop offset="1" stop-color="#013369"/></linearGradient><linearGradient id="paint18_linear_167_3" x1="7992.04" y1="1095.78" x2="9546.8" y2="168.1" gradientUnits="userSpaceOnUse"><stop/><stop offset="1" stop-color="#013369"/></linearGradient><linearGradient id="paint19_linear_167_3" x1="5860.34" y1="617.669" x2="6758.38" y2="617.669" gradientUnits="userSpaceOnUse"><stop/><stop offset="1" stop-color="#013369"/></linearGradient><linearGradient id="paint23_linear_167_3" x1="1336.11" y1="472.275" x2="1358.63" y2="485.832" gradientUnits="userSpaceOnUse"><stop/><stop offset="1" stop-color="#013369"/></linearGradient><linearGradient id="paint24_linear_167_3" x1="148.447" y1="7.102" x2="164.633" y2=".481" gradientUnits="userSpaceOnUse"><stop/><stop offset=".24" stop-color="#001325"/><stop offset=".58" stop-color="#012B55"/><stop offset=".85" stop-color="#013A73"/><stop offset="1" stop-color="#01407E"/></linearGradient><linearGradient id="paint30_linear_167_3" x1="168.14" y1="23.817" x2="169.668" y2="23.19" gradientUnits="userSpaceOnUse"><stop/><stop offset=".23" stop-color="#000C19"/><stop offset=".72" stop-color="#012C57"/><stop offset="1" stop-color="#01407E"/></linearGradient><linearGradient id="paint32_linear_167_3" x1="888.19" y1="1110.78" x2="930.19" y2="1011.04" gradientUnits="userSpaceOnUse"><stop/><stop offset=".17" stop-color="#00050A"/><stop offset=".45" stop-color="#001224"/><stop offset=".81" stop-color="#01264F"/><stop offset="1" stop-color="#013369"/></linearGradient><linearGradient id="paint33_linear_167_3" x1="956.127" y1="1254.35" x2="1057.52" y2="1166.39" gradientUnits="userSpaceOnUse"><stop/><stop offset=".17" stop-color="#00050A"/><stop offset=".45" stop-color="#001224"/><stop offset=".81" stop-color="#01264F"/><stop offset="1" stop-color="#013369"/></linearGradient><linearGradient id="paint37_linear_167_3" x1="161.048" y1="14.742" x2="169.604" y2="14.742" gradientUnits="userSpaceOnUse"><stop/><stop offset=".52" stop-color="#012242"/><stop offset="1" stop-color="#013F7C"/></linearGradient><radialGradient id="paint11_radial_167_3" cx="0" cy="0" r="1" gradientUnits="userSpaceOnUse" gradientTransform="matrix(68.5546 0 0 54.7738 93.894 2.027)"><stop stop-color="#012A56"/><stop offset=".69" stop-color="#000E1C"/><stop offset="1"/></radialGradient><radialGradient id="paint17_radial_167_3" cx="0" cy="0" r="1" gradientUnits="userSpaceOnUse" gradientTransform="matrix(41.4048 0 0 33.0816 151.571 27.435)"><stop stop-color="#012348"/><stop offset=".37" stop-color="#001224"/><stop offset=".61" stop-color="#000912"/><stop offset="1" stop-color="#00152A"/></radialGradient><radialGradient id="paint20_radial_167_3" cx="0" cy="0" r="1" gradientUnits="userSpaceOnUse" gradientTransform="matrix(3346.71 0 0 3702.3 10869.4 2447.38)"><stop stop-color="#012348"/><stop offset=".37" stop-color="#001224"/><stop offset=".61" stop-color="#000912"/><stop offset="1" stop-color="#00152A"/></radialGradient><radialGradient id="paint21_radial_167_3" cx="0" cy="0" r="1" gradientUnits="userSpaceOnUse" gradientTransform="rotate(21.059 55.372 455.55) scale(29.7556 24.2749)"><stop stop-color="#01305F"/><stop offset=".62" stop-color="#000B15"/><stop offset="1" stop-color="#000E1C"/></radialGradient><radialGradient id="paint22_radial_167_3" cx="0" cy="0" r="1" gradientUnits="userSpaceOnUse" gradientTransform="matrix(17.3022 0 0 13.8241 166.712 12.903)"><stop stop-color="#01407E"/><stop offset="1" stop-color="#000D1A"/></radialGradient><radialGradient id="paint25_radial_167_3" cx="0" cy="0" r="1" gradientUnits="userSpaceOnUse" gradientTransform="matrix(6.55805 2.52518 -2.06006 5.3501 162.602 6.26)"><stop offset=".03" stop-color="#013F7C"/><stop offset=".18" stop-color="#013364"/><stop offset=".54" stop-color="#00172E"/><stop offset=".82" stop-color="#00060D"/><stop offset=".96"/></radialGradient><radialGradient id="paint26_radial_167_3" cx="0" cy="0" r="1" gradientUnits="userSpaceOnUse" gradientTransform="matrix(4.91935 1.8942 -1.54531 4.01326 160.141 29.064)"><stop stop-color="#011A35"/><stop offset="1"/></radialGradient><radialGradient id="paint27_radial_167_3" cx="0" cy="0" r="1" gradientUnits="userSpaceOnUse" gradientTransform="matrix(4.32017 1.66348 -1.35708 3.52442 168.857 19.32)"><stop stop-color="#012348"/><stop offset=".61" stop-color="#001224"/><stop offset="1" stop-color="#000912"/></radialGradient><radialGradient id="paint28_radial_167_3" cx="0" cy="0" r="1" gradientUnits="userSpaceOnUse" gradientTransform="matrix(2.1783 .83874 -.68425 1.77707 166.612 18.357)"><stop stop-color="#FFD800"/><stop offset="1" stop-color="#D6681F"/></radialGradient><radialGradient id="paint29_radial_167_3" cx="0" cy="0" r="1" gradientUnits="userSpaceOnUse" gradientTransform="matrix(8.21658 3.1638 -2.58105 6.70315 167.238 21.175)"><stop stop-color="#01407E"/><stop offset=".21" stop-color="#012E5B"/><stop offset=".52" stop-color="#00152B"/><stop offset=".68" stop-color="#000C19"/><stop offset="1" stop-color="#00152A"/></radialGradient><radialGradient id="paint31_radial_167_3" cx="0" cy="0" r="1" gradientUnits="userSpaceOnUse" gradientTransform="matrix(-1.62396 -.1653 .1232 -1.2103 166.928 17.64)"><stop stop-color="#013369"/><stop offset="1"/></radialGradient><radialGradient id="paint34_radial_167_3" cx="0" cy="0" r="1" gradientUnits="userSpaceOnUse" gradientTransform="matrix(2258.86 0 0 3970.53 5307.75 14343)"><stop stop-color="#012348"/><stop offset=".37" stop-color="#001224"/><stop offset=".61" stop-color="#000912"/><stop offset="1" stop-color="#00152A"/></radialGradient><radialGradient id="paint35_radial_167_3" cx="0" cy="0" r="1" gradientUnits="userSpaceOnUse" gradientTransform="rotate(10.855 -34916.874 38262.804) scale(3778.46 5667.99)"><stop stop-color="#012348"/><stop offset=".37" stop-color="#001224"/><stop offset=".61" stop-color="#000912"/><stop offset="1" stop-color="#00152A"/></radialGradient><radialGradient id="paint36_radial_167_3" cx="0" cy="0" r="1" gradientUnits="userSpaceOnUse" gradientTransform="matrix(20.38528 -.85723 .75804 18.02647 65.32 103.161)"><stop stop-color="#013063"/><stop offset=".67" stop-color="#001021"/><stop offset="1"/></radialGradient><clipPath id="clip0_167_3"><path fill="#fff" d="M0 0h200v115H0z"/></clipPath></defs></svg>