<svg xmlns="http://www.w3.org/2000/svg" xmlns:xlink="http://www.w3.org/1999/xlink" viewBox="0 0 24 24"><path d="M17.9 22.9c-4 0-9.9-4.2-13.3-8.5-3-3.8-4.1-7.3-3-9.8.1-.2.2-.4.4-.6.5-.5 1.7-1.8 2.4-2.4.6-.5 1.6-.7 2.4 0l.1.1c1.2 1.1 1.4 1.2 2.9 2.8 1.1 1.1 1.1 2.3 0 3.4-.3.1-.6.4-.9.7-.5.4-.6 1.1-.3 1.6 1.3 2.2 2.8 3.7 5 5.1.5.3 1.1.2 1.6-.2s.9-.9 1.2-1.1c.8-.7 1.9-.7 2.6 0l.5.5c.6.6 1.4 1.5 2.8 2.7.4.3.6.9.6 1.5 0 .5-.2.9-.5 1.2-1 1-2.1 2-2.6 2.5-.3.3-.6.4-1 .5h-.9zM2.6 5c-.9 2.1.1 5.2 2.8 8.6 4 4.9 10 8.6 13.1 8 .1 0 .3-.1.4-.2.6-.5 1.6-1.5 2.6-2.4 0 0 .1-.2.1-.4s-.1-.5-.2-.6c-1.3-1.3-2.2-2.1-2.8-2.7l-.5-.5c-.2-.2-.6-.2-.9.1-.2.1-.7.6-1.2 1-.8.8-2.1 1-3 .4-2.4-1.5-4-3.1-5.4-5.5-.6-1-.4-2.3.5-3.1.3-.2.5-.5.8-.8.6-.6.6-1.1 0-1.7-1.5-1.5-1.6-1.6-2.8-2.7H6c-.4-.3-.8 0-.9 0-.6.5-1.9 1.9-2.3 2.2-.1.1-.1.2-.2.3z"/></svg>