<?xml version="1.0" encoding="UTF-8"?><!DOCTYPE svg PUBLIC "-//W3C//DTD SVG 1.1//EN" "http://www.w3.org/Graphics/SVG/1.1/DTD/svg11.dtd"><svg xmlns="http://www.w3.org/2000/svg" xmlns:xlink="http://www.w3.org/1999/xlink"><defs><linearGradient id="a" x1="7395.35" y1="2718.4" x2="7544.89" y2="2392.51" gradientUnits="userSpaceOnUse"><stop stop-color="#fff"/></linearGradient><linearGradient id="b" x1="-3387.82" y1="6882.36" x2="-1512.62" y2="7411.05" gradientUnits="userSpaceOnUse"><stop offset="1" stop-color="#fff"/></linearGradient><linearGradient id="b" x1="101.543" y1="116.24" x2="101.76" y2="90.241" gradientUnits="userSpaceOnUse"><stop stop-color="#AB2E27"/><stop offset=".3" stop-color="#BC4629"/><stop offset=".75" stop-color="#D0642B"/><stop offset="1" stop-color="#D86F2C"/></linearGradient><linearGradient id="c" x1="1369.01" y1="8742.71" x2="1212.44" y2="8732.19" gradientUnits="userSpaceOnUse"><stop stop-color="#AB2E27"/><stop offset=".3" stop-color="#BC4629"/><stop offset=".75" stop-color="#D0642B"/><stop offset="1" stop-color="#D86F2C"/></linearGradient><linearGradient id="d" x1="90.499" y1="88.764" x2="111.271" y2="90.134" gradientUnits="userSpaceOnUse"><stop stop-color="#8B2E18"/><stop offset=".14" stop-color="#9C411F"/><stop offset=".53" stop-color="#C67132"/><stop offset=".83" stop-color="#E08F3E"/><stop offset="1" stop-color="#EA9A42"/></linearGradient><linearGradient id="e" x1="143.184" y1="115.542" x2="143.588" y2="56.436" gradientUnits="userSpaceOnUse"><stop stop-color="#4F2EA6"/><stop offset=".04" stop-color="#382290"/><stop offset="1" stop-color="#56B3EF"/></linearGradient><linearGradient id="f" x1="132.163" y1="88.133" x2="115.476" y2="79.895" gradientUnits="userSpaceOnUse"><stop stop-color="#382290"/><stop offset="1" stop-color="#56B3EF"/></linearGradient><linearGradient id="g" x1="187.065" y1="115.402" x2="186.905" y2="47.109" gradientUnits="userSpaceOnUse"><stop stop-color="#E08327"/><stop offset="1" stop-color="#FFD115"/></linearGradient><linearGradient id="h" x1="174.051" y1="77.499" x2="153.976" y2="62.627" gradientUnits="userSpaceOnUse"><stop stop-color="#E08327"/><stop offset="1" stop-color="#FFCE00"/></linearGradient><linearGradient id="i" x1="132.909" y1="58.155" x2="136.302" y2="52.175" gradientUnits="userSpaceOnUse"><stop/><stop offset=".17" stop-color="#00050A"/><stop offset=".45" stop-color="#001224"/><stop offset=".81" stop-color="#01264F"/><stop offset="1" stop-color="#013369"/></linearGradient><linearGradient id="j" x1="7395.35" y1="2170.94" x2="7497.14" y2="1893.19" gradientUnits="userSpaceOnUse"><stop/><stop offset=".17" stop-color="#00050A"/><stop offset=".45" stop-color="#001224"/><stop offset=".81" stop-color="#01264F"/><stop offset="1" stop-color="#013369"/></linearGradient><linearGradient id="k" x1="-3387.82" y1="5496.33" x2="-1587.9" y2="6131.76" gradientUnits="userSpaceOnUse"><stop/><stop offset=".17" stop-color="#00050A"/><stop offset=".45" stop-color="#001224"/><stop offset=".81" stop-color="#01264F"/><stop offset="1" stop-color="#013369"/></linearGradient><linearGradient id="l" x1="-2381.19" y1="3392.21" x2="-1773.16" y2="3078.75" gradientUnits="userSpaceOnUse"><stop/><stop offset=".17" stop-color="#00050A"/><stop offset=".45" stop-color="#001224"/><stop offset=".81" stop-color="#01264F"/><stop offset="1" stop-color="#013369"/></linearGradient><linearGradient id="n" x1="-711.123" y1="1324.03" x2="-690.186" y2="1224.41" gradientUnits="userSpaceOnUse"><stop/><stop offset=".17" stop-color="#00050A"/><stop offset=".45" stop-color="#001224"/><stop offset=".81" stop-color="#01264F"/><stop offset="1" stop-color="#013369"/></linearGradient><linearGradient id="o" x1="-1217.85" y1="1173.82" x2="-1156.63" y2="986.175" gradientUnits="userSpaceOnUse"><stop/><stop offset=".17" stop-color="#00050A"/><stop offset=".45" stop-color="#001224"/><stop offset=".81" stop-color="#01264F"/><stop offset="1" stop-color="#013369"/></linearGradient><linearGradient id="p" x1="0" y1="73.442" x2="75.514" y2="73.442" gradientUnits="userSpaceOnUse"><stop/><stop offset="1" stop-color="#013369"/></linearGradient><linearGradient id="q" x1="177.074" y1="35.472" x2="181.491" y2="34.076" gradientUnits="userSpaceOnUse"><stop/><stop offset=".7" stop-color="#01244A"/><stop offset="1" stop-color="#013369"/></linearGradient><linearGradient id="r" x1="2398.18" y1="563.776" x2="2467.47" y2="560.111" gradientUnits="userSpaceOnUse"><stop/><stop offset="1" stop-color="#013369"/></linearGradient><linearGradient id="t" x1="7992.04" y1="1095.78" x2="9546.8" y2="168.1" gradientUnits="userSpaceOnUse"><stop/><stop offset="1" stop-color="#013369"/></linearGradient><linearGradient id="u" x1="5860.34" y1="617.669" x2="6758.38" y2="617.669" gradientUnits="userSpaceOnUse"><stop/><stop offset="1" stop-color="#013369"/></linearGradient><linearGradient id="y" x1="1336.11" y1="472.275" x2="1358.63" y2="485.832" gradientUnits="userSpaceOnUse"><stop/><stop offset="1" stop-color="#013369"/></linearGradient><linearGradient id="z" x1="148.447" y1="7.102" x2="164.633" y2=".481" gradientUnits="userSpaceOnUse"><stop/><stop offset=".24" stop-color="#001325"/><stop offset=".58" stop-color="#012B55"/><stop offset=".85" stop-color="#013A73"/><stop offset="1" stop-color="#01407E"/></linearGradient><linearGradient id="F" x1="168.14" y1="23.817" x2="169.668" y2="23.19" gradientUnits="userSpaceOnUse"><stop/><stop offset=".23" stop-color="#000C19"/><stop offset=".72" stop-color="#012C57"/><stop offset="1" stop-color="#01407E"/></linearGradient><linearGradient id="H" x1="888.19" y1="1110.78" x2="930.19" y2="1011.04" gradientUnits="userSpaceOnUse"><stop/><stop offset=".17" stop-color="#00050A"/><stop offset=".45" stop-color="#001224"/><stop offset=".81" stop-color="#01264F"/><stop offset="1" stop-color="#013369"/></linearGradient><linearGradient id="I" x1="956.127" y1="1254.35" x2="1057.52" y2="1166.39" gradientUnits="userSpaceOnUse"><stop/><stop offset=".17" stop-color="#00050A"/><stop offset=".45" stop-color="#001224"/><stop offset=".81" stop-color="#01264F"/><stop offset="1" stop-color="#013369"/></linearGradient><linearGradient id="M" x1="161.048" y1="14.742" x2="169.604" y2="14.742" gradientUnits="userSpaceOnUse"><stop/><stop offset=".52" stop-color="#012242"/><stop offset="1" stop-color="#013F7C"/></linearGradient><radialGradient id="m" cx="0" cy="0" r="1" gradientUnits="userSpaceOnUse" gradientTransform="matrix(68.5546 0 0 54.7738 93.894 2.027)"><stop stop-color="#012A56"/><stop offset=".69" stop-color="#000E1C"/><stop offset="1"/></radialGradient><radialGradient id="s" cx="0" cy="0" r="1" gradientUnits="userSpaceOnUse" gradientTransform="matrix(41.4048 0 0 33.0816 151.571 27.435)"><stop stop-color="#012348"/><stop offset=".37" stop-color="#001224"/><stop offset=".61" stop-color="#000912"/><stop offset="1" stop-color="#00152A"/></radialGradient><radialGradient id="v" cx="0" cy="0" r="1" gradientUnits="userSpaceOnUse" gradientTransform="matrix(3346.71 0 0 3702.3 10869.4 2447.38)"><stop stop-color="#012348"/><stop offset=".37" stop-color="#001224"/><stop offset=".61" stop-color="#000912"/><stop offset="1" stop-color="#00152A"/></radialGradient><radialGradient id="w" cx="0" cy="0" r="1" gradientUnits="userSpaceOnUse" gradientTransform="rotate(21.059 55.372 455.55) scale(29.7556 24.2749)"><stop stop-color="#01305F"/><stop offset=".62" stop-color="#000B15"/><stop offset="1" stop-color="#000E1C"/></radialGradient><radialGradient id="x" cx="0" cy="0" r="1" gradientUnits="userSpaceOnUse" gradientTransform="matrix(17.3022 0 0 13.8241 166.712 12.903)"><stop stop-color="#01407E"/><stop offset="1" stop-color="#000D1A"/></radialGradient><radialGradient id="A" cx="0" cy="0" r="1" gradientUnits="userSpaceOnUse" gradientTransform="matrix(6.55805 2.52518 -2.06006 5.3501 162.602 6.26)"><stop offset=".03" stop-color="#013F7C"/><stop offset=".18" stop-color="#013364"/><stop offset=".54" stop-color="#00172E"/><stop offset=".82" stop-color="#00060D"/><stop offset=".96"/></radialGradient><radialGradient id="B" cx="0" cy="0" r="1" gradientUnits="userSpaceOnUse" gradientTransform="matrix(4.91935 1.8942 -1.54531 4.01326 160.141 29.064)"><stop stop-color="#011A35"/><stop offset="1"/></radialGradient><radialGradient id="C" cx="0" cy="0" r="1" gradientUnits="userSpaceOnUse" gradientTransform="matrix(4.32017 1.66348 -1.35708 3.52442 168.857 19.32)"><stop stop-color="#012348"/><stop offset=".61" stop-color="#001224"/><stop offset="1" stop-color="#000912"/></radialGradient><radialGradient id="D" cx="0" cy="0" r="1" gradientUnits="userSpaceOnUse" gradientTransform="rotate(21.059 33.924 457.369) scale(2.33419 1.90425)"><stop stop-color="#FFD800"/><stop offset="1" stop-color="#D6681F"/></radialGradient><radialGradient id="E" cx="0" cy="0" r="1" gradientUnits="userSpaceOnUse" gradientTransform="matrix(8.21658 3.1638 -2.58105 6.70315 167.238 21.175)"><stop stop-color="#01407E"/><stop offset=".21" stop-color="#012E5B"/><stop offset=".52" stop-color="#00152B"/><stop offset=".68" stop-color="#000C19"/><stop offset="1" stop-color="#00152A"/></radialGradient><radialGradient id="G" cx="0" cy="0" r="1" gradientUnits="userSpaceOnUse" gradientTransform="matrix(-1.62396 -.1653 .1232 -1.2103 166.928 17.64)"><stop stop-color="#013369"/><stop offset="1"/></radialGradient><radialGradient id="J" cx="0" cy="0" r="1" gradientUnits="userSpaceOnUse" gradientTransform="matrix(2258.86 0 0 3970.53 5307.75 14343)"><stop stop-color="#012348"/><stop offset=".37" stop-color="#001224"/><stop offset=".61" stop-color="#000912"/><stop offset="1" stop-color="#00152A"/></radialGradient><radialGradient id="K" cx="0" cy="0" r="1" gradientUnits="userSpaceOnUse" gradientTransform="rotate(10.855 -34916.874 38262.804) scale(3778.46 5667.99)"><stop stop-color="#012348"/><stop offset=".37" stop-color="#001224"/><stop offset=".61" stop-color="#000912"/><stop offset="1" stop-color="#00152A"/></radialGradient><radialGradient id="L" cx="0" cy="0" r="1" gradientUnits="userSpaceOnUse" gradientTransform="matrix(20.38528 -.85723 .75804 18.02647 65.32 103.161)"><stop stop-color="#013063"/><stop offset=".67" stop-color="#001021"/><stop offset="1"/></radialGradient><clipPath id="a"><path fill="#fff" d="M0 0h200v115H0z"/></clipPath></defs><symbol id="all" viewBox="0 0 48 48"><path d="M10 26h28v-4H10v4zm-4 8h28v-4H6v4zm8-20v4h28v-4H14z"/><path d="M0 0h48v48H0z" fill="none"/></symbol><symbol id="cat"><path d="M131.394 62.585c2.668 6.572 5.919 8.112 10.011 6.943 2.261-.643 3.458 4.278 3.059 5.475s-6.042.399-7.678.534c-3.709.3-18.977-14.03-5.392-12.952Z" fill="#fff"/><path d="M120.202 65.09c1.703-4.828 6.517-6.783 12.532 3.436 2.596 4.39 7.091.846 8.938 2.443 1.229 1.065 1.117 4.345.531 4.656l-10.809.052c-1.62-3.507-11.99-8.328-11.192-10.586Z" fill="url(#a)"/><path d="M107.475 71.77c-4.571 6.577-16.505 19.897-16.505 24.797 0 8.778-10.737 4.313-9.891 2.214 1.04-2.597 2.548-7.462 2.696-16.36.163-9.916 30.197-20.008 23.7-10.65Z" fill="url(#b)"/><path d="M94.233 112.345c-3.825-.18-3.833-2.794-12.173-10.722-5.317-5.068 8.902-5.942 8.91-5.068.008.874-.14 6.181 6.194 10.375 3.586 2.358.894 5.598-2.931 5.415ZM167.362 24.485c.798-1.373 2.393-2.534 1.32-4.956-1.073-2.422-2.102-4.022-7.378-8.332-2.314-1.883-6.147-4.856-12.401-4.174-2.879.315-8.288 4.174-15.264 7.626-4.104 2.063-18.136 5.93-20.162 9.493-21.318 30.514-33.615 25.841-41.88 32.226-9.647 1.556-1.088 39.7 3.59 39.856 4.68.155 21.008-20.706 40.285-26.002a58.268 58.268 0 0 0 9.297-3.395c9.971-4.673 17.761-12.83 21.98-26.496a15.675 15.675 0 0 1 2.932-6.453c1.005-.977 2.744-2.195 4.734-1.48 3.127 1.125 7.16 3.647 10.291 1.333 3.131-2.315 3.705-3.84 3.705-3.84s.882-.558.259-1.655c-.754-1.377-1.95-2.662-1.308-3.751Z" fill="#fff"/><path d="M97.164 106.918c4.029-2.53 6.254-.862 7.056 1.767.85 2.794-4.387 2.654-6.78 2.299-2.394-.355-.276-4.066-.276-4.066Z" fill="#fff"/><path d="M92.047 111.531c.734 1.951 9.872 1.225 11.048.514 1.177-.71.148-3.902-2.062-3.898-2.21.004-9.724 1.432-8.986 3.384ZM74.218 53.331s-18.467 2.51-27.52 27.821C35.968 111.2 12 122.72 3.13 121.307c-6.553-1.033-1.867 8.232 5.289 9.178 7.155.946 21.478-3.699 36.108-29.078 4.455-7.73 9.648-36.915 26.607-38.626 7.51-.759 3.083-9.45 3.083-9.45ZM175.67 42.274s1.695-1.644 2.541-.942c.49.4 2.481 3.48 2.122 4.322a2.845 2.845 0 0 1-1.735 1.512c-1.36.228-2.928-4.892-2.928-4.892Z" fill="#fff"/><path d="M177.178 48.563a8.72 8.72 0 0 0 2.684-.767c1.125-.502-1.256-4.696-1.902-4.963-.647-.268-2.314.59-2.764 1.288-.451.699.698 4.294 1.982 4.442Z" fill="#fff"/><path d="M174.254 43.826a1.377 1.377 0 0 1 2.13.471c.87 1.464 3.522 4.278 2.334 5.008-3.235 1.995-9.062-3-15.468-2.299-3.482.4-15.711 9.286-23.289 12.071-4.862 1.788-6.529 1.054-9.668 1.66-4.184.798-4.926.914-4.443-1.017.482-1.932 5.867-13.069 8.073-14.05 6.489-2.89 16.328-2.89 23.308-5.156 3.833-1.245 5.891-2.31 7.216-1.871 2.193.726 9.807 5.183 9.807 5.183Z" fill="#fff"/><path d="M139.506 41.157s1.995 3.747 17.725-.643c0 0 5.516 2.267-22.734 11.037-3.546 1.122 5.009-10.394 5.009-10.394ZM164.227 38.59c-.75.4-1.436 1.445.116 3.353 1.42 1.743 2.572 3.108 10.717 3.59 3.342.204 3.215-3.99 2.62-4.389-1.364-.973-4.359.667-7.977-.49-1.755-.551-5.041-2.29-5.476-2.063Z" fill="#fff"/><path d="M116.213 20.056c-11.227 4.56-5.759 35.223 9.573 40.98 2.728 1.026 13.96-11.544 14.642-18.255 2.201-21.86-16.122-26.021-24.215-22.725ZM141.477 25.882c-2.589-4.925 6.353-13.272 11.73-14.366 5.002-1.033 6.657 3.62 9.142 9.39.797 1.82 4.786 5.854 1.711 10.115-1.328 1.804-18.407 2.813-22.583-5.14Z" fill="#fff"/><path d="M158.368 8.855c-3.298-2.08-9.572 1.763-5.512 2.342 2.082.3 4.686-.479 8.456 8.5.398.917 4.275.878 6.206 0-.323 1.963-.674 4.517-.267 5.43.63 1.417.019 2.686.49 3.704.471 1.017 1.145 1.388 1.157 0 .012-1.39-1.899-2.977-.216-5.344 3.805-5.303-8.527-13.51-10.314-14.632ZM160.965 10.215S162.261 5.71 162.7 4.8c.438-.91-2.166-.18-3.267 1.549-1.101 1.728 1.532 3.866 1.532 3.866Z" fill="#fff"/><path d="M161.304 11.197c-1.596-3.62-.06-7.506-.148-9.728-.072-1.808-.869-1.676-1.715-1.034-4.1 3.156-10.27 5.399-11.359 7.606-.379.798.654 2.585 5.125 3.455 0 0-.287-6.432 8.097-.299Z" fill="#fff"/><path d="M161.304 11.197c-.922-4.238.02-8.779-.172-10.008-.064-.351-.104-1.36-.718-.674a18.106 18.106 0 0 1-2.393 2.554c-2.792 2.438-4.18 5.89-4.244 6.36 1.193-1.297 3.57-1.313 7.527 1.768ZM159.9 31.608c-1.484-.623-8.293.69-6.689.578 1.603-.111 4.519 1.672 6.928 2.303 3.753.981 4.595-.758 4.595-.758s.335.06-4.834-2.123ZM161 20.244s5.02-.824 6.551-1.228c.837-.216 1.811 1.82 1.314 3.756-.239.943-1.623 1.632-1.389 2.368.585 1.832 1.167 3.217.619 3.848-.318.385-6.091-9.022-7.095-8.744Z" fill="#fff"/><path d="M163.764 21.456s-2.911-2.194-2.791-1.141c.227 2.055 1.025 2.741 1.38 5.1.315 2.087-8.017 6.412 2.819 8.415.611.112 3.171-1.596 3.271-2.829a20.877 20.877 0 0 0-3.478-7.003c-.79-1.061-1.504-2.45-1.201-2.542Z" fill="#fff"/><path d="M167.725 28.842c.399-.243.949.236 1.157 0a.858.858 0 0 1 .662.798c0 .56-1.105 1.345-1.105 1.345s-1.32-1.78-.714-2.143ZM52.808 136.011s2.6-.367 3.414-.187c.814.179 3.761 2.945 2.637 3.962-1.125 1.018-1.197.116-3.215.18-2.018.064-4.902-1.137-2.836-3.955Z" fill="#fff"/><path d="M52.952 141.454s2.66.758 4.419-.239c1.759-.998-1.815-3.735-2.453-4.39-.638-.654-5.018.272-5.018.272s.42 4.106 3.052 4.357Z" fill="#fff"/><path d="M65.097 75.976s-12.632 36.376-17.913 41.101c0 0 2.046 4.501 5.54 6.676-3.11 3.244-3.214 14.142-2.572 14.457.83.399 3.466.714 2.656-3.077-.81-3.79 3.43-11.831 3.43-11.831 2.992-4.629 9.353-15.395 18.93-23.982 3.11-2.79-6.294-27.633-10.071-23.344Z" fill="#fff"/><path d="M97.164 65.282c2.669 8.32-5.707 26.668-22.012 34.05-8.113 3.675-14.526-14.262-11.336-26.632 5.516-21.32 23.473-38.183 33.348-7.418ZM54.539 142.723s2.353-4.154-3.342-5.263c-1.84-.355 4.538-11.026 3.825-15.499-.714-4.473-8.807-8.092-8.273-2.905.427 4.174.603 8.504-1.475 14.705-2.078 6.201 1.551 9.608 9.265 8.962ZM161.056 20.064s6.817-1.066 8.181-.036c0 0 1.224-2.486-.798-3.12-1.32-.42-7.646 1.919-7.383 3.156Z" fill="#fff"/></symbol><symbol id="css" viewBox="0 0 1104 1024"><path d="M381.535 872.296c-62.838 0-113.778-50.94-113.778-113.778V493.037c0-62.838 50.94-113.778 113.778-113.778h341.333v-75.852h-189.63c-41.892 0-75.852-33.96-75.852-75.852V-.001H78.127c-41.892 0-75.852 33.96-75.852 75.852v872.296c0 41.892 33.96 75.852 75.852 75.852h568.889c41.892 0 75.852-33.96 75.852-75.852v-75.852zM495.313 0l227.556 265.481h-189.63c-20.946 0-37.926-16.98-37.926-37.926V-.001zm530.963 417.185c41.892 0 75.852 33.96 75.852 75.852v265.481c0 41.892-33.96 75.852-75.852 75.852H381.535c-41.892 0-75.852-33.96-75.852-75.852V493.037c0-41.892 33.96-75.852 75.852-75.852zM533.239 682.667c0 20.946-16.98 37.926-37.926 37.926h-37.926c-20.946 0-37.926-16.98-37.926-37.926V568.889c0-20.946 16.98-37.926 37.926-37.926h37.926c20.946 0 37.926 16.98 37.926 37.926h37.926c0-41.892-33.96-75.852-75.852-75.852h-37.926c-41.892 0-75.852 33.96-75.852 75.852v113.778c0 41.892 33.96 75.852 75.852 75.852h37.926c41.892 0 75.852-33.96 75.852-75.852zm151.703-189.63c-41.892 0-75.852 33.96-75.852 75.852s33.96 75.852 75.852 75.852h37.926c20.946 0 37.926 16.98 37.926 37.926s-16.98 37.926-37.926 37.926h-37.926c-20.946 0-37.926-16.98-37.926-37.926H609.09c0 41.892 33.96 75.852 75.852 75.852h37.926c41.892 0 75.852-33.96 75.852-75.852s-33.96-75.852-75.852-75.852h-37.926c-20.946 0-37.926-16.98-37.926-37.926s16.98-37.926 37.926-37.926h37.926c20.946 0 37.926 16.98 37.926 37.926h37.926c0-41.892-33.96-75.852-75.852-75.852zm227.556 0c-41.892 0-75.852 33.96-75.852 75.852s33.96 75.852 75.852 75.852h37.926c20.946 0 37.926 16.98 37.926 37.926s-16.98 37.926-37.926 37.926h-37.926c-20.946 0-37.926-16.98-37.926-37.926h-37.926c0 41.892 33.96 75.852 75.852 75.852h37.926c41.892 0 75.852-33.96 75.852-75.852s-33.96-75.852-75.852-75.852h-37.926c-20.946 0-37.926-16.98-37.926-37.926s16.98-37.926 37.926-37.926h37.926c20.946 0 37.926 16.98 37.926 37.926h37.926c0-41.892-33.96-75.852-75.852-75.852z"/></symbol><symbol id="email" viewBox="0 0 16 16"><path d="M14.594 1.906H1.406C.632 1.906 0 2.537 0 3.313v9.374c0 .773.629 1.407 1.406 1.407h13.188c.772 0 1.406-.63 1.406-1.406V3.312c0-.772-.629-1.406-1.406-1.406Zm-.194.938-6.37 6.37-6.425-6.37H14.4ZM.937 12.494V3.501l4.515 4.476-4.514 4.515Zm.663.662 4.518-4.518 1.583 1.57a.469.469 0 0 0 .662-.002l1.543-1.543 4.494 4.493H1.6Zm13.463-.663L10.569 8l4.493-4.493v8.986Z"/></symbol><symbol id="github" viewBox="0 0 64 64"><path d="M32 0C14.327 0 0 14.327 0 32c0 17.673 14.327 32 32 32s32-14.327 32-32C64 14.327 49.673 0 32 0z"/><path d="M38.592 50.166H28.908s.014-2.874 0-4.844c-6.629 1.428-8.479-3.633-8.479-3.633-1.21-2.423-2.423-3.633-2.423-3.633-2.423-1.438 0-1.21 0-1.21 2.423 0 3.633 2.423 3.633 2.423 2.126 3.609 5.908 3.028 7.266 2.423 0-1.21.53-3.042 1.21-3.633-5.29-.595-9.693-3.633-9.693-9.689s1.216-7.266 2.427-8.479c-.244-.597-1.259-2.805.037-6.056 0 0 2.38 0 4.803 3.633 1.2-1.2 4.844-1.21 6.056-1.21 1.208 0 4.854.01 6.054 1.21 2.423-3.633 4.809-3.633 4.809-3.633 1.296 3.251.282 5.459.037 6.056 1.21 1.21 2.423 2.423 2.423 8.479s-4.397 9.092-9.689 9.689c.682.591 1.21 2.675 1.21 3.633l.003 8.474z" fill="#212529"/></symbol><symbol id="html" viewBox="0 0 727 1024"><path d="M113.035 92.141h42.205v46.384h46.384V0H155.24v45.757h-42.205V0H66.651v138.525h46.384V92.141zM262.425 138.525h46.384V45.966h40.743V0H221.683v45.966h40.743v92.559zM414.949 69.785l31.967 49.309h.836l31.758-49.309v68.74h46.175V0h-48.264l-29.669 48.682L418.083 0h-48.264v138.525h45.13v-68.74zM660.032 92.768h-65.188V0h-46.175v138.525h111.363V92.768zM0 199.117l66.233 742.562 297.108 82.112 297.317-82.321 66.233-742.353zm583.352 242.785H234.845l8.357 93.395h332.001l-25.072 279.558-186.581 51.816-186.79-51.816-12.954-146.256h91.305l6.895 75.844 101.334 27.371 101.543-27.371 10.447-118.049H160.044l-24.655-275.379h456.109z"/></symbol><symbol id="jquery" viewBox="0 0 1024 1024"><path d="M68.634 252.108C-21.12 381.1-9.938 548.926 58.614 685.998c1.632 3.288 3.34 6.518 5.026 9.76 1.074 2.04 2.088 4.144 3.206 6.16.628 1.214 1.338 2.398 1.996 3.558 1.172 2.19 2.364 4.262 3.58 6.398a586.862 586.862 0 0 0 6.544 11.212c1.236 2.05 2.456 4.1 3.73 6.148a494.95 494.95 0 0 0 7.598 11.886c1.08 1.682 2.13 3.364 3.238 4.988 3.574 5.336 7.228 10.662 10.996 15.888.098.13.206.272.316.402.596.846 1.258 1.67 1.86 2.506 3.258 4.5 6.626 8.936 10.02 13.338 1.252 1.596 2.522 3.2 3.78 4.804a674.285 674.285 0 0 0 9.262 11.386c1.176 1.41 2.354 2.83 3.542 4.218 4.212 4.958 8.512 9.902 12.912 14.75.076.088.178.186.26.272.178.206.336.336.494.532 4.29 4.686 8.676 9.274 13.124 13.85a464.299 464.299 0 0 0 4.202 4.24c3.444 3.458 6.942 6.854 10.476 10.27 1.436 1.356 2.858 2.754 4.284 4.066a521.858 521.858 0 0 0 14.354 13.058c.086.086.146.152.228.184.824.738 1.68 1.444 2.494 2.126a706.59 706.59 0 0 0 13.042 11.03c1.79 1.442 3.6 2.874 5.402 4.304a568.692 568.692 0 0 0 10.872 8.492c1.93 1.474 3.866 2.95 5.812 4.426 4.03 2.95 8.09 5.886 12.196 8.74a216.107 216.107 0 0 0 4.448 3.156c.412.292.792.596 1.214.876 3.894 2.668 7.868 5.262 11.842 7.832 1.708 1.136 3.406 2.308 5.13 3.414 6.1 3.852 12.288 7.668 18.544 11.368 1.704.964 3.416 1.92 5.124 2.884a597.411 597.411 0 0 0 13.92 7.808c2.532 1.366 5.14 2.656 7.694 3.958 3.318 1.746 6.604 3.502 9.966 5.172.764.39 1.556.76 2.31 1.118 1.344.65 2.71 1.292 4.072 1.974a691.084 691.084 0 0 0 15.78 7.308c1.134.498 2.224.998 3.346 1.486a540.978 540.978 0 0 0 18.416 7.668c1.486.596 2.988 1.17 4.486 1.768 5.732 2.202 11.54 4.38 17.368 6.432.742.26 1.454.498 2.184.746 6.404 2.246 12.868 4.316 19.38 6.346 1.55.456 3.112.956 4.674 1.41 6.626 1.994 13.166 4.37 20.01 5.638C867.41 1066.5 993.49 726.516 993.49 726.516 887.606 864.468 699.642 900.864 521.556 860.344c-6.752-1.518-13.292-3.622-19.876-5.574a470.5 470.5 0 0 1-4.96-1.506 604.992 604.992 0 0 1-19.136-6.224c-.868-.304-1.746-.628-2.63-.946-5.676-1.994-11.284-4.098-16.876-6.258-1.578-.628-3.156-1.224-4.728-1.854a527.097 527.097 0 0 1-18.22-7.58c-1.242-.522-2.424-1.074-3.638-1.618a705.536 705.536 0 0 1-15.378-7.136c-1.464-.714-2.94-1.408-4.436-2.134-3.992-1.942-7.95-4.014-11.886-6.042-2.64-1.388-5.324-2.71-7.932-4.154-4.816-2.58-9.544-5.26-14.246-7.992-1.6-.9-3.21-1.758-4.816-2.68-6.258-3.686-12.44-7.504-18.556-11.376-1.686-1.072-3.34-2.222-5.004-3.328-4.436-2.864-8.856-5.77-13.2-8.786-1.442-.954-2.84-2.016-4.256-2.982a682.706 682.706 0 0 1-12.484-9.022c-1.866-1.378-3.714-2.81-5.53-4.188-3.78-2.894-7.542-5.8-11.262-8.806a712.691 712.691 0 0 1-5.022-4.024c-4.734-3.892-9.408-7.796-14.028-11.81-.482-.434-1.008-.846-1.534-1.29-4.99-4.392-9.902-8.894-14.744-13.416-1.41-1.344-2.776-2.646-4.154-4.002a425.04 425.04 0 0 1-10.594-10.378c-1.388-1.388-2.788-2.766-4.154-4.142a588.168 588.168 0 0 1-13.002-13.762c-.212-.228-.434-.434-.64-.684a523.617 523.617 0 0 1-13.188-15.01 1828.987 1828.987 0 0 0-3.454-4.1 548.209 548.209 0 0 1-9.484-11.734 245.651 245.651 0 0 1-3.488-4.328c-3.73-4.848-7.384-9.672-10.964-14.598-98.878-134.846-134.4-320.862-55.378-473.626z"/><path d="M347.234 143.428c-64.908 93.41-61.382 218.43-10.752 317.22 8.492 16.56 18.036 32.622 28.712 47.924 9.722 13.936 20.498 30.518 33.402 41.708 4.686 5.152 9.572 10.184 14.566 15.12 1.264 1.302 2.554 2.528 3.844 3.806 4.842 4.686 9.776 9.316 14.874 13.806.21.174.396.378.608.52.054.064.108.088.14.152 5.64 4.936 11.462 9.696 17.378 14.37 1.312.998 2.614 2.05 3.942 3.08 5.926 4.544 11.974 9.024 18.176 13.276.184.128.342.26.526.412 2.734 1.876 5.526 3.642 8.292 5.456 1.334.868 2.598 1.79 3.938 2.602a376.254 376.254 0 0 0 13.47 8.254c.644.402 1.28.726 1.904 1.096 3.93 2.266 7.916 4.5 11.914 6.658 1.394.792 2.814 1.474 4.236 2.212 2.76 1.444 5.52 2.906 8.334 4.316.406.196.846.39 1.252.564 5.72 2.818 11.496 5.532 17.384 8.09 1.254.552 2.554 1.05 3.84 1.582 4.702 1.996 9.462 3.95 14.234 5.782 2.028.77 4.078 1.496 6.106 2.246 4.332 1.606 8.694 3.078 13.08 4.554 1.984.628 3.93 1.28 5.916 1.886 6.24 1.93 12.406 4.38 18.912 5.464 335.12 55.528 412.494-202.5 412.494-202.5-69.75 100.424-204.81 148.372-348.936 110.956a407.51 407.51 0 0 1-18.972-5.488c-1.92-.584-3.806-1.214-5.706-1.844a398.075 398.075 0 0 1-13.28-4.574 310.048 310.048 0 0 1-5.992-2.224 445.694 445.694 0 0 1-14.29-5.77c-1.286-.552-2.592-1.042-3.85-1.626a416.476 416.476 0 0 1-17.488-8.112c-2.956-1.456-5.856-2.982-8.762-4.468-1.682-.878-3.374-1.746-5.06-2.614a417.453 417.453 0 0 1-11.1-6.258c-.862-.498-1.768-.964-2.646-1.498a430.492 430.492 0 0 1-13.438-8.198c-1.366-.878-2.678-1.822-4.044-2.712a515.957 515.957 0 0 1-8.704-5.758c-6.176-4.25-12.19-8.718-18.112-13.252-1.366-1.074-2.738-2.126-4.078-3.2-63.092-49.812-113.086-117.886-136.86-195.06-24.916-80.058-19.552-169.9 23.616-242.822z"/><path d="M581.548 62.232c-38.262 56.308-42.02 126.238-15.47 188.434 27.996 66.014 85.368 117.8 152.336 142.342 2.76 1.03 5.514 1.952 8.318 2.896 1.218.38 2.428.792 3.664 1.15 3.944 1.246 7.864 2.69 11.942 3.458 185.04 35.756 235.23-94.96 248.592-114.2-43.972 63.302-117.85 78.498-208.508 56.504-7.164-1.758-15.038-4.338-21.936-6.79a267.577 267.577 0 0 1-26.048-10.812c-16.094-7.734-31.436-17.124-45.67-27.862-81.116-61.556-131.518-178.976-78.582-274.61z"/></symbol><symbol id="logo-long"><g clip-path="url(#a)"><path d="M114.793 90.523H88.649V115h26.144V90.523Z" fill="url(#b)"/><path d="m94.548 112.365-1.771-16.297h19.452l-1.775 16.293-7.965 1.814-7.941-1.81Z" fill="#C54E2D"/><path d="m102.505 112.788 6.433-1.462 1.516-13.926h-7.949v15.388Z" fill="#D36531"/><path d="M102.505 103.445h-3.223l-.223-2.046h3.446v-1.998H96.398l.056.535.603 5.507h5.448v-1.998ZM102.505 108.636l-.012.003-2.712-.602-.172-1.593H97.164l.34 3.139 4.989 1.134.012-.003v-2.078Z" fill="#E9E9E9"/><path d="M94.588 91.641h1.236v1.004h1.133V91.64h1.236v3.037h-1.236v-1.016h-1.133v1.016h-1.236v-3.037ZM99.82 92.648h-1.088v-1.007h3.418v1.007h-1.089v2.03h-1.24v-2.03ZM102.692 91.641h1.289l.797 1.068.798-1.068h1.292v3.037h-1.232v-1.504l-.854 1.08h-.02l-.853-1.08v1.504h-1.197l-.02-3.037ZM107.474 91.641h1.237v2.05h1.743v1.003h-2.98v-3.053Z" fill="#000"/><path d="M102.493 103.445v1.998h2.999l-.283 2.594-2.716.599v2.081l4.993-1.134.036-.338.571-5.265.059-.535h-5.659ZM102.493 99.401v1.998h5.883l.048-.449.111-1.014.06-.535h-6.102Z" fill="#fff"/><path d="M82.622 87.62v23.091l6.027 4.181v-24.37l-6.027-2.902Z" fill="url(#c)"/><path d="m114.789 90.523-7.929-2.903H82.622l6.027 2.903h26.14Z" fill="url(#d)"/><path d="M156.557 60.344h-26.145v54.545h26.145V60.344Z" fill="url(#e)"/><path d="M124.501 60.347v50.364l6.027 4.181V60.347h-6.027Z" fill="url(#f)"/><path d="m143.471 99.459-7.933-1.795-1.771-16.163h19.432l-1.771 16.16-7.977 1.797h.02Z" fill="#384EDE"/><path d="m149.912 96.632 1.512-13.809h-7.941v15.262l6.429-1.453Z" fill="#4365EC"/><path d="m137.823 88.818.215 1.982h5.445v-1.982h-5.66Zm-.439-4.012.22 1.982h5.879v-1.982h-6.099Zm6.099 9.158-2.72-.592-.172-1.594h-2.441l.339 3.11 4.982 1.129.012-2.053Z" fill="#E9E9E9"/><path d="M138.342 77.12h2.943v1.003h-1.711v1.004h1.715v1.004h-2.947v-3.012Zm3.533 0h2.948v.873h-1.715v.172h1.715v2.01h-2.948v-.917h1.711v-.176h-1.715V77.12h.004Zm3.538 0h2.96v.873h-1.715v.172h1.715v2.01h-2.944v-.917h1.711v-.176h-1.711V77.12h-.016Z" fill="#000"/><path d="m149.126 88.818.443-4.012h-6.094v1.982h3.426l-.219 2.03h-3.191V90.8h2.995l-.283 2.568-2.712.6v2.061l4.985-1.128.036-.334.575-5.217.055-.532h-.016Z" fill="#fff"/><path d="M200 39.917h-26.145v74.975H200V39.917Z" fill="url(#g)"/><path d="m167.829 45.825 6.026-5.908v74.975l-6.026-4.181V45.825Z" fill="url(#h)"/><path d="m180.999 57.062 1.914-.924c.367.523.702.956 1.508.956s1.26-.242 1.26-1.182v-6.374h2.35v6.412c0 1.944-1.424 2.83-3.506 2.83a4.38 4.38 0 0 1-2.097-.422c-.63-.306-1.128-.758-1.429-1.296ZM189.307 56.861l1.914-.886c.507.657 1.161 1.141 2.318 1.141.973 0 1.595-.389 1.595-.927 0-.638-.638-.87-1.711-1.246l-.59-.201c-1.696-.577-2.82-1.3-2.82-2.83 0-1.408 1.344-2.482 3.442-2.482 1.496 0 2.568.414 3.342 1.5l-1.831.957c-.398-.577-.841-.807-1.511-.807a1.268 1.268 0 0 0-.419.037c-.135.036-.26.093-.365.169a.863.863 0 0 0-.25.272.696.696 0 0 0-.091.329c0 .564.439.79 1.444 1.14l.586.201c1.994.685 3.123 1.383 3.123 2.951 0 1.69-1.659 2.616-3.893 2.616-2.233 0-3.589-.831-4.283-1.912" fill="#000"/><path d="M131.394 49.981c2.668 5.249 5.919 6.479 10.011 5.545 2.261-.513 3.458 3.416 3.059 4.372s-6.043.319-7.678.427c-3.709.24-18.977-11.204-5.392-10.344Z" fill="url(#i)"/><path d="M120.202 51.982c1.703-3.856 6.517-5.417 12.532 2.744 2.596 3.505 7.091.676 8.938 1.95 1.228.851 1.117 3.47.53 3.72l-10.808.04c-1.62-2.8-11.99-6.65-11.192-8.454Z" fill="url(#j)"/><path d="M107.474 57.317c-4.57 5.252-16.504 15.889-16.504 19.802 0 7.011-10.737 3.445-9.891 1.769 1.04-2.075 2.548-5.96 2.696-13.066.163-7.919 30.197-15.978 23.699-8.505Z" fill="url(#k)"/><path d="M94.233 89.72c-3.825-.144-3.833-2.231-12.173-8.563-5.317-4.047 8.902-4.745 8.91-4.047.008.698-.14 4.936 6.194 8.285 3.586 1.884.894 4.471-2.931 4.325Z" fill="url(#l)"/><path d="M167.362 19.554c.798-1.096 2.393-2.024 1.32-3.958-1.073-1.934-2.102-3.212-7.379-6.654-2.313-1.504-6.146-3.878-12.4-3.333-2.88.252-8.288 3.333-15.264 6.09-4.104 1.647-18.136 4.735-20.162 7.58-21.318 24.37-33.615 20.638-41.88 25.737-9.647 1.243-1.088 31.705 3.59 31.83 4.679.123 21.008-16.537 40.284-20.766 3.19-.691 6.3-1.599 9.298-2.712 9.971-3.731 17.76-10.245 21.98-21.16.472-1.874 1.475-3.636 2.932-5.152 1.005-.781 2.744-1.753 4.734-1.183 3.127.899 7.16 2.913 10.291 1.065 3.131-1.849 3.705-3.066 3.705-3.066s.881-.446.259-1.323c-.754-1.099-1.95-2.125-1.308-2.995Z" fill="url(#m)"/><path d="M97.164 85.386c4.029-2.02 6.254-.689 7.056 1.411.849 2.231-4.388 2.12-6.78 1.836-2.394-.284-.276-3.247-.276-3.247Z" fill="url(#n)"/><path d="M92.047 89.07c.734 1.558 9.871.978 11.048.41 1.177-.567.148-3.116-2.062-3.113-2.21.003-9.724 1.144-8.986 2.703Z" fill="url(#o)"/><path d="M74.218 42.59s-18.467 2.005-27.52 22.219C35.968 88.805 12 98.005 3.13 96.877c-6.553-.825-1.867 6.574 5.289 7.33 7.155.755 21.478-2.955 36.108-23.222 4.455-6.173 9.648-29.48 26.607-30.848 7.51-.605 3.083-7.546 3.083-7.546Z" fill="url(#p)"/><path d="M175.67 33.76s1.695-1.313 2.541-.752c.49.319 2.481 2.78 2.122 3.451a2.402 2.402 0 0 1-.708.751 3.104 3.104 0 0 1-1.027.457c-1.36.182-2.928-3.907-2.928-3.907Z" fill="url(#q)"/><path d="M177.178 38.783c.93-.088 1.836-.294 2.684-.612 1.125-.402-1.256-3.751-1.903-3.965-.646-.213-2.313.472-2.764 1.03-.45.558.698 3.429 1.983 3.547Z" fill="url(#r)"/><path d="M174.254 35c.162-.108.352-.185.557-.225.205-.04.418-.042.624-.006.206.036.398.11.563.215.164.105.297.24.386.392.869 1.17 3.522 3.416 2.333 4-3.234 1.593-9.062-2.397-15.467-1.836-3.482.319-15.711 7.415-23.289 9.64-4.862 1.427-6.529.841-9.668 1.325-4.184.638-4.926.73-4.443-.812.482-1.543 5.867-10.437 8.072-11.22 6.49-2.308 16.329-2.308 23.309-4.118 3.833-.994 5.891-1.845 7.215-1.495 2.194.58 9.808 4.14 9.808 4.14Z" fill="url(#s)"/><path d="M139.506 32.868s1.994 2.992 17.725-.513c0 0 5.516 1.81-22.734 8.815-3.546.895 5.009-8.302 5.009-8.302Z" fill="url(#t)"/><path d="M164.227 30.819c-.75.319-1.436 1.154.116 2.677 1.42 1.392 2.572 2.482 10.717 2.868 3.342.163 3.215-3.187 2.62-3.505-1.364-.778-4.359.532-7.977-.392-1.755-.44-5.041-1.83-5.476-1.648Z" fill="url(#u)"/><path d="M116.213 16.017c-11.227 3.642-5.759 28.129 9.573 32.728 2.728.818 13.96-9.22 14.642-14.58 2.201-17.457-16.122-20.78-24.215-18.148Z" fill="url(#v)"/><path d="M141.477 20.67c-2.589-3.933 6.353-10.6 11.73-11.473 5.001-.825 6.657 2.89 9.141 7.498.798 1.453 4.787 4.675 1.712 8.079-1.329 1.44-18.407 2.246-22.583-4.105Z" fill="url(#w)"/><path d="M158.368 7.072c-3.299-1.66-9.573 1.408-5.512 1.87 2.082.24 4.686-.382 8.455 6.788.399.733 4.276.701 6.207 0-.324 1.568-.675 3.607-.268 4.337.63 1.131.02 2.145.491 2.957.471.813 1.145 1.11 1.157 0 .012-1.109-1.899-2.377-.216-4.267 3.805-4.235-8.527-10.79-10.314-11.685Z" fill="url(#x)"/><path d="M160.964 8.158s1.297-3.598 1.735-4.324c.439-.727-2.165-.144-3.266 1.236s1.531 3.088 1.531 3.088Z" fill="url(#y)"/><path d="M161.303 8.942c-1.595-2.89-.059-5.994-.147-7.769-.072-1.444-.87-1.338-1.715-.825-4.1 2.52-10.271 4.311-11.36 6.074-.378.637.655 2.065 5.126 2.76 0 0-.287-5.138 8.096-.24Z" fill="url(#z)"/><path d="M161.303 8.942c-.921-3.384.02-7.01-.171-7.992-.064-.28-.104-1.087-.718-.539a16.437 16.437 0 0 1-2.393 2.04c-2.792 1.947-4.18 4.703-4.244 5.08 1.193-1.036 3.57-1.049 7.526 1.411Z" fill="url(#A)"/><path d="M159.9 25.242c-1.484-.497-8.293.552-6.689.462 1.603-.089 4.519 1.336 6.928 1.84 3.753.783 4.595-.606 4.595-.606s.335.047-4.834-1.696Z" fill="url(#B)"/><path d="M161.056 16.023s4.786-.682 6.246-1.017c.798-.178 1.727 1.508 1.253 3.11-.228.782-1.548 1.352-1.325 1.96.559 1.517 1.113 2.665.591 3.187-.303.319-5.808-7.47-6.765-7.24Z" fill="url(#C)"/><path d="M163.764 17.135a22.919 22.919 0 0 1 2.673-.455c.399-.042.865 1.944-1.125 2.868a11.448 11.448 0 0 1-1.595-2.033c-.076-.22-.104-.354.047-.38Z" fill="url(#D)"/><path d="M163.764 17.135s-2.911-1.752-2.792-.911c.228 1.641 1.025 2.19 1.38 4.073.316 1.666-8.016 5.12 2.82 6.72.611.09 3.171-1.274 3.271-2.26-.708-2.022-1.888-3.92-3.478-5.592-.79-.848-1.504-1.956-1.201-2.03Z" fill="url(#E)"/><path d="M167.725 23.034c.399-.194.949.188 1.157 0a.911.911 0 0 1 .464.23.62.62 0 0 1 .198.407c0 .446-1.105 1.074-1.105 1.074s-1.32-1.421-.714-1.711Z" fill="url(#F)"/><path d="M166.668 17.745c.091-.574-.106-1.068-.44-1.102-.334-.034-.68.404-.771.979-.092.574.105 1.067.439 1.102.335.034.68-.404.772-.979Z" fill="url(#G)"/><path d="M52.808 108.62s2.6-.293 3.414-.15c.814.144 3.761 2.352 2.636 3.165-1.124.812-1.196.092-3.214.143-2.018.051-4.902-.908-2.836-3.158Z" fill="url(#H)"/><path d="M52.952 112.967s2.66.605 4.419-.191c1.759-.797-1.815-2.983-2.453-3.506-.638-.522-5.018.217-5.018.217s.42 3.279 3.052 3.48Z" fill="url(#I)"/><path d="M65.097 60.676s-12.632 29.05-17.913 32.823c0 0 2.046 3.595 5.54 5.332-3.11 2.59-3.215 11.293-2.572 11.545.83.319 3.466.571 2.656-2.457-.81-3.027 3.43-9.448 3.43-9.448 2.991-3.697 9.353-12.295 18.93-19.153 3.11-2.227-6.294-22.068-10.072-18.642Z" fill="url(#J)"/><path d="M97.164 52.135c2.668 6.645-5.707 21.297-22.012 27.193-8.113 2.935-14.527-11.39-11.336-21.269 5.516-17.026 23.473-30.494 33.348-5.924Z" fill="url(#K)"/><path d="M54.539 113.98s2.353-3.317-3.343-4.203c-1.838-.284 4.54-8.805 3.826-12.377-.714-3.573-8.807-6.463-8.273-2.32.427 3.333.603 6.791-1.475 11.743-2.078 4.952 1.551 7.674 9.265 7.157Z" fill="url(#L)"/><path d="M161.056 16.023s6.817-.85 8.181-.029c0 0 1.224-1.985-.798-2.492-1.32-.334-7.646 1.533-7.383 2.521Z" fill="url(#M)"/></g></symbol><symbol id="phone" viewBox="0 0 24 24"><path d="M17.9 22.9c-4 0-9.9-4.2-13.3-8.5-3-3.8-4.1-7.3-3-9.8.1-.2.2-.4.4-.6.5-.5 1.7-1.8 2.4-2.4.6-.5 1.6-.7 2.4 0l.1.1c1.2 1.1 1.4 1.2 2.9 2.8 1.1 1.1 1.1 2.3 0 3.4-.3.1-.6.4-.9.7-.5.4-.6 1.1-.3 1.6 1.3 2.2 2.8 3.7 5 5.1.5.3 1.1.2 1.6-.2s.9-.9 1.2-1.1c.8-.7 1.9-.7 2.6 0l.5.5c.6.6 1.4 1.5 2.8 2.7.4.3.6.9.6 1.5 0 .5-.2.9-.5 1.2-1 1-2.1 2-2.6 2.5-.3.3-.6.4-1 .5h-.9zM2.6 5c-.9 2.1.1 5.2 2.8 8.6 4 4.9 10 8.6 13.1 8 .1 0 .3-.1.4-.2.6-.5 1.6-1.5 2.6-2.4 0 0 .1-.2.1-.4s-.1-.5-.2-.6c-1.3-1.3-2.2-2.1-2.8-2.7l-.5-.5c-.2-.2-.6-.2-.9.1-.2.1-.7.6-1.2 1-.8.8-2.1 1-3 .4-2.4-1.5-4-3.1-5.4-5.5-.6-1-.4-2.3.5-3.1.3-.2.5-.5.8-.8.6-.6.6-1.1 0-1.7-1.5-1.5-1.6-1.6-2.8-2.7H6c-.4-.3-.8 0-.9 0-.6.5-1.9 1.9-2.3 2.2-.1.1-.1.2-.2.3z"/></symbol><symbol id="sprite"><symbol id="www" viewBox="0 0 346 299"><style>.st1{fill:#fff}</style><path id="canvas_background" d="M-85-106h514v514H-85z" style="fill:none"/><path id="svg_6" class="st1" d="M118.4 113.7c4 0 7.7-.4 11.2.2 1.4.3 3 2.7 3.4 4.4 4.6 17.7 9 35.5 13.5 53.3.2.8.5 1.5.9 3 4.3-13.8 8.3-26.9 12.4-39.9 1.8-5.7 4-11.3 5.3-17.2.1-.5.5-2 1.8-3.1 2.6-2.4 7.5-2.4 10.2-.1 1.3 1.2 1.8 2.7 2 3.2 5.1 17.8 10.5 35.4 15.8 53.1.3 1 .7 2.1 1.2 3.4 4.7-17 9.3-33.6 13.9-50.1 3.1-11.2 3.1-11.2 16-9.7-.9 2.9-1.8 5.6-2.7 8.4-6.6 20.4-13.4 40.8-19.6 61.4-.2.5-.7 2.1-2.2 3.4-2.9 2.4-8 2.5-10.8.1-1.4-1.2-2-2.8-2.1-3.4-4.9-17.1-10.2-34.1-15.4-51.2-.3-1.1-.7-2.2-1.1-3.2-4.7 14.5-9.3 28.8-13.9 43.2-1.3 4.1-2.8 8.2-4.1 12.3-.2.7-.8 1.7-1.8 2.7-2.8 2.4-7.7 2.3-10.5.1-1.4-1.2-2-2.7-2.1-3.1-1.2-3.4-9.6-31.9-21.3-71.2z"/><path id="svg_8" class="st1" d="M291.7 197.9c-4.7 12-11.2 23.2-19.1 33.1-14.9-8.4-30.6-14.9-46.7-19.3 1.4-4.6 2.7-9.2 3.8-13.9h-9.9c-1 3.9-2 7.7-3.2 11.5-13-2.9-26.2-4.5-39.5-4.8v-6.7h-9.7v6.8c-13.3.3-26.6 1.9-39.6 4.8-1.2-3.8-2.3-7.7-3.2-11.6h-9.9c1.1 4.7 2.4 9.3 3.8 13.9-16.1 4.4-31.8 10.8-46.6 19.2-7.9-9.9-14.4-21.1-19.1-33.1h-16c19.4 56.2 72.7 96.6 135.6 96.6S288.6 254 308 197.8h-16.3v.1zM78.1 238.5c13.8-7.6 28.3-13.5 43.3-17.5 7.5 20.6 18.4 39.9 32.2 57.2-29.6-4.4-56-18.7-75.5-39.7zm89.2 40.8c-15.9-18.1-28.2-38.6-36.5-60.7 12-2.6 24.2-4.1 36.5-4.4v65.1zm9.7-65c12.2.3 24.4 1.7 36.4 4.4-8.1 21.8-20.2 42.4-36.4 60.7v-65.1zm13.6 63.8c14-17.5 24.8-36.9 32.2-57.2 15 4 29.5 9.9 43.4 17.5-19.5 21.1-45.9 35.5-75.6 39.7z"/><path id="svg_9" class="st1" d="M52.6 104.4c4.7-12 11.2-23.2 19.1-33.1 14.9 8.4 30.5 14.9 46.6 19.2-1.4 4.6-2.7 9.2-3.8 13.9h10c1-3.9 2-7.8 3.2-11.6 13 2.9 26.3 4.5 39.6 4.8v6.8h9.7v-6.8c13.2-.3 26.5-1.9 39.5-4.8 1.2 3.8 2.3 7.7 3.2 11.6h9.9c-1.1-4.7-2.3-9.3-3.8-13.9 16.2-4.4 31.9-10.8 46.7-19.3 7.9 9.9 14.3 21.1 19 33.1h16C288.1 48.1 234.8 7.7 171.9 7.7S55.7 48.1 36.3 104.3h16.3v.1zm213.6-40.6c-13.8 7.7-28.4 13.5-43.4 17.5-7.4-20.3-18.1-39.7-32.2-57.2 29.7 4.3 56.1 18.7 75.6 39.7zM177 22.9c16.2 18.3 28.3 38.9 36.4 60.7-12 2.6-24.1 4-36.4 4.4V22.9zm-9.7 65c-12.2-.3-24.4-1.8-36.5-4.4 8.2-22.1 20.5-42.7 36.5-60.7v65.1zm-13.7-63.8c-13.9 17.3-24.8 36.6-32.2 57.2-14.9-4-29.5-9.9-43.3-17.5 19.5-21 45.9-35.4 75.5-39.7z"/><path id="svg_10" class="st1" d="M232 113.8c4 0 7.7-.4 11.2.2 1.4.3 3 2.7 3.4 4.4 4.6 17.7 9 35.5 13.5 53.3.2.8.5 1.5.9 3 4.3-13.8 8.3-26.9 12.4-39.9 1.8-5.7 4-11.3 5.3-17.2.1-.5.5-2 1.8-3.1 2.6-2.4 7.5-2.4 10.2-.1 1.3 1.2 1.8 2.7 2 3.2 5.1 17.8 10.5 35.4 15.8 53.1.3 1 .7 2.1 1.2 3.4 4.7-17 9.3-33.6 13.9-50.1 3.1-11.2 3.1-11.2 16-9.7-.9 2.9-1.8 5.6-2.7 8.4-6.6 20.4-13.4 40.8-19.6 61.4-.2.5-.7 2.1-2.2 3.4-2.9 2.4-8 2.5-10.8.1-1.4-1.2-2-2.8-2.1-3.4-4.9-17.1-10.2-34.1-15.4-51.2-.3-1.1-.7-2.2-1.1-3.2-4.7 14.5-9.3 28.8-13.9 43.2-1.3 4.1-2.8 8.2-4.1 12.3-.2.7-.8 1.7-1.8 2.7-2.8 2.4-7.7 2.3-10.5.1-1.4-1.2-2-2.7-2.1-3.1-1.2-3.4-9.7-31.9-21.3-71.2z"/><path id="svg_11" class="st1" d="M6.8 113.7c4 0 7.7-.4 11.2.2 1.4.3 3 2.7 3.4 4.4 4.6 17.7 9 35.5 13.5 53.3.2.8.5 1.5.9 3 4.3-13.8 8.3-26.9 12.4-39.9 1.8-5.7 4-11.3 5.3-17.2.1-.5.5-2 1.8-3.1 2.6-2.4 7.5-2.4 10.2-.1 1.3 1.2 1.8 2.7 2 3.2 5.1 17.8 10.5 35.4 15.8 53.1.3 1 .7 2.1 1.2 3.4 4.7-17 9.3-33.6 13.9-50.1 3.1-11.2 3.1-11.2 16-9.7-.9 2.9-1.8 5.6-2.7 8.4-6.6 20.4-13.4 40.8-19.6 61.4-.2.5-.7 2.1-2.2 3.4-2.9 2.4-8 2.5-10.8.1-1.4-1.2-2-2.8-2.1-3.4-4.9-17.1-10.2-34.1-15.4-51.2-.3-1.1-.7-2.2-1.1-3.2-4.7 14.5-9.3 28.8-13.9 43.2-1.3 4.1-2.8 8.2-4.1 12.3-.2.7-.8 1.7-1.8 2.7-2.8 2.4-7.7 2.3-10.5.1-1.4-1.2-2-2.7-2.1-3.1-1.2-3.5-9.6-32-21.3-71.2z"/></symbol></symbol><symbol id="www" viewBox="0 0 128 128"><path d="M64 126A62 62 0 1 0 2 64a62.05 62.05 0 0 0 62 62ZM16 88.7l25.2-.2a89.75 89.75 0 0 0 13.9 28.7A54.08 54.08 0 0 1 16 88.7ZM47.6 47H79a84.84 84.84 0 0 1 .2 33.3l-31.6.2a82.18 82.18 0 0 1 0-33.5Zm15.7 67.9a80.27 80.27 0 0 1-13.7-26.4l27.5-.2a84.49 84.49 0 0 1-13.8 26.6Zm8 2.6a88.17 88.17 0 0 0 14.1-29.3l26.9-.2a54.13 54.13 0 0 1-41 29.5ZM118 64a55.77 55.77 0 0 1-2.4 16l-28.3.2a90.39 90.39 0 0 0-.2-33.2h28.1a53.15 53.15 0 0 1 2.8 17Zm-6.2-25H85.2a92 92 0 0 0-13.9-28.5A53.77 53.77 0 0 1 111.8 39Zm-34.9 0H49.7a82.62 82.62 0 0 1 13.6-25.9A82.62 82.62 0 0 1 76.9 39ZM55.1 10.8A88.86 88.86 0 0 0 41.4 39H16.2a53.81 53.81 0 0 1 38.9-28.2ZM39.5 47a92 92 0 0 0-.1 33.5l-26.7.2A51.72 51.72 0 0 1 10 64a53.15 53.15 0 0 1 2.8-17Z"/></symbol></svg>