<?xml version="1.0" encoding="UTF-8"?><!DOCTYPE svg PUBLIC "-//W3C//DTD SVG 1.1//EN" "http://www.w3.org/Graphics/SVG/1.1/DTD/svg11.dtd"><svg xmlns="http://www.w3.org/2000/svg" xmlns:xlink="http://www.w3.org/1999/xlink"><symbol id="all" viewBox="0 0 48 48"><path d="M10 26h28v-4H10v4zm-4 8h28v-4H6v4zm8-20v4h28v-4H14z"/><path d="M0 0h48v48H0z" fill="none"/></symbol><symbol id="css" viewBox="0 0 1104 1024"><path d="M381.535 872.296c-62.838 0-113.778-50.94-113.778-113.778V493.037c0-62.838 50.94-113.778 113.778-113.778h341.333v-75.852h-189.63c-41.892 0-75.852-33.96-75.852-75.852V-.001H78.127c-41.892 0-75.852 33.96-75.852 75.852v872.296c0 41.892 33.96 75.852 75.852 75.852h568.889c41.892 0 75.852-33.96 75.852-75.852v-75.852zM495.313 0l227.556 265.481h-189.63c-20.946 0-37.926-16.98-37.926-37.926V-.001zm530.963 417.185c41.892 0 75.852 33.96 75.852 75.852v265.481c0 41.892-33.96 75.852-75.852 75.852H381.535c-41.892 0-75.852-33.96-75.852-75.852V493.037c0-41.892 33.96-75.852 75.852-75.852zM533.239 682.667c0 20.946-16.98 37.926-37.926 37.926h-37.926c-20.946 0-37.926-16.98-37.926-37.926V568.889c0-20.946 16.98-37.926 37.926-37.926h37.926c20.946 0 37.926 16.98 37.926 37.926h37.926c0-41.892-33.96-75.852-75.852-75.852h-37.926c-41.892 0-75.852 33.96-75.852 75.852v113.778c0 41.892 33.96 75.852 75.852 75.852h37.926c41.892 0 75.852-33.96 75.852-75.852zm151.703-189.63c-41.892 0-75.852 33.96-75.852 75.852s33.96 75.852 75.852 75.852h37.926c20.946 0 37.926 16.98 37.926 37.926s-16.98 37.926-37.926 37.926h-37.926c-20.946 0-37.926-16.98-37.926-37.926H609.09c0 41.892 33.96 75.852 75.852 75.852h37.926c41.892 0 75.852-33.96 75.852-75.852s-33.96-75.852-75.852-75.852h-37.926c-20.946 0-37.926-16.98-37.926-37.926s16.98-37.926 37.926-37.926h37.926c20.946 0 37.926 16.98 37.926 37.926h37.926c0-41.892-33.96-75.852-75.852-75.852zm227.556 0c-41.892 0-75.852 33.96-75.852 75.852s33.96 75.852 75.852 75.852h37.926c20.946 0 37.926 16.98 37.926 37.926s-16.98 37.926-37.926 37.926h-37.926c-20.946 0-37.926-16.98-37.926-37.926h-37.926c0 41.892 33.96 75.852 75.852 75.852h37.926c41.892 0 75.852-33.96 75.852-75.852s-33.96-75.852-75.852-75.852h-37.926c-20.946 0-37.926-16.98-37.926-37.926s16.98-37.926 37.926-37.926h37.926c20.946 0 37.926 16.98 37.926 37.926h37.926c0-41.892-33.96-75.852-75.852-75.852z"/></symbol><symbol id="github" viewBox="0 0 64 64"><path d="M32 0C14.327 0 0 14.327 0 32c0 17.673 14.327 32 32 32s32-14.327 32-32C64 14.327 49.673 0 32 0z"/><path d="M38.592 50.166H28.908s.014-2.874 0-4.844c-6.629 1.428-8.479-3.633-8.479-3.633-1.21-2.423-2.423-3.633-2.423-3.633-2.423-1.438 0-1.21 0-1.21 2.423 0 3.633 2.423 3.633 2.423 2.126 3.609 5.908 3.028 7.266 2.423 0-1.21.53-3.042 1.21-3.633-5.29-.595-9.693-3.633-9.693-9.689s1.216-7.266 2.427-8.479c-.244-.597-1.259-2.805.037-6.056 0 0 2.38 0 4.803 3.633 1.2-1.2 4.844-1.21 6.056-1.21 1.208 0 4.854.01 6.054 1.21 2.423-3.633 4.809-3.633 4.809-3.633 1.296 3.251.282 5.459.037 6.056 1.21 1.21 2.423 2.423 2.423 8.479s-4.397 9.092-9.689 9.689c.682.591 1.21 2.675 1.21 3.633l.003 8.474z" fill="#212529"/></symbol><symbol id="html" viewBox="0 0 727 1024"><path d="M113.035 92.141h42.205v46.384h46.384V0H155.24v45.757h-42.205V0H66.651v138.525h46.384V92.141zM262.425 138.525h46.384V45.966h40.743V0H221.683v45.966h40.743v92.559zM414.949 69.785l31.967 49.309h.836l31.758-49.309v68.74h46.175V0h-48.264l-29.669 48.682L418.083 0h-48.264v138.525h45.13v-68.74zM660.032 92.768h-65.188V0h-46.175v138.525h111.363V92.768zM0 199.117l66.233 742.562 297.108 82.112 297.317-82.321 66.233-742.353zm583.352 242.785H234.845l8.357 93.395h332.001l-25.072 279.558-186.581 51.816-186.79-51.816-12.954-146.256h91.305l6.895 75.844 101.334 27.371 101.543-27.371 10.447-118.049H160.044l-24.655-275.379h456.109z"/></symbol><symbol id="jquery" viewBox="0 0 1024 1024"><path d="M68.634 252.108C-21.12 381.1-9.938 548.926 58.614 685.998c1.632 3.288 3.34 6.518 5.026 9.76 1.074 2.04 2.088 4.144 3.206 6.16.628 1.214 1.338 2.398 1.996 3.558 1.172 2.19 2.364 4.262 3.58 6.398a586.862 586.862 0 006.544 11.212c1.236 2.05 2.456 4.1 3.73 6.148a494.95 494.95 0 007.598 11.886c1.08 1.682 2.13 3.364 3.238 4.988 3.574 5.336 7.228 10.662 10.996 15.888.098.13.206.272.316.402.596.846 1.258 1.67 1.86 2.506 3.258 4.5 6.626 8.936 10.02 13.338 1.252 1.596 2.522 3.2 3.78 4.804a674.285 674.285 0 009.262 11.386c1.176 1.41 2.354 2.83 3.542 4.218 4.212 4.958 8.512 9.902 12.912 14.75.076.088.178.186.26.272.178.206.336.336.494.532 4.29 4.686 8.676 9.274 13.124 13.85a464.299 464.299 0 004.202 4.24c3.444 3.458 6.942 6.854 10.476 10.27 1.436 1.356 2.858 2.754 4.284 4.066a521.858 521.858 0 0014.354 13.058c.086.086.146.152.228.184.824.738 1.68 1.444 2.494 2.126a706.59 706.59 0 0013.042 11.03c1.79 1.442 3.6 2.874 5.402 4.304a568.692 568.692 0 0010.872 8.492c1.93 1.474 3.866 2.95 5.812 4.426 4.03 2.95 8.09 5.886 12.196 8.74a216.107 216.107 0 004.448 3.156c.412.292.792.596 1.214.876 3.894 2.668 7.868 5.262 11.842 7.832 1.708 1.136 3.406 2.308 5.13 3.414 6.1 3.852 12.288 7.668 18.544 11.368 1.704.964 3.416 1.92 5.124 2.884a597.411 597.411 0 0013.92 7.808c2.532 1.366 5.14 2.656 7.694 3.958 3.318 1.746 6.604 3.502 9.966 5.172.764.39 1.556.76 2.31 1.118 1.344.65 2.71 1.292 4.072 1.974a691.084 691.084 0 0015.78 7.308c1.134.498 2.224.998 3.346 1.486a540.978 540.978 0 0018.416 7.668c1.486.596 2.988 1.17 4.486 1.768 5.732 2.202 11.54 4.38 17.368 6.432.742.26 1.454.498 2.184.746 6.404 2.246 12.868 4.316 19.38 6.346 1.55.456 3.112.956 4.674 1.41 6.626 1.994 13.166 4.37 20.01 5.638C867.41 1066.5 993.49 726.516 993.49 726.516 887.606 864.468 699.642 900.864 521.556 860.344c-6.752-1.518-13.292-3.622-19.876-5.574a470.5 470.5 0 01-4.96-1.506 604.992 604.992 0 01-19.136-6.224c-.868-.304-1.746-.628-2.63-.946-5.676-1.994-11.284-4.098-16.876-6.258-1.578-.628-3.156-1.224-4.728-1.854a527.097 527.097 0 01-18.22-7.58c-1.242-.522-2.424-1.074-3.638-1.618a705.536 705.536 0 01-15.378-7.136c-1.464-.714-2.94-1.408-4.436-2.134-3.992-1.942-7.95-4.014-11.886-6.042-2.64-1.388-5.324-2.71-7.932-4.154-4.816-2.58-9.544-5.26-14.246-7.992-1.6-.9-3.21-1.758-4.816-2.68-6.258-3.686-12.44-7.504-18.556-11.376-1.686-1.072-3.34-2.222-5.004-3.328-4.436-2.864-8.856-5.77-13.2-8.786-1.442-.954-2.84-2.016-4.256-2.982a682.706 682.706 0 01-12.484-9.022c-1.866-1.378-3.714-2.81-5.53-4.188-3.78-2.894-7.542-5.8-11.262-8.806a712.691 712.691 0 01-5.022-4.024c-4.734-3.892-9.408-7.796-14.028-11.81-.482-.434-1.008-.846-1.534-1.29-4.99-4.392-9.902-8.894-14.744-13.416-1.41-1.344-2.776-2.646-4.154-4.002a425.04 425.04 0 01-10.594-10.378c-1.388-1.388-2.788-2.766-4.154-4.142a588.168 588.168 0 01-13.002-13.762c-.212-.228-.434-.434-.64-.684a523.617 523.617 0 01-13.188-15.01 1828.987 1828.987 0 00-3.454-4.1 548.209 548.209 0 01-9.484-11.734 245.651 245.651 0 01-3.488-4.328c-3.73-4.848-7.384-9.672-10.964-14.598-98.878-134.846-134.4-320.862-55.378-473.626z"/><path d="M347.234 143.428c-64.908 93.41-61.382 218.43-10.752 317.22 8.492 16.56 18.036 32.622 28.712 47.924 9.722 13.936 20.498 30.518 33.402 41.708 4.686 5.152 9.572 10.184 14.566 15.12 1.264 1.302 2.554 2.528 3.844 3.806 4.842 4.686 9.776 9.316 14.874 13.806.21.174.396.378.608.52.054.064.108.088.14.152 5.64 4.936 11.462 9.696 17.378 14.37 1.312.998 2.614 2.05 3.942 3.08 5.926 4.544 11.974 9.024 18.176 13.276.184.128.342.26.526.412 2.734 1.876 5.526 3.642 8.292 5.456 1.334.868 2.598 1.79 3.938 2.602a376.254 376.254 0 0013.47 8.254c.644.402 1.28.726 1.904 1.096 3.93 2.266 7.916 4.5 11.914 6.658 1.394.792 2.814 1.474 4.236 2.212 2.76 1.444 5.52 2.906 8.334 4.316.406.196.846.39 1.252.564 5.72 2.818 11.496 5.532 17.384 8.09 1.254.552 2.554 1.05 3.84 1.582 4.702 1.996 9.462 3.95 14.234 5.782 2.028.77 4.078 1.496 6.106 2.246 4.332 1.606 8.694 3.078 13.08 4.554 1.984.628 3.93 1.28 5.916 1.886 6.24 1.93 12.406 4.38 18.912 5.464 335.12 55.528 412.494-202.5 412.494-202.5-69.75 100.424-204.81 148.372-348.936 110.956a407.51 407.51 0 01-18.972-5.488c-1.92-.584-3.806-1.214-5.706-1.844a398.075 398.075 0 01-13.28-4.574 310.048 310.048 0 01-5.992-2.224 445.694 445.694 0 01-14.29-5.77c-1.286-.552-2.592-1.042-3.85-1.626a416.476 416.476 0 01-17.488-8.112c-2.956-1.456-5.856-2.982-8.762-4.468-1.682-.878-3.374-1.746-5.06-2.614a417.453 417.453 0 01-11.1-6.258c-.862-.498-1.768-.964-2.646-1.498a430.492 430.492 0 01-13.438-8.198c-1.366-.878-2.678-1.822-4.044-2.712a515.957 515.957 0 01-8.704-5.758c-6.176-4.25-12.19-8.718-18.112-13.252-1.366-1.074-2.738-2.126-4.078-3.2-63.092-49.812-113.086-117.886-136.86-195.06-24.916-80.058-19.552-169.9 23.616-242.822z"/><path d="M581.548 62.232c-38.262 56.308-42.02 126.238-15.47 188.434 27.996 66.014 85.368 117.8 152.336 142.342 2.76 1.03 5.514 1.952 8.318 2.896 1.218.38 2.428.792 3.664 1.15 3.944 1.246 7.864 2.69 11.942 3.458 185.04 35.756 235.23-94.96 248.592-114.2-43.972 63.302-117.85 78.498-208.508 56.504-7.164-1.758-15.038-4.338-21.936-6.79a267.577 267.577 0 01-26.048-10.812c-16.094-7.734-31.436-17.124-45.67-27.862-81.116-61.556-131.518-178.976-78.582-274.61z"/></symbol><symbol id="sprite"><symbol id="www" viewBox="0 0 346 299"><style>.st1{fill:#fff}</style><path id="canvas_background" d="M-85-106h514v514H-85z" fill="none"/><path id="svg_6" class="st1" d="M118.4 113.7c4 0 7.7-.4 11.2.2 1.4.3 3 2.7 3.4 4.4 4.6 17.7 9 35.5 13.5 53.3.2.8.5 1.5.9 3 4.3-13.8 8.3-26.9 12.4-39.9 1.8-5.7 4-11.3 5.3-17.2.1-.5.5-2 1.8-3.1 2.6-2.4 7.5-2.4 10.2-.1 1.3 1.2 1.8 2.7 2 3.2 5.1 17.8 10.5 35.4 15.8 53.1.3 1 .7 2.1 1.2 3.4 4.7-17 9.3-33.6 13.9-50.1 3.1-11.2 3.1-11.2 16-9.7-.9 2.9-1.8 5.6-2.7 8.4-6.6 20.4-13.4 40.8-19.6 61.4-.2.5-.7 2.1-2.2 3.4-2.9 2.4-8 2.5-10.8.1-1.4-1.2-2-2.8-2.1-3.4-4.9-17.1-10.2-34.1-15.4-51.2-.3-1.1-.7-2.2-1.1-3.2-4.7 14.5-9.3 28.8-13.9 43.2-1.3 4.1-2.8 8.2-4.1 12.3-.2.7-.8 1.7-1.8 2.7-2.8 2.4-7.7 2.3-10.5.1-1.4-1.2-2-2.7-2.1-3.1-1.2-3.4-9.6-31.9-21.3-71.2z"/><path id="svg_8" class="st1" d="M291.7 197.9c-4.7 12-11.2 23.2-19.1 33.1-14.9-8.4-30.6-14.9-46.7-19.3 1.4-4.6 2.7-9.2 3.8-13.9h-9.9c-1 3.9-2 7.7-3.2 11.5-13-2.9-26.2-4.5-39.5-4.8v-6.7h-9.7v6.8c-13.3.3-26.6 1.9-39.6 4.8-1.2-3.8-2.3-7.7-3.2-11.6h-9.9c1.1 4.7 2.4 9.3 3.8 13.9-16.1 4.4-31.8 10.8-46.6 19.2-7.9-9.9-14.4-21.1-19.1-33.1h-16c19.4 56.2 72.7 96.6 135.6 96.6S288.6 254 308 197.8h-16.3v.1zM78.1 238.5c13.8-7.6 28.3-13.5 43.3-17.5 7.5 20.6 18.4 39.9 32.2 57.2-29.6-4.4-56-18.7-75.5-39.7zm89.2 40.8c-15.9-18.1-28.2-38.6-36.5-60.7 12-2.6 24.2-4.1 36.5-4.4v65.1zm9.7-65c12.2.3 24.4 1.7 36.4 4.4-8.1 21.8-20.2 42.4-36.4 60.7v-65.1zm13.6 63.8c14-17.5 24.8-36.9 32.2-57.2 15 4 29.5 9.9 43.4 17.5-19.5 21.1-45.9 35.5-75.6 39.7z"/><path id="svg_9" class="st1" d="M52.6 104.4c4.7-12 11.2-23.2 19.1-33.1 14.9 8.4 30.5 14.9 46.6 19.2-1.4 4.6-2.7 9.2-3.8 13.9h10c1-3.9 2-7.8 3.2-11.6 13 2.9 26.3 4.5 39.6 4.8v6.8h9.7v-6.8c13.2-.3 26.5-1.9 39.5-4.8 1.2 3.8 2.3 7.7 3.2 11.6h9.9c-1.1-4.7-2.3-9.3-3.8-13.9 16.2-4.4 31.9-10.8 46.7-19.3 7.9 9.9 14.3 21.1 19 33.1h16C288.1 48.1 234.8 7.7 171.9 7.7S55.7 48.1 36.3 104.3h16.3v.1zm213.6-40.6c-13.8 7.7-28.4 13.5-43.4 17.5-7.4-20.3-18.1-39.7-32.2-57.2 29.7 4.3 56.1 18.7 75.6 39.7zM177 22.9c16.2 18.3 28.3 38.9 36.4 60.7-12 2.6-24.1 4-36.4 4.4V22.9zm-9.7 65c-12.2-.3-24.4-1.8-36.5-4.4 8.2-22.1 20.5-42.7 36.5-60.7v65.1zm-13.7-63.8c-13.9 17.3-24.8 36.6-32.2 57.2-14.9-4-29.5-9.9-43.3-17.5 19.5-21 45.9-35.4 75.5-39.7z"/><path id="svg_10" class="st1" d="M232 113.8c4 0 7.7-.4 11.2.2 1.4.3 3 2.7 3.4 4.4 4.6 17.7 9 35.5 13.5 53.3.2.8.5 1.5.9 3 4.3-13.8 8.3-26.9 12.4-39.9 1.8-5.7 4-11.3 5.3-17.2.1-.5.5-2 1.8-3.1 2.6-2.4 7.5-2.4 10.2-.1 1.3 1.2 1.8 2.7 2 3.2 5.1 17.8 10.5 35.4 15.8 53.1.3 1 .7 2.1 1.2 3.4 4.7-17 9.3-33.6 13.9-50.1 3.1-11.2 3.1-11.2 16-9.7-.9 2.9-1.8 5.6-2.7 8.4-6.6 20.4-13.4 40.8-19.6 61.4-.2.5-.7 2.1-2.2 3.4-2.9 2.4-8 2.5-10.8.1-1.4-1.2-2-2.8-2.1-3.4-4.9-17.1-10.2-34.1-15.4-51.2-.3-1.1-.7-2.2-1.1-3.2-4.7 14.5-9.3 28.8-13.9 43.2-1.3 4.1-2.8 8.2-4.1 12.3-.2.7-.8 1.7-1.8 2.7-2.8 2.4-7.7 2.3-10.5.1-1.4-1.2-2-2.7-2.1-3.1-1.2-3.4-9.7-31.9-21.3-71.2z"/><path id="svg_11" class="st1" d="M6.8 113.7c4 0 7.7-.4 11.2.2 1.4.3 3 2.7 3.4 4.4 4.6 17.7 9 35.5 13.5 53.3.2.8.5 1.5.9 3 4.3-13.8 8.3-26.9 12.4-39.9 1.8-5.7 4-11.3 5.3-17.2.1-.5.5-2 1.8-3.1 2.6-2.4 7.5-2.4 10.2-.1 1.3 1.2 1.8 2.7 2 3.2 5.1 17.8 10.5 35.4 15.8 53.1.3 1 .7 2.1 1.2 3.4 4.7-17 9.3-33.6 13.9-50.1 3.1-11.2 3.1-11.2 16-9.7-.9 2.9-1.8 5.6-2.7 8.4-6.6 20.4-13.4 40.8-19.6 61.4-.2.5-.7 2.1-2.2 3.4-2.9 2.4-8 2.5-10.8.1-1.4-1.2-2-2.8-2.1-3.4-4.9-17.1-10.2-34.1-15.4-51.2-.3-1.1-.7-2.2-1.1-3.2-4.7 14.5-9.3 28.8-13.9 43.2-1.3 4.1-2.8 8.2-4.1 12.3-.2.7-.8 1.7-1.8 2.7-2.8 2.4-7.7 2.3-10.5.1-1.4-1.2-2-2.7-2.1-3.1-1.2-3.5-9.6-32-21.3-71.2z"/></symbol></symbol><symbol id="www" viewBox="0 0 128 128"><path d="M64 126A62 62 0 102 64a62.05 62.05 0 0062 62zM16 88.7l25.2-.2a89.75 89.75 0 0013.9 28.7A54.08 54.08 0 0116 88.7zM47.6 47H79a84.84 84.84 0 01.2 33.3l-31.6.2a82.18 82.18 0 010-33.5zm15.7 67.9a80.27 80.27 0 01-13.7-26.4l27.5-.2a84.49 84.49 0 01-13.8 26.6zm8 2.6a88.17 88.17 0 0014.1-29.3l26.9-.2a54.13 54.13 0 01-41 29.5zM118 64a55.77 55.77 0 01-2.4 16l-28.3.2a90.39 90.39 0 00-.2-33.2h28.1a53.15 53.15 0 012.8 17zm-6.2-25H85.2a92 92 0 00-13.9-28.5A53.77 53.77 0 01111.8 39zm-34.9 0H49.7a82.62 82.62 0 0113.6-25.9A82.62 82.62 0 0176.9 39zM55.1 10.8A88.86 88.86 0 0041.4 39H16.2a53.81 53.81 0 0138.9-28.2zM39.5 47a92 92 0 00-.1 33.5l-26.7.2A51.72 51.72 0 0110 64a53.15 53.15 0 012.8-17z"/></symbol></svg>