<?xml version="1.0" standalone="no"?>
<!DOCTYPE svg PUBLIC "-//W3C//DTD SVG 20010904//EN"
 "http://www.w3.org/TR/2001/REC-SVG-20010904/DTD/svg10.dtd">
<svg version="1.0" xmlns="http://www.w3.org/2000/svg"
 width="1448.000000pt" height="1448.000000pt" viewBox="0 0 1448.000000 1448.000000"
 preserveAspectRatio="xMidYMid meet">
<metadata>
Created by potrace 1.14, written by Peter Selinger 2001-2017
</metadata>
<g transform="translate(0.000000,1448.000000) scale(0.100000,-0.100000)"
fill="#000000" stroke="none">
<path d="M12765 11818 c-22 -11 -43 -26 -47 -32 -4 -6 -8 -7 -8 -2 0 5 -8 2
-17 -6 -16 -14 -195 -103 -318 -158 -276 -124 -338 -153 -403 -192 -34 -21
-71 -38 -81 -38 -24 0 -194 -49 -201 -58 -3 -4 -13 -8 -22 -10 -18 -3 -124
-46 -203 -82 -22 -10 -98 -44 -170 -75 -71 -32 -159 -71 -195 -87 -64 -30
-110 -50 -120 -53 -3 -1 -21 -8 -40 -17 -19 -8 -64 -27 -100 -42 -36 -15 -74
-31 -85 -36 -40 -19 -210 -80 -222 -80 -6 0 -24 -5 -40 -12 -15 -6 -30 -12
-33 -12 -3 -1 -23 -7 -45 -13 -76 -24 -219 -65 -229 -67 -12 -2 -116 -34 -256
-78 -127 -40 -126 -39 -201 -43 -108 -6 -201 -15 -254 -25 -27 -5 -63 -12 -78
-14 -144 -24 -308 -120 -388 -226 -19 -25 -37 -47 -40 -50 -13 -11 -77 -148
-95 -203 -17 -53 -31 -71 -194 -235 -170 -171 -243 -240 -365 -347 -119 -103
-142 -122 -202 -170 -35 -26 -63 -52 -63 -56 0 -5 -5 -9 -11 -9 -6 0 -23 -10
-38 -22 -15 -13 -41 -33 -57 -45 -16 -12 -50 -37 -76 -57 -27 -20 -48 -33 -48
-28 0 4 -4 2 -8 -4 -6 -10 -219 -154 -227 -154 -1 0 -32 -17 -66 -38 -97 -59
-279 -153 -279 -145 0 5 -4 3 -8 -3 -6 -10 -71 -43 -92 -48 -3 -1 -32 -14 -65
-30 -70 -33 -109 -36 -185 -12 -135 44 -240 49 -430 22 -130 -19 -394 -153
-532 -270 -27 -24 -54 -35 -105 -44 -70 -13 -98 -19 -98 -22 0 -1 -7 -3 -15
-5 -8 -2 -26 -7 -40 -10 -14 -3 -29 -7 -35 -8 -5 -2 -14 -5 -20 -8 -5 -4 -23
-10 -40 -14 -16 -5 -34 -9 -40 -11 -23 -6 -128 -45 -143 -53 -9 -5 -40 -19
-68 -30 -81 -32 -243 -112 -250 -122 -3 -5 -9 -7 -14 -4 -4 3 -13 -2 -20 -10
-7 -8 -19 -15 -26 -15 -8 0 -14 -4 -14 -10 0 -5 -5 -10 -12 -10 -15 0 -214
-132 -311 -207 -164 -127 -329 -286 -467 -452 -25 -29 -51 -59 -57 -67 -7 -7
-13 -15 -13 -19 0 -4 -6 -12 -12 -19 -7 -7 -21 -24 -30 -37 -69 -96 -98 -139
-98 -148 0 -6 -4 -11 -8 -11 -5 0 -17 -16 -28 -35 -10 -19 -22 -35 -26 -35 -5
0 -8 -6 -8 -14 0 -7 -11 -30 -25 -50 -14 -20 -25 -43 -25 -51 0 -8 -4 -15 -8
-15 -6 0 -53 -81 -57 -100 0 -3 -13 -29 -28 -57 -15 -29 -27 -55 -28 -58 0 -2
-13 -31 -29 -64 -17 -33 -30 -65 -30 -70 0 -6 -5 -11 -10 -11 -6 0 -9 -3 -8
-7 1 -5 -10 -32 -24 -60 -15 -29 -24 -53 -20 -53 4 0 2 -4 -4 -8 -10 -6 -57
-88 -59 -102 0 -3 -9 -18 -19 -35 -11 -16 -30 -47 -43 -67 -12 -21 -23 -42
-23 -47 0 -5 -6 -16 -13 -23 -7 -7 -30 -43 -52 -80 -21 -38 -43 -68 -47 -68
-4 0 -8 -4 -8 -10 0 -7 -70 -113 -102 -155 -5 -5 -29 -37 -53 -70 -87 -115
-115 -148 -239 -290 -80 -91 -272 -283 -365 -365 -41 -36 -83 -73 -93 -83 -10
-9 -23 -17 -28 -17 -6 0 -10 -4 -10 -8 0 -5 -18 -21 -40 -38 -22 -16 -55 -42
-73 -57 -17 -16 -62 -49 -99 -74 -38 -26 -68 -50 -68 -55 0 -4 -4 -8 -8 -8 -8
0 -225 -139 -249 -160 -7 -5 -14 -10 -16 -10 -2 0 -63 -34 -135 -75 -72 -41
-136 -75 -142 -75 -5 0 -10 -5 -10 -10 0 -6 -4 -9 -8 -8 -4 2 -37 -11 -72 -29
-108 -52 -156 -73 -168 -73 -7 0 -12 -4 -12 -10 0 -5 -3 -9 -7 -8 -8 1 -44
-12 -88 -31 -19 -9 -175 -65 -185 -67 -3 0 -18 -6 -35 -13 -16 -7 -39 -14 -50
-15 -11 -2 -30 -8 -43 -15 -12 -6 -22 -10 -22 -7 0 2 -30 -4 -66 -14 -57 -17
-156 -38 -249 -55 -99 -17 -194 -20 -451 -14 -132 4 -194 -42 -180 -135 18
-119 166 -268 357 -360 47 -22 92 -43 100 -45 8 -2 43 -11 79 -21 36 -10 92
-22 125 -26 71 -8 255 -11 255 -4 0 3 14 5 31 4 27 -1 87 7 179 22 19 4 42 7
50 9 8 1 35 8 60 15 25 6 55 14 68 16 13 3 76 23 140 45 64 21 122 41 127 42
6 2 31 13 57 24 26 12 76 34 110 49 35 16 81 38 103 50 111 60 165 90 213 120
29 19 57 34 62 34 5 0 14 8 19 18 6 9 11 13 11 7 0 -7 3 -7 8 0 4 6 41 33 82
60 41 28 82 55 90 62 8 6 60 47 114 89 93 72 143 114 188 156 10 10 20 18 23
18 19 0 348 335 529 540 112 127 375 470 432 566 26 42 146 278 149 294 2 8
21 52 53 120 31 67 128 280 165 360 11 25 20 48 19 53 -1 4 2 7 8 7 5 0 10 8
10 18 0 10 4 22 9 27 5 6 42 75 82 155 40 80 77 147 81 148 4 2 8 8 8 13 0 16
107 194 188 314 166 244 340 434 527 573 39 28 75 56 82 62 7 5 17 10 22 10 5
0 16 6 23 13 12 13 218 120 228 120 3 0 14 3 25 7 38 14 70 21 58 13 -6 -4
-40 -68 -76 -141 -109 -222 -188 -436 -211 -572 -3 -19 -8 -46 -11 -60 -8 -42
-17 -182 -15 -255 1 -38 2 -79 2 -90 0 -11 -11 -42 -23 -70 -13 -27 -22 -53
-21 -57 1 -5 -2 -8 -8 -8 -5 0 -10 -4 -10 -9 0 -5 -14 -40 -32 -78 -18 -37
-33 -70 -33 -73 0 -3 -21 -48 -47 -100 -25 -52 -71 -149 -102 -215 -31 -66
-62 -129 -68 -140 -17 -31 -22 -40 -100 -200 -40 -82 -77 -153 -83 -157 -5 -4
-6 -8 -1 -8 5 0 4 -6 -2 -12 -6 -7 -38 -67 -72 -133 -34 -66 -67 -123 -73
-127 -7 -4 -8 -8 -4 -8 5 0 -2 -19 -16 -42 -14 -24 -37 -65 -52 -93 -87 -156
-153 -268 -209 -355 -16 -25 -29 -46 -27 -48 1 -1 -3 -8 -9 -15 -38 -44 -50
-61 -50 -67 0 -4 -8 -16 -18 -28 -9 -11 -26 -33 -37 -48 -49 -69 -175 -203
-175 -187 0 4 -7 -5 -16 -22 -13 -25 -15 -47 -9 -125 4 -52 9 -126 10 -165 2
-38 4 -72 5 -75 6 -14 4 -47 -3 -62 -5 -11 -4 -18 3 -18 6 0 9 -4 6 -9 -5 -7
-12 -67 -21 -166 -1 -16 -3 -30 -4 -30 -3 0 -5 -10 -14 -60 -8 -41 -21 -88
-43 -160 -10 -33 -17 -63 -16 -67 1 -5 -2 -8 -8 -8 -5 0 -10 -6 -10 -12 0 -7
-14 -48 -30 -91 -34 -87 -45 -139 -42 -212 1 -49 25 -126 46 -153 39 -49 88
-90 131 -112 28 -14 53 -29 57 -35 4 -5 8 -7 8 -3 0 4 17 1 38 -7 20 -8 51
-16 69 -19 17 -2 35 -6 40 -9 13 -8 162 -19 253 -19 136 1 140 2 158 31 9 14
17 28 19 30 1 2 19 6 38 8 19 1 51 5 70 6 54 6 115 37 121 63 4 13 16 24 32
27 40 8 73 43 68 73 -5 27 -43 84 -64 98 -8 4 -23 19 -35 32 -11 13 -27 24
-34 24 -7 0 -13 3 -13 8 0 4 -16 16 -35 26 -37 20 -143 25 -252 13 -29 -3 -54
-3 -57 1 -7 12 -19 86 -19 122 0 61 31 188 63 265 69 160 199 401 243 449 12
13 27 30 32 38 49 63 220 275 229 283 7 6 18 19 26 31 14 19 89 109 135 160
11 12 49 55 85 95 103 118 433 449 453 455 9 3 15 10 12 15 -4 5 -3 9 2 9 4 0
26 17 49 38 22 20 65 57 94 82 30 25 64 54 76 65 12 11 35 29 50 40 15 11 32
25 38 30 6 6 29 24 51 40 22 17 46 35 52 42 7 6 28 21 48 33 19 12 35 26 35
31 0 5 6 9 13 9 6 0 26 7 42 16 17 9 41 18 55 21 13 2 29 8 35 12 5 4 46 23
90 41 100 43 289 140 293 152 2 4 12 8 23 8 10 0 19 5 19 11 0 5 4 7 10 4 11
-7 -4 -49 -61 -174 -22 -46 -39 -91 -39 -101 0 -31 30 -78 71 -112 23 -18 49
-40 59 -49 10 -8 31 -24 46 -35 41 -30 168 -133 208 -169 12 -11 49 -42 81
-70 66 -57 154 -135 202 -182 52 -49 160 -133 172 -133 6 0 11 -4 11 -10 0 -5
5 -10 10 -10 6 0 29 -9 53 -19 47 -22 99 -36 172 -47 58 -8 408 -9 475 0 25 3
68 8 95 11 95 12 152 35 156 63 1 4 2 18 3 32 2 14 17 39 34 56 18 19 29 39
27 50 -2 10 -4 27 -4 36 -1 9 -8 23 -16 31 -8 8 -11 17 -8 20 3 4 -19 30 -49
60 -42 40 -68 57 -114 71 -95 29 -224 11 -337 -46 l-39 -19 -51 27 c-108 56
-247 172 -313 260 -16 22 -32 41 -35 44 -3 3 -22 39 -41 80 -36 75 -49 119
-54 175 -1 17 -3 31 -4 33 -11 14 7 121 23 141 7 8 11 17 11 20 -2 8 19 54 26
61 3 3 18 26 33 52 48 83 320 418 339 418 4 0 8 4 8 8 0 10 45 58 333 356 372
383 412 424 420 425 4 0 23 8 43 16 20 8 42 15 48 15 7 0 16 4 22 9 5 5 56 25
114 45 58 20 112 39 120 43 8 3 17 7 20 8 65 20 97 29 105 31 6 0 17 4 25 7
16 7 113 33 170 47 19 5 44 11 55 13 25 7 102 24 135 31 26 5 189 49 315 84
39 11 83 25 99 31 25 10 35 7 85 -21 31 -17 58 -35 59 -40 2 -4 8 -8 14 -8 5
0 52 -25 103 -55 52 -30 99 -55 104 -55 6 0 11 -4 11 -10 0 -5 7 -10 15 -10 8
0 15 -3 15 -8 0 -4 15 -14 33 -21 17 -8 52 -29 77 -46 25 -18 50 -34 56 -36
24 -9 153 -116 174 -144 l23 -30 471 2 c259 1 480 4 491 7 11 2 27 5 35 5 46
3 63 59 42 136 -7 27 -15 57 -17 65 -6 27 -44 89 -76 125 -51 55 -87 62 -224
40 -63 -10 -165 -13 -165 -5 0 4 -12 6 -26 4 -77 -8 -223 66 -319 161 -90 89
-104 107 -159 201 l-45 78 30 18 c16 10 34 18 39 18 6 0 10 4 10 9 0 5 9 13
20 16 11 3 26 12 32 18 19 18 120 81 132 83 6 1 36 4 66 7 120 14 185 28 410
92 61 17 277 99 355 135 28 13 56 23 63 23 6 0 12 4 12 8 0 4 11 10 24 13 13
3 63 24 112 47 49 22 103 46 119 54 17 7 75 35 130 61 55 26 102 48 105 49 3
0 37 16 75 34 39 18 104 49 145 68 41 19 113 53 160 75 47 22 112 51 145 65
33 13 74 31 91 38 57 26 209 73 254 79 117 14 258 5 437 -29 10 -2 18 -4 18
-5 0 -2 13 -4 60 -13 17 -4 73 -18 125 -32 52 -14 102 -28 110 -30 224 -62
389 -77 476 -45 33 12 61 54 43 65 -16 10 -1 22 35 29 48 9 60 28 53 81 -4 25
-3 45 2 45 5 0 12 13 16 30 5 22 -1 43 -22 82 -15 29 -30 55 -33 58 -3 3 -23
28 -45 55 -53 68 -74 85 -101 85 -13 0 -26 4 -29 10 -3 5 -16 10 -28 10 -12
-1 -44 -1 -72 0 -27 0 -79 -3 -115 -6 -90 -7 -260 -10 -260 -4 0 3 -17 5 -38
6 -37 1 -75 7 -102 16 -8 3 -76 24 -150 48 -74 24 -141 48 -147 53 -7 5 -13 7
-13 3 0 -3 -12 -1 -27 5 -48 19 -66 22 -133 22 -66 1 -87 -2 -175 -23 -27 -7
-54 -13 -60 -14 -5 -1 -15 -5 -21 -8 -6 -4 -25 -10 -42 -13 -17 -3 -42 -9 -55
-14 -14 -6 -28 -7 -31 -4 -3 4 -6 0 -6 -7 0 -7 -3 -11 -6 -8 -3 4 -36 -2 -72
-13 -37 -11 -78 -21 -92 -24 -14 -2 -40 -7 -59 -10 -19 -3 -38 -8 -43 -11 -5
-3 -21 -7 -36 -9 -29 -4 -30 -4 -195 -35 -60 -11 -111 -19 -115 -19 -4 1 -9 0
-12 -1 -5 -2 -26 -5 -100 -14 -25 -3 -70 -8 -100 -12 -30 -4 -74 -7 -97 -8
-24 0 -43 -3 -43 -6 0 -3 -16 -4 -35 -2 -23 3 -32 8 -28 16 4 6 8 16 10 21 2
9 50 140 75 205 43 109 115 223 190 298 45 45 56 52 121 83 85 39 165 51 242
34 56 -12 46 -9 200 -60 77 -26 149 -48 160 -50 11 -1 21 -4 23 -5 1 -1 5 -3
10 -4 8 -2 78 -16 107 -22 11 -2 31 -6 45 -9 34 -7 159 -7 191 0 27 5 75 26
119 50 14 8 26 11 28 6 4 -13 70 10 134 47 64 37 128 95 128 115 0 8 20 28 44
45 56 40 62 62 25 93 -16 13 -29 28 -29 33 0 5 -13 37 -29 71 -16 34 -31 74
-34 91 -3 16 -6 34 -8 39 -6 22 17 73 54 123 46 61 68 131 56 177 -9 33 -8 53
5 73 15 25 15 99 -1 121 -20 29 -65 51 -112 55 -30 2 -49 13 -81 45 -49 48
-172 149 -215 177 -16 10 -35 24 -42 30 -7 6 -54 38 -105 70 -51 31 -94 58
-96 60 -2 1 -5 14 -8 29 -3 15 -6 30 -6 34 -1 3 6 24 16 46 9 22 18 48 19 58
1 9 5 17 10 17 4 0 7 6 6 13 -2 12 8 37 57 146 13 30 22 56 19 59 -12 12 -46
11 -85 -3 -43 -15 -66 -12 -54 7 7 12 13 80 14 171 1 110 -39 140 -125 95z"/>
</g>
</svg>
