<?xml version="1.0" standalone="no"?>
<!DOCTYPE svg PUBLIC "-//W3C//DTD SVG 20010904//EN"
 "http://www.w3.org/TR/2001/REC-SVG-20010904/DTD/svg10.dtd">
<svg version="1.0" xmlns="http://www.w3.org/2000/svg"
 width="700.000000pt" height="700.000000pt" viewBox="0 0 700.000000 700.000000"
 preserveAspectRatio="xMidYMid meet">
<metadata>
Created by potrace 1.11, written by Peter Selinger 2001-2013
</metadata>
<g transform="translate(0.000000,700.000000) scale(0.100000,-0.100000)"
fill="#000000" stroke="none">
<path d="M5420 6956 c-36 -24 -85 -55 -110 -68 -66 -37 -152 -88 -180 -108
-14 -9 -36 -21 -50 -25 -43 -12 -150 -65 -265 -130 -178 -101 -280 -149 -455
-213 -106 -39 -188 -63 -230 -67 -121 -12 -191 -42 -245 -107 -32 -37 -85
-148 -85 -176 0 -10 -8 -27 -17 -38 -10 -10 -34 -40 -54 -66 -206 -269 -455
-498 -678 -621 -63 -35 -65 -35 -95 -19 -21 11 -57 16 -111 16 -70 1 -88 -3
-145 -31 -36 -17 -90 -54 -120 -81 -40 -35 -76 -56 -135 -76 -319 -111 -577
-356 -756 -716 -16 -32 -58 -134 -94 -226 -174 -446 -393 -766 -697 -1020
-179 -149 -422 -285 -573 -320 -74 -17 -119 -22 -190 -20 -77 3 -112 -5 -127
-28 -37 -54 59 -194 171 -250 104 -53 230 -53 386 0 301 101 620 405 899 857
79 129 100 173 176 382 184 506 291 711 462 876 56 55 188 143 188 125 0 -2
-8 -24 -18 -48 -76 -178 -113 -341 -113 -494 0 -65 -7 -89 -80 -280 -44 -115
-81 -213 -83 -219 -1 -5 -8 -21 -14 -35 -5 -14 -31 -77 -57 -140 -101 -249
-228 -507 -282 -569 l-36 -43 -2 -181 c-2 -199 -3 -206 -45 -353 -48 -170 -27
-248 80 -302 43 -21 72 -28 138 -31 75 -3 86 -1 103 18 11 12 31 21 44 21 35
0 105 71 98 99 -3 11 -25 39 -50 62 -44 40 -45 40 -102 35 -50 -5 -58 -4 -59
11 -13 159 50 322 222 583 236 356 461 613 599 685 40 21 98 55 130 77 31 21
57 37 57 34 0 -3 -12 -37 -26 -77 -17 -48 -23 -78 -17 -90 4 -10 60 -73 123
-140 240 -254 253 -266 300 -279 68 -18 252 -15 322 6 10 3 21 17 24 32 4 15
13 35 20 45 22 33 -8 102 -58 132 -33 19 -83 16 -142 -9 -46 -19 -57 -15 -130
61 -100 103 -139 244 -97 355 29 76 148 252 329 487 185 240 178 235 580 365
l144 46 106 -77 c59 -43 131 -102 161 -131 l54 -54 200 1 c110 0 207 3 217 6
25 8 29 45 11 102 -31 98 -33 99 -167 93 -96 -4 -169 50 -234 171 l-33 63 34
29 c53 45 92 67 120 67 23 0 87 18 144 39 73 28 232 112 434 229 128 74 261
146 294 160 87 35 179 28 351 -28 132 -43 213 -53 240 -31 8 7 13 18 10 26 -3
7 3 16 15 20 12 3 21 9 21 13 1 4 3 30 5 57 4 45 1 58 -31 108 -19 31 -43 58
-52 59 -9 1 -71 2 -137 3 -117 2 -122 3 -217 43 -53 23 -108 42 -123 42 -14 0
-72 -15 -128 -34 -100 -34 -193 -60 -252 -71 -102 -19 -218 -35 -222 -31 -8 8
37 149 67 211 34 69 80 117 127 133 37 12 75 4 208 -45 92 -34 171 -42 212
-19 16 8 45 23 66 32 24 10 54 38 78 71 l40 54 -21 45 c-33 68 -36 113 -10
165 20 38 31 104 30 178 0 30 -17 51 -41 51 -10 0 -40 23 -66 51 -26 29 -75
74 -108 102 -33 27 -63 58 -67 69 -6 15 11 86 48 196 3 10 -4 12 -27 7 l-31
-7 4 58 c6 64 -4 104 -24 104 -7 0 -42 -20 -78 -44z"/>
</g>
</svg>
