<svg width="181" height="115" viewBox="0 0 181 115" fill="none" xmlns="http://www.w3.org/2000/svg">
<path fill-rule="evenodd" clip-rule="evenodd" d="M148.903 5.60875L148.913 5.6079C149.957 4.85446 151.709 4.07687 153.634 3.2226C155.577 2.36039 157.696 1.42001 159.441 0.347619C160.286 -0.165447 161.084 -0.27061 161.156 1.17299C161.163 1.30921 161.16 1.45326 161.15 1.60444C161.134 1.89312 161.101 2.2415 161.063 2.63655C161.026 3.02744 160.984 3.46402 160.952 3.93369C161.987 3.44233 162.984 3.3623 162.699 3.83378C162.337 4.43412 161.389 6.99463 161.07 7.86628C161.114 8.12986 161.167 8.39382 161.23 8.65681C163.276 9.87869 165.893 11.6346 167.608 13.484C167.964 13.4516 168.252 13.4548 168.439 13.5023C170.413 13.9968 169.293 15.9 169.239 15.9909C169.56 16.9635 169.446 17.9071 168.682 18.7573C167.537 20.0431 168.055 21.0412 168.5 21.8971C168.709 22.2992 168.901 22.6699 168.898 23.0243L168.897 23.037C169.073 23.073 169.23 23.1524 169.346 23.2641C169.465 23.379 169.535 23.5219 169.544 23.6712C169.544 24.1173 168.439 24.7451 168.439 24.7451L168.438 24.7443L168.443 24.7579C168.343 25.7427 165.783 27.1066 165.172 27.0173C165.02 26.9948 164.871 26.972 164.726 26.9487C164.638 27.0768 163.713 28.2614 160.246 27.5652C158.894 27.3483 157.526 26.8891 156.239 26.4572C155.607 26.2454 154.996 26.0401 154.415 25.8733C154.018 25.7594 153.631 25.707 153.258 25.7022C153.242 25.7028 153.226 25.7035 153.211 25.7044C153.095 25.7109 153.023 25.7114 152.99 25.7069C151.608 25.7727 150.437 26.4682 149.681 27.0555C148.224 28.5716 147.221 30.3344 146.749 32.2085C146.509 32.8312 146.256 33.4396 145.992 34.0339C146.69 34.006 147.461 33.9528 148.312 33.8683C149.647 33.7021 150.97 33.5298 152.254 33.3339C153.738 33.0864 155.39 32.7652 157.231 32.355C158.255 32.0894 159.152 31.834 159.943 31.6091C161.959 31.0352 163.28 30.6592 164.236 30.8157C164.507 30.723 165.709 31.1433 167.012 31.5988C167.963 31.9312 168.968 32.2823 169.703 32.4666C171.658 32.9658 173.43 32.8131 174.862 32.6897C176.081 32.5848 177.053 32.501 177.68 32.8585L177.688 32.8629L177.698 32.8689C177.886 32.8687 178.062 32.9093 178.211 33.0083C178.701 33.327 180.692 35.7871 180.333 36.4595C180.237 36.6236 180.117 36.7775 179.976 36.9181C180.219 37.5238 180.258 38.0296 179.862 38.1708C179.549 38.2879 179.229 38.3899 178.902 38.4764C179.085 38.8763 179.074 39.2006 178.717 39.3754C177.072 40.1857 174.756 39.5519 172.035 38.8071C169.406 38.0875 166.398 37.2642 163.25 37.5398C161.517 37.6984 157.617 39.536 153.203 41.6162C148.747 43.7157 143.767 46.0624 139.961 47.1797C137.607 47.8709 136.002 48.09 134.616 48.1871C133.619 48.9079 132.582 49.5791 131.508 50.2038C134.155 55.2643 137.371 56.4463 141.405 55.526C143.666 55.0129 144.863 58.9421 144.464 59.8982C144.225 60.4718 142.097 60.4718 140.08 60.4034L131.394 60.4367C130.621 59.1006 127.858 57.5259 125.265 56.0485C124.169 55.424 123.104 54.8169 122.232 54.2526C120.028 54.9714 117.77 55.5819 115.471 56.0804C112.099 56.8202 108.817 57.9404 105.672 59.2847C104.67 60.3411 103.523 61.51 102.321 62.7347L102.32 62.7357C97.1546 68.0001 90.978 74.2946 90.97 77.1137L90.9704 77.1713C90.9747 78.0273 90.9951 82.131 97.1593 85.3927L97.1642 85.3857C101.193 83.3653 103.418 84.6974 104.22 86.7974C104.48 87.4809 104.169 87.9445 103.544 88.2506C103.666 88.7797 103.535 89.2686 103.095 89.4807C102.017 90.0005 94.2529 90.531 92.3976 89.4168C91.1887 89.0065 90.2613 88.1589 88.6569 86.6925C87.2246 85.3835 85.2529 83.5813 82.0597 81.1569C80.821 80.2141 80.6427 79.453 81.0979 78.849C81.4621 78.1195 81.8813 77.1698 82.2787 75.9406C80.111 77.2435 77.733 78.3938 75.1571 79.3256C66.5671 85.4797 60.565 93.0325 57.2631 97.1875C56.8863 97.6617 56.5443 98.092 56.238 98.4705C56.238 98.4705 51.9982 104.892 52.8079 107.919C52.8749 108.17 52.9184 108.398 52.9411 108.606C53.4821 108.549 55.5191 108.347 56.2221 108.47C57.0357 108.614 59.9833 110.822 58.8585 111.635C58.4145 111.956 58.1346 112.038 57.8343 112.022C57.9033 112.324 57.7847 112.588 57.3708 112.776C56.6223 113.115 55.7107 113.2 54.9103 113.186C54.7681 113.657 54.5389 113.98 54.5389 113.98C46.8251 114.497 43.1956 111.775 45.2736 106.823C47.3516 101.871 47.1761 98.4131 46.7494 95.0798C46.6547 94.3464 46.8305 93.8334 47.1878 93.5056L47.1841 93.4992C47.2009 93.4872 47.2177 93.4749 47.2347 93.4624C47.245 93.4548 47.2553 93.4471 47.2657 93.4393C47.2788 93.429 47.2921 93.4188 47.3056 93.4089C51.3078 90.3254 59.2774 73.539 63.0395 65.2756C62.859 62.8107 63.0864 60.3188 63.8162 58.0593C64.6169 55.5878 65.6797 53.1912 66.9419 50.9751C56.916 54.2615 51.7263 65.8402 48.0682 74.0018C46.7386 76.9683 45.6114 79.4834 44.5278 80.9847C29.8979 101.252 15.5751 104.962 8.41975 104.207C1.26436 103.451 -3.42214 96.0516 3.13098 96.877C12.0014 98.0051 35.9684 88.805 46.6975 64.8088C54.7986 46.7226 70.4356 43.2144 73.6372 42.6763C77.8134 39.1363 82.6227 37.592 87.1575 39.5682C93.4275 37.0976 101.116 32.6109 110.736 22.3145C111.525 19.2916 113.312 16.958 116.213 16.0166C117.871 15.4774 119.958 15.1882 122.209 15.219C124.022 14.6441 125.905 14.0947 127.643 13.5873L127.644 13.587C130.159 12.8532 132.372 12.2073 133.639 11.6986C136.286 10.6527 138.707 9.55996 140.85 8.59278C144.355 7.01097 147.116 5.76498 148.903 5.60875ZM167.207 19.9788C167.211 20.0113 167.218 20.0439 167.23 20.0766C167.309 20.2888 167.387 20.4938 167.462 20.6909L167.462 20.6919L167.519 20.8408C167.477 20.59 167.398 20.3318 167.25 20.0671C167.235 20.0395 167.221 20.01 167.207 19.9788Z" fill="#237BBE"/>
</svg>
