<svg xmlns="http://www.w3.org/2000/svg" viewBox="0 0 1562.67 1562.67">
    <title>github</title>
    <path d="M1548.67,796.67q0,251-146.5,451.5t-378.5,277.5q-27,5-39.5-7t-12.5-30v-211q0-97-52-142,57-6,102.5-18t94-39q48.49-27,81-66.5t53-105q20.49-65.5,20.5-150.5,0-121-79-206,37-91-8-204-28-9-81,11t-92,44l-38,24a721.92,721.92,0,0,0-384,0q-16-11-42.5-27t-83.5-38.5q-57-22.5-86-13.5-44,113-7,204-79,85-79,206,0,85,20.5,150t52.5,105q32,40,80.5,67t94,39q45.5,12,102.5,18-40,36-49,103a199,199,0,0,1-45,15q-24,5-57,5t-65.5-21.5q-32.51-21.51-55.5-62.5a161.34,161.34,0,0,0-48.5-52q-29.51-20-49.5-24l-20-3q-21,0-29,4.5t-5,11.5a55.24,55.24,0,0,0,9,14,73.49,73.49,0,0,0,13,12l7,5q22,10,43.5,38t31.5,51l10,23q13,38,44,61.5t67,30a428.11,428.11,0,0,0,69.5,7q33.49.49,55.5-3.5l23-4q0,38,.5,89t.5,54q0,18-13,30t-40,7q-232-77-378.5-277.5T12.67,796.67q0-209,103-385.5t279.5-279.5q176.49-103,385.5-103t385.5,103q176.49,103,279.5,279.5T1548.67,796.67Z"/>
</svg>