<?xml version="1.0" encoding="UTF-8"?><!DOCTYPE svg PUBLIC "-//W3C//DTD SVG 1.1//EN" "http://www.w3.org/Graphics/SVG/1.1/DTD/svg11.dtd"><svg xmlns="http://www.w3.org/2000/svg"><symbol id="all" viewBox="0 0 48 48"><path d="M10 26h28v-4H10v4zm-4 8h28v-4H6v4zm8-20v4h28v-4H14z"/><path d="M0 0h48v48H0z" fill="none"/></symbol><symbol id="css3" viewBox="0 0 512 512"><path fill-rule="evenodd" clip-rule="evenodd" fill="#1758a7" d="M91.809 117.07l30.784 333.509 133.406 35.922 133.403-35.922 30.789-333.509z"/><path fill-rule="evenodd" clip-rule="evenodd" fill="#379ad6" d="M255.997 144.084v313.768l.301.081 107.959-29.07 24.918-284.779z"/><path fill-rule="evenodd" clip-rule="evenodd" fill="#e8e8e7" d="M255.623 372.537l-.072.021-44.57-11.361-2.701-32.718h-41.419l5.402 63.165 83.738 24.993V372.43z"/><path fill-rule="evenodd" clip-rule="evenodd" fill="#fbfbfa" d="M256.001 266.782v40.129h.119l49.502.054-3.177 52.454-46.325 13.051-.119.034v44.087l.119.036.033.01 83.961-24.523 10.893-125.332z"/><path fill-rule="evenodd" clip-rule="evenodd" fill="#e5e4e2" d="M161.002 266.782l3.152 40.087.005.062 91.842.006v-40.155z"/><path fill-rule="evenodd" clip-rule="evenodd" fill="#eee" d="M161.008 266.782h94.76l.233-.101v-40.064z"/><path fill-rule="evenodd" clip-rule="evenodd" fill="#fff" d="M261.553 224.667l-5.552 2.325v39.781l97.954-42.106z"/><path fill-rule="evenodd" clip-rule="evenodd" fill="#e7e7e6" d="M152.196 184.515l4.964 40.152h98.841v-40.152z"/><path d="M256.001 224.667l101.842-40.152H256.001v40.152zm.027 0h97.76l4.056-40.152-101.816 40.152z" fill-rule="evenodd" clip-rule="evenodd" fill="#f8f8f7"/><path d="M158.564 87.892h50.683V68.07h-28.961V48.22h28.961V26.499h-50.683v61.393zm72.343-39.671c6.781 6.781 10.317 10.026 20.125 19.835-5.732 0-20.125.021-20.125.019v19.817h50.687V68.07l-20.246-19.85h20.246V26.499h-50.687v21.722zm122.529-21.722h-50.69v21.722c6.781 6.781 10.319 10.026 20.127 19.835-5.73 0-20.127.021-20.127.019v19.817h50.69V68.07l-20.247-19.85h20.247V26.499z" fill-rule="evenodd" clip-rule="evenodd" fill="#1b1b1b"/></symbol><symbol id="github" viewBox="-1163 1657.697 56.693 56.693"><path d="M-1110.275 1686.891l.032.002a.17.17 0 0 0 .166-.138.17.17 0 0 0-.136-.198c-2.311-.426-4.002-.897-9.708-.85.356-1.315.548-2.87.586-4.713-.009-4.997-2.4-6.764-2.86-7.594.677-3.783-.113-5.505-.48-6.095-1.355-.483-4.714 1.24-6.55 2.453-2.992-.875-9.315-.79-11.686.226-4.376-3.133-6.69-2.653-6.69-2.653s-1.497 2.681-.396 6.605c-1.44 1.835-2.512 3.134-2.512 6.575 0 1.94.228 3.675.743 5.19-2.29-.006-7.09.303-9.338.858a.172.172 0 0 0-.124.206.171.171 0 0 0 .205.124c2.268-.561 7.229-.866 9.379-.848.123.326.26.643.413.949-5.527.146-7.018.936-9.338 1.515-.168.043-.333.083-.493.123a.17.17 0 0 0-.125.205.17.17 0 0 0 .206.125l.494-.124c2.328-.582 3.838-1.376 9.432-1.51 1.644 2.985 4.815 4.843 10.162 5.357-.763.579-1.68 1.679-1.806 2.95-.96.621-2.89.826-4.39.352-2.103-.663-2.908-4.827-6.056-4.234-.682.129-.547.578.043.96.96.62 1.863 1.398 2.56 3.052.535 1.27 1.66 3.54 5.216 3.54 1.412 0 2.4-.17 2.4-.17s.028 3.242.028 4.503c0 1.453-1.961 1.863-1.961 2.562 0 .276.649.302 1.17.302 1.032 0 3.177-.86 3.177-2.37 0-1.201.02-5.237.02-5.943 0-1.543.827-2.032.827-2.032s.103 8.24-.198 9.344c-.352 1.298-.988 1.114-.988 1.693 0 .862 2.583.212 3.439-1.68.661-1.472.372-9.555.372-9.555l.706-.015s.04 3.7.016 5.392c-.025 1.751-.143 3.967.896 5.012.684.686 2.9 1.891 2.9.79 0-.64-1.215-1.167-1.215-2.899v-7.97c.969 0 .823 2.621.823 2.621l.072 4.87s-.214 1.773 1.918 2.516c.752.263 2.362.335 2.438-.107.076-.443-1.939-1.1-1.957-2.475-.011-.838.037-1.327.037-4.968s-.489-4.988-2.192-6.06c5.258-.542 8.512-1.842 10.099-5.327 1.822.06 5.639.246 10.074 1.602a.17.17 0 0 0 .098-.324c-4.374-1.338-8.074-1.547-10.027-1.612.123-.303.236-.62.336-.953 5.739-.053 7.434.416 9.743.843zm-39.84 5.54c-.21 0-.38-.114-.38-.254s.17-.254.38-.254.382.114.382.254-.17.254-.381.254zm1.186.644c-.21 0-.38-.113-.38-.254 0-.14.17-.254.38-.254s.382.114.382.254-.171.254-.382.254zm.344.607c0-.14.17-.254.38-.254s.382.114.382.254-.17.254-.381.254-.381-.113-.381-.254zm1.016 1.228c-.21 0-.381-.113-.381-.254 0-.14.17-.254.381-.254.21 0 .381.114.381.254s-.17.254-.38.254zm.725.918c-.21 0-.381-.114-.381-.254s.17-.254.38-.254.382.114.382.254-.17.254-.381.254zm.978.78c-.21 0-.38-.113-.38-.253s.17-.254.38-.254.381.113.381.254c0 .14-.17.254-.38.254zm1.37.509c-.211 0-.382-.114-.382-.254s.171-.254.381-.254.382.114.382.254-.171.254-.382.254zm1.373 0c-.21 0-.38-.114-.38-.254s.17-.254.38-.254.381.114.381.254-.17.254-.38.254zm1.379-.216c-.21 0-.381-.114-.381-.255s.17-.253.38-.253c.211 0 .382.113.382.254s-.17.254-.381.254zm10.794-5.409a106.198 106.198 0 0 1-6.943-.001c-5.777-.203-8.96-2.641-8.96-6.865 0-.44.094-1.981 1.289-3.414 1.162-1.393 2.942-2.13 5.148-2.13.15 0 .419.017.965.05 1.17.074 3.128.195 5.066.195 1.756 0 3.531-.13 4.485-.199.447-.033.626-.045.741-.045 4.693 0 6.365 2.998 6.365 5.804 0 2.891-1.415 6.384-8.156 6.605z"/><path d="M-1151.262 1695.146c.91 0 .015-1.41 0-2.07-.004.641-.91 2.07 0 2.07zM-1133.553 1689.076a.17.17 0 0 0-.17.17c0 .373-.438.79-1.025.79-.085 0-.166-.01-.244-.026a1.339 1.339 0 0 1-.589-.297 1.379 1.379 0 0 1-.192-.2c-.085-.108-.132-.208-.132-.267a.17.17 0 0 0-.339 0c0 .048.01.102.029.16.028.085.077.179.144.273.067.094.151.188.25.276.1.088.215.169.343.236a1.596 1.596 0 0 0 .73.184 1.48 1.48 0 0 0 .984-.364c.06-.054.114-.112.16-.173a1.03 1.03 0 0 0 .214-.492.795.795 0 0 0 .006-.1.17.17 0 0 0-.17-.17zM-1135.25 1688.17a.59.59 0 0 0 .483.257.581.581 0 0 0 .432-.191.58.58 0 0 0 .102-.167c.03-.07.05-.145.05-.226a.583.583 0 0 0-.996-.412c-.005.004-.009.01-.013.015a.587.587 0 0 0-.078.106.578.578 0 0 0-.069.41.582.582 0 0 0 .088.208zM-1139.57 1682.051a2.64 2.64 0 0 0-.386-.387 2.08 2.08 0 0 0-.434-.273 1.736 1.736 0 0 0-.719-.162c-1.336 0-2.418 1.613-2.418 3.604 0 1.99 1.082 3.378 2.418 3.378a1.911 1.911 0 0 0 .72-.141c.15-.062.296-.143.433-.242s.266-.215.385-.348.23-.283.328-.447c.345-.574.552-1.33.552-2.2 0-.871-.207-1.67-.552-2.293a3.34 3.34 0 0 0-.328-.489zM-1128.039 1681.228c-1.336 0-2.418 1.614-2.418 3.604s1.083 3.378 2.418 3.378c1.336 0 2.418-1.387 2.418-3.378 0-1.99-1.082-3.604-2.418-3.604z"/></symbol><symbol id="html5" viewBox="0 0 512 512"><path fill-rule="evenodd" clip-rule="evenodd" fill="#e44d26" d="M93.063 116.909l29.656 332.633L255.8 486.486l133.449-36.997 29.689-332.58z"/><path d="M256 184.903H153.702l.977 10.945 10.027 112.422H256v-40.795h-53.984l-3.729-41.775H256v-40.797zm-45.614 176.303l-2.905-32.536h-40.953l5.716 64.056 83.568 23.198.188-.052v-42.445l-.179.048-45.435-12.269z" fill-rule="evenodd" clip-rule="evenodd" fill="#ebebeb"/><path fill-rule="evenodd" clip-rule="evenodd" fill="#f16529" d="M256 144.106v314.102l107.832-29.895 25.371-284.207z"/><path d="M255.858 308.271h50.236l-4.736 52.91-45.5 12.281v42.442l83.634-23.179.614-6.892 9.587-107.403.995-10.955h-94.83v40.796zm0-123.368V225.7H354.4l.818-9.17 1.859-20.682.975-10.945H255.858z" fill-rule="evenodd" clip-rule="evenodd" fill="#fff"/><path d="M163.079 46.997h-18.965V26.514h-20.731v62.028h20.732V67.771h18.964v20.771h20.732V26.514h-20.733v20.483zm29.745.086h18.252v41.459h20.733V47.083h18.26V26.514h-57.245v20.569zm101.246 1.226l-13.299-21.795h-21.617v62.028h20.285V57.797l14.273 22.055h.357l14.263-22.055v30.745h20.646V26.514h-21.626L294.07 48.309zm65.966 19.73V26.514h-20.738v62.028h49.894V68.039h-29.156z" fill-rule="evenodd" clip-rule="evenodd"/></symbol><symbol id="jquery" viewBox="0 0 512 512"><path d="M34.317 126.054c-44.877 64.496-39.286 148.409-5.01 216.945.816 1.644 1.67 3.259 2.513 4.88.537 1.02 1.044 2.072 1.603 3.08.314.607.669 1.199.998 1.779.586 1.095 1.182 2.131 1.79 3.199a293.431 293.431 0 0 0 3.272 5.606c.618 1.025 1.228 2.05 1.865 3.074a247.475 247.475 0 0 0 3.799 5.943c.54.841 1.065 1.682 1.619 2.494a280.153 280.153 0 0 0 5.498 7.944c.049.065.103.136.158.201.298.423.629.835.93 1.253a276.773 276.773 0 0 0 5.01 6.669c.626.798 1.261 1.6 1.89 2.402a337.143 337.143 0 0 0 4.631 5.693c.588.705 1.177 1.415 1.771 2.109a299.43 299.43 0 0 0 6.456 7.375c.038.044.089.093.13.136.089.103.168.168.247.266a318.784 318.784 0 0 0 6.562 6.925 232.15 232.15 0 0 0 2.101 2.12 385.72 385.72 0 0 0 5.238 5.135c.718.678 1.429 1.377 2.142 2.033a260.929 260.929 0 0 0 7.177 6.529c.043.043.073.076.114.092.412.369.84.722 1.247 1.063a353.295 353.295 0 0 0 6.521 5.515c.895.721 1.8 1.437 2.701 2.152a284.346 284.346 0 0 0 5.436 4.246c.965.737 1.933 1.475 2.906 2.213a306.807 306.807 0 0 0 6.098 4.37c.749.542 1.472 1.062 2.224 1.578.206.146.396.298.607.438a266.916 266.916 0 0 0 5.921 3.916c.854.568 1.703 1.154 2.565 1.707a373.512 373.512 0 0 0 9.272 5.684c.852.482 1.708.96 2.562 1.442a298.706 298.706 0 0 0 6.96 3.904c1.266.683 2.57 1.328 3.847 1.979 1.659.873 3.302 1.751 4.983 2.586.382.195.778.38 1.155.559.672.325 1.355.646 2.036.987a345.542 345.542 0 0 0 7.89 3.654c.567.249 1.112.499 1.673.743a270.489 270.489 0 0 0 9.208 3.834c.743.298 1.494.585 2.243.884a328.57 328.57 0 0 0 8.684 3.216c.371.13.727.249 1.092.373 3.202 1.123 6.434 2.158 9.69 3.173.775.228 1.556.478 2.337.705 3.313.997 6.583 2.185 10.005 2.819 217.021 39.574 280.061-130.418 280.061-130.418-52.942 68.976-146.924 87.174-235.967 66.914-3.376-.759-6.646-1.811-9.938-2.787a235.25 235.25 0 0 1-2.48-.753 302.496 302.496 0 0 1-9.568-3.112c-.434-.152-.873-.314-1.315-.473a292.113 292.113 0 0 1-8.438-3.129c-.789-.314-1.578-.612-2.364-.927a263.548 263.548 0 0 1-9.11-3.79c-.621-.261-1.212-.537-1.819-.809a352.768 352.768 0 0 1-7.689-3.568c-.732-.357-1.47-.704-2.218-1.067-1.996-.971-3.975-2.007-5.943-3.021-1.32-.694-2.662-1.355-3.966-2.077a236.132 236.132 0 0 1-7.123-3.996c-.8-.45-1.605-.879-2.408-1.34a339.195 339.195 0 0 1-9.278-5.688c-.843-.536-1.67-1.111-2.502-1.664a236.092 236.092 0 0 1-6.6-4.393c-.721-.477-1.42-1.008-2.128-1.491a341.353 341.353 0 0 1-6.242-4.511c-.933-.689-1.857-1.405-2.765-2.094-1.89-1.447-3.771-2.9-5.631-4.403a356.346 356.346 0 0 1-2.511-2.012 336.11 336.11 0 0 1-7.014-5.905c-.241-.217-.504-.423-.767-.645a338.34 338.34 0 0 1-7.372-6.708c-.705-.672-1.388-1.323-2.077-2.001a212.52 212.52 0 0 1-5.297-5.189c-.694-.694-1.394-1.383-2.077-2.071a294.084 294.084 0 0 1-6.501-6.881c-.106-.114-.217-.217-.32-.342a261.809 261.809 0 0 1-6.594-7.505 914.494 914.494 0 0 0-1.727-2.05 274.104 274.104 0 0 1-4.742-5.867 122.826 122.826 0 0 1-1.744-2.164 333.097 333.097 0 0 1-5.482-7.299c-49.439-67.423-67.2-160.431-27.689-236.813"/><path d="M173.617 71.714c-32.454 46.705-30.691 109.215-5.376 158.61 4.246 8.28 9.018 16.311 14.356 23.962 4.861 6.968 10.249 15.259 16.701 20.854a197.69 197.69 0 0 0 7.283 7.56c.632.651 1.277 1.264 1.922 1.903 2.421 2.343 4.888 4.658 7.437 6.903.105.087.198.189.304.26.027.032.054.044.07.076 2.82 2.468 5.731 4.848 8.689 7.185.656.499 1.307 1.025 1.971 1.54 2.963 2.272 5.987 4.512 9.088 6.638.092.064.171.13.263.206 1.367.938 2.763 1.821 4.146 2.728.667.434 1.299.895 1.969 1.301a188.127 188.127 0 0 0 6.735 4.127c.322.201.64.363.952.548a243.601 243.601 0 0 0 5.957 3.329c.697.396 1.407.737 2.118 1.106 1.38.722 2.76 1.453 4.167 2.158.203.098.423.195.626.282a199.878 199.878 0 0 0 8.692 4.045c.627.276 1.277.525 1.92.791a220.67 220.67 0 0 0 7.117 2.891c1.014.385 2.039.748 3.053 1.123 2.166.803 4.347 1.539 6.54 2.277.992.314 1.965.64 2.958.943 3.12.965 6.203 2.19 9.456 2.732 167.56 27.764 206.247-101.25 206.247-101.25-34.875 50.212-102.405 74.186-174.468 55.478a203.755 203.755 0 0 1-9.486-2.744c-.96-.292-1.903-.607-2.853-.922a199.038 199.038 0 0 1-6.64-2.287c-1.006-.364-2.01-.732-2.996-1.112a222.847 222.847 0 0 1-7.145-2.885c-.643-.276-1.296-.521-1.925-.813a208.238 208.238 0 0 1-8.744-4.056c-1.478-.728-2.928-1.491-4.381-2.234-.841-.439-1.687-.873-2.53-1.307a208.727 208.727 0 0 1-5.55-3.129c-.431-.249-.884-.482-1.323-.749a215.246 215.246 0 0 1-6.719-4.099c-.683-.439-1.339-.911-2.022-1.356a257.978 257.978 0 0 1-4.352-2.879c-3.088-2.125-6.095-4.359-9.056-6.626-.683-.537-1.369-1.063-2.039-1.6-31.546-24.906-56.543-58.943-68.43-97.53-12.458-40.029-9.776-84.95 11.808-121.411"/><path d="M290.774 31.116c-19.131 28.154-21.01 63.119-7.735 94.217 13.998 33.007 42.684 58.9 76.168 71.171 1.38.515 2.757.976 4.159 1.448.609.19 1.214.396 1.832.575 1.972.623 3.932 1.345 5.971 1.729 92.52 17.878 117.615-47.48 124.296-57.1-21.986 31.651-58.925 39.249-104.254 28.252-3.582-.879-7.519-2.169-10.968-3.395a133.788 133.788 0 0 1-13.024-5.406 135.34 135.34 0 0 1-22.835-13.931c-40.558-30.778-65.759-89.488-39.291-137.305"/></symbol><symbol id="www" viewBox="0 0 346 299"><path id="svg_6" class="st1" d="M118.4,113.7c4,0,7.7-0.4,11.2,0.2c1.4,0.3,3,2.7,3.4,4.4c4.6,17.7,9,35.5,13.5,53.3
		c0.2,0.8,0.5,1.5,0.9,3c4.3-13.8,8.3-26.9,12.4-39.9c1.8-5.7,4-11.3,5.3-17.2c0.1-0.5,0.5-2,1.8-3.1c2.6-2.4,7.5-2.4,10.2-0.1
		c1.3,1.2,1.8,2.7,2,3.2c5.1,17.8,10.5,35.4,15.8,53.1c0.3,1,0.7,2.1,1.2,3.4c4.7-17,9.3-33.6,13.9-50.1c3.1-11.2,3.1-11.2,16-9.7
		c-0.9,2.9-1.8,5.6-2.7,8.4c-6.6,20.4-13.4,40.8-19.6,61.4c-0.2,0.5-0.7,2.1-2.2,3.4c-2.9,2.4-8,2.5-10.8,0.1
		c-1.4-1.2-2-2.8-2.1-3.4c-4.9-17.1-10.2-34.1-15.4-51.2c-0.3-1.1-0.7-2.2-1.1-3.2c-4.7,14.5-9.3,28.8-13.9,43.2
		c-1.3,4.1-2.8,8.2-4.1,12.3c-0.2,0.7-0.8,1.7-1.8,2.7c-2.8,2.4-7.7,2.3-10.5,0.1c-1.4-1.2-2-2.7-2.1-3.1
		C138.5,181.5,130.1,153,118.4,113.7L118.4,113.7z"/><path id="svg_8" class="st1" d="M291.7,197.9c-4.7,12-11.2,23.2-19.1,33.1c-14.9-8.4-30.6-14.9-46.7-19.3c1.4-4.6,2.7-9.2,3.8-13.9
		h-9.9c-1,3.9-2,7.7-3.2,11.5c-13-2.9-26.2-4.5-39.5-4.8v-6.7h-9.7v6.8c-13.3,0.3-26.6,1.9-39.6,4.8c-1.2-3.8-2.3-7.7-3.2-11.6h-9.9
		c1.1,4.7,2.4,9.3,3.8,13.9c-16.1,4.4-31.8,10.8-46.6,19.2c-7.9-9.9-14.4-21.1-19.1-33.1h-16c19.4,56.2,72.7,96.6,135.6,96.6
		S288.6,254,308,197.8h-16.3V197.9z M78.1,238.5c13.8-7.6,28.3-13.5,43.3-17.5c7.5,20.6,18.4,39.9,32.2,57.2
		C124,273.8,97.6,259.5,78.1,238.5z M167.3,279.3c-15.9-18.1-28.2-38.6-36.5-60.7c12-2.6,24.2-4.1,36.5-4.4V279.3z M177,214.3
		c12.2,0.3,24.4,1.7,36.4,4.4c-8.1,21.8-20.2,42.4-36.4,60.7V214.3z M190.6,278.1c14-17.5,24.8-36.9,32.2-57.2
		c15,4,29.5,9.9,43.4,17.5C246.7,259.5,220.3,273.9,190.6,278.1z"/><path id="svg_9" class="st1" d="M52.6,104.4c4.7-12,11.2-23.2,19.1-33.1c14.9,8.4,30.5,14.9,46.6,19.2c-1.4,4.6-2.7,9.2-3.8,13.9
		h10c1-3.9,2-7.8,3.2-11.6c13,2.9,26.3,4.5,39.6,4.8v6.8h9.7v-6.8c13.2-0.3,26.5-1.9,39.5-4.8c1.2,3.8,2.3,7.7,3.2,11.6h9.9
		c-1.1-4.7-2.3-9.3-3.8-13.9c16.2-4.4,31.9-10.8,46.7-19.3c7.9,9.9,14.3,21.1,19,33.1h16C288.1,48.1,234.8,7.7,171.9,7.7
		S55.7,48.1,36.3,104.3h16.3L52.6,104.4L52.6,104.4z M266.2,63.8c-13.8,7.7-28.4,13.5-43.4,17.5c-7.4-20.3-18.1-39.7-32.2-57.2
		C220.3,28.4,246.7,42.8,266.2,63.8z M177,22.9c16.2,18.3,28.3,38.9,36.4,60.7c-12,2.6-24.1,4-36.4,4.4V22.9z M167.3,87.9
		c-12.2-0.3-24.4-1.8-36.5-4.4c8.2-22.1,20.5-42.7,36.5-60.7V87.9z M153.6,24.1c-13.9,17.3-24.8,36.6-32.2,57.2
		c-14.9-4-29.5-9.9-43.3-17.5C97.6,42.8,124,28.4,153.6,24.1z"/><path id="svg_10" class="st1" d="M232,113.8c4,0,7.7-0.4,11.2,0.2c1.4,0.3,3,2.7,3.4,4.4c4.6,17.7,9,35.5,13.5,53.3
		c0.2,0.8,0.5,1.5,0.9,3c4.3-13.8,8.3-26.9,12.4-39.9c1.8-5.7,4-11.3,5.3-17.2c0.1-0.5,0.5-2,1.8-3.1c2.6-2.4,7.5-2.4,10.2-0.1
		c1.3,1.2,1.8,2.7,2,3.2c5.1,17.8,10.5,35.4,15.8,53.1c0.3,1,0.7,2.1,1.2,3.4c4.7-17,9.3-33.6,13.9-50.1c3.1-11.2,3.1-11.2,16-9.7
		c-0.9,2.9-1.8,5.6-2.7,8.4c-6.6,20.4-13.4,40.8-19.6,61.4c-0.2,0.5-0.7,2.1-2.2,3.4c-2.9,2.4-8,2.5-10.8,0.1
		c-1.4-1.2-2-2.8-2.1-3.4c-4.9-17.1-10.2-34.1-15.4-51.2c-0.3-1.1-0.7-2.2-1.1-3.2c-4.7,14.5-9.3,28.8-13.9,43.2
		c-1.3,4.1-2.8,8.2-4.1,12.3c-0.2,0.7-0.8,1.7-1.8,2.7c-2.8,2.4-7.7,2.3-10.5,0.1c-1.4-1.2-2-2.7-2.1-3.1
		C252.1,181.6,243.6,153.1,232,113.8L232,113.8z"/><path id="svg_11" class="st1" d="M6.8,113.7c4,0,7.7-0.4,11.2,0.2c1.4,0.3,3,2.7,3.4,4.4c4.6,17.7,9,35.5,13.5,53.3
		c0.2,0.8,0.5,1.5,0.9,3c4.3-13.8,8.3-26.9,12.4-39.9c1.8-5.7,4-11.3,5.3-17.2c0.1-0.5,0.5-2,1.8-3.1c2.6-2.4,7.5-2.4,10.2-0.1
		c1.3,1.2,1.8,2.7,2,3.2c5.1,17.8,10.5,35.4,15.8,53.1c0.3,1,0.7,2.1,1.2,3.4c4.7-17,9.3-33.6,13.9-50.1c3.1-11.2,3.1-11.2,16-9.7
		c-0.9,2.9-1.8,5.6-2.7,8.4c-6.6,20.4-13.4,40.8-19.6,61.4c-0.2,0.5-0.7,2.1-2.2,3.4c-2.9,2.4-8,2.5-10.8,0.1
		c-1.4-1.2-2-2.8-2.1-3.4C72.1,167,66.8,150,61.6,132.9c-0.3-1.1-0.7-2.2-1.1-3.2c-4.7,14.5-9.3,28.8-13.9,43.2
		c-1.3,4.1-2.8,8.2-4.1,12.3c-0.2,0.7-0.8,1.7-1.8,2.7c-2.8,2.4-7.7,2.3-10.5,0.1c-1.4-1.2-2-2.7-2.1-3.1
		C26.9,181.4,18.5,152.9,6.8,113.7L6.8,113.7z"/></symbol><symbol id="link" viewBox="0 0 48 48"><path d="M14.101,42.314c-1.87,0-3.628-0.729-4.95-2.051L7.736,38.85c-2.729-2.729-2.729-7.171,0-9.899l9.192-9.192     c1.322-1.322,3.08-2.051,4.95-2.051s3.628,0.729,4.949,2.051l1.414,1.414c0.391,0.391,0.391,1.023,0,1.414s-1.023,0.391-1.414,0     l-1.414-1.414c-0.944-0.944-2.2-1.465-3.535-1.465c-1.336,0-2.592,0.521-3.536,1.465L9.15,30.364     c-1.949,1.949-1.949,5.121,0,7.071l1.414,1.414c0.944,0.944,2.2,1.465,3.536,1.465c1.335,0,2.591-0.521,3.535-1.465L24,32.485     c0.391-0.391,1.023-0.391,1.414,0s0.391,1.023,0,1.414l-6.364,6.364C17.729,41.586,15.971,42.314,14.101,42.314z"/><path d="M26.121,30.293c-1.869,0-3.628-0.729-4.949-2.051c-0.391-0.391-0.391-1.023,0-1.414s1.023-0.391,1.414,0     c0.944,0.944,2.2,1.465,3.535,1.465c1.336,0,2.592-0.521,3.536-1.465l9.192-9.192c1.949-1.949,1.949-5.121,0-7.07L37.436,9.15     c-1.949-1.949-5.122-1.949-7.071,0L24,15.515c-0.391,0.391-1.023,0.391-1.414,0s-0.391-1.023,0-1.414l6.364-6.364     c2.729-2.729,7.17-2.729,9.899,0l1.414,1.415c2.729,2.729,2.729,7.17,0,9.898l-9.192,9.192     C29.75,29.564,27.991,30.293,26.121,30.293z"/></symbol><symbol id="image" viewBox="0 0 32 32.000001"><path clip-rule="nonzero" fill-rule="nonzero" stroke-width="1" stroke-linecap="round" stroke-linejoin="round" stroke-miterlimit="4.1" stroke-dashoffset="0" id="rect4836" d="m15.46094,2a0.50005,0.50005 0 0 0 -0.46094,0.5l0,6.5l-5.97656,0l-0.02344,0a0.50005,0.50005 0 0 0 -0.02734,0.00195a0.50005,0.50005 0 0 0 -0.04688,0.00391a0.50005,0.50005 0 0 0 -0.03711,0.00781a0.50005,0.50005 0 0 0 -0.02344,0.00391a0.50005,0.50005 0 0 0 -0.01367,0.0039a0.50005,0.50005 0 0 0 -0.02539,0.00977a0.50005,0.50005 0 0 0 -0.03906,0.01758a0.50005,0.50005 0 0 0 -0.01367,0.00586a0.50005,0.50005 0 0 0 -0.03321,0.01758a0.50005,0.50005 0 0 0 -0.00585,0.0039a0.50005,0.50005 0 0 0 -0.03907,0.02735a0.50005,0.50005 0 0 0 -0.0332,0.02734a0.50005,0.50005 0 0 0 -0.00195,0.00195l-0.00391,0.00391a0.50005,0.50005 0 0 0 -0.01758,0.01562l-6.47851,5.98047a0.50005,0.50005 0 0 0 0.33984,0.86719l6.5,0l0,6a0.50005,0.50005 0 0 0 0.00195,0.02734a0.50005,0.50005 0 0 0 0.00391,0.04102a0.50005,0.50005 0 0 0 0.00195,0.01953a0.50005,0.50005 0 0 0 0.00196,0.00977a0.50005,0.50005 0 0 0 0.00781,0.02929a0.50005,0.50005 0 0 0 0.01172,0.04102a0.50005,0.50005 0 0 0 0.00586,0.01758a0.50005,0.50005 0 0 0 0.00586,0.01367a0.50005,0.50005 0 0 0 0.01757,0.0332a0.50005,0.50005 0 0 0 0.00977,0.01953a0.50005,0.50005 0 0 0 0.00781,0.01172a0.50005,0.50005 0 0 0 0.01172,0.01758a0.50005,0.50005 0 0 0 0.02344,0.0332a0.50005,0.50005 0 0 0 0.01172,0.01368a0.50005,0.50005 0 0 0 0.00976,0.01171l6,6.5a0.50005,0.50005 0 0 0 0.86719,-0.33984l0,-6.5l6,0a0.50005,0.50005 0 0 0 0.33984,-0.13086l6.5,-6a0.50005,0.50005 0 0 0 -0.33984,-0.86914l-6.5,0l0,-5.97852a0.50005,0.50005 0 0 0 -0.00195,-0.04882a0.50005,0.50005 0 0 0 -0.00391,-0.05078a0.50005,0.50005 0 0 0 -0.00195,-0.00586a0.50005,0.50005 0 0 0 -0.02344,-0.08985a0.50005,0.50005 0 0 0 -0.00781,-0.02148a0.50005,0.50005 0 0 0 -0.01172,-0.02539a0.50005,0.50005 0 0 0 -0.00195,-0.00391a0.50005,0.50005 0 0 0 -0.02344,-0.03906a0.50005,0.50005 0 0 0 -0.01172,-0.01953a0.50005,0.50005 0 0 0 -0.01563,-0.02149a0.50005,0.50005 0 0 0 -0.01367,-0.01758a0.50005,0.50005 0 0 0 -0.01562,-0.01562l-0.01953,-0.02148a0.50005,0.50005 0 0 0 -0.00196,-0.00196l-5.97851,-6.47656a0.50005,0.50005 0 0 0 -0.35547,-0.16211a0.50005,0.50005 0 0 0 -0.05078,0zm0.53906,1.7793l4.82031,5.2207l-4.82031,5.22266l0,-10.44336zm-5.7207,6.2207l4.7207,0l0,4.35742l-4.7207,-4.35742zm-1.2793,0.18164l5.21875,4.81836l-4.71875,0l-5.71875,0l5.21875,-4.81836zm12,0.09766l0,4.7207l-4.35742,0l4.35742,-4.7207zm-11,5.7207l4.35938,0l-4.35938,4.72266l0,-4.72266zm6.7793,0l4.7207,0l5.72266,0l-5.22266,4.82031l-5.2207,-4.82031zm-0.7793,0.64453l4.71875,4.35547l-4.71875,0l0,-4.35547zm-1,0.13477l0,4.7207l0,5.72266l-4.82031,-5.22266l4.82031,-5.2207z"/></symbol></svg>