<svg xmlns="http://www.w3.org/2000/svg" viewBox="0 0 128 128">
    <title></title>
    <path d="M64,126A62,62,0,1,0,2,64,62.05,62.05,0,0,0,64,126ZM16,88.7l25.2-.2a89.75,89.75,0,0,0,13.9,28.7A54.08,54.08,0,0,1,16,88.7ZM47.6,47H79a84.84,84.84,0,0,1,.2,33.3l-31.6.2A82.18,82.18,0,0,1,47.6,47Zm15.7,67.9A80.27,80.27,0,0,1,49.6,88.5l27.5-.2A84.49,84.49,0,0,1,63.3,114.9Zm8,2.6A88.17,88.17,0,0,0,85.4,88.2l26.9-.2A54.13,54.13,0,0,1,71.3,117.5ZM118,64a55.77,55.77,0,0,1-2.4,16l-28.3.2A90.39,90.39,0,0,0,87.1,47h28.1A53.15,53.15,0,0,1,118,64Zm-6.2-25H85.2A92,92,0,0,0,71.3,10.5,53.77,53.77,0,0,1,111.8,39ZM76.9,39H49.7A82.62,82.62,0,0,1,63.3,13.1,82.62,82.62,0,0,1,76.9,39ZM55.1,10.8A88.86,88.86,0,0,0,41.4,39H16.2A53.81,53.81,0,0,1,55.1,10.8ZM39.5,47a92,92,0,0,0-.1,33.5l-26.7.2A51.72,51.72,0,0,1,10,64a53.15,53.15,0,0,1,2.8-17Z"/>
</svg>