<?xml version="1.0" encoding="utf-8"?>
<!-- Generator: Adobe Illustrator 22.1.0, SVG Export Plug-In . SVG Version: 6.00 Build 0)  -->
<svg version="1.1" id="Слой_1" xmlns="http://www.w3.org/2000/svg" xmlns:xlink="http://www.w3.org/1999/xlink" x="0px" y="0px"
	 viewBox="0 0 346 299" style="enable-background:new 0 0 346 299;" xml:space="preserve">
<style type="text/css">
	.st0{fill:none;}
	.st1{fill:#FFFFFF;}
</style>
<g>
	<title>background</title>
	<rect id="canvas_background" x="-85" y="-106" class="st0" width="514" height="514"/>
</g>
<g>
	<title>Layer 1</title>
	<path id="svg_6" class="st1" d="M118.4,113.7c4,0,7.7-0.4,11.2,0.2c1.4,0.3,3,2.7,3.4,4.4c4.6,17.7,9,35.5,13.5,53.3
		c0.2,0.8,0.5,1.5,0.9,3c4.3-13.8,8.3-26.9,12.4-39.9c1.8-5.7,4-11.3,5.3-17.2c0.1-0.5,0.5-2,1.8-3.1c2.6-2.4,7.5-2.4,10.2-0.1
		c1.3,1.2,1.8,2.7,2,3.2c5.1,17.8,10.5,35.4,15.8,53.1c0.3,1,0.7,2.1,1.2,3.4c4.7-17,9.3-33.6,13.9-50.1c3.1-11.2,3.1-11.2,16-9.7
		c-0.9,2.9-1.8,5.6-2.7,8.4c-6.6,20.4-13.4,40.8-19.6,61.4c-0.2,0.5-0.7,2.1-2.2,3.4c-2.9,2.4-8,2.5-10.8,0.1
		c-1.4-1.2-2-2.8-2.1-3.4c-4.9-17.1-10.2-34.1-15.4-51.2c-0.3-1.1-0.7-2.2-1.1-3.2c-4.7,14.5-9.3,28.8-13.9,43.2
		c-1.3,4.1-2.8,8.2-4.1,12.3c-0.2,0.7-0.8,1.7-1.8,2.7c-2.8,2.4-7.7,2.3-10.5,0.1c-1.4-1.2-2-2.7-2.1-3.1
		C138.5,181.5,130.1,153,118.4,113.7L118.4,113.7z"/>
	<path id="svg_8" class="st1" d="M291.7,197.9c-4.7,12-11.2,23.2-19.1,33.1c-14.9-8.4-30.6-14.9-46.7-19.3c1.4-4.6,2.7-9.2,3.8-13.9
		h-9.9c-1,3.9-2,7.7-3.2,11.5c-13-2.9-26.2-4.5-39.5-4.8v-6.7h-9.7v6.8c-13.3,0.3-26.6,1.9-39.6,4.8c-1.2-3.8-2.3-7.7-3.2-11.6h-9.9
		c1.1,4.7,2.4,9.3,3.8,13.9c-16.1,4.4-31.8,10.8-46.6,19.2c-7.9-9.9-14.4-21.1-19.1-33.1h-16c19.4,56.2,72.7,96.6,135.6,96.6
		S288.6,254,308,197.8h-16.3V197.9z M78.1,238.5c13.8-7.6,28.3-13.5,43.3-17.5c7.5,20.6,18.4,39.9,32.2,57.2
		C124,273.8,97.6,259.5,78.1,238.5z M167.3,279.3c-15.9-18.1-28.2-38.6-36.5-60.7c12-2.6,24.2-4.1,36.5-4.4V279.3z M177,214.3
		c12.2,0.3,24.4,1.7,36.4,4.4c-8.1,21.8-20.2,42.4-36.4,60.7V214.3z M190.6,278.1c14-17.5,24.8-36.9,32.2-57.2
		c15,4,29.5,9.9,43.4,17.5C246.7,259.5,220.3,273.9,190.6,278.1z"/>
	<path id="svg_9" class="st1" d="M52.6,104.4c4.7-12,11.2-23.2,19.1-33.1c14.9,8.4,30.5,14.9,46.6,19.2c-1.4,4.6-2.7,9.2-3.8,13.9
		h10c1-3.9,2-7.8,3.2-11.6c13,2.9,26.3,4.5,39.6,4.8v6.8h9.7v-6.8c13.2-0.3,26.5-1.9,39.5-4.8c1.2,3.8,2.3,7.7,3.2,11.6h9.9
		c-1.1-4.7-2.3-9.3-3.8-13.9c16.2-4.4,31.9-10.8,46.7-19.3c7.9,9.9,14.3,21.1,19,33.1h16C288.1,48.1,234.8,7.7,171.9,7.7
		S55.7,48.1,36.3,104.3h16.3L52.6,104.4L52.6,104.4z M266.2,63.8c-13.8,7.7-28.4,13.5-43.4,17.5c-7.4-20.3-18.1-39.7-32.2-57.2
		C220.3,28.4,246.7,42.8,266.2,63.8z M177,22.9c16.2,18.3,28.3,38.9,36.4,60.7c-12,2.6-24.1,4-36.4,4.4V22.9z M167.3,87.9
		c-12.2-0.3-24.4-1.8-36.5-4.4c8.2-22.1,20.5-42.7,36.5-60.7V87.9z M153.6,24.1c-13.9,17.3-24.8,36.6-32.2,57.2
		c-14.9-4-29.5-9.9-43.3-17.5C97.6,42.8,124,28.4,153.6,24.1z"/>
	<path id="svg_10" class="st1" d="M232,113.8c4,0,7.7-0.4,11.2,0.2c1.4,0.3,3,2.7,3.4,4.4c4.6,17.7,9,35.5,13.5,53.3
		c0.2,0.8,0.5,1.5,0.9,3c4.3-13.8,8.3-26.9,12.4-39.9c1.8-5.7,4-11.3,5.3-17.2c0.1-0.5,0.5-2,1.8-3.1c2.6-2.4,7.5-2.4,10.2-0.1
		c1.3,1.2,1.8,2.7,2,3.2c5.1,17.8,10.5,35.4,15.8,53.1c0.3,1,0.7,2.1,1.2,3.4c4.7-17,9.3-33.6,13.9-50.1c3.1-11.2,3.1-11.2,16-9.7
		c-0.9,2.9-1.8,5.6-2.7,8.4c-6.6,20.4-13.4,40.8-19.6,61.4c-0.2,0.5-0.7,2.1-2.2,3.4c-2.9,2.4-8,2.5-10.8,0.1
		c-1.4-1.2-2-2.8-2.1-3.4c-4.9-17.1-10.2-34.1-15.4-51.2c-0.3-1.1-0.7-2.2-1.1-3.2c-4.7,14.5-9.3,28.8-13.9,43.2
		c-1.3,4.1-2.8,8.2-4.1,12.3c-0.2,0.7-0.8,1.7-1.8,2.7c-2.8,2.4-7.7,2.3-10.5,0.1c-1.4-1.2-2-2.7-2.1-3.1
		C252.1,181.6,243.6,153.1,232,113.8L232,113.8z"/>
	<path id="svg_11" class="st1" d="M6.8,113.7c4,0,7.7-0.4,11.2,0.2c1.4,0.3,3,2.7,3.4,4.4c4.6,17.7,9,35.5,13.5,53.3
		c0.2,0.8,0.5,1.5,0.9,3c4.3-13.8,8.3-26.9,12.4-39.9c1.8-5.7,4-11.3,5.3-17.2c0.1-0.5,0.5-2,1.8-3.1c2.6-2.4,7.5-2.4,10.2-0.1
		c1.3,1.2,1.8,2.7,2,3.2c5.1,17.8,10.5,35.4,15.8,53.1c0.3,1,0.7,2.1,1.2,3.4c4.7-17,9.3-33.6,13.9-50.1c3.1-11.2,3.1-11.2,16-9.7
		c-0.9,2.9-1.8,5.6-2.7,8.4c-6.6,20.4-13.4,40.8-19.6,61.4c-0.2,0.5-0.7,2.1-2.2,3.4c-2.9,2.4-8,2.5-10.8,0.1
		c-1.4-1.2-2-2.8-2.1-3.4C72.1,167,66.8,150,61.6,132.9c-0.3-1.1-0.7-2.2-1.1-3.2c-4.7,14.5-9.3,28.8-13.9,43.2
		c-1.3,4.1-2.8,8.2-4.1,12.3c-0.2,0.7-0.8,1.7-1.8,2.7c-2.8,2.4-7.7,2.3-10.5,0.1c-1.4-1.2-2-2.7-2.1-3.1
		C26.9,181.4,18.5,152.9,6.8,113.7L6.8,113.7z"/>
</g>
</svg>
