<svg height="512" viewBox="0 0 512 512" width="512" xmlns="http://www.w3.org/2000/svg"><path fill-rule="evenodd" clip-rule="evenodd" fill="#e44d26" d="M93.063 116.909l29.656 332.633L255.8 486.486l133.449-36.997 29.689-332.58z"/><path d="M256 184.903H153.702l.977 10.945 10.027 112.422H256v-40.795h-53.984l-3.729-41.775H256v-40.797zm-45.614 176.303l-2.905-32.536h-40.953l5.716 64.056 83.568 23.198.188-.052v-42.445l-.179.048-45.435-12.269z" fill-rule="evenodd" clip-rule="evenodd" fill="#ebebeb"/><path fill-rule="evenodd" clip-rule="evenodd" fill="#f16529" d="M256 144.106v314.102l107.832-29.895 25.371-284.207z"/><path d="M255.858 308.271h50.236l-4.736 52.91-45.5 12.281v42.442l83.634-23.179.614-6.892 9.587-107.403.995-10.955h-94.83v40.796zm0-123.368V225.7H354.4l.818-9.17 1.859-20.682.975-10.945H255.858z" fill-rule="evenodd" clip-rule="evenodd" fill="#fff"/><path d="M163.079 46.997h-18.965V26.514h-20.731v62.028h20.732V67.771h18.964v20.771h20.732V26.514h-20.733v20.483zm29.745.086h18.252v41.459h20.733V47.083h18.26V26.514h-57.245v20.569zm101.246 1.226l-13.299-21.795h-21.617v62.028h20.285V57.797l14.273 22.055h.357l14.263-22.055v30.745h20.646V26.514h-21.626L294.07 48.309zm65.966 19.73V26.514h-20.738v62.028h49.894V68.039h-29.156z" fill-rule="evenodd" clip-rule="evenodd"/></svg>