<svg xmlns="http://www.w3.org/2000/svg" viewBox="0 0 1104 1024"><path d="M381.535 872.296c-62.838 0-113.778-50.94-113.778-113.778V493.037c0-62.838 50.94-113.778 113.778-113.778h341.333v-75.852h-189.63c-41.892 0-75.852-33.96-75.852-75.852V-.001H78.127c-41.892 0-75.852 33.96-75.852 75.852v872.296c0 41.892 33.96 75.852 75.852 75.852h568.889c41.892 0 75.852-33.96 75.852-75.852v-75.852zM495.313 0l227.556 265.481h-189.63c-20.946 0-37.926-16.98-37.926-37.926V-.001zm530.963 417.185c41.892 0 75.852 33.96 75.852 75.852v265.481c0 41.892-33.96 75.852-75.852 75.852H381.535c-41.892 0-75.852-33.96-75.852-75.852V493.037c0-41.892 33.96-75.852 75.852-75.852zM533.239 682.667c0 20.946-16.98 37.926-37.926 37.926h-37.926c-20.946 0-37.926-16.98-37.926-37.926V568.889c0-20.946 16.98-37.926 37.926-37.926h37.926c20.946 0 37.926 16.98 37.926 37.926h37.926c0-41.892-33.96-75.852-75.852-75.852h-37.926c-41.892 0-75.852 33.96-75.852 75.852v113.778c0 41.892 33.96 75.852 75.852 75.852h37.926c41.892 0 75.852-33.96 75.852-75.852zm151.703-189.63c-41.892 0-75.852 33.96-75.852 75.852s33.96 75.852 75.852 75.852h37.926c20.946 0 37.926 16.98 37.926 37.926s-16.98 37.926-37.926 37.926h-37.926c-20.946 0-37.926-16.98-37.926-37.926H609.09c0 41.892 33.96 75.852 75.852 75.852h37.926c41.892 0 75.852-33.96 75.852-75.852s-33.96-75.852-75.852-75.852h-37.926c-20.946 0-37.926-16.98-37.926-37.926s16.98-37.926 37.926-37.926h37.926c20.946 0 37.926 16.98 37.926 37.926h37.926c0-41.892-33.96-75.852-75.852-75.852zm227.556 0c-41.892 0-75.852 33.96-75.852 75.852s33.96 75.852 75.852 75.852h37.926c20.946 0 37.926 16.98 37.926 37.926s-16.98 37.926-37.926 37.926h-37.926c-20.946 0-37.926-16.98-37.926-37.926h-37.926c0 41.892 33.96 75.852 75.852 75.852h37.926c41.892 0 75.852-33.96 75.852-75.852s-33.96-75.852-75.852-75.852h-37.926c-20.946 0-37.926-16.98-37.926-37.926s16.98-37.926 37.926-37.926h37.926c20.946 0 37.926 16.98 37.926 37.926h37.926c0-41.892-33.96-75.852-75.852-75.852z"/></svg>