<svg xmlns="http://www.w3.org/2000/svg" viewBox="0 0 727 1024"><path d="M113.035 92.141h42.205v46.384h46.384V0H155.24v45.757h-42.205V0H66.651v138.525h46.384V92.141zm149.39 46.384h46.384V45.966h40.743V0H221.683v45.966h40.743v92.559zm152.524-68.74l31.967 49.309h.836l31.758-49.309v68.74h46.175V0h-48.264l-29.669 48.682L418.083 0h-48.264v138.525h45.13v-68.74zm245.083 22.983h-65.188V0h-46.175v138.525h111.363V92.768zM0 199.117l66.233 742.562 297.108 82.112 297.317-82.321 66.233-742.353zm583.352 242.785H234.845l8.357 93.395h332.001l-25.072 279.558-186.581 51.816-186.79-51.816-12.954-146.256h91.305l6.895 75.844 101.334 27.371 101.543-27.371 10.447-118.049H160.044l-24.655-275.379h456.109z"/></svg>