<svg xmlns="http://www.w3.org/2000/svg"><symbol id="www" viewBox="0 0 346 299"><style>.st1{fill:#fff}</style><path id="canvas_background" d="M-85-106h514v514H-85z" fill="none"/><path id="svg_6" class="st1" d="M118.4 113.7c4 0 7.7-.4 11.2.2 1.4.3 3 2.7 3.4 4.4 4.6 17.7 9 35.5 13.5 53.3.2.8.5 1.5.9 3 4.3-13.8 8.3-26.9 12.4-39.9 1.8-5.7 4-11.3 5.3-17.2.1-.5.5-2 1.8-3.1 2.6-2.4 7.5-2.4 10.2-.1 1.3 1.2 1.8 2.7 2 3.2 5.1 17.8 10.5 35.4 15.8 53.1.3 1 .7 2.1 1.2 3.4 4.7-17 9.3-33.6 13.9-50.1 3.1-11.2 3.1-11.2 16-9.7-.9 2.9-1.8 5.6-2.7 8.4-6.6 20.4-13.4 40.8-19.6 61.4-.2.5-.7 2.1-2.2 3.4-2.9 2.4-8 2.5-10.8.1-1.4-1.2-2-2.8-2.1-3.4-4.9-17.1-10.2-34.1-15.4-51.2-.3-1.1-.7-2.2-1.1-3.2-4.7 14.5-9.3 28.8-13.9 43.2-1.3 4.1-2.8 8.2-4.1 12.3-.2.7-.8 1.7-1.8 2.7-2.8 2.4-7.7 2.3-10.5.1-1.4-1.2-2-2.7-2.1-3.1-1.2-3.4-9.6-31.9-21.3-71.2z"/><path id="svg_8" class="st1" d="M291.7 197.9c-4.7 12-11.2 23.2-19.1 33.1-14.9-8.4-30.6-14.9-46.7-19.3 1.4-4.6 2.7-9.2 3.8-13.9h-9.9c-1 3.9-2 7.7-3.2 11.5-13-2.9-26.2-4.5-39.5-4.8v-6.7h-9.7v6.8c-13.3.3-26.6 1.9-39.6 4.8-1.2-3.8-2.3-7.7-3.2-11.6h-9.9c1.1 4.7 2.4 9.3 3.8 13.9-16.1 4.4-31.8 10.8-46.6 19.2-7.9-9.9-14.4-21.1-19.1-33.1h-16c19.4 56.2 72.7 96.6 135.6 96.6S288.6 254 308 197.8h-16.3v.1zM78.1 238.5c13.8-7.6 28.3-13.5 43.3-17.5 7.5 20.6 18.4 39.9 32.2 57.2-29.6-4.4-56-18.7-75.5-39.7zm89.2 40.8c-15.9-18.1-28.2-38.6-36.5-60.7 12-2.6 24.2-4.1 36.5-4.4v65.1zm9.7-65c12.2.3 24.4 1.7 36.4 4.4-8.1 21.8-20.2 42.4-36.4 60.7v-65.1zm13.6 63.8c14-17.5 24.8-36.9 32.2-57.2 15 4 29.5 9.9 43.4 17.5-19.5 21.1-45.9 35.5-75.6 39.7z"/><path id="svg_9" class="st1" d="M52.6 104.4c4.7-12 11.2-23.2 19.1-33.1 14.9 8.4 30.5 14.9 46.6 19.2-1.4 4.6-2.7 9.2-3.8 13.9h10c1-3.9 2-7.8 3.2-11.6 13 2.9 26.3 4.5 39.6 4.8v6.8h9.7v-6.8c13.2-.3 26.5-1.9 39.5-4.8 1.2 3.8 2.3 7.7 3.2 11.6h9.9c-1.1-4.7-2.3-9.3-3.8-13.9 16.2-4.4 31.9-10.8 46.7-19.3 7.9 9.9 14.3 21.1 19 33.1h16C288.1 48.1 234.8 7.7 171.9 7.7S55.7 48.1 36.3 104.3h16.3v.1zm213.6-40.6c-13.8 7.7-28.4 13.5-43.4 17.5-7.4-20.3-18.1-39.7-32.2-57.2 29.7 4.3 56.1 18.7 75.6 39.7zM177 22.9c16.2 18.3 28.3 38.9 36.4 60.7-12 2.6-24.1 4-36.4 4.4V22.9zm-9.7 65c-12.2-.3-24.4-1.8-36.5-4.4 8.2-22.1 20.5-42.7 36.5-60.7v65.1zm-13.7-63.8c-13.9 17.3-24.8 36.6-32.2 57.2-14.9-4-29.5-9.9-43.3-17.5 19.5-21 45.9-35.4 75.5-39.7z"/><path id="svg_10" class="st1" d="M232 113.8c4 0 7.7-.4 11.2.2 1.4.3 3 2.7 3.4 4.4 4.6 17.7 9 35.5 13.5 53.3.2.8.5 1.5.9 3 4.3-13.8 8.3-26.9 12.4-39.9 1.8-5.7 4-11.3 5.3-17.2.1-.5.5-2 1.8-3.1 2.6-2.4 7.5-2.4 10.2-.1 1.3 1.2 1.8 2.7 2 3.2 5.1 17.8 10.5 35.4 15.8 53.1.3 1 .7 2.1 1.2 3.4 4.7-17 9.3-33.6 13.9-50.1 3.1-11.2 3.1-11.2 16-9.7-.9 2.9-1.8 5.6-2.7 8.4-6.6 20.4-13.4 40.8-19.6 61.4-.2.5-.7 2.1-2.2 3.4-2.9 2.4-8 2.5-10.8.1-1.4-1.2-2-2.8-2.1-3.4-4.9-17.1-10.2-34.1-15.4-51.2-.3-1.1-.7-2.2-1.1-3.2-4.7 14.5-9.3 28.8-13.9 43.2-1.3 4.1-2.8 8.2-4.1 12.3-.2.7-.8 1.7-1.8 2.7-2.8 2.4-7.7 2.3-10.5.1-1.4-1.2-2-2.7-2.1-3.1-1.2-3.4-9.7-31.9-21.3-71.2z"/><path id="svg_11" class="st1" d="M6.8 113.7c4 0 7.7-.4 11.2.2 1.4.3 3 2.7 3.4 4.4 4.6 17.7 9 35.5 13.5 53.3.2.8.5 1.5.9 3 4.3-13.8 8.3-26.9 12.4-39.9 1.8-5.7 4-11.3 5.3-17.2.1-.5.5-2 1.8-3.1 2.6-2.4 7.5-2.4 10.2-.1 1.3 1.2 1.8 2.7 2 3.2 5.1 17.8 10.5 35.4 15.8 53.1.3 1 .7 2.1 1.2 3.4 4.7-17 9.3-33.6 13.9-50.1 3.1-11.2 3.1-11.2 16-9.7-.9 2.9-1.8 5.6-2.7 8.4-6.6 20.4-13.4 40.8-19.6 61.4-.2.5-.7 2.1-2.2 3.4-2.9 2.4-8 2.5-10.8.1-1.4-1.2-2-2.8-2.1-3.4-4.9-17.1-10.2-34.1-15.4-51.2-.3-1.1-.7-2.2-1.1-3.2-4.7 14.5-9.3 28.8-13.9 43.2-1.3 4.1-2.8 8.2-4.1 12.3-.2.7-.8 1.7-1.8 2.7-2.8 2.4-7.7 2.3-10.5.1-1.4-1.2-2-2.7-2.1-3.1-1.2-3.5-9.6-32-21.3-71.2z"/></symbol></svg>