<svg xmlns="http://www.w3.org/2000/svg" viewBox="0 0 128 128"><path d="M64 126A62 62 0 102 64a62.05 62.05 0 0062 62zM16 88.7l25.2-.2a89.75 89.75 0 0013.9 28.7A54.08 54.08 0 0116 88.7zM47.6 47H79a84.84 84.84 0 01.2 33.3l-31.6.2a82.18 82.18 0 010-33.5zm15.7 67.9a80.27 80.27 0 01-13.7-26.4l27.5-.2a84.49 84.49 0 01-13.8 26.6zm8 2.6a88.17 88.17 0 0014.1-29.3l26.9-.2a54.13 54.13 0 01-41 29.5zM118 64a55.77 55.77 0 01-2.4 16l-28.3.2a90.39 90.39 0 00-.2-33.2h28.1a53.15 53.15 0 012.8 17zm-6.2-25H85.2a92 92 0 00-13.9-28.5A53.77 53.77 0 01111.8 39zm-34.9 0H49.7a82.62 82.62 0 0113.6-25.9A82.62 82.62 0 0176.9 39zM55.1 10.8A88.86 88.86 0 0041.4 39H16.2a53.81 53.81 0 0138.9-28.2zM39.5 47a92 92 0 00-.1 33.5l-26.7.2A51.72 51.72 0 0110 64a53.15 53.15 0 012.8-17z"/></svg>