<?xml version="1.0" standalone="no"?>
<!DOCTYPE svg PUBLIC "-//W3C//DTD SVG 20010904//EN"
 "http://www.w3.org/TR/2001/REC-SVG-20010904/DTD/svg10.dtd">
<svg version="1.0" xmlns="http://www.w3.org/2000/svg"
 width="200.000000pt" height="200.000000pt" viewBox="0 0 200.000000 200.000000"
 preserveAspectRatio="xMidYMid meet">
<metadata>
Created by potrace 1.11, written by Peter Selinger 2001-2013
</metadata>
<g transform="translate(0.000000,200.000000) scale(0.100000,-0.100000)"
fill="#000000" stroke="none">
<path d="M1683 1564 c-7 -3 -13 -14 -13 -24 0 -24 17 -36 64 -44 103 -19 198
-133 198 -236 -1 -51 -29 -122 -63 -159 -29 -31 -93 -61 -146 -67 -27 -3 -57
-7 -68 -9 -26 -3 -95 17 -170 48 -97 40 -174 47 -313 27 -210 -30 -211 -30
-254 3 -18 14 -46 28 -63 31 -29 7 -85 69 -85 95 0 42 -90 160 -142 187 -15 8
-35 31 -43 51 -26 63 -55 67 -55 8 0 -30 -5 -37 -50 -61 -27 -15 -50 -31 -50
-35 0 -4 -16 -30 -35 -58 l-34 -52 21 -35 c24 -41 45 -54 87 -54 89 0 112 -54
68 -160 -45 -108 -121 -164 -257 -186 -14 -3 -30 -6 -37 -9 -7 -2 -14 4 -17
13 -5 15 -19 17 -111 14 -100 -3 -105 -4 -106 -25 -7 -157 -9 -150 61 -162 18
-3 36 -8 40 -10 4 -2 22 0 41 4 19 5 47 12 62 15 24 6 27 11 24 34 l-5 27 92
2 c50 1 135 2 189 3 88 2 132 -6 101 -17 -7 -2 -47 -31 -90 -63 -44 -33 -87
-60 -98 -60 -50 0 -110 -67 -103 -112 5 -29 38 -57 74 -64 78 -15 167 45 161
109 -3 28 2 33 140 112 131 75 238 123 250 110 3 -3 0 -16 -6 -30 -25 -54 -22
-55 113 -55 140 0 130 -6 125 78 -1 20 3 32 12 33 41 3 75 -5 88 -21 42 -50
126 -63 217 -32 58 21 139 78 149 105 8 26 17 14 21 -31 2 -20 8 -47 15 -59 9
-18 7 -27 -6 -47 -16 -25 -16 -26 26 -47 39 -20 92 -25 143 -15 11 3 27 5 35
5 11 1 23 28 39 86 13 46 24 88 25 92 1 9 -24 11 -130 14 l-70 2 -15 57 -15
58 67 27 c103 40 142 73 183 155 31 63 35 78 32 138 -3 80 -27 133 -92 202
-58 62 -177 113 -221 94z"/>
<path d="M48 883 c-24 -6 -23 -19 2 -19 11 0 20 6 20 13 0 7 -1 12 -2 12 -2
-1 -11 -3 -20 -6z"/>
<path d="M80 879 c0 -15 18 -19 23 -6 3 8 -1 14 -9 14 -8 0 -14 -4 -14 -8z"/>
<path d="M116 873 c-6 -15 35 -13 46 2 5 6 8 5 8 -2 0 -7 8 -13 18 -13 15 1
15 2 -3 13 -27 16 -63 16 -69 0z"/>
<path d="M1813 863 c-15 -5 -17 -23 -4 -23 5 0 11 7 15 15 3 8 4 15 3 14 -1 0
-8 -3 -14 -6z"/>
<path d="M1850 850 c0 -5 5 -10 10 -10 6 0 10 5 10 10 0 6 -4 10 -10 10 -5 0
-10 -4 -10 -10z"/>
<path d="M1890 850 c0 -5 4 -10 9 -10 6 0 13 5 16 10 3 6 -1 10 -9 10 -9 0
-16 -4 -16 -10z"/>
</g>
</svg>
