<svg height="56.693" viewBox="-1163 1657.697 56.693 56.693" width="56.693" xmlns="http://www.w3.org/2000/svg"><path d="M-1110.275 1686.891l.032.002a.17.17 0 00.166-.138.17.17 0 00-.136-.198c-2.311-.426-4.002-.897-9.708-.85.356-1.315.548-2.87.586-4.713-.009-4.997-2.4-6.764-2.86-7.594.677-3.783-.113-5.505-.48-6.095-1.355-.483-4.714 1.24-6.55 2.453-2.992-.875-9.315-.79-11.686.226-4.376-3.133-6.69-2.653-6.69-2.653s-1.497 2.681-.396 6.605c-1.44 1.835-2.512 3.134-2.512 6.575 0 1.94.228 3.675.743 5.19-2.29-.006-7.09.303-9.338.858a.172.172 0 00-.124.206.171.171 0 00.205.124c2.268-.561 7.229-.866 9.379-.848.123.326.26.643.413.949-5.527.146-7.018.936-9.338 1.515-.168.043-.333.083-.493.123a.17.17 0 00-.125.205.17.17 0 00.206.125l.494-.124c2.328-.582 3.838-1.376 9.432-1.51 1.644 2.985 4.815 4.843 10.162 5.357-.763.579-1.68 1.679-1.806 2.95-.96.621-2.89.826-4.39.352-2.103-.663-2.908-4.827-6.056-4.234-.682.129-.547.578.043.96.96.62 1.863 1.398 2.56 3.052.535 1.27 1.66 3.54 5.216 3.54 1.412 0 2.4-.17 2.4-.17s.028 3.242.028 4.503c0 1.453-1.961 1.863-1.961 2.562 0 .276.649.302 1.17.302 1.032 0 3.177-.86 3.177-2.37 0-1.201.02-5.237.02-5.943 0-1.543.827-2.032.827-2.032s.103 8.24-.198 9.344c-.352 1.298-.988 1.114-.988 1.693 0 .862 2.583.212 3.439-1.68.661-1.472.372-9.555.372-9.555l.706-.015s.04 3.7.016 5.392c-.025 1.751-.143 3.967.896 5.012.684.686 2.9 1.891 2.9.79 0-.64-1.215-1.167-1.215-2.899v-7.97c.969 0 .823 2.621.823 2.621l.072 4.87s-.214 1.773 1.918 2.516c.752.263 2.362.335 2.438-.107.076-.443-1.939-1.1-1.957-2.475-.011-.838.037-1.327.037-4.968s-.489-4.988-2.192-6.06c5.258-.542 8.512-1.842 10.099-5.327 1.822.06 5.639.246 10.074 1.602a.17.17 0 00.098-.324c-4.374-1.338-8.074-1.547-10.027-1.612.123-.303.236-.62.336-.953 5.739-.053 7.434.416 9.743.843zm-39.84 5.54c-.21 0-.38-.114-.38-.254s.17-.254.38-.254.382.114.382.254-.17.254-.381.254zm1.186.644c-.21 0-.38-.113-.38-.254 0-.14.17-.254.38-.254s.382.114.382.254-.171.254-.382.254zm.344.607c0-.14.17-.254.38-.254s.382.114.382.254-.17.254-.381.254-.381-.113-.381-.254zm1.016 1.228c-.21 0-.381-.113-.381-.254 0-.14.17-.254.381-.254.21 0 .381.114.381.254s-.17.254-.38.254zm.725.918c-.21 0-.381-.114-.381-.254s.17-.254.38-.254.382.114.382.254-.17.254-.381.254zm.978.78c-.21 0-.38-.113-.38-.253s.17-.254.38-.254.381.113.381.254c0 .14-.17.254-.38.254zm1.37.509c-.211 0-.382-.114-.382-.254s.171-.254.381-.254.382.114.382.254-.171.254-.382.254zm1.373 0c-.21 0-.38-.114-.38-.254s.17-.254.38-.254.381.114.381.254-.17.254-.38.254zm1.379-.216c-.21 0-.381-.114-.381-.255s.17-.253.38-.253c.211 0 .382.113.382.254s-.17.254-.381.254zm10.794-5.409a106.198 106.198 0 01-6.943-.001c-5.777-.203-8.96-2.641-8.96-6.865 0-.44.094-1.981 1.289-3.414 1.162-1.393 2.942-2.13 5.148-2.13.15 0 .419.017.965.05 1.17.074 3.128.195 5.066.195 1.756 0 3.531-.13 4.485-.199.447-.033.626-.045.741-.045 4.693 0 6.365 2.998 6.365 5.804 0 2.891-1.415 6.384-8.156 6.605z"/><path d="M-1151.262 1695.146c.91 0 .015-1.41 0-2.07-.004.641-.91 2.07 0 2.07zm17.709-6.07a.17.17 0 00-.17.17c0 .373-.438.79-1.025.79-.085 0-.166-.01-.244-.026a1.339 1.339 0 01-.589-.297 1.379 1.379 0 01-.192-.2c-.085-.108-.132-.208-.132-.267a.17.17 0 00-.339 0c0 .048.01.102.029.16.028.085.077.179.144.273a1.67 1.67 0 00.593.512 1.596 1.596 0 00.73.184 1.48 1.48 0 00.984-.364c.06-.054.114-.112.16-.173a1.03 1.03 0 00.214-.492.795.795 0 00.006-.1.17.17 0 00-.17-.17zm-1.697-.906a.59.59 0 00.483.257.581.581 0 00.432-.191.58.58 0 00.102-.167.57.57 0 00.05-.226.583.583 0 00-.996-.412c-.005.004-.009.01-.013.015a.587.587 0 00-.078.106.578.578 0 00-.069.41.582.582 0 00.088.208zm-4.32-6.119a2.64 2.64 0 00-.386-.387 2.08 2.08 0 00-.434-.273 1.736 1.736 0 00-.719-.162c-1.336 0-2.418 1.613-2.418 3.604 0 1.99 1.082 3.378 2.418 3.378a1.911 1.911 0 00.72-.141c.15-.062.296-.143.433-.242s.266-.215.385-.348.23-.283.328-.447c.345-.574.552-1.33.552-2.2 0-.871-.207-1.67-.552-2.293a3.34 3.34 0 00-.328-.489zm11.531-.823c-1.336 0-2.418 1.614-2.418 3.604s1.083 3.378 2.418 3.378c1.336 0 2.418-1.387 2.418-3.378 0-1.99-1.082-3.604-2.418-3.604z"/></svg>