<svg xmlns="http://www.w3.org/2000/svg" xmlns:xlink="http://www.w3.org/1999/xlink" viewBox="0 0 452.24 357.86"><defs><linearGradient id="Безымянный_градиент" x1="333.23" y1="177.51" x2="344.94" y2="194" gradientTransform="matrix(1 0 0 -1 0 360)" gradientUnits="userSpaceOnUse"><stop offset="0"/><stop offset=".17" stop-color="#00050a"/><stop offset=".45" stop-color="#001224"/><stop offset=".81" stop-color="#01264f"/><stop offset="1" stop-color="#013369"/></linearGradient><linearGradient id="Безымянный_градиент_2" x1="323.79" y1="177.06" x2="336.61" y2="195.12" xlink:href="#Безымянный_градиент"/><linearGradient id="Безымянный_градиент_3" x1="-21.25" y1="158.19" x2="-97.72" y2="125.77" gradientTransform="matrix(-.82 0 0 -1 201.45 360)" xlink:href="#Безымянный_градиент"/><linearGradient id="Безымянный_градиент_4" x1="-36.56" y1="99.13" x2="-78.69" y2="120.8" gradientTransform="matrix(-.82 -.04 .05 -1 184.82 363.01)" xlink:href="#Безымянный_градиент"/><linearGradient id="Безымянный_градиент_6" x1="-58.51" y1="78.02" x2="-65.27" y2="99.55" gradientTransform="matrix(-.82 0 0 -1 201.45 360)" xlink:href="#Безымянный_градиент"/><linearGradient id="Безымянный_градиент_7" x1="-40.91" y1="66.38" x2="-68.48" y2="99.33" gradientTransform="matrix(-.82 0 0 -1 201.45 360)" xlink:href="#Безымянный_градиент"/><linearGradient id="Безымянный_градиент_8" y1="129.53" x2="189.33" y2="129.53" gradientTransform="matrix(1 0 0 -1 0 360)" gradientUnits="userSpaceOnUse"><stop offset="0"/><stop offset="1" stop-color="#013369"/></linearGradient><linearGradient id="Безымянный_градиент_9" x1="443.96" y1="248.7" x2="455.41" y2="251.59" gradientTransform="matrix(1 0 0 -1 0 360)" gradientUnits="userSpaceOnUse"><stop offset="0"/><stop offset=".7" stop-color="#01244a"/><stop offset="1" stop-color="#013369"/></linearGradient><linearGradient id="Безымянный_градиент_10" x1="439.01" y1="245.26" x2="452.7" y2="245.92" xlink:href="#Безымянный_градиент_8"/><linearGradient id="Безымянный_градиент_12" x1="327.02" y1="240.19" x2="410.69" y2="258.63" xlink:href="#Безымянный_градиент_8"/><linearGradient id="Безымянный_градиент_13" x1="390.2" y1="254.61" x2="451.71" y2="254.61" xlink:href="#Безымянный_градиент_8"/><linearGradient id="Безымянный_градиент_17" x1="496.86" y1="389.8" x2="505.23" y2="389.8" gradientTransform="matrix(.83 .4 .38 -.79 -156.41 126.82)" xlink:href="#Безымянный_градиент_8"/><linearGradient id="Безымянный_градиент_18" x1="467.97" y1="369.05" x2="504.93" y2="402.78" gradientTransform="matrix(.83 .4 .38 -.79 -156.41 126.82)" gradientUnits="userSpaceOnUse"><stop offset="0"/><stop offset=".24" stop-color="#001325"/><stop offset=".58" stop-color="#012b55"/><stop offset=".85" stop-color="#013a73"/><stop offset="1" stop-color="#01407e"/></linearGradient><linearGradient id="Безымянный_градиент_24" x1="540.92" y1="339.62" x2="544.41" y2="342.81" gradientTransform="matrix(.83 .4 .38 -.79 -156.41 126.82)" gradientUnits="userSpaceOnUse"><stop offset="0"/><stop offset=".23" stop-color="#000c19"/><stop offset=".72" stop-color="#012c57"/><stop offset="1" stop-color="#01407e"/></linearGradient><linearGradient id="Безымянный_градиент_26" x1="149.53" y1="-26.53" x2="169.33" y2="-3.09" gradientTransform="matrix(.76 -.04 -.05 -.84 23.06 332.2)" xlink:href="#Безымянный_градиент"/><linearGradient id="Безымянный_градиент_27" x1="143.36" y1="-27.22" x2="167.19" y2="-16.82" gradientTransform="matrix(.76 -.04 -.05 -.84 23.06 332.2)" xlink:href="#Безымянный_градиент"/><linearGradient id="Безымянный_градиент_31" x1="403.78" y1="313.74" x2="425.23" y2="313.74" gradientTransform="matrix(1 0 0 -1 0 360)" gradientUnits="userSpaceOnUse"><stop offset="0"/><stop offset=".52" stop-color="#012242"/><stop offset="1" stop-color="#013f7c"/></linearGradient><radialGradient id="Безымянный_градиент_5" cx="235.41" cy="353.64" r="171.88" gradientTransform="matrix(1 0 0 -1 0 360)" gradientUnits="userSpaceOnUse"><stop offset="0" stop-color="#012a56"/><stop offset=".69" stop-color="#000e1c"/><stop offset="1"/></radialGradient><radialGradient id="Безымянный_градиент_11" cx="380.02" cy="273.91" r="103.81" gradientTransform="matrix(1 0 0 -1 0 360)" gradientUnits="userSpaceOnUse"><stop offset="0" stop-color="#012348"/><stop offset=".37" stop-color="#001224"/><stop offset=".61" stop-color="#000912"/><stop offset="1" stop-color="#00152a"/></radialGradient><radialGradient id="Безымянный_градиент_14" cx="354.5" cy="287.56" r="110.27" xlink:href="#Безымянный_градиент_11"/><radialGradient id="Безымянный_градиент_15" cx="519.35" cy="381.67" fx="498.779" r="83.88" gradientTransform="matrix(.83 .4 .38 -.79 -156.41 126.82)" gradientUnits="userSpaceOnUse"><stop offset="0" stop-color="#01305f"/><stop offset=".62" stop-color="#000b15"/><stop offset="1" stop-color="#000e1c"/></radialGradient><radialGradient id="Безымянный_градиент_16" cx="418.38" cy="319.51" r="43.38" gradientTransform="matrix(1 0 0 -1 -.4 360)" gradientUnits="userSpaceOnUse"><stop offset="0" stop-color="#01407e"/><stop offset="1" stop-color="#000d1a"/></radialGradient><radialGradient id="Безымянный_градиент_19" cx="501.3" cy="389.49" r="19.81" gradientTransform="matrix(.83 .4 .38 -.79 -156.41 126.82)" gradientUnits="userSpaceOnUse"><stop offset=".03" stop-color="#013f7c"/><stop offset=".18" stop-color="#013364"/><stop offset=".54" stop-color="#00172e"/><stop offset=".82" stop-color="#00060d"/><stop offset=".96"/></radialGradient><radialGradient id="Безымянный_градиент_20" cx="528.93" cy="312.9" r="14.86" gradientTransform="matrix(.83 .4 .38 -.79 -156.41 126.82)" gradientUnits="userSpaceOnUse"><stop offset="0" stop-color="#011a35"/><stop offset="1"/></radialGradient><radialGradient id="Безымянный_градиент_21" cx="535.92" cy="355.14" r="13.05" gradientTransform="matrix(.83 .4 .38 -.79 -156.41 126.82)" gradientUnits="userSpaceOnUse"><stop offset="0" stop-color="#012348"/><stop offset=".61" stop-color="#001224"/><stop offset="1" stop-color="#000912"/></radialGradient><radialGradient id="Безымянный_градиент_22" cx="529" cy="355.46" r="6.58" gradientTransform="matrix(.83 .4 .38 -.79 -156.41 126.82)" gradientUnits="userSpaceOnUse"><stop offset="0" stop-color="#ffd800"/><stop offset="1" stop-color="#d6681f"/></radialGradient><radialGradient id="Безымянный_градиент_23" cx="534.69" cy="347.15" r="24.82" gradientTransform="matrix(.83 .4 .38 -.79 -156.41 126.82)" gradientUnits="userSpaceOnUse"><stop offset="0" stop-color="#01407e"/><stop offset=".21" stop-color="#012e5b"/><stop offset=".52" stop-color="#00152b"/><stop offset=".68" stop-color="#000c19"/><stop offset="1" stop-color="#00152a"/></radialGradient><radialGradient id="Безымянный_градиент_25" cx="251.31" cy="699.56" r="3.31" gradientTransform="matrix(0 -1.24 -1.15 0 1221.26 369.25)" gradientUnits="userSpaceOnUse"><stop offset="0" stop-color="#013369"/><stop offset="1"/></radialGradient><radialGradient id="Безымянный_градиент_28" cx="183.91" cy="75.93" r="78.97" xlink:href="#Безымянный_градиент_11"/><radialGradient id="Безымянный_градиент_29" cx="361.01" cy="228.54" r="142.7" gradientTransform="matrix(.75 .18 .15 -.95 -70.97 322.43)" xlink:href="#Безымянный_градиент_11"/><radialGradient id="Безымянный_градиент_30" cx="185.23" cy="1.28" r="67.25" gradientTransform="matrix(.76 -.04 -.05 -.84 23.06 332.2)" gradientUnits="userSpaceOnUse"><stop offset="0" stop-color="#013063"/><stop offset=".67" stop-color="#001021"/><stop offset="1"/></radialGradient></defs><path d="M329.43 156.84c6.69 16.47 14.84 20.33 25.1 17.4 5.67-1.61 8.67 10.72 7.67 13.72s-15.15 1-19.25 1.34c-9.3.75-47.58-35.16-13.52-32.46z" fill="url(#Безымянный_градиент)"/><path d="M301.37 163.12c4.27-12.1 16.34-17 31.42 8.61 6.51 11 17.78 2.12 22.41 6.12 3.08 2.67 2.8 10.89 1.33 11.67l-27.1.13c-4.06-8.79-30.06-20.87-28.06-26.53z" fill="url(#Безымянный_градиент_2)"/><path d="M269.46 179.86C258 196.34 228.08 229.72 228.08 242c0 22-26.92 10.81-24.8 5.55 2.61-6.51 6.39-18.7 6.76-41 .41-24.85 75.71-50.14 59.42-26.69z" fill="url(#Безымянный_градиент_3)"/><path d="M236.26 281.54c-9.59-.45-9.61-7-30.52-26.87-13.33-12.7 22.32-14.89 22.34-12.7s-.35 15.49 15.53 26c8.99 5.91 2.24 14.03-7.35 13.57z" fill="url(#Безымянный_градиент_4)"/><path d="M419.61 61.36c2-3.44 6-6.35 3.31-12.42s-5.27-10.08-18.5-20.88c-5.8-4.72-15.41-12.17-31.09-10.46-7.22.79-20.78 10.46-38.27 19.11-10.29 5.17-45.47 14.86-50.55 23.79-53.45 76.47-84.28 64.76-105 80.76-24.19 3.9-2.73 99.49 9 99.88s52.67-51.89 101-65.16a146 146 0 0023.31-8.51c25-11.71 44.53-32.15 55.11-66.4a39.28 39.28 0 017.35-16.17c2.52-2.45 6.88-5.5 11.87-3.71 7.84 2.82 18 9.14 25.8 3.34s9.29-9.62 9.29-9.62 2.21-1.4.65-4.15c-1.89-3.45-4.89-6.67-3.28-9.4z" fill="url(#Безымянный_градиент_5)"/><path d="M243.61 267.94c10.1-6.34 15.68-2.16 17.69 4.43 2.13 7-11 6.65-17 5.76s-.69-10.19-.69-10.19z" fill="url(#Безымянный_градиент_6)"/><path d="M230.78 279.5c1.84 4.89 24.75 3.07 27.7 1.29s.37-9.78-5.17-9.77-24.38 3.59-22.53 8.48z" fill="url(#Безымянный_градиент_7)"/><path d="M186.08 133.65s-46.3 6.29-69 69.72C90.18 278.67 30.09 307.54 7.85 304c-16.43-2.59-4.68 20.63 13.26 23s53.85-9.27 90.53-72.87c11.17-19.37 24.19-92.51 66.71-96.8 18.83-1.9 7.73-23.68 7.73-23.68z" fill="url(#Безымянный_градиент_8)"/><path d="M440.44 105.94s4.25-4.12 6.37-2.36c1.23 1 6.22 8.72 5.32 10.83a7.11 7.11 0 01-4.35 3.79c-3.41.57-7.34-12.26-7.34-12.26z" fill="url(#Безымянный_градиент_9)"/><path d="M444.22 121.7a21.71 21.71 0 006.73-1.92c2.82-1.26-3.15-11.77-4.77-12.44s-5.8 1.48-6.93 3.23 1.75 10.76 4.97 11.13z" fill="url(#Безымянный_градиент_10)"/><path d="M436.89 109.83a3.45 3.45 0 014.86.43 3.68 3.68 0 01.48.75c2.18 3.67 8.83 10.72 5.85 12.55-8.11 5-22.72-7.52-38.78-5.76-8.73 1-39.39 23.27-58.39 30.25-12.19 4.48-16.37 2.64-24.24 4.16-10.49 2-12.35 2.29-11.14-2.55s14.71-32.75 20.24-35.21c16.27-7.24 40.94-7.24 58.44-12.92 9.61-3.12 14.77-5.79 18.09-4.69 5.5 1.82 24.59 12.99 24.59 12.99z" fill="url(#Безымянный_градиент_11)"/><path d="M349.77 103.14s5 9.39 44.44-1.61c0 0 13.83 5.68-57 27.66-8.89 2.81 12.56-26.05 12.56-26.05z" fill="url(#Безымянный_градиент_12)"/><path d="M411.75 96.71c-1.88 1-3.6 3.62.29 8.4 3.56 4.37 6.45 7.79 26.87 9 8.38.51 8.06-10 6.57-11-3.42-2.44-10.93 1.67-20-1.23-4.4-1.38-12.64-5.74-13.73-5.17z" fill="url(#Безымянный_градиент_13)"/><path d="M291.37 50.26c-28.15 11.43-14.44 88.27 24 102.7 6.84 2.57 35-28.93 36.71-45.75 5.52-54.78-40.42-65.21-60.71-56.95z" fill="url(#Безымянный_градиент_14)"/><path d="M354.71 64.86c-6.49-12.34 15.93-33.26 29.41-36 12.54-2.59 16.69 9.07 22.92 23.53 2 4.56 12 14.67 4.29 25.35-3.33 4.52-46.15 7.05-56.62-12.88z" fill="url(#Безымянный_градиент_15)"/><path d="M397.06 22.19c-8.27-5.21-24 4.42-13.82 5.87 5.22.75 11.75-1.2 21.2 21.3 1 2.3 10.72 2.2 15.56 0-.81 4.92-1.69 11.32-.67 13.61 1.58 3.55.05 6.73 1.23 9.28s2.87 3.48 2.9 0-4.76-7.46-.54-13.39c9.54-13.29-21.38-33.86-25.86-36.67z" fill="url(#Безымянный_градиент_16)"/><path d="M403.57 25.6s3.25-11.29 4.35-13.57-5.43-.45-8.19 3.88 3.84 9.69 3.84 9.69z" fill="url(#Безымянный_градиент_17)"/><path d="M404.42 28.06c-4-9.07-.15-18.81-.37-24.38-.18-4.53-2.18-4.2-4.3-2.59C389.47 9 374 14.62 371.27 20.15c-.95 2 1.64 6.48 12.85 8.66 0 0-.72-16.12 20.3-.75z" fill="url(#Безымянный_градиент_18)"/><path d="M404.42 28.06c-2.31-10.62.05-22-.43-25.08-.16-.88-.26-3.41-1.8-1.69a45.44 45.44 0 01-6 6.4c-7 6.11-10.48 14.76-10.64 15.94 2.99-3.25 8.95-3.29 18.87 4.43z" fill="url(#Безымянный_градиент_19)"/><path d="M400.9 79.21c-3.72-1.56-20.79 1.73-16.77 1.45s11.33 4.19 17.37 5.77c9.41 2.46 11.52-1.9 11.52-1.9s.84.15-12.12-5.32z" fill="url(#Безымянный_градиент_20)"/><path d="M403.8 50.28s12-2.14 15.66-3.19c2-.56 4.33 4.73 3.14 9.76-.57 2.45-3.88 4.24-3.32 6.15 1.4 4.76 2.79 8.36 1.48 10-.76 1-14.56-23.44-16.96-22.72z" fill="url(#Безымянный_градиент_21)"/><path d="M410.59 53.77a46.44 46.44 0 016.7-1.43c1-.13 2.17 6.1-2.82 9a36.34 36.34 0 01-4-6.38c-.19-.69-.26-1.11.12-1.19z" fill="url(#Безымянный_градиент_22)"/><path d="M410.59 53.77s-7.3-5.5-7-2.86c.57 5.15 2.57 6.87 3.46 12.78.79 5.23-20.1 16.07 7.07 21.09 1.53.28 7.95-4 8.2-7.09a52.32 52.32 0 00-8.72-17.55c-1.98-2.66-3.77-6.14-3.01-6.37z" fill="url(#Безымянный_градиент_23)"/><path d="M420.52 72.28c1-.61 2.38.59 2.9 0a2.16 2.16 0 011.66 2c0 1.4-2.77 3.37-2.77 3.37s-3.31-4.46-1.79-5.37z" fill="url(#Безымянный_градиент_24)"/><ellipse cx="416.35" cy="55.49" rx="3.29" ry="1.53" transform="rotate(-82.74 416.35 55.49)" fill="url(#Безымянный_градиент_25)"/><path d="M132.4 340.85s6.52-.92 8.56-.47 9.43 7.38 6.61 9.93-3 .29-8.06.45-12.29-2.85-7.11-9.91z" fill="url(#Безымянный_градиент_26)"/><path d="M132.76 354.49s6.67 1.9 11.08-.6-4.55-9.36-6.15-11-12.58.68-12.58.68 1.05 10.29 7.65 10.92z" fill="url(#Безымянный_градиент_27)"/><path d="M163.21 190.4s-31.67 91.16-44.91 103c0 0 5.13 11.28 13.89 16.73-7.8 8.13-8.06 35.44-6.45 36.23 2.08 1 8.69 1.79 6.66-7.71S141 309 141 309c7.5-11.6 23.45-38.58 47.46-60.1 7.8-6.99-15.78-69.25-25.25-58.5z" fill="url(#Безымянный_градиент_28)"/><path d="M243.61 163.6c6.69 20.85-14.31 66.83-55.19 85.33-20.34 9.21-36.42-35.74-28.42-66.74 13.83-53.43 58.85-95.69 83.61-18.59z" fill="url(#Безымянный_градиент_29)"/><path d="M136.74 357.67s5.9-10.41-8.38-13.19c-4.61-.89 11.38-27.63 9.59-38.84s-22.08-20.28-20.74-7.28c1.07 10.46 1.51 21.31-3.7 36.85s3.89 24.08 23.23 22.46z" fill="url(#Безымянный_градиент_30)"/><path d="M403.8 50.28s17.09-2.67 20.51-.09c0 0 3.07-6.23-2-7.82-3.31-1.05-19.17 4.81-18.51 7.91z" fill="url(#Безымянный_градиент_31)"/></svg>