<svg baseProfile="tiny" height="512" viewBox="0 0 512 512" width="512" xmlns="http://www.w3.org/2000/svg"><path d="M34.317 126.054c-44.877 64.496-39.286 148.409-5.01 216.945.816 1.644 1.67 3.259 2.513 4.88.537 1.02 1.044 2.072 1.603 3.08.314.607.669 1.199.998 1.779.586 1.095 1.182 2.131 1.79 3.199a293.431 293.431 0 003.272 5.606c.618 1.025 1.228 2.05 1.865 3.074a247.475 247.475 0 003.799 5.943c.54.841 1.065 1.682 1.619 2.494a280.153 280.153 0 005.498 7.944c.049.065.103.136.158.201.298.423.629.835.93 1.253a276.773 276.773 0 005.01 6.669c.626.798 1.261 1.6 1.89 2.402a337.143 337.143 0 004.631 5.693c.588.705 1.177 1.415 1.771 2.109a299.43 299.43 0 006.456 7.375c.038.044.089.093.13.136.089.103.168.168.247.266a318.784 318.784 0 006.562 6.925 232.15 232.15 0 002.101 2.12 385.72 385.72 0 005.238 5.135c.718.678 1.429 1.377 2.142 2.033a260.929 260.929 0 007.177 6.529c.043.043.073.076.114.092.412.369.84.722 1.247 1.063a353.295 353.295 0 006.521 5.515c.895.721 1.8 1.437 2.701 2.152a284.346 284.346 0 005.436 4.246c.965.737 1.933 1.475 2.906 2.213a306.807 306.807 0 006.098 4.37c.749.542 1.472 1.062 2.224 1.578.206.146.396.298.607.438a266.916 266.916 0 005.921 3.916c.854.568 1.703 1.154 2.565 1.707a373.512 373.512 0 009.272 5.684c.852.482 1.708.96 2.562 1.442a298.706 298.706 0 006.96 3.904c1.266.683 2.57 1.328 3.847 1.979 1.659.873 3.302 1.751 4.983 2.586.382.195.778.38 1.155.559.672.325 1.355.646 2.036.987a345.542 345.542 0 007.89 3.654c.567.249 1.112.499 1.673.743a270.489 270.489 0 009.208 3.834c.743.298 1.494.585 2.243.884a328.57 328.57 0 008.684 3.216c.371.13.727.249 1.092.373 3.202 1.123 6.434 2.158 9.69 3.173.775.228 1.556.478 2.337.705 3.313.997 6.583 2.185 10.005 2.819 217.021 39.574 280.061-130.418 280.061-130.418-52.942 68.976-146.924 87.174-235.967 66.914-3.376-.759-6.646-1.811-9.938-2.787a235.25 235.25 0 01-2.48-.753 302.496 302.496 0 01-9.568-3.112c-.434-.152-.873-.314-1.315-.473a292.113 292.113 0 01-8.438-3.129c-.789-.314-1.578-.612-2.364-.927a263.548 263.548 0 01-9.11-3.79c-.621-.261-1.212-.537-1.819-.809a352.768 352.768 0 01-7.689-3.568c-.732-.357-1.47-.704-2.218-1.067-1.996-.971-3.975-2.007-5.943-3.021-1.32-.694-2.662-1.355-3.966-2.077a236.132 236.132 0 01-7.123-3.996c-.8-.45-1.605-.879-2.408-1.34a339.195 339.195 0 01-9.278-5.688c-.843-.536-1.67-1.111-2.502-1.664a236.092 236.092 0 01-6.6-4.393c-.721-.477-1.42-1.008-2.128-1.491a341.353 341.353 0 01-6.242-4.511c-.933-.689-1.857-1.405-2.765-2.094-1.89-1.447-3.771-2.9-5.631-4.403a356.346 356.346 0 01-2.511-2.012 336.11 336.11 0 01-7.014-5.905c-.241-.217-.504-.423-.767-.645a338.34 338.34 0 01-7.372-6.708c-.705-.672-1.388-1.323-2.077-2.001a212.52 212.52 0 01-5.297-5.189c-.694-.694-1.394-1.383-2.077-2.071a294.084 294.084 0 01-6.501-6.881c-.106-.114-.217-.217-.32-.342a261.809 261.809 0 01-6.594-7.505 914.494 914.494 0 00-1.727-2.05 274.104 274.104 0 01-4.742-5.867 122.826 122.826 0 01-1.744-2.164 333.097 333.097 0 01-5.482-7.299c-49.439-67.423-67.2-160.431-27.689-236.813"/><path d="M173.617 71.714c-32.454 46.705-30.691 109.215-5.376 158.61 4.246 8.28 9.018 16.311 14.356 23.962 4.861 6.968 10.249 15.259 16.701 20.854a197.69 197.69 0 007.283 7.56c.632.651 1.277 1.264 1.922 1.903 2.421 2.343 4.888 4.658 7.437 6.903.105.087.198.189.304.26.027.032.054.044.07.076 2.82 2.468 5.731 4.848 8.689 7.185.656.499 1.307 1.025 1.971 1.54 2.963 2.272 5.987 4.512 9.088 6.638.092.064.171.13.263.206 1.367.938 2.763 1.821 4.146 2.728.667.434 1.299.895 1.969 1.301a188.127 188.127 0 006.735 4.127c.322.201.64.363.952.548a243.601 243.601 0 005.957 3.329c.697.396 1.407.737 2.118 1.106 1.38.722 2.76 1.453 4.167 2.158.203.098.423.195.626.282a199.878 199.878 0 008.692 4.045c.627.276 1.277.525 1.92.791a220.67 220.67 0 007.117 2.891c1.014.385 2.039.748 3.053 1.123 2.166.803 4.347 1.539 6.54 2.277.992.314 1.965.64 2.958.943 3.12.965 6.203 2.19 9.456 2.732 167.56 27.764 206.247-101.25 206.247-101.25-34.875 50.212-102.405 74.186-174.468 55.478a203.755 203.755 0 01-9.486-2.744c-.96-.292-1.903-.607-2.853-.922a199.038 199.038 0 01-6.64-2.287c-1.006-.364-2.01-.732-2.996-1.112a222.847 222.847 0 01-7.145-2.885c-.643-.276-1.296-.521-1.925-.813a208.238 208.238 0 01-8.744-4.056c-1.478-.728-2.928-1.491-4.381-2.234-.841-.439-1.687-.873-2.53-1.307a208.727 208.727 0 01-5.55-3.129c-.431-.249-.884-.482-1.323-.749a215.246 215.246 0 01-6.719-4.099c-.683-.439-1.339-.911-2.022-1.356a257.978 257.978 0 01-4.352-2.879c-3.088-2.125-6.095-4.359-9.056-6.626-.683-.537-1.369-1.063-2.039-1.6-31.546-24.906-56.543-58.943-68.43-97.53-12.458-40.029-9.776-84.95 11.808-121.411"/><path d="M290.774 31.116c-19.131 28.154-21.01 63.119-7.735 94.217 13.998 33.007 42.684 58.9 76.168 71.171 1.38.515 2.757.976 4.159 1.448.609.19 1.214.396 1.832.575 1.972.623 3.932 1.345 5.971 1.729 92.52 17.878 117.615-47.48 124.296-57.1-21.986 31.651-58.925 39.249-104.254 28.252-3.582-.879-7.519-2.169-10.968-3.395a133.788 133.788 0 01-13.024-5.406 135.34 135.34 0 01-22.835-13.931c-40.558-30.778-65.759-89.488-39.291-137.305"/></svg>